<?xml version="1.0" encoding="UTF-8"?>
<svg id="Layer_1" xmlns="http://www.w3.org/2000/svg" version="1.1" viewBox="0 0 1269.75 1003.5">
  <!-- Generator: Adobe Illustrator 30.0.0, SVG Export Plug-In . SVG Version: 2.1.1 Build 123)  -->
  <defs>
    <style>
      .st0 {
        fill: #010101;
      }

      .st1 {
        fill: #6e6f72;
      }

      .st2 {
        fill: #f7f7f6;
      }

      .st3 {
        fill: #90863f;
      }

      .st4 {
        fill: #ef1f27;
      }
    </style>
  </defs>
  <path d="M698.59,606.3v41.97l5.99-6.38c14.6-15.48,36.96-2.31,27.74,17.62h50.6c.96,0,3.73-2.85,4.28-3.96,2.81-5.75.98-16.93,10.76-18.47,25.34-3.98,25.22,37.75,1.22,30.15-3.53-1.12-6.12-4.62-6.52-4.73-.72-.19-4.06,3.22-5.82,3.91-5.76,2.26-44.76,2.13-52.62,1.33-3.26-.33-7.07-2.88-8.23-2.94-1.72-.09-6.66,2.62-9.78,2.94-12.72,1.29-27.45-.9-40.38-.04-2.72,9.15-9.65,13.35-18.56,15.3-6.29,1.37-12.83,3.71-11.13-5.14.58-3,3.82-1.53,6.28-1.96,5.69-1,12.56-2.16,15.44-7.8l-8.41-2.81c-11.56-4.93-14.29-21.22-3.07-28.15,13.52-8.36,21.91,12.51,20.49,23.11,3.01-1.92,14.98,1.34,14.98-4.12v-49.46c0-1.63,5.28.17,6.75-.37ZM700.46,659.51c4.46-.22,9.02,0,13.49,0,1.38,0,8.49-2.05,9.9-2.84,5.24-2.92,3.8-10.33-1-12.8-8.57-4.41-18.16,8.78-22.78,14.34-.55.67-2.7.63-1.09,2.07.69-.07,1.26-.76,1.48-.77ZM670.1,659.5c-1.17-4.06-1.5-15.46-7.12-15.8s-8,6.65-4.89,10.95c2.07,2.86,8.55,4.81,12.01,4.85ZM808.53,658.52c5.45-5.96-3.39-17.94-10.67-12.54s3.66,20.2,10.67,12.54Z"/>
  <path d="M349.29,606.3v46.84c0,1.84,3.15,6.54,5.67,6.33,16.93-1.21,36.49,1.81,53.1-.03,9.05-1.01,19.63-6.58,28.18-9.67-.81-1.26-3.63-2.28-5.04-2.81-2.44-.92-12.07-3.92-14.06-3.92h-10.87v-8.25c10.16-.53,20.14,2.3,29.41,6.2,1.96.83,6.05,3.98,7.82,4.13s7.78-4.37,8.49-3.58c-.28,2.4.75,5.93-.69,7.92l-12.05,7.43c1.67,3.57,18.2,3,22.13,2.66,3.67-.31,28.77-7.94,28.82-10.14-5.54-3.4-13.41-5.63-19.86-6.36-5.94-.67-11.84,2.79-10.1-6.39.53-2.79,5.39-2.03,7.86-1.86,7.05.5,14.63,3.18,21.13,5.85,2.1.86,7.5,4.33,8.99,4.46,1.62.14,5.68-2.79,7.38-3.56,4.85,7.79-3.83,10.72-9.62,13.6-14.96,7.44-40.15,17.1-56.58,11.35-4.25-1.49-6.79-6.97-7.98-6.98-1.61-.02-12.67,5.12-15.76,6.01s-6.7,1.95-9.77,2.22c-11.81,1.05-38.61,1.32-50.13-.07-5.89-.71-10.56-4.3-12.61-9.88-.26-.7-1.34-4.32-1.34-4.65v-46.84h7.5Z"/>
  <path d="M975.17,764.05c2.48,12.32,27.06,3.75,34.67.93,2.9-1.07,5.59-2.66,8.31-3.74.8-.32,4.49.59.78-1.96-6.83-4.69-20.66-5.52-28.76-6.09v-7.5h10.87c2.32,0,9.24,2.27,11.82,3.17,3.9,1.37,11.92,6.43,14.74,6.96,1.79.34,7.55-4.22,8.3-3.39-.21,2,.36,4.44-.01,6.35-.76,3.92-10.57,5.14-11.97,9,.71,3.09,15.53,2.86,18.4,2.67,11.55-.75,20.23-5.11,30.57-9.21.8-.32,4.49.59.78-1.96-6.71-4.61-20.77-5.51-28.76-6.09v-7.5h10.87c4.13,0,14.41,4.3,18.63,6.1,1.73.74,6.92,4.09,7.73,4.23,1.58.28,7.74-4.41,8.48-3.59-.29,3.64,1.31,6.46-1.99,8.87-7.39,5.41-30.81,14.52-39.96,16.26-7.07,1.34-22.2,2.34-28.14-1.9-2.13-1.52-3.2-4.98-3.45-5.16-.93-.68-18.37,6.18-21.77,6.91-9.25,1.99-20.73,2.63-25.5-7.24-.39-.81-2.11-5.69-2.11-6.13v-46.47c0-1.63,7.5-1.63,7.5,0v46.47Z"/>
  <path d="M879.98,653.89c.32,1.46,4.4,5.89,6.33,5.66l84.39-.39c8.53-3.57,3.93-9.05-.76-13.52-3.71-3.54-17.02-12.32-17.61-16.74s4.13-7.34,7.35-9.24c7.85-4.63,17.83-7.53,25.63-12.6,1.52-.21.97.06,1.1,1.09.28,2.1.54,6.46-1.2,7.81-2.86,2.21-25.01,10.86-25.02,12.44,5.96,7.45,21.18,14.01,22.3,24.2.93,8.52-5.11,13.95-13.02,15.07-26.29-1.6-55.68,2.43-81.61.07-7.79-.71-15.87-6.32-14.63-14.97-7.06,4.94-17.84,7.47-23.56-.8-4.73-6.85-2.59-15.26,4.3-19.58,5.33-3.34,17.17-5.1,23.42-5.14,1.16,0,1.91.15,2.59,1.16,1.07,7.24-1.44,18.82,0,25.48ZM872.48,634.78c-3.75-.11-8.06.06-11.55,1.57-8.61,3.73-7.51,15.51,4.1,13.08.81-.17,7.45-3,7.45-3.41v-11.24Z"/>
  <path d="M456.48,716.46v44.59c0,4.17,3.28,9.28,7.94,9.3,18.97-1,39.67,1.56,58.43.09,28.15-2.2-11.92-23.47-13.74-29.8-1.12-3.91,1.62-6.64,4.57-8.6,8.21-5.43,20.44-9.52,29.37-14.1.59,0,.98,7.47-.7,8.29l-24.7,11.89c-.77.09-.59,1.39-.39,1.87.56,1.3,13.35,10.6,15.69,12.8s5.41,4.92,6.37,7.87-.1,6.22,3.07,8.17c3.76,2.32,14.4,2.49,17.56-1.01.48-.53,2.22-4.13,2.22-4.53v-13.86c1.93.28,6.68-.93,7.39,1.23,1.14,3.48-.73,16.98-2.6,20.43-4.83,8.94-19.3,9.01-27.55,5.22-.9-.41-1.74-1.93-2.47-2.06-.39-.07-4.83,2.68-6.4,3.16-8.74,2.65-54.65,2.28-65.36,1.17-5.91-.61-10.74-2.69-13.51-8.22-.37-.73-1.95-5.16-1.95-5.55v-48.34h6.75Z"/>
  <path d="M355.29,749.44c9.2-1.39,7.95,2.6,7.49,10.11-.57,9.44-3.67,18.5-14.64,19.13-5.57.32-9.47-3.75-11.22-3.75-2.33,0-6.03,4.61-13.43,3.68-3.52-.44-10.56-5.15-11.17-5.06-.97.15-4.43,3.35-6.49,4.02-6.23,2.01-41.61,1.9-47.76-.24-2.87-1-4.77-3.87-5.09-3.89-.27,0-2.66,2.67-4.08,3.4-6,3.1-12.52,1.78-18.74.36-1.92,8.78-9.11,15.23-17.84,17.03-.82.17-6.19.92-6.51.84-1.75-.41-1.66-6.97-.46-7.81.88-.62,7.74-1.38,10.29-2.45,8.33-3.49,9.64-11.27,7.02-19.29-.75-2.29-3.03-5.25-3.47-7.05-.52-2.18,5.71-1.87,7.18-1.16,3.63,1.75,2.43,12.62,12.39,13.15,4.44.24,8.67-1.23,10.01-5.73,1.97-6.61-2.95-9.63,7.58-8.55.23,7.24.04,13.29,8.61,14.25,8.77.98,27.79.78,36.76.02,9.92-.83,7.48-6.1,7.84-14.27,1.18.19,6.5-.26,6.75,0,.49.52-.45,10.07,4.55,13.06,2.36,1.41,4.86,1.39,7.48.84,8.41-1.74,4.95-12.91,5.95-13.91.24-.24,6.52-.24,6.75,0,.45.45-.43,9.4,2.23,12.39,3.81,4.28,12.01.47,12.01-4.51v-14.61Z"/>
  <path d="M537.43,649.01h7.5c-1.61,7.66-.9,13.79,7.63,15.98,6.83,1.75,20.94,1.38,27.75-.46,13.17-3.56-2.18-7.34-4.99-11.8-3.92-6.22,2.91-13.75,9.14-14.77,15.7-2.58,17.2,20.49,29.02,21.59,8.27.77,20.6-.12,22.9-9.77-15.48,5.51-27.74-10.94-15.77-22.9,8.72-8.7,18.5-1.25,21.39,8.65,6.53,22.3-8.09,35.02-29.92,32.16-13.39-1.75-15.36-21.01-24.81-21.72-2.49-.19-6.64.68-5.53,4.06.94,2.86,15.82,5.03,9.98,15.42-5.41,9.62-32.32,9.74-41.55,7.19-4.59-1.27-12.73-6.88-12.73-12.01v-11.62ZM628.68,631.16c-4.01.6-6.44,5.18-4.68,8.87,1.24,2.58,8.58,3.56,10.88,1.88,2.04-1.5-1.62-11.43-6.2-10.74Z"/>
  <path d="M1134.08,638.52c1.83.22,5.96-.86,6.64,1.23.51,1.54.33,12.65.04,14.82-1.2,9.13-9.1,14.53-18.12,13-2.14-.36-7.13-3.57-7.56-3.49s-2.33,2.08-4.05,2.72c-4.42,1.64-11.01,1.31-15.22-.88-1.4-.73-3.68-3.26-4.18-3.34-.65-.11-7.54,4.73-11.9,5.16-15.09,1.52-42.25.99-57.74.04-1.95-.12-3.54-.46-5.24-1.44-4.17,11.33-13.69,17.94-25.84,17.9v-7.82c11.19-.97,20.37-5,18.67-17.98-.55-4.18-3.35-7.7-4.43-11.67,1.82.37,6.94-.6,8.12.12,1.99,1.23,1.82,11.73,9.48,12.63l61.32-.18c8.34-1.84-2.16-16.31,9.16-14.08,2.87.57,1.5,3.16,2.07,5.42,1.68,6.76,4.12,10.45,12.02,8.65,7.2-1.64,5.08-13.38,5.77-14.08.26-.27,5.57.2,6.75,0-.31,6.53-.42,15.64,8.57,14.2,3.06-.49,5.67-4.25,5.67-7.07v-13.86Z"/>
  <path d="M129.67,606.3v43.09c0,2.33,1.96,8.01,4.21,9.28,2.9,1.65,11.85,1.34,14.58-1,3.74-3.2,2.49-11.95,2.95-12.41.24-.24,6.52-.24,6.75,0,.6.6-1.25,11.93,5.2,13.91,2.85.87,17.1.7,20.68.36,13.18-1.23,6.02-10.12.36-15.4-7.55-7.04-24.91-14.31-9.51-23.72,8.48-5.18,19.15-9.21,28.23-13.36-.37,1.8.6,6.98-.12,8.12s-20.49,9.17-23.63,11.22c-.72.47-2.3,1.29-2.44,2.1-.44,2.53,20.7,14.58,21.71,23.13.76,6.38-1.74,12.17-7.86,14.66-5.2,2.12-25.97,2.36-31.13.34-1.3-.51-4.6-3.23-4.89-3.23-.35,0-1.87,1.81-2.83,2.27-6.12,2.93-18.52,3.51-23.7-1.36-1.38-1.3-5.32-8.1-5.32-9.67v-48.34h6.75Z"/>
  <path d="M124.43,716.46v45.34c0,.27,1.41,4.63,1.66,5.09.93,1.77,3.04,2.82,4.98,3.13.48.08,5.44.35,5.82.33,3.57-.2,7.78-1.58,8.5-5.58.4-2.24-.97-7.75,1.27-8.48.73-.24,6.05-.33,6.27-.11.46.47-.84,9.43,3.01,12.35s13.15,2.84,16.06-1.14c.36-.49,1.91-3.83,1.91-4.09v-45.72c0-1.63,7.5-1.63,7.5,0v44.97c0,.98-1.38,5.88-1.88,7.12-4.28,10.58-23.23,12.11-29.98,3.76-4.84,6.56-18.86,6.58-25.07,2.57-2.26-1.46-6.78-7.97-6.78-10.46v-49.09h6.75Z"/>
  <path d="M574.17,795.15c.21-1.34-.32-7.93,0-8.23.62-.59,11.27-.18,15.74-5.62,6.43-7.81,1.08-16.4-1.51-24.36,2.04.31,5.82-.65,7.5.36,2.91,1.76,2.45,12.67,10.91,13.07,10.7.5,8.25-9.19,11.15-15.72,5.01-11.27,20.02-8.53,25.01,1.3,8.65,17.02-9.06,30.97-22.84,17.54-4,3.11-8.88,5.35-14.1,5.21-1.7-.04-5.16-1.65-5.98-1.44-.45.12-3.56,6.68-4.62,8.09-5.38,7.14-12.75,8.96-21.29,9.8ZM627.92,755.58c-7.09,1.55-5.31,14.66,3.01,15.44,11.3,1.05,7.7-17.77-3.01-15.44Z"/>
  <path d="M330.43,638.64c.67.41,1.28,4.89.74,5.75-1.4,2.26-9.71,1.32-12.23,1.63-8.96,1.1-21.42,4.36-22.17,15.32-.86,12.5,10.23,15.69,20.65,14.64,4.4-.44,8.19-2.66,12.37-3.74.74,7.7-.24,9.1-7.47,10.89-29.42,7.27-46.52-23.71-19.54-39.03l13.52-3.71c-6.75-2.95-14.44-3.07-21.73-3.38v-7.5c8.19-.65,15.68,1.2,23.23,4.14,3.04,1.18,6.01,3.37,8.99,4.51,1.17.45,3.03.09,3.64.47Z"/>
  <path d="M957.08,755.33c-.49.8-15.79,2.09-18.64,2.72-8.26,1.84-15.77,6.2-15.79,15.75-.02,15.92,23.1,15.68,32.66,8.64,4,7.51-.67,10.33-7.68,11.8-11.26,2.35-26.31-.37-30.54-12.58-6.36-18.34,8.92-28.53,25.1-30.34-6.71-3.14-14.44-3.51-21.75-3.37v-7.5c12.59-1.62,21.65,3.74,32.29,8.57,1.18.54,2.99.26,3.73.77.92.62,1.09,4.77.6,5.55Z"/>
  <path d="M113.18,841.25c.8-2.67,7.72-2.06,9.55-.19,4.07,8.79,6.64,18.44,10.61,27.24.4.88-.36,1.35,1.56,1.05l10.92-27.68c1.45-2.5,6.98-3.34,8.65-1.24,2.16,2.72-.23,30.62.68,36.05-.3,2.67-3.23,1.8-5.25,1.87v-32.23l-14.6,32.3c-1.75.03-3.56.1-4.48-1.6l-11.65-30.69v31.1c0,1.57-6,1.57-6,0v-35.97Z"/>
  <path d="M1117.59,786.91c10.43,0,23.24-1.99,23.23-14.98-15.93,8.57-28.2-12.65-14.61-23.23,10.22-7.96,18.95,2.77,21.15,12.57,3.85,17.16-2.57,30.17-20.46,33.08-1,.16-8.24.74-8.58.49-1.46-1.07-.45-6.06-.73-7.93ZM1136.11,754.92c-4.9-4-11.88,6.12-5.71,9.82,2.14,1.28,7.93,1.8,9.35-.28,1.22-1.78-2.15-8.32-3.64-9.54Z"/>
  <path d="M835.02,795.16c-2.06-9.16-1.22-7.16,5.41-8.45,8.56-1.67,17.02-3.48,17.06-14.03-8.64,3.14-19.51-.65-20.25-10.88-.64-8.85,7.78-18.62,17.04-14.74,10.75,4.5,12.96,24.49,9.06,34.09-4.62,11.38-17.6,13.07-28.32,14.03ZM849.79,754.06c-2.47.39-4.99,3.79-5.1,6.27-.23,5.51,8.32,6.88,12.07,4.47,1.53-.98-2.58-11.44-6.98-10.74Z"/>
  <path d="M385.27,786.91c10.64,0,22.92-1.94,23.23-14.98-16.15,8.83-28.46-13.37-14.18-23.56s22.43,12.57,21.67,23.92c-.91,13.7-9.19,20.11-22.17,22.04-1.03.15-7.5.74-7.82.51-1.46-1.07-.45-6.06-.73-7.93ZM403.79,754.92c-4.93-4.02-11.93,6.09-5.71,9.82,2.15,1.29,7.92,1.8,9.37-.28,1.1-1.58-2.27-8.41-3.66-9.53Z"/>
  <path d="M667.86,795.15v-8.24c10.56-.05,22.59-2.24,23.22-14.98-7.86,5.24-20.47-.67-20.93-10.22-.32-6.43,5.62-15.47,12.43-15.74,14.83-.6,17.7,24.31,13.9,34.72-4.42,12.07-17.49,13.31-28.62,14.47ZM683.35,754.13c-2.95.13-5.07,3.11-5.45,5.78-.74,5.17,8.05,7.7,11.71,4.88,1.95-1.5-2.25-10.84-6.26-10.67Z"/>
  <path d="M772.05,795.15v-8.24c10.43-.07,22.8-2.23,23.22-14.98-8.34,4.98-19.97-.26-20.54-10.38-.49-8.62,7.72-18.23,16.8-14.71,11.29,4.38,12.96,26.66,8.28,35.99-5.1,10.16-17.68,11.25-27.76,12.34ZM787.61,754.05c-6.53.64-7.62,11.06.64,11.84,11.91,1.13,3-12.2-.64-11.84Z"/>
  <path d="M767.55,763.3c-1.54,13.05-13.12,17.75-24.91,14.42-9.3-2.62-10.56-11.95-11.1-20.38-.67-10.54-.72-26.28,0-36.79.06-.92.23-3.87,1.28-4.12,1.63-.39,6.28-.48,6.25,1.9.93,13.8-1.23,29.14-.03,42.75.31,3.49,1.3,7.22,4.92,8.57,3.21,1.19,9.89,1.22,12.75-.7.75-.5,3.34-4.4,3.34-4.9v-13.49c0-1.63,7.5-1.63,7.5,0,0,3.93.44,9.02,0,12.74Z"/>
  <path d="M231.61,666.26c.19,8.52-8.73,14.96-16.47,16.88-8.26,2.04-8.87,1.85-8.27-7.15,12.78.17,20.8-5.26,18.7-19.06-.36-2.33-4.72-9.68-4.44-10.16,11.45-1.31,7.74,2.06,12.11,8.49,3,4.41,6.9,5.13,12.07,4.08,9.96-2.03,3.65-18.83,6.65-20.7,1.72-1.07,6.29-.71,6.67,2.48,2.38,19.74-6.6,31.19-27.02,25.15Z"/>
  <path d="M421.25,923.68c.59-3.63,7.38-2.26,4.49,2.24,1.67,1.6,1.52-1.03,2.59-1.88,4.66-3.74,12.07-3.16,15.04,2.25,3.77-5.41,13.53-6.71,16.77-.27.4.79,1.59,5.3,1.59,5.9v17.24c0,2.29-6,2.28-6,0v-18.74c0-7.17-11.24-2.72-11.24,0v19.11c0,.15-2.45,1.59-2.6,1.58-1.04-.04-3.39-1.12-3.39-1.96v-19.49c0-1.63-3.17-3.46-4.89-3.43-1.49.03-6.35,3.29-6.35,4.18v18.74c0,2.29-6,2.28-6,0,0-7.08-1.04-19.12,0-25.48Z"/>
  <path d="M745.06,878.34c-2.02-.08-4.95.8-5.25-1.87.5-3.55-.96-25.13.7-26.28,2.54-1.77,5.3.3,4.17,3.42,4.01-3.94,9.57-6.6,14.61-2.6,1,.79,1.55,2.61,1.9,2.61,1.85,0,4.98-5.31,11.17-4.48,2.87.39,7.18,4.36,7.18,7.09v20.98c0,1.53-5.25,1.53-5.25,0v-18.74c0-.33-1.41-3.13-1.8-3.44-3.37-2.62-9.55,1.52-9.85,4.9-.38,4.3,1.49,12.21.26,16.37-.89,3-5.84,2.25-5.84.9v-19.49c0-2.53-3.98-3.82-6.35-3.36-1.14.22-5.65,4.48-5.65,4.86v19.11Z"/>
  <path d="M699.22,854.25c-.65.41-2.04,0-2.88.11,1.3,5.04,1.45,9.62-3.36,12.74-4.15,2.69-12.29.5-12.37,1.12-.16,1.18-.18,2.8,1.24,3.25,2.95.94,8.08.02,11.69,1.07,10.54,3.07,6.64,14.91-2.87,16.22-5.95.82-16.39.31-16.1-7.79.11-3.17,2.78-4.3,2.97-5.37.15-.87-2.06-3.07-2.06-5.14,0-2.21,2-3.76,2.15-5.3.16-1.7-1.55-3.46-1.57-5.93-.07-6.65,5.44-10.34,11.7-10.18,1.59.04,11.15.82,11.64,1.14,1.17.77.43,3.68-.15,4.05ZM692.09,858.99c0-2.99-2.42-5.41-5.41-5.41s-5.41,2.42-5.41,5.41,2.42,5.41,5.41,5.41,5.41-2.42,5.41-5.41ZM682.62,876.99c-1.25.38-2.78,2.73-2.75,4,.1,4.8,16.32,5.36,14.1-2.11-.82-2.75-9.1-2.56-11.35-1.89Z"/>
  <path d="M1051.55,854.29c-1.04.74-3.55-.82-3.66-.68,5.16,11.01-4.57,17.61-14.99,14.24-.04,1.38-.36,3.13,1.23,3.63,5.03,1.59,16.73-1.65,17.54,7.23,1.22,13.45-22.36,11.94-24.43,5.67-1.95-5.89,2.46-8.05,2.45-9.42,0-.52-1.85-2.05-2.04-3.81-.32-2.93,1.95-4.35,2.09-6.05.19-2.35-2.6-4.59-.76-9.78,3.28-9.23,14.32-5.09,21.52-5.45,2.46-.27,1.94,3.79,1.05,4.42ZM1044.28,858.95c0-3.02-2.44-5.46-5.46-5.46s-5.46,2.44-5.46,5.46,2.44,5.46,5.46,5.46,5.46-2.44,5.46-5.46ZM1034.92,877c-2.03.58-3.39,3.39-2.7,5.36.98,2.81,16.23,3.95,14.03-3.49-.82-2.77-9.04-2.53-11.33-1.87Z"/>
  <path d="M1092.1,849.86c3.29-.14,4.95-.64,5.62,2.99,4.79-5.08,11.9-5.37,15.76.76,5.31-4.25,12.26-7.47,16.86-.38,2.02,3.12,2.04,18.32,1.53,22.52-.43,3.56-2.22,2.52-5.28,2.59v-19.11c0-.23-1.61-3.9-1.85-4.14-3.12-3.21-10.14,2.88-10.14,4.14v17.99c0,1.53-5.25,1.53-5.25,0v-18.74c0-3.76-4.7-5.26-7.91-3.41-.34.2-4.08,3.87-4.08,4.16v17.99c0,1.53-5.25,1.53-5.25,0v-27.35Z"/>
  <path d="M1008.9,922.94c.38-1.22,4.12-1.49,4.5-1.13s-.56,4.47.38,4.51c3.54-5.97,13.25-6.69,16.49-.02,6.38-7.15,16.98-6.76,18.28,4.22.32,2.67.48,17.44-.29,19.03-1.08,2.22-4.87,1.66-4.87.38v-16.49c0-3.32-2.24-7.73-6.19-7.01-9.47,1.74-4.22,16.73-5.95,22.59-.84,2.85-5.09,2.27-5.09.9v-16.49c0-3.92-2.78-8.53-7.3-6.56-8.46,3.69-2.9,15.6-4.85,22.14-.89,3-5.09,1.58-5.09,1.28v-27.35Z"/>
  <path d="M270.58,871.6c-.25-1.25-.4-2.13-.12-3.42.46-2.18,4.67-17,5.3-17.85.75-1.01,4.09-.88,5.31-.45l-7.89,26.93c-10.34,7.38-9.01-12.25-12.71-17.95-1.67,4.28-2.53,15-4.93,18.29-1.06,1.45-5.5,1.77-6.57,1.08-1.25-.8-7.59-24.87-8.35-28.37,1.68.15,4.5-.62,5.64.73,2,2.39,4.36,17.87,5.98,21.75,1.1.02,4.03-18.91,5.68-21.3,1.02-1.48,3.91-2.28,5.18-.83,1.81,2.05,4.53,15.99,5.6,19.54l1.9,1.84Z"/>
  <path d="M928.7,877.22c-.41,1.35-3.36,1.5-4.53.78-1.54-.94.64-2.62-.34-3.39-14.18,11.02-22.67-1.62-19.53-16.53,1.8-8.56,12.74-12.36,18.78-5.21,1.22-.56-.38-1.75-.38-1.87v-12.74c0-1.57,6-1.57,6,0v38.97ZM913.49,854.52c-5.78,1.73-6.63,21.13,3.55,19.3,6.41-1.15,6.62-9.44,5.65-14.57-.65-3.43-5.81-5.75-9.2-4.73Z"/>
  <path d="M688.84,949.17c-.94,3.36-6.46,1.74-4.87-2.62-13.58,11.55-22.15-.44-19.69-15.19,1.53-9.13,11.63-13.21,18.2-6.55,2.46.12.36-1.53.36-1.87v-12.74c0-1.57,6-1.57,6,0v38.97ZM674.41,926.44c-7.75,1.55-6.57,25.27,4.63,18.91,4.61-2.62,4.47-8.7,3.85-13.46-.46-3.48-5.13-6.12-8.48-5.45Z"/>
  <path d="M737.74,950.11c-1.1-1.13-3-9.44-3.63-9.61l-15.18.15c.14,2.79-5.73,15.61-8.74,8.91-.81-1.81,12.22-32.72,13.23-37.4,2.27.03,5.95-1.06,7.27,1.14l12.54,35.43c.23,2.64-4.1,2.79-5.5,1.37ZM732.32,936.05c-1.25-5.14-2.94-10.26-4.57-15.29-.27-.83-.24-1.81-1.42-1.94l-6.01,17.24h11.99Z"/>
  <path d="M415.9,950.94c-6.68,1.68-5.61-6.73-8.07-9.93-.48-.63-15.15-.91-15.74-.39-1.25,1.08-1.54,14.85-8.25,9.18l13.92-37.61c3.45-.32,4.84-1,6.67,2.08,5.02,8.49,6.88,23.89,12.04,33l-.56,3.66ZM394.27,936.05h11.99l-5.63-17.24c-1.36-.21-1.23.75-1.56,1.49-.69,1.56-5.4,15.19-4.81,15.75Z"/>
  <path d="M292.33,922.94c.75-2.44,6.41-1.35,5.62,2.62,6.41-6.81,17.3-4.74,18.94,5.05,2.3,13.76-5.51,27.26-19.31,16.68v12.37c0,3.07-5.25,1.44-5.25,1.12v-37.85ZM299.34,943.28c12.58,13.79,18.25-20.32,4.21-16.63-6.9,1.81-8.17,12.29-4.21,16.63Z"/>
  <path d="M1056.88,922.94c.38-1.22,4.12-1.49,4.5-1.13.44.42-.63,3.78.37,4.5,1.61-1.52,2.73-3.29,5-4,23.55-7.32,17.55,42.68-4.62,24.98v12.37c0,3.07-5.25,1.44-5.25,1.12v-37.85ZM1068.68,926.45c-10.37,1.99-8.44,20.18,1.33,20.02,7.94-.13,8.97-22-1.33-20.02Z"/>
  <rect x="191.89" y="716.41" width="7.5" height="62.31"/>
  <path d="M619.13,842c.64-3.54,8.69-2.87,11.61-2.61,9.21.83,14.28,6.25,12.06,15.78-1.85,7.93-10.78,9.12-17.67,8.94v13.12c0,1.57-6,1.57-6,0v-35.22ZM625.13,844.62v14.24c6.12.29,11.98.4,12.06-7.11.08-7.99-5.79-7.37-12.06-7.12Z"/>
  <path d="M977.42,864.1v13.12c0,1.57-6,1.57-6,0v-35.22c0-4.02,11.99-2.64,14.73-1.98,7.14,1.71,10.43,7.23,8.93,14.39-1.81,8.63-10.07,9.82-17.66,9.7ZM977.42,858.86c15.94,2.78,16.85-17.37,0-14.24v14.24Z"/>
  <rect x="874.73" y="716.46" width="6.75" height="62.24"/>
  <rect x="372.49" y="716.43" width="6.78" height="62.28"/>
  <rect x="655.11" y="716.46" width="6.75" height="62.27"/>
  <path d="M200.51,912.07c1.1.34,1.75,3.07.69,3.83-2.4,1.7-16.06-.58-16.06,1.79v10.87c.55.2.9-.75,1.12-.75h11.99c1.33,0,1.77,3.95-.34,4.85-1.02.44-12.78-1.73-12.78.77v11.24c0,.08,1.04,1.12,1.12,1.12h14.24c1.49,0,1.49,4.5,0,4.5h-19.49c-.08,0-1.12-1.04-1.12-1.12v-35.97c0-.08,1.04-1.12,1.12-1.12,3.89,0,16.93-.78,19.49,0Z"/>
  <path d="M508.95,837.12v22.11c0,.42-1.36,1.3.74,1.87,1.15-1.93,7.56-10.19,9.02-10.85,1.87-.84,4.03-.26,5.98-.39,1.72,1.68-9.29,10.56-10.48,12.36,2.28,3.2,10.79,11.68,11.24,14.99.28,2.03-4.11,1.24-5.24.73-3.02-1.34-7.78-11.48-10.5-13.49-.86-.63-1.13.29-1.14,1.14,0,.12.39.25.39.37v11.24c0,1.32-4.19,1.25-5.25,1.12v-40.84c0-1.7,4.1-.9,5.25-.37Z"/>
  <path d="M969.92,920.31c-15.32-11.7-26,5.59-19.4,19.78,4.02,8.64,13.7,6.13,20.15,1.96,1.77,4.15-.71,6.45-4.51,7.84-27.15,9.98-31.98-36.2-7.76-38.5,5.24-.5,15.23,1.85,11.52,8.92Z"/>
  <path d="M120.48,921.98c1.92-.35,5.41-.43,7.34-.19,13.48,1.66,13.4,26.15.4,28.91-21.81,4.63-21.92-26.13-7.74-28.72ZM121.96,926.47c-7.5,1.71-8.01,21.5,3.52,20.06,9.04-1.13,10.07-23.15-3.52-20.06Z"/>
  <path d="M268.15,921.99c1.99-.34,5.35-.44,7.33-.2,14.38,1.77,14.61,31.34-6.02,29.24-14.91-1.52-14.32-26.85-1.31-29.05ZM269.62,926.47c-7.64,1.74-8.12,21.52,3.52,20.06,9.05-1.14,10.06-23.16-3.52-20.06Z"/>
  <path d="M172.95,849.3c19.78-3.42,21.42,24.7,7.12,28.84-21.35,6.19-23.6-25.99-7.12-28.84ZM181.91,871.37c3.32-4.8,2.33-16.75-4.84-17.62-11.45-1.39-11.39,17.69-4.72,19.76,2.91.9,7.74.48,9.55-2.14Z"/>
  <path d="M532.94,865.6c.41,11.06,10.29,8.98,17.99,6.75,1.78,7.19-10.76,7.09-15.16,5.79-15.97-4.7-7.87-37.11,10.45-27.68,5.34,2.75,8.78,15.14,3.6,15.14h-16.87ZM546.43,861.11c.68-10.11-12.12-10.17-13.5-.38-.32,2.28.93.38,1.13.38h12.37Z"/>
  <path d="M367.09,849.3c19.72-3.41,21.34,24.72,7.12,28.84-21.35,6.19-23.6-25.99-7.12-28.84ZM376.05,871.37c3.32-4.8,2.33-16.75-4.84-17.62-11.45-1.39-11.39,17.69-4.72,19.76,2.91.9,7.74.48,9.55-2.14Z"/>
  <path d="M328.68,937.55c-.21-.03-.84-1.13-1.12-.75-.39,10.81,8.85,11.71,16.87,7.53,5.03,6.97-8.7,7.32-13.17,6.38-12.56-2.65-12.27-26.19-.16-28.73,5.33-1.12,11.43-.17,14.12,5.03,1.06,2.06,3.36,10.54-.04,10.54-4.9,0-11.94.62-16.49,0ZM341.05,933.05c-.24-9.84-12.21-9.35-13.49,0h13.49Z"/>
  <path d="M473.72,937.55c-.08,11.9,9.87,8.98,17.99,7.49,1.45,4.38-3.61,5.49-7.2,5.91-10.48,1.22-17.11-4.5-16.72-15.15s7.51-16.34,17.95-13.64c7.24,1.87,8.63,15.39,5.6,15.39h-17.61ZM487.21,933.05c-.28-9.89-12.84-9.3-13.49,0h13.49Z"/>
  <path d="M983.97,921.98c7.5-1.53,14.72.29,17.08,8.06,3.37,11.11-2.3,22.2-15.01,21-15.21-1.43-14.06-26.62-2.07-29.06ZM982.88,928.02c-3.87,3.91-3.23,16.96,3.33,18.38,12.09,2.62,13.07-18.69,4.28-20.05-2.11-.33-6.1.13-7.61,1.67Z"/>
  <path d="M861.75,949.34c-.77,2.43-6.29,2.78-4.63-2.04-5.54,6.34-18.01,4.58-17.69-4.88s10.47-8.99,17.31-8.62c-.91-6.44-2.34-8.58-9.33-7.44-1.96.32-6.99,4.36-7.15.36-.22-5.42,15.34-6.7,19.06-2.62,1.43,1.57,2.44,5.7,2.66,7.84.3,2.94.48,15.14-.23,17.4ZM856.74,937.56c-2.84-.07-7.62-.02-10.04,1.57-5.24,3.45,1.38,11.37,7.74,5.5,2.54-2.34.89-4.2,2.29-7.07Z"/>
  <path d="M574.91,948.05c-.78-.48-4.15,2.47-5.79,2.82-13.73,2.87-17.76-15.01-2.77-17,2.54-.34,5.25.1,7.8-.07-.31-11.25-8.25-7.37-15.73-5.24-1.37-8.67,15.98-8.78,19.37-3.25,1.98,3.22,2.34,19.19,1.59,23.1-.47,2.45-2.8,3.68-4.57,1.53-.59-.72.27-1.77.09-1.88ZM569.5,937.76c-3.09.32-7.45,1.02-6.95,5.14.7,5.81,9.75,3.84,11.19-.06.08-.21.22-4.37.09-4.56-.82-1.27-3.07-.65-4.33-.51Z"/>
  <path d="M236,877.48c-.29.46-3.23,1.04-3.98.85-1.41-.44-.29-2.16-.41-2.23-.84-.5-3.34,1.5-4.52,1.85-7.21,2.11-14.8-.95-13.3-9.55,1.12-6.41,11.8-7.69,17.07-6.93-.83-4.9-.97-8.1-7.03-7.81-2.59.12-7.2,2.96-7.61,2.93-.49-.03-1.07-1.22-1.16-1.86-.51-3.39,2.84-4.32,5.55-4.97,7.73-1.85,14.54-.08,15.48,8.73.23,2.14.39,18.2-.11,19ZM230.12,865.6c-16.6-3.07-11.26,14.81-1.51,7.11,2.37-1.87,1.38-4.39,1.51-7.11Z"/>
  <path d="M861.24,876.1c-.53-.33-5.88,2.64-7.98,2.72-5.18.21-10.05-2.84-10.08-8.35-.04-8.11,11.19-9.95,17.32-9-.53-4.92-1.23-8.09-7.02-7.81-2.59.12-7.2,2.96-7.61,2.93-1.33-.09-1.61-3.45-.37-4.86.78-.89,4.63-2.05,5.96-2.28,6.9-1.18,13.39.46,14.28,8.28.39,3.39.57,15.7,0,18.74-.36,1.92-1.49,2.13-3.37,1.92-2.51-.29-.99-2.2-1.12-2.28ZM852.78,865.76c-6.85,1.53-3.53,12.45,4.97,7.22,2.2-1.35,4.38-5.4,2.03-7.05-.94-.66-5.65-.47-7.01-.17Z"/>
  <path d="M621.38,948.05c-.91-.51-3.64,2.22-5.22,2.64-13.91,3.72-18.48-14.81-3.33-16.82,2.54-.34,5.25.1,7.8-.07-.11-11.2-8.41-7.38-15.73-5.25-1.37-8.67,15.98-8.78,19.37-3.25,1.98,3.22,2.34,19.19,1.59,23.1-.47,2.45-2.8,3.68-4.57,1.53-.59-.72.27-1.78.09-1.88ZM610.31,939.22c-1.87,1.81-1.55,6.44,1.88,7.17,7.08,1.51,10.97-7.49,7.21-8.75-1.29-.43-8.2.72-9.09,1.58Z"/>
  <path d="M1107.77,950.96c-1.69,1.12-4.27-.69-3.68-2.92-.57-.56-3.98,2.32-5.21,2.65-13.64,3.63-17.67-14.42-3.97-16.71,2.79-.47,5.65-.04,8.44-.18.04-6.34-2.18-8.46-8.58-7.44-1.99.32-7.73,4.78-7.19-.39.51-4.89,16.34-6.54,19.83-.34,1.61,2.86,1.83,24.37.37,25.34ZM1103.35,937.55c-3.23-.04-10.69.02-11.26,4.17-1.21,8.82,14.62,4.52,11.26-4.17Z"/>
  <path d="M805.78,795.15v-8.24c15.56.15,22.75-9.05,16.86-23.98-.83-2.09-4.72-5.25-.75-5.99,7.38-1.37,9.48,5.37,10.11,11.62,1.83,18.15-9.8,25.38-26.22,26.59Z"/>
  <path d="M916.64,950.97c-2.13,1.43-4.68-1.17-2.94-3.67-7.17,6.74-19.91,4.46-17.94-7.08,1.11-6.48,12.13-6.95,17.19-6.42-1.26-6.35-2.21-8.61-9.33-7.44-1.96.32-6.99,4.36-7.15.36-.21-5.38,16.45-7.87,20.13-.69,1.31,2.56,1.32,24.07.03,24.94ZM912.96,937.56c-1.59,0-3.2-.12-4.79.08-12.95,1.59-6.07,13.27,2.05,7.29,3.19-2.34,1.26-4.16,2.74-7.37Z"/>
  <path d="M1156.58,942.79c1.03-.08,1.19-1.09,1.53-1.84,1.83-4.02,4.19-15.83,6.33-18.4,1.25-1.49,6.47-1.25,5.29,1.52-5.07,10.37-7.25,24.05-12.37,34.12-.71,1.4-1.64,3.18-3.43,3.35-7.49.7.77-8.04.27-11.44l-10.33-27.18c1.03-1.56,4.34-1.66,5.61-.38,2.07,2.09,6.26,19.59,7.11,20.25Z"/>
  <path d="M214.37,941.67c1.23,7.04,9.02,4.85,12.06.02,1.11-1.77-1.72-19.22,1.18-19.91,2.74-.65,4.45-.15,4.79,2.62s.24,23.78-.41,25.14c-1.42,2.95-6.81,1.34-4.13-2.99-4.16,4.12-11.57,6.89-16.23,2-.53-.55-2.5-4.19-2.5-4.62v-20.98c0-1.53,5.25-1.53,5.25,0,0,5.17-.8,14.16,0,18.74Z"/>
  <path d="M1122.09,949.92c-.6,1.96-4.64,1.59-5.23-1.52-1.32-7,.84-17.9.09-25.35,3.23-3.02,5.89-1.08,4.76,3.26,3.71-5.34,13.78-6.79,17.18-.68,1.93,3.48,2.69,19.44,1.9,23.37-.54,2.72-5.96,1.79-5.96,1.3v-19.86c0-1.67-3.59-4.23-5.56-4.11-1.6.09-7.18,3.8-7.18,4.86,0,3.77.76,16.25,0,18.74Z"/>
  <path d="M580.91,849.87l-13.11,38.23c-1.13,1.35-3.96.59-5.64.73-.26-3.9,3.32-7.53,2.87-11.41-.69-5.98-7.31-17.37-9.1-23.95-.33-1.2-.68-2.34-.52-3.6,1.39.24,4.47-.64,5.33.46.71.92,6.48,16.55,6.91,18.43.24,1.04-.15,1.84-.24,2.83l1.75-1.49c2.28-4.74,3.85-15.91,6.44-19.74,1.14-1.69,3.68-.33,5.31-.5Z"/>
  <path d="M891.97,878.34v-19.86c0-3.12-5.48-5.24-8.66-3.41-.34.2-4.08,3.87-4.08,4.16v17.99c0,1.53-5.25,1.53-5.25,0v-27.35c3.29-.14,4.95-.64,5.62,2.99,5.98-6.47,16.53-4.35,17.64,4.86.4,3.29.54,15.77-.02,18.75-.51,2.73-3.08,1.77-5.25,1.87Z"/>
  <path d="M634.13,922.94c.75-2.44,6.41-1.35,5.62,2.62,5.39-6.44,16.52-5.17,17.64,4.11.32,2.63.22,20.59-.83,21.32-.51.35-4.43-.46-4.43-.69v-19.11c0-6.79-11.79-5.94-12.78,1.46-.52,3.88,1.07,15.52-.63,17.97-.66.95-4.58-.08-4.58-.32v-27.35Z"/>
  <path d="M771.29,949.17c-.94,3.36-6.46,1.74-4.87-2.62-3.03,3.3-7.26,5.38-11.84,4.33-2.11-.48-6.53-4.97-6.53-6.96v-20.98c0-1.53,5.25-1.53,5.25,0v18.74c0,1.94,3.17,4.78,5.51,4.65,1.79-.1,7.23-4.51,7.23-5.4v-17.99c0-1.53,5.25-1.53,5.25,0v26.23Z"/>
  <path d="M456.48,849.86v19.11c0,3.98,4.83,5.95,8.53,4.02.61-.32,4.22-3.73,4.22-4.02v-19.11h5.25v27.35c0,1.16-3.32,1.52-4.53.78-1.54-.94.67-2.62-.34-3.4-3.9,4.17-11.43,6.07-15.78,1.53-.49-.51-2.59-3.89-2.59-4.16v-22.11h5.25Z"/>
  <path d="M439.24,844.62v32.98c0,.32-6,1.56-6-.37v-31.48c0-.09,1.44-1.74-.36-1.85-.18-.01-1.27.73-2.24.74-1.54.02-7.9.27-8.52-.13-1.46-.93-.49-5.14,1.01-5.14h26.23c1.09,0,1.86,3.91.42,4.92s-10.54-.2-10.54.33Z"/>
  <path d="M301.32,854.36c-.25-.23-5.69,1.06-4.45-3.28.56-1.95,4.15-.93,4.45-1.22.6-.59-.96-9.82,5.07-12.54,2.97-1.34,10.61-1.43,9.11,3.09-.8,2.41-5.41-.47-7.51,2.26-.81,1.06-1,6.87-.68,7.19.58.59,8.34-1.76,6.69,3.29-.72,2.18-6.68.85-6.68,1.2v22.86c0,1.57-6,1.57-6,0,0-3.1.84-22.08,0-22.86Z"/>
  <path d="M391.27,854.36c-.31-.29-3.77.76-4.43-1.2-1.47-4.37,4.12-2.99,4.44-3.29.41-.4-.24-8.05,2.48-11.01s13.19-3.67,11.71,1.54c-.75,2.65-5.23-.89-7.5,2.29-.8,1.12-1.04,6.83-.7,7.18.58.59,8.34-1.76,6.69,3.29-.72,2.18-6.68.85-6.68,1.2v23.23c0,.32-6,1.56-6-.37,0-3.1.84-22.09,0-22.86Z"/>
  <path d="M146.16,927.06c-.69-.68-5.51,1.11-4.5-3.34.62-2.76,2.39-2.09,4.49-1.16-.3-6.57-.18-13.12,7.86-13.55,4.02-.21,7.53.35,4.91,4.99-7.04-1.79-8,2.45-7.51,8.56,2.29-1.1,7.14-1.83,6.76,1.84-.41,4.02-6.32,2.21-6.78,2.65-.79.77.83,18.67-.15,21.96-.89,3-5.09,1.58-5.09,1.28,0-3.11.83-22.42,0-23.23Z"/>
  <path d="M807.91,915.17c1.5.94.25,5.63.44,5.91,1.35,1.97,7.68-.99,7.97,2.62.35,4.37-5.53,3.35-8.3,3.37,2.37,4.21-.97,14.38,1.12,17.98,1.34,2.3,5.02.47,7.12.75,1.52,7.21-9.39,6.27-12.02,2.46-2.91-4.23-.66-20.35-1.5-21.16-.35-.34-4.18.56-4.49-2.69-.37-3.89,4.02-2.12,4.53-2.59.27-.25-.2-5.57,0-6.75,1.31.24,4.25-.45,5.14.11Z"/>
  <path d="M197.14,854.36c-.35-.33-5.9,1.09-4.44-3.3.66-1.97,4.1-.89,4.44-1.2.95-.88-2.06-6.88,2.06-7.34,6.32-.71,2.72,6.32,3.89,6.99,1.92,1.1,6.71-.76,7.47,1.55,1.81,5.51-7.54,1.84-7.99,4.39,1.91,3.63-1.57,17.12,2.6,18.28,1.81.5,4.25-1.26,5.1.09,3.26,5.14-9.08,6.77-11.96,1.47-2.35-4.32-.4-20.21-1.18-20.93Z"/>
  <path d="M1155.81,855.11c-.47.49-11.73-4.57-11.73,1.88,0,4.97,12.66,4.04,13.28,12.75.58,8.21-8.76,10.14-15.21,8.4-3.89-1.05-5.02-2.53-3.56-6.53,2.84,1.59,12.93,4.94,13.49-.4.45-4.32-6.35-5.18-9.25-7.22-9.16-6.45-1.69-16.08,8.05-14.79,3.69.49,5.55,1.96,4.93,5.92Z"/>
  <path d="M333.55,855.11c-.47.49-11.73-4.57-11.73,1.88,0,4.86,19.21,6.16,12.08,17.58-3.74,5.99-20.9,6.2-17.57-2.96,2.84,1.59,12.93,4.94,13.49-.4.63-5.98-12.94-4.79-13.23-13.58-.31-9.35,17.51-12.71,16.97-2.51Z"/>
  <path d="M803.27,875.84c-3.71,3.95-18.02,4.41-17.03-2.35.48-3.31,2.59-.6,4.57-.03,3.41.98,9.85,1.42,9.01-3.71-.61-3.75-11.29-4.08-12.62-9.92-2.87-12.55,15.45-12.98,16.96-7.21s-9.23-2.06-11.51,2.49c-3.08,6.14,8.85,6.5,11.54,10.96,1.78,2.96,1.48,7.23-.92,9.78Z"/>
  <path d="M794.52,927.81c-.75.55-7.49-4.54-10.54-.43-3.97,5.36,8.51,7.04,10.91,10.19,7.36,9.69-8.48,17.48-15.74,11.99-1.33-1.01-2.84-4.21-1.86-5.25.55-.59,13.14,6.11,13.56-1.12.32-5.49-9.16-4.38-11.97-9.84-5.96-11.6,13.31-14.66,16.06-9.26.44.87-.16,3.54-.43,3.73Z"/>
  <path d="M552.41,929.3c-.7.51-10.1-7.91-13.64.97-4.3,10.78,2.61,21.63,13.28,12.54,5.07,6.44-5.17,8.91-10.43,8.16-12.13-1.72-12.89-24.32-2.37-28.46,5.12-2.02,16.62-.76,13.16,6.8Z"/>
  <path d="M1021.65,877.22c-.5,1.61-6,2.04-6-.75v-38.22c0-2.29,6-2.28,6,0v38.97Z"/>
  <path d="M669.35,837.12v40.1c0,1.32-4.19,1.25-5.25,1.12v-40.84c0-1.7,4.1-.9,5.25-.37Z"/>
  <path d="M870.24,909.07c2.02.08,4.95-.8,5.25,1.87-.88,11.54,1.16,24.69.04,36.02-.58,5.84-5.29,4.22-5.29,2.95v-40.84Z"/>
  <path d="M504.45,949.92c-.6,1.96-4.64,1.59-5.23-1.52-.43-2.29-.43-24.82.31-25.88,1.61-2.3,5.84-.26,5.29,3.04,2.08-4.02,11.32-6.48,10.9-.37-.21,3.04-4.53,1.27-6.76,2.26-.78.35-4.51,4.58-4.51,5.23,0,3.52.71,14.91,0,17.24Z"/>
  <path d="M710.58,878.34c-1.61-.09-4.53.64-5.14-1.23.55-4.1-1.22-24.48.22-26.54,1.75-2.51,6.62-.07,4.18,3.79,1.19-.12,1.13-1.73,2.2-2.66,4.72-4.1,11.37-4.1,9,3.4-2.8-.32-4.09-1.44-6.7.41-.67.48-3.76,4.87-3.76,5.22v17.61Z"/>
  <path d="M1057.63,849.86c2.91-.09,5.49-.71,5.25,3,2.25-3.97,12.28-5.83,10.84.08-.85,3.52-3.31.78-6.15,1.97-1.03.43-4.7,4.6-4.7,5.07v18.36c-1.06.13-5.25.2-5.25-1.12v-27.35Z"/>
  <path d="M482.71,849.86c3.51.11,5.16-1.22,4.5,2.99,2.74-.38,3.35-3.36,6.43-3.73,5.22-.64,5.24,1.5,4.8,5.98-15.65-3.68-8.34,15.15-10.59,22.01-.61,1.87-3.53,1.14-5.14,1.23v-28.48Z"/>
  <path d="M822.26,921.81l4.18.72-.42,3.78c1.93-3.5,12.07-7.74,12.05-1.87-.01,4.09-3.66,2.03-6.29,2.77-7.21,2.05-2.91,16.68-4.43,21.81-.84,2.85-5.09,2.27-5.09.9v-28.1Z"/>
  <path d="M240.61,921.81c4.18-.39,5.27.51,3.75,4.49,2.28.1,2-2.51,4.22-3.65,2.47-1.27,7.84-2.12,7.84,1.78s-3.67,2.03-6.29,2.77c-7.21,2.05-2.91,16.68-4.43,21.81-.84,2.85-5.09,2.27-5.09.9v-28.1Z"/>
  <path d="M655.86,877.22c-.5,1.61-6,2.04-6-.75v-25.48c0-1.57,6-1.57,6,0v26.23Z"/>
  <path d="M525.44,949.17c-.51,3.16-5.25,1.44-5.25,1.12v-27.35c0-1.53,5.25-1.53,5.25,0,0,7.3,1.07,19.67,0,26.23Z"/>
  <path d="M883.73,950.29v-27.35c0-1.53,5.25-1.53,5.25,0v26.23c0,1.68-3.85,2.13-5.25,1.12Z"/>
  <path d="M1083.86,849.86v27.35c0,1.32-4.19,1.25-5.25,1.12v-28.48h5.25Z"/>
  <path d="M287.08,878.34v-28.48c3.06.07,4.85-.97,5.28,2.59.33,2.75.41,22.99-.14,24.66-.62,1.87-3.53,1.14-5.14,1.23Z"/>
  <path d="M731.57,849.86v27.35c0,1.53-5.25,1.53-5.25,0v-27.35h5.25Z"/>
  <path d="M1007.4,849.86v28.48c-3.06-.07-4.85.97-5.28-2.59-.33-2.75-.41-22.99.14-24.66.62-1.87,3.53-1.14,5.14-1.23Z"/>
  <path d="M369.53,712.72v-4.5s2.25.74,2.25.74c-6.98-7.41,7.1-14.85,10.13-9.74,3.59,6.06-8.17.77-7.76,5.49.33,3.76,6.02,3.8,8.88,3.51.2,1.07.01,4.5-1.13,4.5h-12.37Z"/>
  <path d="M652.49,712.72c-1.99-.59-1.71-5.77,1.87-3.75-4.3-5.11-.74-11.06,5.61-11.25s4.64,5.25,2.44,5.11-7.19-1.66-5.66,2.62c1.35,3.79,6.46,2.05,8.14,3.12,1.22.77.18,4.16-.03,4.16-2.74,0-10.48.56-12.37,0Z"/>
  <path d="M871.74,712.72c-.86-.58-.94-6.29,2.25-3.75-3.9-5.86-.3-11.17,6.39-11.24,3.79-.04,3.17,1.59,4.11,4.49-.9,1.25-8.49-1.59-8.13,2.5.33,3.76,6.02,3.8,8.88,3.51.25.25-.52,4.49-.75,4.49-1.94,0-12.21.36-12.74,0Z"/>
  <path d="M361.29,944.29c.58,3.2-.65,15.12-5.52,14.12-4.1-.85.17-3.36.62-4.39,2.12-4.81-1.77-3.43-1.91-4.14-.3-1.54.3-3.88.05-5.59h6.75Z"/>
  <path d="M1119.09,634.78v-6.75c9.59-2.13,9.66,8.85,0,6.75Z"/>
  <path d="M936.19,775.67c.29-3.23-1.45-6.35,2.61-6.8,7.16-.8,5.45,9.48-2.61,6.8Z"/>
  <path d="M158.8,678.88c-.56.91-5.34.94-6.64.86v-6.75c1.59.22,4.84-.51,6.05.33.9.63,1.08,4.78.59,5.56Z"/>
  <path d="M148.3,678.88c-.56.91-5.34.94-6.64.86v-6.75c1.59.22,4.84-.51,6.05.33.9.63,1.08,4.78.59,5.56Z"/>
  <circle cx="254.47" cy="626.15" r="3.76"/>
  <circle cx="243.98" cy="626.15" r="3.76"/>
  <path d="M249.49,745.58c-.45.74-6.3,1.2-6.64.86.22-1.59-.51-4.84.33-6.05.72-1.03,4.77-1.04,5.72-.37s1.06,4.8.59,5.56Z"/>
  <path d="M259.99,745.58c-.45.74-6.3,1.2-6.64.86.22-1.59-.51-4.84.33-6.05.72-1.03,4.77-1.04,5.72-.37s1.06,4.8.59,5.56Z"/>
  <path d="M430.89,678.14c-.45.74-6.3,1.2-6.64.86.22-1.59-.51-4.84.33-6.05.72-1.03,4.77-1.04,5.72-.37s1.06,4.8.59,5.56Z"/>
  <path d="M1119.84,619.78c.09,1.3.05,6.08-.86,6.64-1.84,1.14-5.6.52-5.94-2.5-.61-5.42,2.68-4.09,6.8-4.14Z"/>
  <path d="M570.42,677.49c.09,1.3.05,6.08-.86,6.64-1.84,1.14-5.6.52-5.94-2.5-.61-5.42,2.68-4.09,6.8-4.14Z"/>
  <path d="M559.06,684.13c-.76.47-4.93.31-5.56-.59-3.94-5.66,6.64-9.62,6.45-2.7-.02.66-.54,3.07-.89,3.29Z"/>
  <path d="M136.42,783.91c1.56.2,5.5-.62,6.42.7,3.89,5.6-8.93,10.91-6.42-.7Z"/>
  <path d="M146.91,783.91c1.56.2,5.5-.62,6.42.7,3.89,5.6-8.93,10.91-6.42-.7Z"/>
  <path d="M861.13,621.18c-.76.47-4.93.31-5.56-.59-3.94-5.66,6.64-9.62,6.45-2.7-.02.66-.54,3.07-.89,3.29Z"/>
  <path d="M1014.9,783.16c-.2,1.56.62,5.5-.7,6.42-.97.67-5.01.65-5.73-.4-.17-.24-.08-5.37.4-5.67,1.35-.87,4.36-.14,6.04-.35Z"/>
  <path d="M871.62,614.65c1.32.82,1.64,6.05-1.8,6.63-4.31.72-5.55-3.46-3.76-6.04.63-.91,4.8-1.06,5.56-.59Z"/>
  <path d="M317.07,658.75c.75,6.43-.88,6.4-6.75,6v-6s6.75,0,6.75,0Z"/>
  <path d="M1113.85,628.03c.4,5.87.42,7.5-6,6.75v-6.75s6,0,6,0Z"/>
  <path class="st0" d="M556.92,783.91c.4,5.87.42,7.5-6,6.75v-6.75s6,0,6,0Z"/>
  <path d="M762.3,784.66c.92,6.32-1,6.18-6.75,6v-6s6.75,0,6.75,0Z"/>
  <path d="M629.63,616.79h-6.75c-1.99-8.54,8.71-8.62,6.75,0Z"/>
  <path class="st0" d="M567.42,783.91c1.91,9.52-7.89,9.59-6,0h6Z"/>
  <path d="M884.21,911.43c1.1-.37,4.49-.4,5.19.59,1.08,11.72-11.16,1.4-5.19-.59Z"/>
  <path d="M727.6,838.75c6.52-1.92,6.79,9.41-1.71,5.17-.85-1.79-.4-4.55,1.71-5.17Z"/>
  <path d="M1079.9,838.75c6.52-1.92,6.79,9.41-1.71,5.17-.85-1.79-.4-4.55,1.71-5.17Z"/>
  <path d="M1008.04,839.48c2.38,3.79-2.56,6.59-5.77,5.03-3.46-4.69,3.98-7.88,5.77-5.03Z"/>
  <path d="M520.31,911.43c.76-.48,4.92-.31,5.56.58,2.5,5.8-6.34,7.59-6.4,2.01,0-.47.59-2.43.84-2.59Z"/>
  <path d="M292.21,844.51c-.76.48-4.92.31-5.56-.58-2.5-5.8,6.34-7.59,6.4-2.01,0,.47-.59,2.43-.84,2.59Z"/>
  <circle cx="652.86" cy="841.62" r="3.31"/>
  <g>
    <g>
      <path class="st3" d="M865.74,227.07c-.18-1.31,1.7-.71,2.61-.74,44.4-1.73,102.94,5.64,146.41,15.5,49.45,11.22,119.06,34.61,125.29,93.56l-1.48.75c-26.29-34.35-68.56-57.56-108.49-72.9-52.51-20.17-108.46-30.29-164.34-36.17Z"/>
      <path class="st3" d="M1076.36,433.92c23.14-16.14,46.16-34.04,61.03-58.51,27.93-45.96,8.26-83.06-30.81-112.22-5.72-4.27-12.58-7.79-18.03-11.91-.62-.47-2.08-.54-.58-1.71,26.23,10.05,56.3,23.29,75.32,44.6,42.82,47.98-9.03,92.5-48.31,118.03-12.34,8.02-25.32,15.43-38.62,21.71Z"/>
      <path d="M581.66,399.45c.23.24,6.51.25,6.74,0,.31-.33.43-8.68.74-9,.2-.21,2.93.13,3.75,0,.54,5.23-3.73,10.03,4.5,9-.02-1.27.44-8.67.75-8.99.24-.24,2.9.13,3.74,0-.08,6.71-3.43,8.85,5.24,9.74.38-.5-1.61-7.84-1.51-9.38.13-2.09,3.18-2.59,3.76-1.36.94,1.98.31,9.05,2.73,9.88,7.02,2.39,7.37-4.8,10.78-8.5,6.67-7.27,12.45,2,10.15,9.4-.3.97-2.99,4.18-3.78,4.24-1.3.1-6.3-3.3-7.64-3.42-1.21-.11-2.84,2.73-5.87,2.93-2.89.19-3.97-1.29-5.36-1.41-.97-.09-1.96,1.51-4.27,1.36-1.61-.1-5.45-2.22-6.13-2.14-.72.09-.76,1.97-1.61,2.18-2.26.57-4.48-1.36-5.98-1.38-1.09-.02-1.83,1.22-2.9,1.31-2.22.19-5.62-.41-7.35,0-1.03.25-1.16,7.17-7.81,8.12-3.97.56-7.96-.28-6.92-5.08,3.69.92,10.29,2.29,10.49-2.99-3.17-.39-9.47-2.23-10.86-5.27-1.86-4.04,4.28-13.14,9.63-10.38s4.45,10.57,4.99,11.14ZM576.23,392.89c-2.89-2.93-6.95,2.02-5.49,4.32.8,1.27,5.54,2.4,7.16,2.23.49-.48-.98-5.85-1.68-6.55ZM629.62,400.2c2.09-13.98-8.3-4.37-6.74-2.26l6.74,2.26Z"/>
      <path d="M625.88,330.5v23.98h11.62c.51,0,7.13-2.74,7.11-3.37-3.63-3.6-7.86-4.1-12.73-3.37-1.41-5.87,5.03-5.14,9.03-3.41,1.35.59,7.61,4.99,8.29,6,1.29,1.91-1.89,4.64-1.58,4.89l8.99-.74v-23.98h3.75v27.35c0,.08-1.04,1.12-1.12,1.12h-11.24c-1.03,0-3.01-3-4.35-2.88s-5.96,2.88-7.64,2.88h-13.87v-28.48h3.75Z"/>
      <path d="M541.93,375.47v27.35c0,1.54-7.15,1.31-8.58,1.08-1.96-.32-3.57-2.21-3.79-2.19-.62.04-.78,2.04-1.65,2.25-1.05.26-12.96.25-14.09-.01-1-.23.45-1.58.37-2.25-.57-.46-10.94,5-11.98-3.45-1.16-9.5,9.27-6.33,11.16-8.63.94-1.14-1.97-3.86,3.82-2.92v12.74c3.24.21,6.71-.66,9.74.75v-10.49h3.75s0,9.75,0,9.75h7.5v-23.99h3.75ZM513.44,393.46c-1.09.23-7.22,1.24-7.46,1.53-3.15,3.79,9.99,7.15,7.46-1.53Z"/>
      <path d="M820.77,389.71h3.75c-.19,8.49-1.6,10.82,8.24,9.75-.1-1.19.7-8.94,1.17-9.01,1.01-.15,2.26.12,3.32.02.27,5.13-3.65,10.04,4.5,9-.02-1.27.44-8.67.75-8.99.24-.24,2.9.13,3.74,0-.08,6.71-3.43,8.85,5.24,9.74.15-4.51-4.85-12.11,2.25-11.99-.38,4.38,3.63,11.67-.38,14.97-3.03,2.5-7.23-1.6-9.02-1.38-.69.09-.82,1.73-1.23,1.99-1.86,1.17-4.86-1.16-6.36-1.19-1.09-.02-1.83,1.21-2.9,1.3-3.19.3-6.61.41-9.33-1.46,1.99,7.35-9.31,14.95-10.5,5.25,1.24,0,6.74.44,6.74-1.13v-16.86Z"/>
      <path d="M697.09,341.74v12.74c8.23,2.01,7.46-5.02,11.59-9.02,6.92-6.7,12.42,3.36,9.58,10.33-2.99,7.34-7.63.62-11.19.3-1.26-.11-2.23,1.8-3.42,2.32-2.92,1.28-7.12.24-10.3.56l.75-2.24c-.54-.45-10.22,4.8-11.85-2.8-2.14-10.01,9.17-7.01,11.03-9.27.94-1.14-1.97-3.86,3.82-2.92ZM715.07,355.23c2.09-13.98-8.3-4.37-6.74-2.26l6.74,2.26ZM693.34,348.49c-1.09.23-7.22,1.24-7.46,1.53-3.15,3.79,9.99,7.15,7.46-1.53Z"/>
      <path d="M811.77,403.95h-24.36c-.29,0-3.65-2.09-4.14-2.61-2.54-2.69-3.56-10.79.41-11.62,1.67-.35,1.04.75,1.11,1.84.17,2.64-.76,6.71,2.78,7.72,5.46,1.57,15.74-1.1,21.95.9.37-2.27-.57-1.2-1.82-1.51-1.96-.49-9.55-2.06-10.05-4.17-.55-2.33,3.28-9.5,5.93-10.41,8.33-2.88,10.72,14.48,8.2,19.85ZM808.77,394.95c.07-7.29-6.08-10.05-7.49-1.5l7.49,1.5Z"/>
      <path d="M733.07,354.49c1.2-1.17-4.52-8.89-4.48-10.89.02-1.02,1.5-2.86,2.6-2.6s4.84,12.01,7.13,13.12c3.54,1.71,14.82.09,17.98-3-3.63-3.6-7.86-4.1-12.73-3.37-1.46-5.55,4.61-5.22,8.54-3.67,1.49.59,9.06,5.9,9.18,7.02.48,4.38-12.28,7.64-15.82,7.92-4.52.35-8.36-1.59-10.43-1.53-3.91.12-13.3,5.59-12.45-3h10.49Z"/>
      <path d="M709.83,375.47v23.98c8.35,2.12,7.57-5.54,11.96-9.4,7.1-6.25,12.66,5.12,8.62,11.61-3.66,5.88-6.76-.25-10.6-.6-1.24-.11-2.58,2.28-4.52,2.73-2.78.64-6.32-.12-9.21.16v-28.48h3.75ZM727.82,400.2c2.09-13.98-8.3-4.37-6.74-2.26l6.74,2.26Z"/>
      <path d="M687.34,386.71v12.74h9c.72-4.02-2.46-12.29,3.74-11.24v15.74h-16.49l.75-2.24c-.54-.44-10.22,4.8-11.85-2.8-2.15-10,9.17-7.02,11.03-9.27.94-1.14-1.97-3.86,3.82-2.92ZM683.59,393.46c-1.09.23-7.22,1.24-7.46,1.53-3.15,3.79,9.99,7.15,7.46-1.53Z"/>
      <path d="M616.7,352.8c-1.3,1.11-14.22,1.97-14.82,4.43-3.01,12.25,13.33,5.29,14.26,6.24.36.37.01,2.66-.73,3.39-4.18,4.09-17.08,3.12-17.31-6-.24-9.74,7.47-9.2,15.04-10.88-3.71-3.85-8.35-5.41-13.49-3.74-.89-6.93,6.3-5.31,10.72-2.85,2.64,1.47,10.04,6.23,6.33,9.42Z"/>
      <path d="M547.93,406.95c2.74,1.21,9.76,1.71,10.46-1.89l-7.73-3.48c-7.05-2.63-1.28-13.46,3.74-13.91,8.07-.72,11.1,19.14,3.79,23.18-4.02,2.22-11.59,2.27-10.26-3.9ZM559.17,400.19c.18-4.56-5.64-12.6-7.95-5.26-1.33,4.23,5.13,4.67,7.95,5.26Z"/>
      <path d="M670.1,330.5v27.35c0,.98-2.77,1.37-3.75,1.12v-28.48h3.75Z"/>
      <path d="M737.56,403.95v-26.23c2.01-.09,3.33-.35,3.75,1.87.62,3.29.47,18.13.04,21.77-.33,2.76-1.02,2.75-3.78,2.59Z"/>
      <path class="st0" d="M577.16,377.72c.54.72-.4,1.78-1.31,2.09-1.91.64-2.89-.9-2.44,2.4h4.51s0,2.25,0,2.25c-1.34-.2-7.96.3-8.25,0-1.28-1.33,1.45-2.55,1.49-2.74.22-1.12-.33-3.43.09-3.92.54-.64,5.36-.81,5.91-.07Z"/>
      <path d="M510.37,383.03c-1.48-1.05-4.72,5.24-6.67-1.55,1.33.32,3.07-2.24,3.37-2.25.45,0,1.58,2.41,2.9,2.18.83-.15,1.95-2.18,2.35-2.18.21,0,2.77,2.42,2.59,3.27-.14.67-3.06,2.72-3.35,2.69-.68-.07-.91-1.97-1.2-2.17Z"/>
      <path d="M680.52,383.03c-1.48-1.05-4.72,5.24-6.67-1.55,1.33.32,3.07-2.24,3.37-2.25.45,0,1.58,2.41,2.9,2.18.83-.15,1.95-2.18,2.35-2.18.21,0,2.77,2.42,2.59,3.27-.14.67-3.06,2.72-3.35,2.69-.68-.07-.91-1.97-1.2-2.17Z"/>
      <path d="M690.26,338.06c-1.48-1.05-4.72,5.24-6.67-1.55,1.33.32,3.07-2.24,3.37-2.25.45,0,1.58,2.41,2.9,2.18.83-.15,1.95-2.18,2.35-2.18.21,0,2.77,2.42,2.59,3.27-.14.67-3.06,2.72-3.35,2.69-.68-.07-.91-1.97-1.2-2.17Z"/>
      <path d="M527.67,409.94c-3.11,2.4-4.13,3.08-6.72-.37,3.21-4.84,4.9-.12,6.26-.42.69-.15,3.73-4.57,4.88-.18.74,2.81-4.21,5.06-4.43.97Z"/>
      <path class="st0" d="M742.81,368.73c-.68,4.08-4.59.43-3.75,4.49,1.77-.07,4.69-.45,4.5,2.25-1.33-.21-7.95.3-8.24,0-1.25-1.29,1.29-2.45,1.33-2.61.14-.55-.61-3.2.3-4,.55-.48,5.43-.53,5.86-.12Z"/>
      <path d="M846.25,380.72c.15.33,3.45,2.16,2.67,3.77-4.32,4.11-3.24.71-4.27.09-2.42-1.45-3.92,5.3-6.6-1.25.02-.27,3.15-2.47,3.7-2.61,1.11,3.45,2.72,2.87,4.5,0Z"/>
      <path d="M846.25,380.72c-1.1.67-3.98-.13-4.5,0-1.15-3.59,2.61-5.96,4.11-2.95.57,1.13.19,2.53.39,2.95Z"/>
      <rect x="647.24" y="399.35" width="4.86" height="4.31" transform="translate(-93.16 578.93) rotate(-45.15)"/>
      <rect x="656.23" y="399.35" width="4.86" height="4.31" transform="translate(-90.51 585.31) rotate(-45.15)"/>
      <rect x="755.17" y="399.35" width="4.86" height="4.31" transform="translate(-61.34 655.45) rotate(-45.15)"/>
      <rect x="764.17" y="399.35" width="4.86" height="4.31" transform="translate(-58.69 661.83) rotate(-45.15)"/>
      <path d="M802.14,377.82c1.23-2.1,6.05-1.55,5.09,1.67s-6.75,1.16-5.09-1.67Z"/>
      <path d="M699.32,379.97c1.62,3.25,2,3.54-1.11,5.97-3.84-2.88-2.91-4.18,1.11-5.97Z"/>
      <path d="M749.54,333.5c1.62,3.25,2,3.54-1.11,5.97-3.84-2.88-2.91-4.18,1.11-5.97Z"/>
      <rect x="606.08" y="357.55" width="4.36" height="4.36" transform="translate(-76.64 533.81) rotate(-44.86)"/>
      <g>
        <path class="st3" d="M221.12,274.3c-7.81,6.26-16.64,11.47-24.66,17.68-17.82,13.82-39.09,34.05-45.75,56.18-15.37,51.04,44.93,85.38,83.4,102.39l25.99,10.35c-1.32.08-2.63.07-3.94-.17-7.91-1.49-18.79-5.27-26.79-7.69-28.73-8.71-64.42-21.4-88.05-40.11-71.53-56.65,31.71-117.78,79.81-138.62Z"/>
        <path class="st3" d="M298.32,275.05c.18,1.1-1.3,1-2.09,1.26-53.87,18.23-95,37.52-121.73,90.38-2.05,4.05-2.19-3.79-2.12-5.13,2.13-42.97,42-66.65,78.91-77.73,15.1-4.53,31.3-8.11,47.04-8.79Z"/>
        <g>
          <path class="st1" d="M413.76,277.29c-23.68,1.35-33.85,8.63-53.45,18.88-.61.32-1.58,1.27-2.01.23,21.5-38.51,45.53-78.15,54.13-121.99,4.63-7.9,16.42-8.51,21.14-.49,3.88,6.6,7.92,23.92,11.12,32.35,12.12,32.01,27.76,64.19,49.28,90.88-.43,1.04-1.41.09-2.02-.23-21.93-11.57-40.08-18.75-65.44-19.63-3.53-1.26-9.26-1.26-12.74,0Z"/>
          <path class="st1" d="M392.55,168.78c3.49-1.04,12.58,2.4,13.57,5.6,2.01,6.52-8.58,31.03-11.72,38.21-12.62,28.93-29.35,56.53-45.08,83.83-.98.96-1.22.16-1.86-.44-1.68-1.57-3.59-5.09-5.26-6.74-9.49-9.35-24.31-14.89-37.52-15.7-2.33-.14-12.54.69-13.11.37-1.35-.74-.31-1.31.53-1.73,25.93-13.02,48.51-39.1,66.92-61.25,10.01-12.04,19.88-27.97,30.02-38.93.86-.93,2.41-2.91,3.5-3.24Z"/>
          <path class="st1" d="M532.94,257.06c-.42,7.99,6.68,8.66,11.24,13.48-4.38.49-11.54-1.41-11.24,4.5-8.94,2.45-17.76,6.12-24.74,12.36-2.97,2.65-4.89,6.52-7.15,8.59-.64.58-.88,1.42-1.85.44-19.25-32.79-42.88-67.38-55.46-103.43-1.27-3.65-5.47-15.4-4.11-18.35,2.55-5.55,12.62-7.06,17.25-3.03s12.36,16.55,16.87,22.1c18.24,22.41,37.34,44.39,59.2,63.35Z"/>
          <path class="st1" d="M461.72,165.63c-8.76-7.33-16.07-.7-23.6,4.52-3.38-1.91-5.23-5.08-8.86-6.91-10.02-5.04-15.77,1.09-21.97,8.33-3.57-2.74-7.14-7.38-11.94-8.14-6.18-.99-9.37,1.35-14.57,3.69l42.36-65.19,38.58,63.7Z"/>
          <path class="st2" d="M426.5,277.29c-4.04-.14-8.74-.23-12.74,0,3.48-1.26,9.21-1.26,12.74,0Z"/>
        </g>
      </g>
    </g>
    <g>
      <path class="st4" d="M402,524.36c-16.54-7.55-37.78-10.79-55.86-15.7-20.84-5.66-42.07-11-62.63-17.57-5.11-1.63-24.95-7.22-26.77-11.46-3.07-7.17,6.9-7.84,11.44-8.76,60.3-12.23,125.06-20.8,186.41-24.21l170.13-23.26c116.31,5.62,232.4,5.87,348.54,11.3,21.64,1.01,45.27.65,66.65,3.81,11.84,1.75,18.24,7.8,4.21,13.76-31.59,13.41-76.78,22.68-110.76,31.65-114.43,30.21-229.21,59.09-343.26,90.73l-188.11-50.3ZM637.87,432.43c-4.61,0-9.24-.02-13.86,0l-138.3,18.74c.28,1.35,1.47,1.4,2.59,1.52,46.64,4.99,93,13.86,139.53,20.13,46.28-11.56,92.31-24.26,138.95-34.4-.68-1.24-4.29-1.44-5.59-1.52-35.8-2.29-73.76-2.81-109.84-3.72-3.99-1.39-9.2-.74-13.49-.75ZM829.01,438.42c-22.31.48-44.23,5.37-65.97,10.11-37.21,8.11-73.82,18.81-110.78,27.92l-1.64,1.69c1.36.02,2.51-.65,3.91-.55,58.54,4.5,118.42,17.03,177.11,22.35,67.27-15.86,134.17-33.3,200.5-52.53l-7.12-1.48c-19.11-.8-38.22-2.36-57.33-3.01-3.35-1.39-8.18-.74-11.99-.75-2.24,0-4.5,0-6.75,0-3.99-1.39-9.2-.74-13.49-.75-11.03-.01-21.97-.52-32.98-.75-5.04-1.38-11.18-.74-16.49-.75-4.49,0-9,0-13.49,0-3.99-1.39-9.2-.74-13.49-.75-3.74,0-7.5,0-11.24,0-.78-1.24-2.84-.75-4.11-.76-4.86-.06-9.78-.09-14.63.01ZM595.14,478.15l-148.78-23.09c-55.9,4.96-112.75,12.73-167.9,23.09-1.1.21-2.33,0-2.63,1.48,47.27,13.81,94.87,26.62,142.79,38.08l176.52-39.56ZM803.53,507.38c-1.85-.11-3.76.17-5.61-.02-58.62-5.7-117.22-14.5-175.4-23.28l-182.67,40.01-2.09,1.26c51.09,12.18,101.37,27.76,152.51,39.76,66.07-17.86,132.38-34.83,198.44-52.71,3.9-1.06,8.61-2.07,12.29-3.45.96-.36,2.3-.16,2.54-1.58Z"/>
      <path class="st3" d="M847.75,439.17c-6.07,0-12.91.63-18.74-.75,4.85-.1,9.77-.07,14.63-.01,1.27.02,3.33-.48,4.11.76Z"/>
      <path class="st3" d="M902.47,440.67c-5.34-.11-11.42.71-16.49-.75,5.31,0,11.45-.63,16.49.75Z"/>
      <path class="st3" d="M651.37,433.18c-4.33-.11-9.47.71-13.49-.75,4.29,0,9.5-.64,13.49.75Z"/>
      <path class="st3" d="M872.48,439.92c-4.29,0-9.5.64-13.49-.75,4.29,0,9.5-.64,13.49.75Z"/>
      <path class="st3" d="M948.94,442.17c-4.29,0-9.5.64-13.49-.75,4.29,0,9.5-.64,13.49.75Z"/>
      <path class="st3" d="M967.68,442.92c-3.86-.13-8.6.73-11.99-.75,3.81,0,8.64-.64,11.99.75Z"/>
    </g>
    <g>
      <path class="st2" d="M731.57,0l128.2,43.07.77,2.23c-1.38,6.95,1.83,43.45-.41,46.92-.44.68-1.81.62-1.88.71h-.75l-139.79-37.47-181.77,49.46c-.1-.26-2.94-1.47-2.29-3.34,1.6-17.79-1.99-38.91,0-56.28.12-1.07.08-1.97,1.22-2.52L704.58,0h26.98ZM854.5,85.44v-37.1l-1.82-1.17L719.85,3.24l-178.1,44.18c-.73.06-2.83,1.22-2.83,1.67v47.21c0,.22,1.12,1.34,1.72,1.01l176.29-47.9c39.41,8.87,78.2,20.86,117.3,31.16,6.7,1.76,13.4,3.77,20.25,4.86Z"/>
      <path class="st3" d="M857.49,92.93c.31,7.44-.42,15.07,0,22.48-46.56-10.08-92.49-23-139.04-33.03l-182.52,50.27c0-4.25.77-25.78,0-27.73l181.77-49.46,139.79,37.47Z"/>
      <path class="st2" d="M858.24,128.9l2.11.87-.23,149.78-1.67,1.33-134.03,40.67c-51.98-5.56-104-10.97-155.89-16.52-10.83-1.16-22.02-1.32-32.8-3.21-.61-.11-1.9-.3-2.07-1.05-.09-7.46.21-14.95.06-22.41-.03-1.46-.75-2.66-.78-3.32-.3-5.92,6.87-4.01,11.24-4.5-4.56-4.83-11.66-5.49-11.24-13.48,0-.16.77-1.17.8-2.53.82-35.82-1.05-71.9.33-107.64.25-.56,1.26-1.33,1.86-1.49,60.76-16.49,121.86-32.33,182.51-49.47,46.93,8.66,92.95,23.19,139.8,32.98ZM558.42,276.54c-6.34-.28-12.43-.43-18.74,0v19.11c0,.42,1.26,1.15,1.87,1.12,61.1,5.11,121.82,12.86,182.9,17.99l129.71-39.68v-140.23s-133.47-32.99-133.47-32.99l-180.91,49.63-.11,106.7c4.87,5.6,12.6,9.36,19.49,12.36.91,2.34,1.13,4.1-.75,6Z"/>
      <path class="st3" d="M858.24,122.16v6.74c-46.85-9.79-92.87-24.32-139.8-32.98-60.65,17.13-121.75,32.97-182.51,49.47v-8.24c2.19,1.06,5.36-.37,7.66-.96,58.29-14.91,115.97-32.44,174.23-47.5,46.85,10.89,93.45,23.29,140.42,33.47Z"/>
      <path class="st0" d="M857.49,115.41c.04.64.03,1.3.75,1.5v5.25c-46.97-10.18-93.57-22.59-140.42-33.47-58.26,15.06-115.94,32.59-174.23,47.5-2.3.59-5.47,2.02-7.66.96v-4.5l182.52-50.27c46.55,10.04,92.48,22.96,139.04,33.03Z"/>
      <path class="st1" d="M858.24,116.91c-.72-.2-.71-.86-.75-1.5-.42-7.42.31-15.05,0-22.48h.75c-.68.99,0,20.77,0,23.98Z"/>
      <path class="st0" d="M854.5,85.44c-6.85-1.1-13.55-3.1-20.25-4.86-39.1-10.3-77.9-22.29-117.3-31.16l-176.29,47.9c-.6.32-1.72-.79-1.72-1.01v-47.21c0-.45,2.09-1.61,2.83-1.67L719.85,3.24l132.82,43.92,1.82,1.17v37.1Z"/>
      <path class="st0" d="M559.17,270.55c-6.9-3-14.63-6.76-19.49-12.36l.11-106.7,180.91-49.63,133.47,32.99v140.23s-129.71,39.68-129.71,39.68c-61.08-5.13-121.8-12.88-182.9-17.99-.61.02-1.87-.7-1.87-1.12v-19.11c6.31-.43,12.4-.28,18.74,0,1.09.05,4.93,2.19,5.28-1.92.29-3.42-2.86-3.35-4.53-4.08ZM778.57,193.59c8.59,11.4,18.89,21.32,28.28,32.03,1.48,1.27,4.4,1.03,5.29-.78l.21-96.15c-.67-1.55-2.15-2.54-3.72-3.02-22.34-4.94-44.37-11.95-66.78-16.12-1.56.79-2.84,2.11-2.84,3.96l.41,120.33c2.93,6.01,13.77-4.36,16.14-7.11,8.56-9.94,10.25-23.14,16.9-31.82,1.82-2.37,3.33-3.16,6.11-1.32Z"/>
      <path class="st1" d="M558.42,276.54c1.88-1.89,1.66-3.66.75-6,1.67.73,4.82.66,4.53,4.08-.35,4.11-4.2,1.96-5.28,1.92Z"/>
      <g>
        <path class="st2" d="M778.57,193.59c-2.77-1.85-4.29-1.05-6.11,1.32-6.65,8.68-8.34,21.88-16.9,31.82-2.36,2.75-13.21,13.11-16.14,7.11l-.41-120.33c0-1.84,1.27-3.17,2.84-3.96,22.41,4.17,44.44,11.18,66.78,16.12,1.58.48,3.05,1.47,3.72,3.02l-.21,96.15c-.89,1.82-3.81,2.05-5.29.78-9.4-10.71-19.69-20.63-28.28-32.03ZM806.52,131.9l-61.46-14.99v110.17c3.47-1.2,6.46-5.5,8.41-8.45,4.91-7.4,11.02-27.65,17.4-31.31,2.42-1.39,8.97-1.26,11.29.79,8.07,9.01,15.29,18.95,24.36,26.98v-83.19Z"/>
        <path class="st3" d="M806.52,131.9v83.19c-9.06-8.03-16.28-17.97-24.36-26.98-2.31-2.05-8.87-2.18-11.29-.79-6.38,3.66-12.49,23.92-17.4,31.31-1.96,2.95-4.95,7.25-8.41,8.45v-110.17l61.46,14.99Z"/>
      </g>
    </g>
  </g>
</svg>