<?xml version="1.0" encoding="UTF-8"?>
<svg id="Layer_1" xmlns="http://www.w3.org/2000/svg" version="1.1" viewBox="0 0 512 512">
  <!-- Generator: Adobe Illustrator 30.0.0, SVG Export Plug-In . SVG Version: 2.1.1 Build 123)  -->
  <defs>
    <style>
      .st0 {
        fill: #e4bcaf;
      }

      .st1 {
        fill: #cd9b8b;
      }

      .st2 {
        fill: #cc9e8d;
      }

      .st3 {
        fill: #82371d;
      }

      .st4 {
        fill: #a6654e;
      }

      .st5 {
        fill: #7d3619;
      }

      .st6 {
        fill: #eac0ae;
      }

      .st7 {
        fill: #cfa292;
      }

      .st8 {
        fill: #fcd0bd;
      }

      .st9 {
        fill: #edbeab;
      }

      .st10 {
        fill: #7d3419;
      }

      .st11 {
        fill: #b9836d;
      }

      .st12 {
        fill: #a3634b;
      }

      .st13 {
        fill: #d6a48f;
      }

      .st14 {
        fill: #8d4d3a;
      }

      .st15 {
        fill: #c08d7c;
      }

      .st16 {
        fill: #7c371c;
      }

      .st17 {
        fill: #edc8bd;
      }

      .st18 {
        fill: #b47f69;
      }

      .st19 {
        fill: #81351d;
      }

      .st20 {
        fill: #894f35;
      }

      .st21 {
        fill: #7f3316;
      }

      .st22 {
        fill: #86442b;
      }

      .st23 {
        fill: #f1c6b8;
      }

      .st24 {
        fill: #80381d;
      }

      .st25 {
        fill: #7e3319;
      }

      .st26 {
        fill: #f5ded5;
      }

      .st27 {
        fill: #d29f8e;
      }

      .st28 {
        fill: #c79c84;
      }

      .st29 {
        fill: #a56652;
      }

      .st30 {
        fill: #e7bbac;
      }

      .st31 {
        fill: #fce1d7;
      }

      .st32 {
        fill: #ecbfaa;
      }

      .st33 {
        fill: #7c3619;
      }

      .st34 {
        fill: #a35d45;
      }

      .st35 {
        fill: #a46d57;
      }

      .st36 {
        fill: #fdf3ee;
      }

      .st37 {
        fill: #ac7963;
      }

      .st38 {
        fill: #fed2bd;
      }

      .st39 {
        fill: #7e351b;
      }

      .st40 {
        fill: #813417;
      }

      .st41 {
        fill: #7c3219;
      }

      .st42 {
        fill: #be948d;
      }

      .st43 {
        fill: #aa6850;
      }

      .st44 {
        fill: #fdd6cc;
      }

      .st45 {
        fill: #fadbd0;
      }

      .st46 {
        fill: #a1634e;
      }

      .st47 {
        fill: #b97f6a;
      }

      .st48 {
        fill: #7e381c;
      }

      .st49 {
        fill: #966353;
      }

      .st50 {
        fill: #bb8b73;
      }

      .st51 {
        fill: #7e2f17;
      }

      .st52 {
        fill: #b9816c;
      }

      .st53 {
        fill: #7b361d;
      }

      .st54 {
        fill: #f6d0c5;
      }

      .st55 {
        fill: #d3ac9b;
      }

      .st56 {
        fill: #caa190;
      }

      .st57 {
        fill: #bc8972;
      }

      .st58 {
        fill: #843618;
      }

      .st59 {
        fill: #d3a48d;
      }

      .st60 {
        fill: #7e3c26;
      }

      .st61 {
        fill: #f5e3dc;
      }

      .st62 {
        fill: #ebc9bb;
      }

      .st63 {
        fill: #eac6b7;
      }

      .st64 {
        fill: #7c3419;
      }

      .st65 {
        fill: #c4917a;
      }

      .st66 {
        fill: #d1ab98;
      }

      .st67 {
        fill: #b98471;
      }

      .st68 {
        fill: #e6beac;
      }

      .st69 {
        fill: #be8c78;
      }

      .st70 {
        fill: #793415;
      }

      .st71 {
        fill: #7c432b;
      }

      .st72 {
        fill: #a4664c;
      }

      .st73 {
        fill: #bf8b75;
      }

      .st74 {
        fill: #7f3a20;
      }

      .st75 {
        fill: #feede5;
      }

      .st76 {
        fill: #d5ac9d;
      }

      .st77 {
        fill: #dbb0a2;
      }

      .st78 {
        fill: #fdf3ec;
      }

      .st79 {
        fill: #d7a490;
      }

      .st80 {
        fill: #bd8c77;
      }

      .st81 {
        fill: #a46453;
      }

      .st82 {
        fill: #c59783;
      }

      .st83 {
        fill: #a5654c;
      }

      .st84 {
        fill: #7f4028;
      }

      .st85 {
        fill: #9f786a;
      }

      .st86 {
        fill: #7f3519;
      }

      .st87 {
        fill: #d9b09d;
      }

      .st88 {
        fill: #7c3318;
      }

      .st89 {
        fill: #b47865;
      }

      .st90 {
        fill: #edc8bc;
      }

      .st91 {
        fill: #bf8678;
      }

      .st92 {
        fill: #843d27;
      }

      .st93 {
        fill: #e3bba9;
      }

      .st94 {
        fill: #793416;
      }

      .st95 {
        fill: #c99f90;
      }

      .st96 {
        fill: #f5d5c7;
      }

      .st97 {
        fill: #ebc8be;
      }

      .st98 {
        fill: #f4ded4;
      }

      .st99 {
        fill: #814733;
      }

      .st100 {
        fill: #84422d;
      }

      .st101 {
        fill: #7d361a;
      }

      .st102 {
        fill: #efcac1;
      }

      .st103 {
        fill: #7d361b;
      }

      .st104 {
        fill: #834023;
      }

      .st105 {
        fill: #bc8975;
      }

      .st106 {
        fill: #a5664f;
      }

      .st107 {
        fill: #a5684f;
      }

      .st108 {
        fill: #af7866;
      }

      .st109 {
        fill: #b37f6b;
      }

      .st110 {
        fill: #fde1d6;
      }

      .st111 {
        fill: #f0cebe;
      }

      .st112 {
        fill: #c08e78;
      }

      .st113 {
        fill: #956755;
      }

      .st114 {
        fill: #e3beb1;
      }

      .st115 {
        fill: #aa7057;
      }
    </style>
  </defs>
  <path class="st21" d="M114.44,250.34c-1.02-2.7-4.79-12.13-4.23-14.18,2.13-2.64,11.24-11.64,14.17-11.14l10.97,27.93h48.79c-.54-3.81-1.06-9.12,0-13.07.07-1.21,5.48-1.09,5.77-.87.98.73-.24,21.6-.55,24.39-18.66.38-37.53.38-56.63,0l-10.47-27.01c-6.41,2.08-4.07,6.61-2.41,11.57.99,2.95,5.57,11.38,5.79,13.42.15,1.34-.74,1.51-1.63,2.02-5.46.71-11.08.88-16.55,0-.64-.1-1.61-.68-2.61-.87-.91,2.03-4.12,1.86-6.1,1.74-.86,1.05-2.02.47-3.48-1.74-.85,1.51-4.22,2.88-5.23.87-.29.76-.58.76-.87,0-3.54-.07-7.03.23-10.45.87,1.81,2.23-1.2,3.93-3.48,3.48l.19.98c5.1.19,10.27.44,15.49.76,1.85-2.18,3.37-2.16,5.23,0,1.03-2.15,1.81-3.25,3.48-.87.36-2.65,5.71-2.51,6.1,0,51.6-.03,104.16.26,157.68.87.59,0,1.17,0,1.74,0,1.1-1.7,2.39-1.7,3.48,0,2.53-2.51,4.27-2.8,5.23-.87.36-2.71,5.35-1.46,6.1.87,49.92-.75,102.92-.82,153.32,0l7.84,12.2-383,.43c-2.42-.11-3.39-.84-2.92-2.18,2.2-3.65,8.32-10.94,11.31-14.38,2.43-2.8,9.53-11.32,12.21-12.62,11.6-.74,23.27-.87,35.01-.4,1.17-.45,1.18-1.14.71-2.21ZM110.93,279.12l20.96.02v-6.15s-20.96-.02-20.96-.02v6.15ZM138.83,273.86v5.27h20.04v-5.27h-20.04v5.27h20.04v-5.27c-5.93-1.46-14.11-1.46-20.04,0ZM165.83,273.86v5.27h20.04v-5.27h-20.04v5.27h20.04v-5.27c-5.93-1.46-14.11-1.46-20.04,0ZM192.84,278.21c.41,1.25,1.16.85,2.13.91,4.59.3,11.19.3,15.78,0,.97-.06,1.72.34,2.13-.91.33-1.01-.23-3.1,0-4.36-6.19-2-13.57-.33-20.04-.88.27,1.48-.38,4.04,0,5.23ZM220.72,273.86c-1.12,1.29.06,2.56,0,3.48,0,.12-1.2.87-.87,1.74,6.18-.58,13.65.8,19.64.03.88-.11.98,0,1.26-.9.39-1.2-.26-3.75,0-5.23-6.47.54-13.85-1.12-20.04.88ZM248.6,273.86c.14.77.13,2.69,0,3.48-.02.1-1.26.64-.87,1.74,5.02-.89,15.18,1.29,19.47-.12,1.96-.64,2.04-3.61.56-5.1-2.15-2.15-16.21-.2-20.04-.86-.22.7.86.78.87.86ZM275.6,278.21c2.11,2.15,16.18.2,20.04.88v-6.11s-20.92,0-20.92,0c.06,1.99-.6,3.72.88,5.23ZM303.48,273.86c.14.77.13,2.69,0,3.48-.02.1-1.26.64-.87,1.74,5.88-.31,12.05.43,17.9.04.97-.06,1.72.34,2.13-.91.33-1.01-.23-3.1,0-4.36-6.19-1.99-13.57-.35-20.04-.86-.22.7.86.78.87.86ZM329.6,279.12h20.93s0-6.14,0-6.14h-20.93s0,6.14,0,6.14ZM357.49,273.86v5.27h20.05v-5.27h-20.05v5.27h20.05v-5.27h-.02c-5.93-1.46-14.11-1.46-20.04,0ZM384.48,279.12h20.93s0-6.14,0-6.14h-20.93s0,6.14,0,6.14Z"/>
  <path class="st40" d="M372.3,213.75c.7-.52.72-2.31,2.61-1.74-.69,2.04-2.96,10.17-1.74,11.32.17.16,3.36-.11,4.59.2,8.13,2.09,15.41,8.22,15.46,17.22-2.08-.38-5.57.53-7.31.06-.83-.23-.77-2.73-1.51-3.9-.5-.8-1.33-1.01-1.64-1.39-2.21.32-5.93-2.22-6.1-4.36-2.87-.43-5.78-.43-8.71,0-.83,2.09-3.6,6.78-6.1,6.1-1.13.99-1.61,6.21,0,7.84,2.42-.53,6.31,3.95,6.1,6.1.27.16.51.69.87.87,11.98,1.06,24.7,1.21,36.59,0,.14-.33-.05-1.19,0-1.74-.55-7.52-.36-15.23,0-22.65-.34-2.6,4.74-2.5,5.23,0,.44,12.02.44,23.92,0,35.72-43.28.82-86.55.82-129.8,0-1.58,1.78-2.04,1.46-1.74-.87-1.33.69-3.01.63-4.36,0,.8,1.99.26,2.31-1.74,1.74-.69,2.2-1.56,1.91-2.61-.87-1.28,1.93-2.04,1.41-1.74-.87-1.03.65-2.44.65-3.48,0,.54,2.27,0,2.43-1.74.87-.29,0-.58,0-.87,0h-62.72v-42.69c.03-.56-.11-1.29,0-1.74,1.3-.75,6.91-.66,7.39-.04l.45,34.01c20.65-.26,40.83-.57,60.55-.92l.43-6.05v-.87c1.72-.5,6.29-1.21,6.1.87l.87,6.1c14.93-.08,29.74.21,44.43.87l.86-35.17.88-.55c1.84-.51,4.16-.84,5.66-.07l.43,35.79c9.64-.29,18.93-.58,27.88-.87-1.33-1.72-2.1-4.03-2.61-6.1-.52-3.17-.52-6.4,0-9.58,1.5-6.24,3.14-7.89,8.68-10.93,1.4-.77,7.46-2.71,7.73-3.15.8-1.31-.36-5.23.15-6.83-1.16-1.51-.29-2.09,2.61-1.74Z"/>
  <path class="st64" d="M286.06,321.77c7.48.59,14.64.69,21.49.29,1.26-.39,1.56-1.02,1.16-2.03-2-6.03-4.37-7.63-10.45-9.58l-6.33-.43c-.31-.11-.46-4.32.23-4.8,2.64-.25,13.04,2.55,15.27,4.33,4.23,3.38,4.71,8.12,6.51,12.22,2.92.54,22.61,1.11,23.44.28.28-.28.59-.78.08-2.02-2.64-7.81-9.62-10.08-17.43-9.58l.45-5.25c11.18,1.66,18.31,2.82,21.33,14.82.86,2.6,3.47,3.18,7.84,1.74,6-5.3-.02-20.36.95-21.68.31-.43,2.96-1.4,3.85-.11.99,1.44,1.01,5.13,1.3,6.98.4,3.75.5,7.57,0,11.33-.64,3.16-1.11,7.1-4.36,8.71-10.44.96-20.91.69-31.36,0-.29,0-.58,0-.87,0-4.93.73-9.89.74-14.81,0-1.46,0-2.92,0-4.36,0-5.21.74-10.48.77-15.68,0-.79,0-2.13.83-3.49,0,3.01-3.09-1.65-25.87-.81-26.94.07-.09,2.02-.89,2.13-.89,1.91.09,6.27,19.66,3.91,22.61Z"/>
  <path class="st10" d="M158.87,327c-8.54,11-24.26-.76-18.28-13.06,6.24.08,3.12,3.79,3.48,7.31.75,7.26,7.54,7.19,11.32,1.83,4.99-7.08-1.89-22.09-.87-23.08,1.02.17,3.93-.33,4.32.04.35.33,1.56,8.16,1.78,9.54.63,3.58.63,7.07,0,10.45.47.46.61,1.3.45,1.94,7.87.72,16.25.53,23.95-.2.64-5.31-7.94-10.03-12.2-11.33-5.9.21-7.93-1.24-6.1-4.36,4.33-1.48,15.27,2.13,18.32,5.64,1.39,1.6,2.9,6.1,3.46,8.3.64,2.52.65,4.7.04,6.54h-29.5c.1-.51-.18-.26-.16.43Z"/>
  <path class="st37" d="M55.2,279.96l3.01,1.74h382.91s-386.36.88-386.36.88c-1.48-.84.02-1.93.43-2.62Z"/>
  <path class="st5" d="M415.86,257.31c-.64-15.25-.93-30.56-.87-45.92l6.57-.25c-.16,14.04-.02,28.27.4,42.69,1.69,3.28,6.33,8.2,8.71,12.2.21.49.36.89.26.97-1.23.92-6.38.32-8.1-.1-.68-.43-6.82-8.76-6.97-9.58Z"/>
  <path class="st39" d="M215.49,322.64c.58-.02,1.16.04,1.74,0,.38-3.57-2.64-9.6-5.76-11.21-4.13-2.14-6.51,1.22-5.56-5.34,4.43-.44,10.8,1.68,12.87,5.86,2.91,5.87-.52,12.34,8.31,10.47,8.15-1.72,1.57-18.06,2.42-21,.4-1.37,2.86-1.97,3.4-1.44.21.21,1.45,4.9,1.65,5.76,1.17,4.95.76,16.02-2.45,20.01-1.38,1.71-2.95.91-4.43,1.23-6.38.71-12.77.61-19.17,0-1.08-.2-2.15.07-3.47-.41-6.17-2.26-5.52-6.22.85-4.81l9.58.87Z"/>
  <path class="st25" d="M277.34,315.67c.6,1.44.64,2.71.12,3.8l-11.44.56c-4.18,1.27-4.52,3.06-7.67,5.36-.6,14.5,12.52,4.5,16.41,7.24,3.4,2.39-2.42,4.64-4.38,5.25-6.64,2.07-12.07,1.34-15.25-5.65-5.23-11.51,7.23-17.78,16.99-17.44-.96-1.38-4.6-3.54-6.06-3.94-4.97-1.35-11.28,2.18-8.74-5.63,8.59,1.36,16.52,1.26,20.03,10.46Z"/>
  <path class="st86" d="M376.66,231.17c3.13.52,4.32,2.2,6.1,4.36,4.18,11.37-3.34,17.6-14.81,15.68-3.97-2.35-3.69-3.14-6.1-6.1-1.56-1.2-1.39-6.46,0-7.84,1.64-1.97,2.55-5.54,6.1-6.1,2.93-.44,5.83-.44,8.71,0ZM369.69,238.14c-.2,1.42.89,2.8.86,3.82-.01.45-3.46,2.34-3.51,2.86-.62,6.47,8.05,3.01,7.67-.89-.02-.22-1.39-3.9-1.54-4.06,3.69-1.47,2.09-.7,1.73-4.36-1.56.93-4.94.68-5.22,2.62Z"/>
  <path class="st109" d="M263.4,269.5c-52.12-.03-104.26,0-156.39.01-.79-.09-1.24.18-1.29-.89,50.84-.77,102.04-.55,152.9-.02,1.47.02,3.87-.56,4.78.89Z"/>
  <path class="st88" d="M197.16,300.03c.72.62,2.73,12.34,2.67,14.3-.11,3.3-1.9,9.88-3.29,12.4-1.58,2.86-3.89,2.14-4.38-.28-.13-.65,2.43-9.69,2.46-12.94.02-2.64-1.87-11.51-1.7-12.1.43-1.52,3.66-1.89,4.25-1.38Z"/>
  <path class="st18" d="M433.28,269.5h-153.32c-.76-.25-.75-.54,0-.87l151.24-.05,2.09.92Z"/>
  <path class="st103" d="M239.46,300c3.94-1.09,5.77,11.72,5.72,14.36s-2.89,13.54-5.72,13.54c-3.96,0,.11-7.83.41-10.93.23-2.35.15-5.43,0-7.82-.13-2.01-2.74-8.51-.41-9.15Z"/>
  <path class="st2" d="M420.21,196.33c2.64-.49,1.67,1.33,1.75,3,.27,5.45,3.64,9.19-.08,13.05l.07,41.44c-.37-.72-.75-.68-.92-2.09-.7-5.75,1.47-38.34.06-39.73h-5.24v45.3c-1.44-.91-.87-3.31-.88-4.78-.15-14.02-.8-28.52-.86-42.26,1.02-1.62,3.35-2.34,6.98-2.15-3.59.38-5.92-.35-6.98-2.21,0-.38.75-1.67.87-2.61.32-1.35,2.9-1.39,4.19-1.14.22.04-4.18.64-4.19-.6.14-.8-.15-1.83,0-2.61,1.75-.9,3.49-1.77,5.23-2.61Z"/>
  <path class="st101" d="M272.99,226.82c.27.3,2.19,7.05,2.28,7.85.24,2.18-1.45,3.19-1.41,5.22.73.66,5.96-2,2.61,4.36-2.42,1.24-6.83.49-9.58,0-1.33-4.95,2.04-4.52,2.61-5.25.28-.36-1.31-1.49-1.57-2.35-1.35-4.49,2.19-4.13,2.46-5.21.38-1.53-.26-3.8-.02-5.49,1.54-1.74,2.55-1.52,2.61.87Z"/>
  <path class="st77" d="M410.63,263.4v.87h-129.8c-.76-.25-.75-.54,0-.87,43.16,1.45,86.62-1.08,129.8,0Z"/>
  <path class="st58" d="M182.96,217.38c1.25-.42,5.4-.38,6.8-.12,5.21.99,4.74,11.72-4.27,10.39-6.37-.94-5.99-9.11-2.53-10.27Z"/>
  <path class="st48" d="M408.89,192.84c1.49,5.23,2.68,10.67,2.61,16.03,0,.69-.86,1.24-.87,1.4-5.28,1.31-6.86.81-5.23-5.23-.71-7.19.46-3.72,1.61-7.61.44-1.5-.9-3.16.13-4.59.39-1.91,1.17-1.85,1.74,0Z"/>
  <path class="st60" d="M320.9,195.45c-.02-1.07-.98-4-.86-4.68.17-.94,2.16-.74,2.46-1.9.05-.21,0-4.1-.05-4.31-.06-.31-2.6-1.64-2.42-3.04,3.12,1.36,4.88-.4,7.83-.87.37,2.02-1.85,2.38-2.34,4.04-.07.24-.32,4.72-.28,4.96.04.29,1.52.34,1.76,4.93.12,2.56-4.97,3-6.1.87Z"/>
  <path class="st51" d="M327,194.58c.03.58-.02,1.16,0,1.74.74,3.12.76,6.47,0,9.58.27,1.62-5.03,1.22-6.1,0-.9-3.31-.65-7.04,0-10.45,1.26-.58,4.52-.68,6.1-.87Z"/>
  <path class="st3" d="M206.78,194.58c.29,3.65-.39,7.75,0,11.33-.45,2.51-5.89,2.81-6.1,0-.7-3.41-.71-7.04,0-10.45,0-.29,0-.58,0-.87,1.34-1.31,4.91-1.53,6.1,0Z"/>
  <path class="st71" d="M414.99,198.94c.56-2.85,2.36-2.21,2.63-3.23,1.04-3.85-1.11-7.14-3.5-9.83,2.63.28,6.67,2.05,6.98-1.74,4.3,1.91-.74,4.35-.87,4.95-.33,1.54-.19,5.48-.02,7.23.08.79,1.36,2.15.87,3.48l-6.09-.87Z"/>
  <polygon class="st102" points="268.63 245.98 268.64 252.96 207.65 252.95 207.65 252.08 267.76 252.08 268.63 245.98"/>
  <path class="st84" d="M205.04,182.39c1.56-1.21,2.04-.75.87.87,0,.25-.68,1.04-.56,1.98.41,3.14,1.18,6.17,1.43,9.35-1.89,1.21-4.21,1.21-6.1,0,.05-5.66,1.23-3.34,1.7-4.98.15-.51.88-5.13.79-5.38-.03-.09-1.16-.43-1.62-.96-1.13-2.32,1.99-1.79,3.48-.87Z"/>
  <path class="st87" d="M262.53,263.4h-62.72c20.89-.19,41.84.25,62.72,0Z"/>
  <polygon class="st108" points="189.36 263.4 189.36 264.28 132.73 263.4 189.36 263.4"/>
  <path class="st48" d="M104.85,262.53c2.34,2.41.78,4.19.87,6.1-1.86.03-4.39-.03-6.1,0-2.26.92-2.3-3.31-.87-4.36.96-2.3,3.99-2.15,6.1-1.74Z"/>
  <path class="st53" d="M279.09,262.53c.46.03,1.3.86,1.74.87v.87l-.87,4.36v.87c-2.36,0-5.21-.87-6.1-.87-2.88.7-2.44-3.11-.87-4.36.29-.78.91-1.57,1.74-1.74,1.4.58,2.96.65,4.36,0Z"/>
  <path class="st92" d="M208.52,212.01c.33,1.33,1.39,2.64.85,4.33-1.38.89-2.56.05-3.46.03-1.32,1.38-3.83,1.24-5.23,0-.47-.53-2.07,1.36-1.74-3.48.8-3.55,8.13-3.81,9.58-.87Z"/>
  <path class="st16" d="M191.97,233.79c.27,1.68.99,2.04,0,4.36-1.85,1.39-2.71,1.69-2.59.89-2.63.35-4.96.05-6.99-.89-.45-1.18-.19-3.08,0-4.36,2.68-.6,5.48-1.18,8.4-1.74l1.18,1.74Z"/>
  <path class="st11" d="M183.26,252.95c.25-.76.54-.75.87,0h-48.79,47.91Z"/>
  <path class="st104" d="M328.74,212.01c.16,2.27-.87,3.88-.87,4.36l-.39,1.16c-2.2-.62-4.69-1.01-7.45-1.16,0-.33-.89-2.32-.87-4.36.27-.88,1.13-2.24,1.43-1.74,1.2,1.96,5.83,2.14,6.97,0l1.18,1.74Z"/>
  <path class="st74" d="M268.63,262.53c.47.08,1.19.64,1.74.87,3.22,2.45,1.95,5.18-1.74,6.1-1.16,0-2.32,0-3.48,0-1.62-1.75-2.06-3.74-1.74-6.1.43,0,1.28-.85,1.74-.87,1.12.62,2.36.6,3.48,0Z"/>
  <polygon class="st90" points="320.03 252.08 320.03 252.95 275.6 252.08 320.03 252.08"/>
  <path class="st99" d="M191.09,203.3c.81.93-2.04,3.79-2.39,5-.29.99-.05,8.32-2.38,7.18-3.2-3.61,1.92-7.03-3.06-9.57,1.5.05,2.98,0,4.45-.39,1.36-.36,2.26-3.52,3.39-2.23Z"/>
  <path class="st59" d="M327.87,216.36c-.04,10.95-1.08,25.21,0,35.72.76.29.76.58,0,.87l-.87-35.72c-1.74,0-3.49,0-5.23,0-.28,2.31-1.08,2.21-1.74,0,0-.29,0-.58,0-.87h7.84Z"/>
  <path class="st70" d="M414.12,205.91l8.73.5v3.86s-8.73,0-8.73,0c0-1.45-.02-2.91,0-4.36Z"/>
  <path class="st38" d="M199.81,263.4v-42.69c-.71,14.11.53,28.54,0,42.69Z"/>
  <path class="st35" d="M205.91,218.1c.1.11,1.19-.24,1.53.16,1.11,1.28-.29,28.96.21,33.82.03.29-.02.58,0,.87l-.87-33.98h-6.97c.17-.66.2-.69.87-.87.71-1.5,4.29-1.3,5.23,0Z"/>
  <path class="st13" d="M191.97,238.14c-.17.4-1.58.45-1.8,2.17-.94,7.46,1.53,16.64-.82,23.97.02-.29-.03-.58,0-.87.27-2.65.85-22.71,0-23.53-.34-.33-4.09.29-5.23,0-.14-.04-1.65-1.49-1.74-1.74h9.58Z"/>
  <path class="st6" d="M114.44,250.34c.23.6,1.43,1.14.87,2.61h-36.58c.69-.33.72-.74,2.09-.92,8.89-1.12,21.16.37,30.62.05,1.68-.06,3.5.89,3.01-1.74Z"/>
  <path class="st23" d="M410.63,264.28c.02-.29-.03-.58,0-.87,1.14-11.07-1.49-25,0-35.72-1.28-1.42-.74-1.97.87-.87-.96,1.32.06,28.32.02,32.68-.02,1.47.56,3.87-.89,4.78Z"/>
  <path class="st115" d="M188.49,320.03c.59,2.31,1.44,4.15.87,6.97h-30.49s-1.52-.83-.43-.88h30.06s0-6.09,0-6.09Z"/>
  <path class="st34" d="M321.77,217.23l-1.74,35.72c.02-.29-.03-.58,0-.87,1.06-10.33,0-24.08,0-34.85h1.74Z"/>
  <path class="st17" d="M405.4,252.08c-.53,1.25-1.08.8-2.13.91-7.47.82-23.87.67-31.5.02-1.81-.15-1.64-.27-2.96-.93h36.59Z"/>
  <path class="st67" d="M404.53,220.72c.25-.76.54-.75.87,0-.32-2.62,4.76-2.48,5.23,0,.25-.76.54-.75.87,0,.11.16,1.55-.73,1.82,1.24.82,6.05-1.59,4.55-1.82,4.86-.52.13-.79.31-.87.87h-5.23c-.35.22-.64-.07-.87-.87-2.38-1.47-3.16-1.03-1.71-5.48.33-1.03,1.66-.55,1.71-.62Z"/>
  <path class="st36" d="M351.39,327c-1.31.65-1.21.77-2.96.93-6.96.66-16.38.03-23.63-.04-1.47-.02-3.87.56-4.78-.89,10.44-.01,20.92,0,31.36,0Z"/>
  <path class="st27" d="M206.78,205.91c.18,1.61,1.31,4.36,1.74,6.1-3.17.2-6.66-.7-9.58.87.14-2.13,1.58-5.14,1.74-6.97,1.39.44,4.4-.31,6.1,0Z"/>
  <path class="st79" d="M327,205.91c.08,1.43,1.64,4.64,1.74,6.1h-9.58c0-.67.8-2.61.87-4.36.25-.76.54-.75.87,0q1.8,2.27,0,0c-.63-.55-.64-1.17,0-1.74,1.68-.31,4.74.45,6.1,0Z"/>
  <path class="st97" d="M355.75,252.08s1.67.41.43.88h-28.31c-.02-.29.03-.59,0-.88h27.88Z"/>
  <path class="st20" d="M297.39,332.24c7.14-5.05,7.19,4.97,3.17,4.27-.95-.58-3.95-3.15-3.17-4.27Z"/>
  <path class="st68" d="M183.26,229.43c.61-1.28,7.56-1.16,7.84-.87.18.19.72,4.22.88,5.22h-9.58c.06-.43.66-1.17.87-1.74.84-.96.84-1.83,0-2.61Z"/>
  <path class="st45" d="M161.48,320.03c-.08.64-.27,1.56.56,1.77,5.5,1.39,16.75-1.09,22.96-.03-.17,1.42-1.93.81-3.04.88-6.94.47-14.36-.37-21.36,0-.03-.87.03-1.74,0-2.62.25-.76.54-.75.87,0Z"/>
  <path class="st63" d="M337.45,320.03c.19.57,1.46,1.14.87,2.61-7.22-.71-16.15.97-23.14.03-.88-.12-.91-.12-1.25-.9,6.82-.17,13.69.23,20.51,0,1.68-.06,3.5.89,3.01-1.74Z"/>
  <path class="st114" d="M308.71,320.03l.87,2.61h-23.08s-.44-.87-.44-.87c6.53-.16,13.11.22,19.64,0,1.68-.06,3.5.89,3.01-1.74Z"/>
  <path class="st14" d="M172.74,302.56c-2.46,1.61-6.31-4.63-2-5.99,3.38.75,3.2,3.38,2,5.99Z"/>
  <path class="st49" d="M270.37,225.94c-.9-.7-2.26-1.53-2.61-2.6,1.49-.12,3.29.32,4.7-.12,1.63-.52.61-3.24,3.14-2.49l-2.61,6.09c-.13-.15-1.89-.31-2.61-.87Z"/>
  <path class="st22" d="M266.84,324.43c2.3,1.93.73,7.79-1.68,6.05-.19-.14-2.61-3.68-2.62-3.91,0-.73,3.13-2.94,4.29-2.13Z"/>
  <path class="st113" d="M408.89,192.84c-.26.08-1.48.08-1.74,0-.41-.13-2.5-1.88-2.61-2.6,2.55,0,6-.19,5.67-3.5,4.26.44.63,5.48-1.31,6.11Z"/>
  <path class="st54" d="M405.4,227.69c.7,2.69.32,18.99,0,22.65-2-7.39-.34-15.87-.87-23.52.41.25.72.29.87.87Z"/>
  <path class="st100" d="M414.99,201.55c3.52-1.35,7.22-2.4,6.1,2.61l-6.1-.87c.07-.56-.09-1.2,0-1.74Z"/>
  <path class="st94" d="M183.26,229.43c.26-.23,6.86-.2,6.97.44.71,4.03-4.6,1.56-6.97,2.17.21-.59-.23-2.41,0-2.61Z"/>
  <path class="st30" d="M405.4,205.04c.17,1.71-.13,3.51,0,5.23h5.23c-.01.28.01.58,0,.87-.41,1.43-1.54,2.02-3.39,1.77.58,3.84-.04,6.45-1.84,7.81h-.87c1.09-1.69-1.48-13.03.87-15.68Z"/>
  <path class="st75" d="M227.69,327c-6.52,1.43-12.71,1.21-19.17,0h19.17Z"/>
  <path class="st98" d="M124.02,263.4c-2.26,1.33-10.55,1.22-13.6.93-1.7-.16-2.52-.86-2.95-.93h16.55Z"/>
  <path class="st7" d="M277.34,315.67c.56,1.46,1.42,2.36.87,4.35h-12.2c4.08-1.24,6.05-.58,10.05-.86,2.48-.17.91-2.15,1.28-3.49Z"/>
  <path class="st110" d="M299.99,327c-4.42,1.47-11.32,1.46-15.68,0,5.21.06,10.47,0,15.68,0Z"/>
  <path class="st31" d="M319.16,327c-4.1,1.47-10.76,1.46-14.81,0,4.93,0,9.88,0,14.81,0Z"/>
  <path class="st8" d="M184.13,252.95h-.87c.56-3.59-.79-9.43,0-12.63.1-.39.49-.52.86-.44v13.07Z"/>
  <path class="st111" d="M320.9,205.91c.02.58-.01,1.16,0,1.74h-.87c.1-2.51-.74-11.46.87-12.2.06,3.47-.11,6.98,0,10.45Z"/>
  <path class="st56" d="M292.15,305.22v4.36c2.63-.52,4.04.2,6.1.87h-6.97s.01-4.79.01-4.79c.13-.51.48-.4.86-.44Z"/>
  <path class="st91" d="M355.75,318.29v-11.33c.84,5.3,1.1,5.9,0,11.33Z"/>
  <path class="st66" d="M166.71,306.09v3.49c2.62-.55,4.08.26,6.1.87h-6.97c.16-1.43-.69-3.82.88-4.36Z"/>
  <path class="st55" d="M161.48,320.03h-.87c-.1-3.47.07-6.98,0-10.45.54,3.36,1.41,6.76.87,10.45Z"/>
  <path class="st9" d="M276.47,244.24c-.36.68-.91,1.75-1.74,1.74-.08,0-.68-.79-1.41-.8-1.53-.02-3.18.04-4.69-.07-.87-.07-1.44.26-1.74-.87h9.58Z"/>
  <path class="st96" d="M200.68,205.91c-1.39-.45-1.45-8.98,0-10.45-.05,3.39.29,7.16,0,10.45Z"/>
  <path class="st42" d="M372.3,213.75c-.68.51-2.44,1.2-2.61,1.74-2.33-.05-2.95-1.32-2.6-3.48l5.22,1.74Z"/>
  <path class="st61" d="M205.91,216.36c.11.49-.16,1.57,0,1.74-1.55.24-3.86-.35-5.23,0-.11-.49.16-1.56,0-1.74,1.74.04,3.49-.05,5.23,0Z"/>
  <path class="st95" d="M353.13,245.98c-1.15-4.7-1.09-5.04,0-9.58v9.58Z"/>
  <path class="st85" d="M205.91,183.26c-.03-.83-.18-.75-.87-.87-.76-.25-.75-.54,0-.87l.88-3.48c2.46.86,2.47,4.38,0,5.23Z"/>
  <path class="st78" d="M327,205.91c-.18-3.17.13-6.41,0-9.58,1.47,1.57,1.37,9.13,0,9.58Z"/>
  <path class="st28" d="M430.67,266.02c.15.26,1.34.1.87,1.74-3.11-.23-6.05.82-8.71-.87,2.46-.33,6.06.94,7.84-.87Z"/>
  <path class="st44" d="M411.5,220.72h-.87c-2.54-2.38-2.67-7.28,0-9.58,2.12.68.07,8.38.87,9.58Z"/>
  <path class="st93" d="M341.81,320.03c1.33,3.06,5,1.39,7.84,1.74-1.04.92-7.14,1.48-7.84.87-.24-.21.17-1.93,0-2.61Z"/>
  <path class="st0" d="M215.49,322.64c-3.86.16-6.09-.1-9.58-.87,3.02.41,7.22-1.02,9.58.87Z"/>
  <path class="st76" d="M205.04,181.52v.87c-1-.17-2.99-.27-3.48.87-5.1-5.72.08-1.66,3.48-1.74Z"/>
  <path class="st19" d="M95.27,262.53c2.74,1.49,4.29,5.65.87,6.97-1.74.04-3.49,0-5.23,0-.63-.14-.92-.43-.87-.87v-5.23c2.13-.45,1.86-1.84,5.23-.87Z"/>
  <path class="st89" d="M275.6,278.21c-1.48-1.51-.81-3.24-.88-5.23h20.92s0,6.11,0,6.11c-3.86-.68-17.93,1.27-20.04-.88h0Z"/>
  <path class="st69" d="M384.48,278.21v-5.24s20.93,0,20.93,0v5.23c-.26.6-.55.59-.88,0-1.39-.18-1.99-1.1-1.8-2.76-5.19-.3-10.37-.3-15.56,0,.19,1.66-.41,2.58-1.8,2.76-.26.6-.56.59-.89,0Z"/>
  <path class="st15" d="M329.6,278.21v-5.24s20.93,0,20.93,0v5.23c-.26.6-.55.59-.88,0-1.39-.18-1.99-1.1-1.8-2.76-5.19-.3-10.37-.3-15.56,0,.19,1.66-.41,2.58-1.8,2.76-.26.6-.56.59-.89,0Z"/>
  <path class="st81" d="M267.76,273.86c1.48,1.49,1.4,4.46-.56,5.1-4.29,1.41-14.45-.78-19.47.12-.39-1.1.85-1.64.87-1.74.91,1.44,3.3.87,4.78.89,4.66.06,16.06,2.06,14.39-4.37Z"/>
  <path class="st43" d="M130.99,272.99h.91s0,6.15,0,6.15l-20.96-.02v-.91c.25-.76.55-.75.89,0l.77-1.74h16.59c-.07-1.46.16-2.23,1.8-2.61-.76-.25-.75-.54,0-.87Z"/>
  <path class="st57" d="M220.72,273.86c6.19-2,13.57-.33,20.04-.88-.26,1.48.38,4.03,0,5.23-.26.46-.55.44-.87,0-.24-1.05.59-4.2-.5-4.37-5.48-.86-12.93.66-18.66.02Z"/>
  <path class="st73" d="M130.99,272.99v.87l-1.37,1.86-15.73-.31c-.17,1.63-.86,2.56-2.06,2.8h-.89s0-5.24,0-5.24l20.05.02Z"/>
  <path class="st65" d="M212.88,273.86c-5.73.65-13.18-.87-18.66-.02-1.09.17-.26,3.33-.5,4.37-.26.47-.55.46-.87,0-.39-1.19.26-3.76,0-5.23,6.47.54,13.85-1.12,20.04.88Z"/>
  <path class="st4" d="M239.88,278.21h.87c-.28.89-.38.78-1.26.9-6,.77-13.47-.61-19.64-.03-.33-.87.86-1.62.87-1.74,5.89,1.99,12.99.35,19.17.87Z"/>
  <path class="st72" d="M349.65,278.21h.88s0,.92,0,.92h-20.93s0-.92,0-.92h.89c.08-.68.29-1.69.77-1.74,2.2-.22,16.97-.24,17.82.58.29.28.45.7.57,1.16Z"/>
  <path class="st83" d="M404.53,278.21h.88s0,.92,0,.92h-20.93s0-.92,0-.92h.89c.08-.68.29-1.69.77-1.74,2.2-.22,16.97-.24,17.82.58.29.28.45.7.57,1.16Z"/>
  <path class="st106" d="M322.64,278.21c-.41,1.25-1.16.85-2.13.91-5.85.39-12.02-.36-17.9-.04-.39-1.1.85-1.64.87-1.74,5.89,1.99,12.99.35,19.17.87Z"/>
  <path class="st107" d="M377.54,277.34v1.78h-20.05v-.91c6.54-.47,13.75,1.04,20.05-.87Z"/>
  <path class="st29" d="M212.88,278.21c-.41,1.25-1.16.85-2.13.91-4.59.3-11.19.3-15.78,0-.97-.06-1.72.34-2.13-.91h20.04Z"/>
  <path class="st105" d="M377.53,273.86h-20.04c5.93-1.46,14.11-1.46,20.04,0Z"/>
  <path class="st80" d="M322.64,273.86h-19.17c-.01-.08-1.09-.16-.87-.86,6.47.51,13.85-1.13,20.04.86Z"/>
  <path class="st52" d="M267.76,273.86h-19.17c-.01-.08-1.09-.16-.87-.86,3.82.66,17.89-1.29,20.04.86Z"/>
  <rect class="st46" x="165.83" y="278.21" width="20.04" height=".91"/>
  <path class="st50" d="M185.87,273.86h-20.04c5.93-1.46,14.11-1.46,20.04,0Z"/>
  <path class="st112" d="M158.87,273.86h-20.04c5.93-1.46,14.11-1.46,20.04,0Z"/>
  <rect class="st12" x="138.83" y="278.21" width="20.04" height=".91"/>
  <path class="st47" d="M90.04,268.63c.41.06.78.45.87.87-5.51.02-11.04,0-16.55,0-.47-1.6.42-1.31.87-1.74,4.17,2.09,10.2.2,14.81.87Z"/>
  <path class="st26" d="M89.17,263.4c-2.98.59-9.39.46-10.45.87,2.65-1.91,7.15-.44,10.45-.87Z"/>
  <path class="st32" d="M361.85,237.27v7.84c-.09-.12-1.53.46-1.78-.55-.21-.86-.09-6.84.19-7.18.33-.39,1.49,0,1.59-.12Z"/>
  <path class="st82" d="M279.09,262.53c-.57,1.37-3.78,1.37-4.36,0,1.01-.21,3.17-.07,4.36,0Z"/>
  <path class="st1" d="M268.63,262.53c-.28,1.3-3.12,1.36-3.48,0,1.03-.05,2.56-.16,3.48,0Z"/>
  <path class="st62" d="M369.69,238.14c.28-1.94,3.66-1.69,5.22-2.62.36,3.67,1.96,2.89-1.73,4.36-.21-.23-2.93-.79-3.48-1.74Z"/>
  <path class="st24" d="M410.63,211.14c-.12,3.18.09,6.4,0,9.58h-5.23v-9.59c1.48.26,4.02-.38,5.23,0Z"/>
  <rect class="st41" x="403.64" y="221.58" width="8.74" height="4.38" transform="translate(-.28 .51) rotate(-.07)"/>
  <rect class="st64" x="200.68" y="207.64" width="6.11" height="3.5"/>
  <path class="st33" d="M320.9,207.65c4.09.31,7.08-1.77,6.1,3.48h-6.11c-.03-1.15.03-2.32,0-3.48Z"/>
</svg>