<?xml version="1.0" encoding="UTF-8"?>
<svg id="Layer_1" xmlns="http://www.w3.org/2000/svg" version="1.1" viewBox="0 0 419 281">
  <!-- Generator: Adobe Illustrator 30.0.0, SVG Export Plug-In . SVG Version: 2.1.1 Build 123)  -->
  <defs>
    <style>
      .st0 {
        fill: #757575;
      }

      .st1 {
        fill: #bb9a71;
      }

      .st2 {
        fill: #a98f76;
      }

      .st3 {
        fill: #ddd9d2;
      }

      .st4 {
        fill: #a28466;
      }

      .st5 {
        fill: #a18263;
      }

      .st6 {
        fill: #a68059;
      }

      .st7 {
        fill: #a6815c;
      }

      .st8 {
        fill: #e3dacf;
      }

      .st9 {
        fill: #1a1a19;
      }

      .st10 {
        fill: #2b2b2a;
      }

      .st11 {
        fill: #1b1b19;
      }

      .st12 {
        fill: #a88f76;
      }

      .st13 {
        fill: #9c9c9b;
      }

      .st14 {
        fill: #a08265;
      }

      .st15 {
        fill: #a5886c;
      }

      .st16 {
        fill: #838383;
      }

      .st17 {
        fill: #e3dbcf;
      }

      .st18 {
        fill: #dfd4c5;
      }

      .st19 {
        fill: #f0ece6;
      }

      .st20 {
        fill: #080806;
      }

      .st21 {
        fill: #d8d5cf;
      }

      .st22 {
        fill: #d8ccbd;
      }

      .st23 {
        fill: #767676;
      }

      .st24 {
        fill: #838382;
      }

      .st25 {
        fill: #d9ccbb;
      }

      .st26 {
        fill: #7a7a79;
      }

      .st27 {
        fill: #8b8b8a;
      }

      .st28 {
        fill: #d2c3b0;
      }

      .st29 {
        fill: #c4ab91;
      }

      .st30 {
        fill: #b49473;
      }

      .st31 {
        fill: #9d9d9c;
      }

      .st32 {
        fill: #070705;
      }

      .st33 {
        fill: #090907;
      }

      .st34 {
        fill: #afadaa;
      }

      .st35 {
        fill: #b09578;
      }

      .st36 {
        fill: #0a0a08;
      }

      .st37 {
        fill: #a6886a;
      }

      .st38 {
        fill: #a0876f;
      }

      .st39 {
        fill: #bd2fd5;
      }

      .st40 {
        fill: #b1987e;
      }

      .st41 {
        fill: #a2876d;
      }

      .st42 {
        fill: #979796;
      }

      .st43 {
        fill: #a4866a;
      }

      .st44 {
        fill: #e0d6cb;
      }

      .st45 {
        fill: #ebe6e0;
      }

      .st46 {
        fill: #e8e0d6;
      }

      .st47 {
        fill: #b2b1b1;
      }

      .st48 {
        fill: #bb9a72;
      }

      .st49 {
        fill: #f5f1ec;
      }

      .st50 {
        fill: #0b0b0a;
      }

      .st51 {
        fill: #e3dace;
      }

      .st52 {
        fill: #c6b39c;
      }

      .st53 {
        fill: #d5c7b5;
      }

      .st54 {
        fill: #b2b2b2;
      }

      .st55 {
        fill: #c7b5a1;
      }

      .st56 {
        fill: #a38465;
      }

      .st57 {
        fill: #e6dbd0;
      }

      .st58 {
        fill: #f4f1ed;
      }

      .st59 {
        fill: #e3d9cc;
      }

      .st60 {
        fill: #c8baab;
      }

      .st61 {
        fill: #a68768;
      }

      .st62 {
        fill: #a78b6f;
      }

      .st63 {
        fill: #a7825c;
      }

      .st64 {
        fill: #bbb;
      }

      .st65 {
        fill: #f3eee8;
      }

      .st66 {
        fill: #c5b29b;
      }

      .st67 {
        fill: #231f20;
      }

      .st68 {
        fill: #b39372;
      }

      .st69 {
        fill: #a68769;
      }

      .st70 {
        fill: #e1d8cd;
      }

      .st71 {
        fill: #181817;
      }

      .st72 {
        fill: #0b0b09;
      }

      .st73 {
        fill: #a68b6f;
      }

      .st74 {
        fill: #cabbaa;
      }

      .st75 {
        fill: #121210;
      }

      .st76 {
        fill: #909090;
      }

      .st77 {
        fill: #7e7e7d;
      }

      .st78 {
        fill: #e7e0d6;
      }

      .st79 {
        fill: #c4a581;
      }

      .st80 {
        fill: #b79774;
      }

      .st81 {
        fill: #bfbfbe;
      }

      .st82 {
        fill: #a88b6e;
      }

      .st83 {
        fill: #bbbaba;
      }

      .st84 {
        fill: #a28365;
      }

      .st85 {
        fill: #9e836a;
      }

      .st86 {
        fill: #9e836b;
      }

      .st87 {
        fill: #a6a6a5;
      }

      .st88 {
        fill: #7f7f7e;
      }

      .st89 {
        fill: #c4ac90;
      }

      .st90 {
        fill: #bb9b73;
      }

      .st91 {
        fill: #c4ab8f;
      }

      .st92 {
        fill: #aa8d70;
      }

      .st93 {
        fill: #8d8d8c;
      }

      .st94 {
        fill: #b49373;
      }

      .st95 {
        fill: #a7805a;
      }

      .st96 {
        fill: #b59c83;
      }

      .st97 {
        fill: #a3866b;
      }

      .st98 {
        fill: #c4ab90;
      }

      .st99 {
        fill: #a48565;
      }

      .st100 {
        fill: #ac8e6e;
      }

      .st101 {
        fill: #a68869;
      }

      .st102 {
        fill: #d9cdbd;
      }

      .st103 {
        fill: #1f1f1d;
      }

      .st104 {
        fill: #a9a9a8;
      }

      .st105 {
        fill: #1d1d1b;
      }

      .st106 {
        fill: #b4b3b3;
      }

      .st107 {
        fill: #bfa079;
      }

      .st108 {
        fill: #060604;
      }

      .st109 {
        fill: #acacab;
      }

      .st110 {
        fill: #a0a09f;
      }

      .st111 {
        fill: #b39373;
      }

      .st112 {
        fill: #dedede;
      }

      .st113 {
        fill: #171715;
      }

      .st114 {
        fill: #858584;
      }

      .st115 {
        fill: #e5ddd2;
      }

      .st116 {
        fill: #a4886d;
      }

      .st117 {
        fill: #aeaeae;
      }

      .st118 {
        fill: #dcdcdc;
      }

      .st119 {
        fill: #dbd0c0;
      }

      .st120 {
        fill: #b39474;
      }

      .st121 {
        fill: #d4c7b6;
      }

      .st122 {
        fill: #9d826b;
      }

      .st123 {
        fill: #bcbcbc;
      }

      .st124 {
        fill: #9e846c;
      }

      .st125 {
        fill: #a28569;
      }

      .st126 {
        fill: #e2d9cd;
      }

      .st127 {
        fill: #b79773;
      }

      .st128 {
        fill: #a08264;
      }

      .st129 {
        fill: #cdbaa3;
      }

      .st130 {
        fill: #c3ab90;
      }

      .st131 {
        fill: #888887;
      }

      .st132 {
        fill: #11110f;
      }

      .st133 {
        fill: #9f9f9e;
      }

      .st134 {
        fill: #a7a7a6;
      }

      .st135 {
        fill: #f3f1ed;
      }

      .st136 {
        fill: #e2d8cb;
      }

      .st137 {
        fill: #d2c2ad;
      }

      .st138 {
        fill: #af9479;
      }

      .st139 {
        fill: #060605;
      }

      .st140 {
        fill: #afa093;
      }

      .st141 {
        fill: #a78059;
      }

      .st142 {
        fill: #b4a598;
      }

      .st143 {
        fill: #a6805a;
      }

      .st144 {
        fill: #818181;
      }

      .st145 {
        fill: #a38567;
      }
    </style>
  </defs>
  <path class="st141" d="M85,155c10.16,1.67,9.21,17.16-1.66,17.71-11,.56-13.67-15.87-4.34-17.71,1.85-.96,4.16-.94,6,0Z"/>
  <path class="st6" d="M66.65,147.68c-8.01,11.57-22.57,1.23-16.06-9.6,5.32-8.86,22.22.71,16.06,9.6Z"/>
  <path class="st143" d="M53.72,74.21c14.49-3.26,16.54,18.9,1.8,17.84-9.59-.69-10.26-15.94-1.8-17.84Z"/>
  <path class="st141" d="M146.42,75.42c-10.39,10.34-20.77-6.06-12.39-12.89,7.67-6.25,21.21,4.11,12.39,12.89Z"/>
  <path class="st6" d="M148.42,158.42c-10.25,10.26-20.06-6.77-11.96-13.45,7.53-6.21,20.97,4.43,11.96,13.45Z"/>
  <path class="st6" d="M56.64,117.68c-6.18,9.23-19.76,3.2-17.18-6.7,3.47-13.36,23.88-3.3,17.18,6.7Z"/>
  <path class="st6" d="M120.42,172.42c-10.01,10.42-20.88-5.78-12.39-12.88,6.8-5.68,21.21,3.7,12.39,12.88Z"/>
  <path class="st95" d="M109.76,48.18c6.7-.82,12.38,5.62,10.07,12.16-.13.37-5.13,5.38-5.5,5.51-11.08,3.93-18.35-15.98-4.57-17.67Z"/>
  <path class="st6" d="M154,88c1.84-.95,4.15-.96,6,0,8.82,1.85,8.71,17.09-2.5,17.09-11.17,0-11.63-15.72-3.5-17.09Z"/>
  <path class="st68" d="M59.54,159.45c6.29.56,11.05,11.15,2.83,15.42-13.46,7-18.42-16.82-2.83-15.42Z"/>
  <path class="st68" d="M33,126c1.51-.9,3.5-.93,5,0,8.57,1.88,8.34,16.1-2.5,16.09-10.73,0-9.99-14.78-2.5-16.09Z"/>
  <path class="st68" d="M96.52,175.45c9.6.57,10.56,17.12-1,16.62s-10.44-17.3,1-16.62Z"/>
  <path class="st68" d="M132.72,169.21c15.54-3.53,14.71,19.96-.01,15.58-6.17-1.84-6.9-14.01.01-15.58Z"/>
  <path class="st68" d="M161.72,144.2c11.42-2.55,14.7,16.08,2.7,16.78-8.95.53-12.23-14.66-2.7-16.78Z"/>
  <path class="st143" d="M88.31,47.68c-6.83-6.25.93-19.38,10.21-12.69,9.71,6.99-1.82,20.36-10.21,12.69Z"/>
  <path class="st68" d="M28.27,87.27c5.33-6.63,20.27,1.28,13.75,10.26-7.27,9.99-20.2-2.23-13.75-10.26Z"/>
  <path class="st68" d="M127,50c-.8-1.95-.69-4.03,0-6,2.21-5.76,8.76-7.03,13.02-2.52,9.34,9.88-8.42,20.52-13.02,8.52Z"/>
  <path class="st68" d="M162.74,66.18c10.01-2.05,14.39,12.98,5.56,15.61-12.53,3.73-15.05-13.67-5.56-15.61Z"/>
  <path class="st141" d="M183.66,116.7c-.08.22-2.64,3.54-2.85,3.63-7.81,3.51-15.61-2.63-12.05-11.08,3.1-7.36,18.49-2.95,14.89,7.45Z"/>
  <path class="st68" d="M42.68,152.32c6.62,7.27-3.77,15.31-9.73,9.23-6.67-6.82,3.66-15.89,9.73-9.23Z"/>
  <path class="st94" d="M179.68,82.26c7.25-.32,9.37,13.94-.2,13.82-8.05-.1-8.82-13.42.2-13.82Z"/>
  <path class="st111" d="M70.73,179.21c9.85-2.2,12.25,11.07,3.53,12.64-8.13,1.46-11.34-10.89-3.53-12.64Z"/>
  <path class="st68" d="M152.73,45.21c9.86-2.21,12.24,11.08,3.53,12.64-8.02,1.43-11.15-10.93-3.53-12.64Z"/>
  <path class="st111" d="M113.68,26.25c7.54-.34,8.81,12.6.69,13.5-8.26.91-10.66-13.05-.69-13.5Z"/>
  <path class="st68" d="M113.28,194.72c-5.72-5.76,1.45-14.24,7.65-10.21,9.54,6.21-1.55,16.35-7.65,10.21Z"/>
  <path class="st94" d="M153.25,164.25c6.8-5.87,17.3,6.85,7.73,11.25-7.74,3.56-11.88-7.67-7.73-11.25Z"/>
  <path class="st141" d="M65.7,34.2c7.87-2.36,13.9,6.8,7.23,11.25-8.09,5.41-14.11-9.19-7.23-11.25Z"/>
  <path class="st91" d="M25.55,107.41c4.59.7,6.82,10.6.73,12.39-11.45,3.36-12.13-14.14-.73-12.39Z"/>
  <path class="st98" d="M80.71,197.16c6.84-2.06,11.53,7.04,5.04,10.11-8.08,3.84-11.36-8.22-5.04-10.11Z"/>
  <path class="st120" d="M192.71,97.19c7.5-2.26,11.15,7.15,5.05,10.07-7.51,3.6-10.67-8.38-5.05-10.07Z"/>
  <path class="st120" d="M75.24,19.24c4.17-4.16,12.99,1.58,8.83,7.33-4.72,6.51-14.08-2.08-8.83-7.33Z"/>
  <path class="st98" d="M130.73,19.16c6.21-.94,10.4,9.23,2.53,10.68-7.94,1.46-9.59-9.61-2.53-10.68Z"/>
  <path class="st98" d="M148.76,28.26c7.89-1.83,10.24,9.39,2.51,10.59-6.04.93-9.8-8.9-2.51-10.59Z"/>
  <path class="st91" d="M100.67,199.16c7.69-2.67,12.07,8.3,4.35,10.44-7.02,1.95-9.16-8.77-4.35-10.44Z"/>
  <path class="st30" d="M101.55,15.42c3.48.51,5.77,8.38.5,10.14-9.66,3.22-11.5-11.76-.5-10.14Z"/>
  <path class="st91" d="M151.72,184.18c4.1-1.21,9.95,3.58,7.35,7.38-6.25,9.15-16.16-4.78-7.35-7.38Z"/>
  <path class="st98" d="M179.75,57.76c-4.7,4.62-14.52-2.02-8.8-7.31,5.41-5,13.03,3.15,8.8,7.31Z"/>
  <path class="st98" d="M171.71,166.17c6.47-1.92,11.92,8.05,4.32,10.44-6.85,2.15-9.87-8.79-4.32-10.44Z"/>
  <path class="st98" d="M41.76,180.76c-3.03,3.02-9.78,1.51-9.77-4.25.01-10.77,16.16-2.13,9.77,4.25Z"/>
  <path class="st89" d="M134.66,193.21c5.64-.52,8.88,9.61,1.8,10.8-9,1.51-8.07-10.22-1.8-10.8Z"/>
  <path class="st89" d="M16.7,145.21c8.61-2.61,10.85,6.75,5.28,9.28-6.93,3.14-10.89-7.58-5.28-9.28Z"/>
  <path class="st98" d="M182.22,67.21c4.8-3.4,13.14,3.74,7.74,8.25-7.66,6.41-11.39-5.66-7.74-8.25Z"/>
  <path class="st29" d="M57.69,186.29c4.83,5.89-4.68,12.06-8.58,6.1s4.49-11.08,8.58-6.1Z"/>
  <path class="st130" d="M14.55,125.42c3.3.5,6.4,7.35,1.21,9.85-8.32,4.01-12.53-11.55-1.21-9.85Z"/>
  <path class="st98" d="M191.27,127.73c-4.69-3.86-.09-11.84,5.7-9.24,7.54,3.38.04,13.96-5.7,9.24Z"/>
  <path class="st7" d="M38.76,54.75c-4.15,4.17-11.74-2.37-7.85-7.35,4.59-5.87,12.84,2.33,7.85,7.35Z"/>
  <path class="st63" d="M46.25,33.25c4.06-4.05,12.96,2.71,7.26,7.79s-11.21-3.85-7.26-7.79Z"/>
  <g>
    <path class="st67" d="M119,97c1.21,9.84,1.05,20.14,0,30-9.81,1.05-20.22,1.21-30,0-.52-1.57-.4-25.63-.03-28.55.13-1.02.01-1.12,1.03-1.45,9.55-1.11,19.22-1.11,29,0Z"/>
    <path class="st104" d="M119,127v-30c.98.98.9,1,1.05,2.4.65,5.93.48,18.1,0,24.19-.13,1.63.27,2.08-1.06,3.41Z"/>
    <path class="st27" d="M119,127c-1.33,1.33-1.78.93-3.41,1.06-5.87.46-18.51.68-24.14-.01-1.11-.14-1.96.43-2.45-1.04h30Z"/>
    <path class="st83" d="M119,97c-6.99,1.4-23.27-1.87-29,0,1.04-1.66,3.79-1,5.49-1.02,6.3-.08,14-.53,20.1-.04,1.63.13,2.08-.27,3.41,1.06Z"/>
  </g>
  <rect class="st9" x="369" y="192" width="2.99" height="3.99"/>
  <path class="st28" d="M127,50c-.25-.67-1.04-1.01-1.12-2.5-.11-2.12.66-2.32,1.12-3.5v6Z"/>
  <path class="st55" d="M85,155c-1.21-.2-4.85-.23-6,0,.95-1.61,4.99-1.64,6,0Z"/>
  <path class="st74" d="M160,88c-1.08-.23-4.84-.2-6,0,.95-1.61,4.99-1.64,6,0Z"/>
  <path class="st53" d="M38,126c-.9-.2-4.03-.17-5,0,.66-1.58,4.34-1.58,5,0Z"/>
  <g>
    <path class="st20" d="M217,209c7.28.59,9.83,3.47,7.56,11.11-.63,2.13-4,2.02-2.55,3.87.8,1.02,3.69.36,3.9,5.6.3,7.22-2.34,7.34-7.92,8.42-4.43.81-8.77.81-13,0-2.76-2.74-.26-8.01,0-11l-1-7c.15-2.24.77-3.43,1-5-.79-1.91-.83-4.09,0-6,3.92-.83,8.09-.97,12,0ZM209,212c.46,2.41-.65,7.06,0,9,.13.39-.08.82.56.91,3.26,0,6.53.92,9.44-.91,3.83-2.41,2.89-8.08-1-9-1.86-1.68-7.14-1.68-9,0ZM220.75,226.24c-1.28-1.11-11.23-1.77-11.75-1.25v10.01c4.1-.23,12.99,1.63,13.07-4.47.01-1.08-.54-3.62-1.32-4.29Z"/>
    <path class="st20" d="M172,209c1.54.46,7.01,24.27,8,28,.73,1.62-1.56,1.48-3,1-1.76-1.64-1.14-4.45-2-6-4.21-.92-8.77-.86-13,0-1.5,1.8-.34,6.39-4.99,7,.7-3.98,5.56-29.38,7.99-30,2.19-.97,4.81-.96,7,0ZM169.99,211.99c-.11-.1-2.86-.09-2.98,0-.63.53-3.27,13.79-4.01,16h11c-1.67-2.04-3.41-15.43-4.01-16Z"/>
    <path class="st33" d="M234,217c2.56-.91,5.45-.98,8,0,7.98.82,4.09,10.44,5.05,16.45.3,1.89,2.5,3.26,1.95,5.54-6.52-2.57-19.57,4.42-19.56-6.5s14.33-2.81,13.6-9.99c-.17-1.7-.9-1.8-2.04-2.51-2.3-.7-4.72-.87-7,0-.89-.08-2.73.5-3.01-.51-.43-3.31.32-2.43,3.01-2.49ZM235,235c2.27,2.24,3.82.88,6,0,.5-.2,1.75.61,2.04-.63.22-.91.21-6.36-.56-6.39-3.99.04-12.39,2.17-7.49,7.02Z"/>
    <path class="st50" d="M274,236c.25.68-.15,2.08,0,2.99-15.36,2.09-7.88-11.12-9.94-18.45-.37-1.3-4.38.76-3.09-3.05.18-.53,5.14-2.54,3.03-7.5,6.72-1.19,2.84,2.6,4,6.01l6,1c.25.67-.15,2.08,0,3-1.25.25-5.68-.33-6.01,0-.54.53-.34,13.65,1.01,15.01l5,1Z"/>
    <path class="st108" d="M185,208c.27-.81,2.92-.83,3.4-.42,1.21,1.01.49,27.94-.4,31.42-.34.33-2.52.36-3-1-1.23-9.72-1.04-20.31,0-30Z"/>
    <path class="st75" d="M257,217v21c0,.21-3.34.95-4,1v-22c0-.2,3.28.13,4,0Z"/>
    <path class="st47" d="M185,207c.23-.12,3.85-.14,4,0,.96.91.06,22.93.02,26.52-.02,1.69.64,4.45-1.02,5.49,1.02-1,.27-25.21,0-28.55-.24-3.07.49-2.57-3-2.45v-1Z"/>
    <path class="st26" d="M185,208c-.32,3.67-.64,28.18,0,30-1.66-1.04-1-3.79-1.02-5.49-.07-6.66-.08-13.37,0-20.03.02-1.69-.64-4.45,1.02-5.49-.07.04.03.66,0,1Z"/>
    <path class="st10" d="M256.99,208.01c2.08,2.08-1.91,6.07-3.99,3.99s1.91-6.07,3.99-3.99Z"/>
    <path class="st109" d="M218,238c-3.23.62-10.48,2.51-13,0h13Z"/>
    <path class="st118" d="M175,232h-13c1.39-1.67,12.11-1.61,13,0Z"/>
    <path class="st83" d="M217,209c-3.94-.32-8.04.23-12,0,1.7-1.72,10.03-1.61,12,0Z"/>
    <path class="st77" d="M242,217c-2.41-.25-5.5-.06-8,0,1.54-1.67,6.42-1.68,8,0Z"/>
    <path class="st77" d="M241,220c-2.31-.15-4.7.21-7,0,1.83-1.99,4.94-1.3,7,0Z"/>
    <path class="st83" d="M172,209c-.7-.21-6.22-.2-7,0,1.26-1.65,5.74-1.65,7,0Z"/>
    <path class="st21" d="M205,227c-1.62-1.27-1.14-4.93-1-7,1.58,1.23,1.18,4.98,1,7Z"/>
    <path class="st3" d="M205,215c-1.79-1.37-1.49-4.5,0-6-.19,1.92.27,4.15,0,6Z"/>
    <path class="st83" d="M274,217c-1.77-.24-5.36.89-6-1,1.85.23,5.31-.88,6,1Z"/>
    <path class="st114" d="M274,236c-2.01.06-3.49.52-5-1,1.65.15,4.35-.78,5,1Z"/>
    <path class="st42" d="M180,237c.03.12,1.49.47,1,1.99-1.83.16-2.57.34-4-.99l3-1Z"/>
    <path class="st106" d="M219,221c-2.92,1.84-6.19.92-9.44.91-.64-.09-.43-.53-.56-.91h10Z"/>
    <path class="st42" d="M218,212c-2.38-.56-6.35.4-9,0,1.86-1.68,7.14-1.68,9,0Z"/>
    <path class="st34" d="M241,235c-2.18.88-3.73,2.24-6,0h6Z"/>
    <g>
      <path class="st33" d="M295,209c2.88-1.02,6.11-.94,9,0,1.66.08,3.35-.08,5.01,0,.58,4.06-.65,2.94-4.01,3-2.94-1.04-6.02-.56-9,0-4.44,1.66-4.49,3.48-5,8,.76,2.25.76,4.74,0,7,.55,6.09,1.31,7.92,7.85,8.42.96.07,5.91-.22,6.14-.43.29-.27.26-7.67-.03-7.95-.31-.29-2.81.25-3.96-.52s-1.39-3.12-1-3.51,7.4.26,9,0v15c-6.32,1.19-17.07,3.19-20.24-4.27-1-2.35-.42-3.81-.76-5.73-.42-3.32-.48-6.68,0-10,1.02-5.03.76-8.27,7-9Z"/>
      <path class="st36" d="M343,217c1.85-.94,4.15-.95,6,0,5.59.84,7.64,7.02,6,12-4.66.32-9.33.65-14,1-.95,3.03.99,4.19,3,5,1.83.11,3.49.44,5,1,1.96-1.03,7.15-1.26,5,2-2.51,1.93-11.27,1.42-13.98-.52-4.94-3.54-5.06-19.36,2.98-20.48ZM351,226c3.96-4.1-11.02-11.92-10.01,0,1.68-.26,9.64.38,10.01,0Z"/>
      <path class="st36" d="M363,217c2.88-1.05,6.1-.91,9,0,3.08.08,3.34-.78,3.01,3-3.31.59-14.11-2.15-12.88,3.38.82,3.66,12.9,1.38,13.61,8.26s-7.27,7.81-12.26,7.36-7.33-3.85-1.49-4c2.6.91,5.38.74,8,0,.91-.61,1.45-1.55,1.93-2.51-2.56-4.52-10.72-2.1-12.72-6.24-1.75-3.63-.55-8.54,3.79-9.25Z"/>
      <path class="st36" d="M399,217c2.88-1.05,6.1-.93,9,0,2.22.09,3.24,1.7,2.01,3-3.21.48-13.08-1.99-11.88,3.38.91,4.05,12.51,1.06,12.96,8.12s-5.89,7.96-11.59,7.51c-5.04-.4-7.35-3.86-1.49-4.01,2.27.94,4.69.66,7,0,7.88-4.96-6.53-5.79-8.42-7.07-3.75-2.53-2.74-10.1,2.42-10.93Z"/>
      <path class="st32" d="M315,217h3c.59,3.91-1.29,15.17,1.25,17.75,1.82,1.86,7.11.76,8.76-.75.33-5.67.67-11.34,1-17,.7-.24,2.07.14,3,0l-.08,20.92c-7.21-.16-15.97,5.04-16.91-4.91-1.07-5.28-.72-10.71,0-16Z"/>
      <path class="st72" d="M381,220c-1.21-.47-4.26,1.15-3.03-2.5.18-.52,5.14-2.55,3.03-7.51,6.71-1.19,2.84,2.59,4,6.01,2.33.35,4.67.68,7,1,.25.68-.15,2.08,0,3-1.37.26-6.66-.35-7.01,0-.54.54-.34,13.67,1.01,15.01l6,1c.61,3.62-7.53,5.68-10-1-.27-5.03-.6-10.03-1-15Z"/>
      <path class="st0" d="M328,234c.54-3.02-1.17-16.25,1-17-.65,3.82,1.34,14.85-1,17Z"/>
      <path class="st23" d="M315,233c-1.69-4.26-1.66-11.95,0-16,.35,5.18-.49,10.9,0,16Z"/>
      <path class="st144" d="M382,235c-1.82-4.94-.76-9.72-1-15,2.17.83.47,12.3,1,15Z"/>
      <path class="st123" d="M355,229c-.7,2.14-11.3.5-14,1,.67-2.13,11.32-.5,14-1Z"/>
      <path class="st76" d="M288,228c-.9-5.23-1.1-4.55,0-10v10Z"/>
      <path class="st131" d="M408,217c-2.55-.1-6.68-.37-9,0,1.86-1.68,7.14-1.68,9,0Z"/>
      <path class="st81" d="M305,212c-2.99.05-6.01-.04-9,0,2.75-1.03,6.36-2.24,9,0Z"/>
      <path class="st88" d="M372,217c-2.61-.07-6.65-.39-9,0,1.86-1.68,7.14-1.68,9,0Z"/>
      <path class="st77" d="M304,209c-2.67-.13-6.44-.3-9,0,1.86-1.68,7.14-1.68,9,0Z"/>
      <path class="st93" d="M349,235c2,0,4,0,6,0,.19,1.98.23,2.06-1,2.99.74-3.23-2.35-1.73-5-2-.87-.28-.86-.62,0-1Z"/>
      <path class="st16" d="M370,235c-2.15,1.44-5.99,1.9-8,0,2.66-.07,5.34.05,8,0Z"/>
      <path class="st114" d="M405,235c-2.06,1.3-5.17,1.99-7,0,2.33-.06,4.67.04,7,0Z"/>
      <path class="st83" d="M392,217c-1.9-.31-6.34.97-7-1,1.94.32,6.28-.97,7,1Z"/>
      <path class="st112" d="M291,227c-.18-1.96-.22-5.08,0-7,1.65,1.26,1.65,5.74,0,7Z"/>
      <path class="st87" d="M349,217c-1.4-.21-4.58-.2-6,0,.95-1.61,4.99-1.64,6,0Z"/>
      <path class="st24" d="M392,236c-2.26-.05-4.28.69-6-1,1.87.26,5.68-.86,6,1Z"/>
      <path class="st42" d="M349,235v1c-2.44-.24-2.5.01-5-1,1.67,0,3.33,0,5,0Z"/>
    </g>
  </g>
  <g>
    <path class="st11" d="M378.99,192.01c2.08,2.08-1.91,6.07-3.99,3.99s1.91-6.07,3.99-3.99Z"/>
    <path class="st71" d="M257.99,192.01c2.08,2.08-1.91,6.07-3.99,3.99s1.91-6.07,3.99-3.99Z"/>
    <path class="st32" d="M241.99,192.01c2.08,2.08-1.91,6.07-3.99,3.99s1.91-6.07,3.99-3.99Z"/>
    <path class="st103" d="M327,159c4.42-1.63,5.63-.4,4,4-2.51.9-4.87-1.55-4-4Z"/>
    <g>
      <path class="st32" d="M271,157c.58,9.9.91,19.9,1,30-.49,1.48-1.34.91-2.45,1.04-7.85.97-54.33,1.03-60.33-.79-6.57-1.99-8.01-8.29-6.07-14.6.54-1.76,3.31-2.21,3.84-1.65,1.39,1.47-4.79,12.73,6.48,14.02,2.01.23,13.3.38,14.52-.02.39-6.27.72-12.61,1-19,3.44-1.33,2.63,1.09,3,2,.31,5.68.64,11.35,1,17,1.97.64,6.58-.46,9.01,0,.5-2.68-.69-18.35,0-19.01.14-.14,4-.2,4,0v19h8v-19c0-.2,4-.2,4,0v19h10.01s0-28.01,0-28.01c.92.15,2.3-.24,3,0Z"/>
      <path class="st139" d="M283,157v31c0,.2-4,.2-4,0v-31c0-.2,3.28.13,4,0Z"/>
      <path class="st31" d="M272,187c-2.29-9.56-.38-20.18-1-30,1.47.51.92,1.31,1.04,2.45.34,3.16.52,25.86-.04,27.55Z"/>
      <path class="st134" d="M228,185c.31-5.09-.42-10.48-.03-15.53.1-1.29-.58-2.84,1.03-3.47-.5,5.23.67,11.49.04,16.55-.14,1.11.43,1.96-1.04,2.45Z"/>
      <path class="st64" d="M233,185c-2.16-.71-.47-14-1-17,2.11,5.23.54,11.36,1,17Z"/>
      <path class="st113" d="M216.99,163.01c1.62,1.6-2.37,5.61-3.99,3.99-2.07-2.08,1.88-6.07,3.99-3.99Z"/>
      <path class="st132" d="M222.99,163.01c1.62,1.6-2.37,5.61-3.99,3.99-2.07-2.08,1.88-6.07,3.99-3.99Z"/>
    </g>
    <path class="st33" d="M247.99,192.01c.43.43.96,5.28-2.49,3.99-4.27-1.6.19-6.28,2.49-3.99Z"/>
    <path class="st105" d="M398,159c3.5-1.95,4.5.97,3,4-.68.25-2.08-.15-3,0,.18-1.15-.32-3.12,0-4.01Z"/>
    <path class="st104" d="M327,159c.53-1.49,4.76-1.23,5-1s.5,4.47-1,5v-4.01s-4,0-4,0Z"/>
    <path class="st133" d="M398,159c.61-1.71,2.21-.86,3.99-1-.17,1.66.8,4.35-.99,5,.06-3.46.9-4.55-3-4Z"/>
    <g>
      <path class="st139" d="M362,167c1.05,5.27.68,10.72,0,16,.03.66-.05,1.34,0,2h10.01s0-19,0-19c0-.2,4-.2,4,0v19h10v-19c5.67-.89,3.82,1.31,4.01,6,8.64-7.99,19.14-9.78,21.99,4l1,11c-.81,2.39-44.76.3-50.43.94-1.21,7.59-5.4,10.53-13.06,10.08-2.02-.12-6.8-1.64-4.52-4.02,1.17-1.22,15.17,3.26,13.01-6-7.02-.42-11.91,1.46-14-6-.62-3.31-.67-6.69,0-10,1.04-3.44.89-4.59,4.93-5.57,2.73-.66,11.28-1.22,13.07.57ZM350,170c-4.45,1.01-3.99,12.98-.77,14.33,2.25.95,8.78,1.62,9.63-.97.56-1.71.6-12.89-.86-13.36-1.58-1.68-6.46-1.67-8,0ZM408,174c-3.62-10.39-22.33.58-18,11,4.46-.9,14.39,1.21,18,0,.39-.13.82.08.91-.56.38-3.97.38-6.73-.91-10.44Z"/>
      <path class="st36" d="M337,166c1.06,7.03,1.03,14.99,0,22-9.8-1.12-25.05,2.1-34.02-1.48-7.33-2.92-3.96-19.43.02-15.52-2.09,15.16,4.22,14.59,17,13.99-4.06-15.95,1.15-20.76,17-18.99ZM326,170c-4.23.61-3.62,8-2.97,11.47.97,5.14,7.05,3.27,10.98,3.53v-15c-1.58-1.68-6.47-1.67-8.01,0Z"/>
      <path class="st13" d="M337,188v-22c1.38.11.92,1.47,1.04,2.45.45,3.62.45,13.49,0,17.11-.12.98.34,2.34-1.04,2.45Z"/>
      <path class="st135" d="M362,183c-.26-5.3.18-10.69,0-16,1.78,1.78,1.53,13.54,0,16Z"/>
      <path class="st54" d="M413,187c-2.17-2.71-.53-7.53-1-11,.57,2.76,1.97,8.15,1,11Z"/>
      <path class="st87" d="M344,182c-1.33-4.74-1.47-5.16,0-10v10Z"/>
      <path class="st110" d="M408,185v-11c1.29,3.71,1.29,6.47.91,10.44-.09.64-.53.43-.91.56Z"/>
      <path class="st117" d="M358,170c-.69-.22-7.08-.21-8,0,1.54-1.67,6.42-1.68,8,0Z"/>
      <path class="st54" d="M334,170c-2.54.25-5.56-.35-8,0,1.54-1.67,6.42-1.68,8,0Z"/>
    </g>
  </g>
  <g>
    <path class="st101" d="M402,263c3.81-3.73-1.92-2.24-3-4.99,6.91-3.12,5.16,3.98,6.05,4.95.34.37,2.94-.07,3.95.04.56-.51.9-.18,1,1,.76.29.74.62,0,1-6.48,1.22-13.57.74-20,0,3.36-3.35,3.18-.35,4-5-1.3-1.41-.7-1.87,1-1,1.82,1.87,1.27,2.7,2,4,1.64.91,3.3.65,5,0Z"/>
    <path class="st92" d="M258,265l4.98-2.5c-3.34-2.11-6.81-2.44-4.4-7.52l6.42.02-4,2c-.47,3.49,3.55,1.12,4.82,4.69,1.44,4.04-.6,2.82-1.82,3.3-2.2.75-4.2.75-6,0Z"/>
    <path class="st43" d="M202,255c3.21-.5,7.41.36,7.05,4.45-.29,3.22-5.39,3.42-7.05,6.55-.86-3.58-.88-7.41,0-11ZM205.99,257.01h-1.99v2.99h1.99v-2.99Z"/>
    <path class="st73" d="M305,259c1.52.21,1.46,2.5,0,3,1.49,1.63-4.14,1.67-3.88,1.61.91-.2,3.45-.66,4.2-.6.25.02.47.45.69.99.87.28.86.62,0,1-2.82.04-5.03.07-8,0-.87-.28-.86-.62,0-1-2.86-.32-2.92-3.52,0-4-1.04-1.17-.48-1.49,1-1,2.22-2.64,3.61-2.11,6,0Z"/>
    <path class="st56" d="M389,265c-3.86.81-8.29,1.01-12,0-.89-.28-.88-1.59,0-2,.28-.87.62-.86,1,0,.25-.88.58-.86,1,0,1.22.16,1.54-.03,2,0,.39-2.63,1.13-2.42,2,0,1.65-1.37,1.65-2.04,0-2-1.59.94-1.96-1.65-1-3,4.48-1.6,8.51,2.61,7,7Z"/>
    <path class="st5" d="M339,262c1.31,1.95,3.64,2.28,7,1,.21-.19,1.11-1.86,1-2,.2.35.81.63,1,1,.99,1.12,2.32,1.79,4,2,.28-.87.62-.86,1,0,.48.38.48,1.04,0,2-.33.04-.68-.06-1,0-8.13-.03-16.13-.36-24-1-.89-.28-.88-1.59,0-2,.28-.87.62-.86,1,0,2.2.88,4.79.85,7,0,.24-.62-.14-2.1,0-3-1.26-1.35-.74-1.48,1-1,.8.53,1.92,2.1,2,3Z"/>
    <path class="st97" d="M268,258c1.35.24,2.68.57,4,1,.69.68,2.4.83,1.99,2.49-.45,1.81-4.16.63-3.99,2.5l2.99,2c-5.74,2.65-8.24-6.02-4.99-7.99Z"/>
    <path class="st69" d="M282,258c.79,1.13.69,4.02,1.5,4.01l.49-4.02h4.01c.68.22.64.56,0,1.01-3.25-.95-.64,3.2-2,6-1.61.63-4.46.8-5-1-.57-1.49-.97-2.27-1-4-1.7-1.88-.26-3.41,2-2Z"/>
    <path class="st15" d="M240,258c2.46.05,5.14.98,6,1-.25.76-.59,1.1-1,1-.28.87-.62.86-1,0h-2s0,6,0,6c-1.83.47-1.54-.42-1.99-1l-1-5c-1.43.18-2.1,1.84-2,5-.15.23.13,1.16-1,1-.65-2.48-1.15-5.86,0-8,1.17-1.02,2.74-.68,4,0Z"/>
    <path class="st99" d="M219,259c.28-.87.62-.86,1,0l1,2c.97-2.24,2.74-1.4,3,1-.39.97-.39,1.63,0,2,1.4,2.18-.61,4.72-3,3-2.04,1.61-3.5-.84-3-3-.08-1.36-1.28-3.19-1.07-4.36.19-1.09,1.94-.51,2.07-.64Z"/>
    <path class="st37" d="M374,265c-2.37.81-5.04.81-8,0-3.6-1.45-3.23-1.47-2.99-6h1.48c1.86.93,1.12,3.06,1.51,4l6,1c.34-2.01.68-4.01,1-6h1c.72,2.12,1.09,5.2,0,7Z"/>
    <path class="st4" d="M324,260c.82,2.12.82,4.12,0,6-.23.11-.65-.07-1,0-.67,1.94-2.39,1.93-3,0-2.5,1.15-2.91-.26-1-2,.91-.16,2.03.13,3,0,1.28-6.32-2.58-2.24-5-5.99,3.18.01,5.15-.92,7,1.99Z"/>
    <path class="st126" d="M352,266c-3.84.66-18.46.55-22.55.04-1.11-.14-1.96.43-2.45-1.04.28-.87.62-.86,1,0,7.77.61,16.55-1.29,24,1Z"/>
    <path class="st107" d="M357.99,255.01c-.26,3.04.38,6.56,0,9.51-.19,1.46-.76,3.1-2,1.48.26-3.04-.38-6.56,0-9.51.19-1.46.76-3.1,2-1.48Z"/>
    <path class="st84" d="M214,255c.73.03,2.13-.45,2.02.6l-.02,10.4c-2.65.3-1.82-.08-1.99-1.99-1.31-1.72-2.16-7.82,0-9Z"/>
    <path class="st126" d="M410,265c.32-.86.66-.85,1,0-1.68,1.68-14.24,1.17-17.51,1.01-1.2-.06-3.47.57-3.49-1.01,6.44-.47,13.68.65,20,0Z"/>
    <path class="st145" d="M278,258c2.2-1.01,2.53-.35,1,2-.04.11-1.35.41-1.8,1.67-.73,2.05,1.12,5.07-2.19,4.33.32-1.62-.52-7.28.07-7.95.35-.4,2.25.14,2.92-.05Z"/>
    <path class="st57" d="M214,255c.19,2.95-.27,6.07,0,9-.64.36-1.4.59-2,1-.31-2.48-.65-5.15-1-8,.04-.66-.07-1.34,0-2,1,0,2-.05,3,0Z"/>
    <path class="st138" d="M306,265v-1c-.69-1.39.74-1.56,2-1,.81-.75,1.81-1.41,3-2,2.19.87,2.95,2.76,1.03,4.53-2.39,1.64-4.8-.55-6.03-.53Z"/>
    <path class="st116" d="M252,262c.26.19,1.84-.42,2.03.49,1.19,5.67-5.17,2.5-6.03,2.51-1.84-1.27-1.18-3.24,1-2-.68-1.62.32-1.96,3-1Z"/>
    <path class="st6" d="M293,260c2.17.92,3.84,2.25,5,4v1c-1.32-.03-4.67,2.91-6-1-1.46-.87-1.6-4.23,0-5,.15-.76.25-.85,1-1,1.95.15,1.69,1.03,0,2Z"/>
    <path class="st41" d="M312,258c-1.33,1.55-1.67,2.55-1,3-.15.17.33,1.35-.17,1.82-.66.62-2.14-.02-2.83.18-1.35.57-1.81.28-1-1-1.66-.01-1.39-3.04,0-4,1.16-.4,3.9-.77,5,0Z"/>
    <path class="st122" d="M253,258c-1.38,1.39-1.72,2.39-1,3-.07.2-.04.97,0,1-.54,1.43-2.33.7-3,1-2.2.67-2.47-3-1-4,.49,0,3.3-1.98,5-1Z"/>
    <path class="st84" d="M229,258c1.77.48,2.49.68,1,2-3.62-.07-3.12,3.14-3.01,6l-.99-1c-1.25-2.75-1.25-5.08,0-7,.99.05,2.01-.07,3,0Z"/>
    <path class="st115" d="M248,259l1,4c-1.02.47-1.13.92-1,2-.5,0-1.43.92-2,1-.8-1.78-.88-4.99,0-7,.66.01,1.34.01,2,0Z"/>
    <path class="st62" d="M319,264l1,2c1.31,1.44.92,1.9-1,2,1.71,1.17,1.12,2.08-1,2-2.77-1.84-2.49-5.39,1-6Z"/>
    <path class="st17" d="M292,259c-.28,1.47.34,3.65,0,5-.07.27-1.49,1.85-2,2-.82-2.5-.77-5.48,0-8l2,1Z"/>
    <path class="st61" d="M221,267c.87.28.86.62,0,1-.72,0-2.25,1.97-3.52.02s.56-3.33.52-4.02l3,3Z"/>
    <path class="st121" d="M352,264c-5.03.64-3.19-.41-4-2l2.99,1c.65-.72-1.17-6.97,1.01-8,.55,2.57,1.08,6.62,0,9Z"/>
    <path class="st51" d="M389,265c-.56,1.62-12.48,1.61-13,0,.28-.87.62-.86,1,0h12Z"/>
    <path class="st40" d="M347,261c-.32-.4-5.75-.58-6-2.99,5.16-.53,4.29-.06,6,2.99Z"/>
    <path class="st140" d="M353,266c.03-.66-.05-1.34,0-2-.55-2.72-1.14-6.38,0-9,1.55.39,1.7,9.22,0,11Z"/>
    <path class="st66" d="M202,266c-1.71-2.54-1.66-8.66,0-11v11Z"/>
    <path class="st96" d="M225,265c-.66,5.99-1.55,2.99-4,3v-1c1.74-.66,3.54-.75,3-3,.28-.87.62-.86,1,0,.71.14.66.49,0,1Z"/>
    <path class="st79" d="M232,258c.86,2.07.79,5.69,0,8-1.05-.06-1.13-3.83-2-6-.28-.68-.72-1.31-1-2,.99.07,2.01-.02,3,0Z"/>
    <path class="st68" d="M211,266c-2.6-.19-1.66-6.88,0-8,.88,2.44.77,5.65,0,8Z"/>
    <path class="st82" d="M337,259c-.19.38-.97.8-1,1-2.52-.13-4.66,1.01-4-1.99,2.31-.3,3.2-.18,5,.99Z"/>
    <path class="st35" d="M395,259c-.19.38-.96.79-1,1-7.1-.22-2.8-4.9,1-1Z"/>
    <path class="st18" d="M225,258c.86,1.32.39,1.89-1,1-1.05,1.12-1.52,1.18-3,0-.33.87-.66.87-1,0h-1c.12-.12-.44-1.72.66-2.02,2.72-.75,4.37.95,5.34,1.02Z"/>
    <path class="st49" d="M411,265c-.85-3.57-.85-6.9,0-10,1.6.4,1.66,8.34,0,10Z"/>
    <path class="st86" d="M411,265c-.04.08-.66-.03-1,0v-1c-.64-2.77-1.13-6.23,0-9,.02-.05.87-.03,1,0-.47,2.18.67,8.72,0,10Z"/>
    <path class="st90" d="M377,263v2h-1c-.51-1.55-.39-8.69,1-10,.67,2.27.81,5.69,0,8Z"/>
    <path class="st48" d="M328,263v2h-1c-.51-1.53-.39-8.7,1-10,.83,2.17.57,5.64,0,8Z"/>
    <path class="st52" d="M289,266c-1.73-1.36-.99-4.81-1-7,0-.33-.02-.67,0-1s-.03-.67,0-1c.28-.87.62-.86,1,0,.89,2.43.79,6.46,0,9Z"/>
    <path class="st38" d="M212,265c-.26.18-.19,1.18-1,1,.12-2.65-.17-5.36,0-8,.02-.33-.02-.67,0-1,2,1.73.68,5.5,1,8Z"/>
    <path class="st6" d="M353,264h-1c.45-2.16-.65-7.56,0-9,.02-.05.87-.03,1,0-.14,2.98.21,6.03,0,9Z"/>
    <path class="st128" d="M290,258c.08,2.66-.06,5.34,0,8-.3.09-.68-.07-1,0v-9c.28-.87.62-.86,1,0,0,.33-.01.67,0,1Z"/>
    <path class="st25" d="M346,263c-2.18,1.94-5.23.75-8,.99-.35-.89,1.01-1.87,1-1.99,1.42,1.9,4.81.76,7,1Z"/>
    <path class="st14" d="M233,258c.85,2.26.76,4.73,0,7-.14.21.13,1.16-1,1v-8c.51,0-.04-1.36,1,0Z"/>
    <path class="st1" d="M410,264c-.38-.19-.82-.98-1-1,.32-2.5-1-6.27,1-8-.65,1.44.45,6.84,0,9Z"/>
    <path class="st8" d="M374,265c.28-.87.62-.86,1,0-.13.39.07.82-.56.91-3.34.49-5.41.32-8.44-.91h8Z"/>
    <path class="st65" d="M226,265h-1c.04-.32.02-.68,0-1-1.65-.26-1.98-1.26-1-3-2.07.1-2.02-1.44,0-2,.04-.21.81-.62,1-1,.33.02.67-.02,1,0v7Z"/>
    <path class="st2" d="M322,269c-.05.12,1.62.67-.52,2-1.28.04-2.43-.31-3.48-1,.3-.68.72-1.32,1-2l3,1Z"/>
    <path class="st58" d="M379,263c-.33-.04-.67.03-1,0-.86-2.08-.96-5.89,0-8,1.99.5.63,5.91,1,8Z"/>
    <path class="st124" d="M329,263h-1c0-1.73-.36-7.19,0-8,.02-.05.87-.03,1,0,1.02,2.44.6,5.62,0,8Z"/>
    <path class="st58" d="M330,263h-1c-.58-1.76.4-5.82,0-8,1.99.5.63,5.91,1,8Z"/>
    <path class="st85" d="M378,263h-1c0-1.73-.36-7.19,0-8,.02-.05.87-.03,1,0v8Z"/>
    <path class="st80" d="M383,261c1.97.5,1.94,1.41,0,2-.98.05-1.02.07-2,0,.15-1.63-.78-4.36,1-5-.45,1.33.79,2.3,1,3Z"/>
    <path class="st100" d="M272,259l-.49,1.99-3.51-2.99c2.6-1.58,2.84-.14,4,1Z"/>
    <path class="st127" d="M236,266c-1.45-.62-1.34-7.34-1-8h1v8Z"/>
    <path class="st44" d="M312,258c2.6,1.81-.1,1.94-1,3-.49-.2-1.8.24-2,0-1.65-2.01,2.02-1.95,3-3Z"/>
    <path class="st119" d="M336,263c-.63,1.64-6.46,1.64-7,0h7Z"/>
    <path class="st78" d="M288,257c.1-.98-.08-2.01,0-2.99,3.32-.55,2,1.67,1.99,2.99h-2Z"/>
    <path class="st60" d="M375,265h-1v-7c1.39.1,1.38,5.87,1,7Z"/>
    <path class="st19" d="M233,265v-7c1.75,2.28,1.53,4.71,0,7Z"/>
    <path class="st45" d="M239,260c-1.35-.17-.63,2.9-2,5-.87-2.7.77-9.28,2-5Z"/>
    <path class="st125" d="M246,266c-.27.04-.87.07-1,0-.64-1.73-.95-4.31,0-6,.12-.6.31-1.16,1-1v7Z"/>
    <path class="st17" d="M307,262c-.21,1.4-1.63,1.42-2,0,.18-.85-.26-2.4,0-3,.04-.1,1.59-.86,2-1v4Z"/>
    <path class="st70" d="M253,258c3.55-.62-.92,2.77-1,3-3.99.3-1.97-2.48,1-3Z"/>
    <path class="st136" d="M282,258c-2.41-.23-2.04-.1-2,2h-1c.16-.4-.09-.99,0-1.48l-.99-.52c1.23-.34,2.31-2.42,4,0Z"/>
    <path class="st142" d="M324,266v-6c1.02,1.61,2.19,4.92,0,6Z"/>
    <path class="st137" d="M245,266c-.17-.09-.68.24-.92-.57l-.08-5.43h1c-.34,1.73.23,4.14,0,6Z"/>
    <path class="st22" d="M372,263c.39.33.39.66,0,1-.88.47-5.43.34-6-1h6Z"/>
    <path class="st126" d="M286,265c-.64,1.33-3,1.38-4.44,1.05-1.16-.27-.34-1.48-.56-2.05l5,1Z"/>
    <path class="st129" d="M372,264c.07-.04-.03-.66,0-1,.13-1.59-.67-4.14,1-5-.53,1.27,1.04,5.05-1,6Z"/>
    <path class="st136" d="M264,265c-1.47.59-5.97,2.4-6,0h6Z"/>
    <path class="st46" d="M299,259c-.29.34-.98.93-1,1,.09,2.8-3.37,2.63-4,0-.81-1.01.19-1.68,3-2,.57.08,1.35.79,2,1Z"/>
    <path class="st59" d="M240,258c-1.28-.03-2.77-.14-4,0-.34.04-.96-.08-1,0,.66-1.58,4.34-1.58,5,0Z"/>
    <path class="st19" d="M240,265c-1.77-2.22-.52-3.34-1-5,1.59,1.05.99,3.29,1,5Z"/>
    <path class="st102" d="M402,263c-1.42,1.39-3.95,1.86-5,0h5Z"/>
    <path class="st116" d="M297,258l-3,2c-.28.87-.62.86-1,0-.05-.66.03-1.34,0-2,.84-.17,3.08-.13,4,0Z"/>
    <path class="st12" d="M224,259c-.12.62.17,1.5,0,2,.41.32.41.66,0,1-.8-.69-2.33-.62-3-1-.55-.74-.82-1.5,0-2,.61-.13,1.42-1.11,2.38-.83l.62.83Z"/>
    <path class="st39" d="M225,264h-1c-6.65-.27-.75-.74,0-2,.13-.22-.11-.67,0-1,1.31.51.95,1.9,1,3Z"/>
  </g>
</svg>