<?xml version="1.0" encoding="UTF-8"?>
<svg id="Layer_1" xmlns="http://www.w3.org/2000/svg" version="1.1" viewBox="0 0 1600 1600">
  <!-- Generator: Adobe Illustrator 30.0.0, SVG Export Plug-In . SVG Version: 2.1.1 Build 123)  -->
  <defs>
    <style>
      .st0 {
        fill: #272a5c;
      }

      .st1 {
        fill: #ddb529;
      }

      .st2 {
        fill: #fefefe;
      }
    </style>
  </defs>
  <path class="st0" d="M506.39,1018.24c1.86-.32,13.31,14.95,15.21,17.6-2.06,3.04-12.6,17.39-15.36,17.39-1.57,0-12.85-14.67-14.34-17.38.12-1.44,13.35-17.4,14.49-17.6Z"/>
  <path class="st0" d="M561.13,1031.74c.99,1.32,4.32,3.05,3.15,5.4-.4.8-10.27,12.33-11.53,13.55-2.62,2.54-2.97,3.7-5.89.82-1.47-1.45-11.87-14.13-12.01-15.08-.12-.82-.19-1.53.34-2.23l14.16-15.97c1.55-.28,10.15,11.34,11.78,13.51Z"/>
  <path class="st0" d="M1028.26,840.36l14.09,18.17c-3.11,2.53-12.19,16.65-15.43,16.67-1.64.01-13.76-14.31-14.28-17.38,2.24-2.45,11.48-16.57,12.94-17.46.68-.41,2-.41,2.68,0Z"/>
  <path class="st0" d="M356.71,721.02c-2.49,1.45-8.48-5.82-8.74-7.55-.14-.95,5.42-8.06,6.5-8.24,1.4-.23,7.29,5.86,7.34,7.4.03,1.11-4.68,8.14-5.11,8.39Z"/>
  <path class="st0" d="M336.49,705.24c1.63-.28,6.99,6.27,7.19,7.6s-5.18,8.02-6.47,8.24c-1.63.28-6.99-6.27-7.19-7.6s5.18-8.02,6.47-8.24Z"/>
  <g>
    <path class="st0" d="M389.8,840.17c.69,3.3,14.28,16.47,13.94,18.36l-14.44,17.64c-1.86,0-15.48-16.13-15.27-18.36.13-1.39,9.54-12.8,11.27-14.67.75-.81,3.29-3.87,4.49-2.98Z"/>
    <path class="st0" d="M1068.41,876.15c-.37-3.49-14.2-16.86-13.94-18.36,2.88-1.55,13.29-17.65,14.43-17.65,1.73,0,8.92,8.6,10.46,10.54s5.27,5.87,5.07,7.92c-.09.92-10.04,12.96-11.53,14.56-.75.81-3.29,3.87-4.49,2.98Z"/>
    <g>
      <path class="st0" d="M347.85,899.16v85.5c0,8.84,8.53,29.66,14.95,36.04,29.5,29.35,67-4.06,67-39.04v-82.5h26.98v78h81.95v-78h25.98v101h-111.43c-6.57,17.22-17.41,32.15-35.26,38.72-41.69,15.36-97.16-5.08-97.16-55.22v-84.5h26.98Z"/>
      <path class="st0" d="M1184.32,840.16l-1,154h45.47c4.63,0,14.81-5.35,18.5-8.49,11.34-9.65,11.4-23.08,12.02-36.97,1.6-35.74-1.28-72.69-.04-108.54h25.98v123.5c0,11.19-8.05,27.23-15.97,35.02-25.11,24.72-62.21,17.37-94.3,18.43-27.45,42.32-104.84,34.52-117.2-17.02l-92.66.02c-24.2,51.89-102.9,57.78-136.41,12.37-2.12-2.87-6.29-11.89-8.66-12.33h-75.46c1.11,26.47-9.2,50.6-37.97,54.01.52-3.28-.74-8.41-.04-11.33.19-.82,5.62-2.44,7.5-4.71,1.72-2.08,4.53-9.96,4.53-12.46v-25.5h-72.45c-2.2,0-1.62-12.14-1.49-14.49,1.45-25.28,10.1-53.28,25.55-73.43,17.17-22.39,45.83-40.04,74.37-41.08v106h69.96c-2.12-49.46,37.32-82.34,85.49-79.04,41.03,2.8,75.24,36.91,70.41,79.04h85.95v-78h25.98v84.5c0,1.29.81,8.14,1.1,9.9,6.96,42.52,73.85,33.4,73.85-1.9v-151.5h26.98ZM718.61,977.16v-87c-22.89,11.85-41.78,36.31-46.67,61.8-1.58,8.24-1.94,16.8-2.3,25.2h48.97ZM857.88,932.51c-28.47,28.82-14.21,85.33,28.26,89.52,75.58,7.45,75.95-110.43,0-102.75-10.11,1.02-21.11,6.01-28.25,13.23Z"/>
    </g>
  </g>
  <g>
    <path class="st1" d="M621.67,204.17c.89.81-10.91,18.46-11.16,21.32-47.02,101.67-18.19,220.26,69.24,289.07,113.39,89.25,278.51,65.51,362.49-51.08,2.24-3.11,9.54-16.34,11.69-17.31.53-.24,1.7-.19,1.48.49-32.95,68.19-97.56,118.42-171.68,134.21-200.21,42.65-376.27-155.89-283.18-345.35,3.77-7.67,12.45-24.18,17.83-30.12.9-.99,2.12-2.29,3.3-1.22Z"/>
    <g>
      <path class="st1" d="M1055.4,375.16c-32.15-12.04-69.52-3.55-100.91,7.52-33.6,11.85-66.11,30.38-96.94,47.98l49.65,33.39,2.27-.36c5.74-6.99,31.97-26.99,39.06-15.1,5.91,9.91-11.17,15.92-13.54,3.57-2.83,2.1-5.84,4.19-8.52,6.48-9.95,8.51-41.05,42.68-50.5,44.47-3.24.61-10.99.79-12.01-2.86-3.37-12.06,9.95-14.25,13.05-4.1l17.48-17.5-58.2-35.36-56.7,35.36,17.48,17.5c8.39-18.1,25.47,8.06,3.96,7.06-6.65-.31-11.93-5.04-16.93-9.08-12.44-10.04-30.19-33.06-42.13-39.84-6.62-3.76-2.72,3.39-9.1,4.69-9.98,2.02-12.14-12.4-1.69-13.77,8.1-1.06,16.98,4.94,23.33,9.53,2.64,1.91,10.14,9.81,12.33,9.27l48.67-32.4.03-1.94c-22.5-12.32-44.76-25.31-68.27-35.69-35.31-15.6-78.82-30.61-117.64-22.36l-10.97,3.02c9.54-11.43,27.71-19.35,42.45-20.53,61.34-4.9,124.57,34.85,175.93,63.71,25.58-15.08,51.48-29.96,78.77-41.85,39.78-17.34,100.78-37.77,137.5-4.23,1.11,1.01,2.51,1.47,2.09,3.4Z"/>
      <path class="st1" d="M907.62,486.04c-1.53-2.64,9.75-12.5,12.35-13.9,13.06,6.75,33.99,21.45,48.98,21.1,3.55-.08,20.64-7.86,11.02,3.95-9.27,11.38-30.62,6.27-42.46,2.43-3.76-1.22-28.89-11.84-29.9-13.58Z"/>
      <path class="st1" d="M766.46,486.04c-.78,1.35-24.95,12-28.31,13.16-12.08,4.18-31.95,8.79-42.55-.51-2.22-1.95-6.84-8.14-1.45-8.58,2.37-.2,5.53,2.36,8.22,2.82,14.61,2.5,39.02-13.92,51.9-20.62,2.57,1.35,13.71,11.12,12.19,13.74Z"/>
    </g>
    <g>
      <path class="st1" d="M850.54,104.16c10.01-9.03,25.4-11.38,38.47-10.01,1.45.15,12.72,2.58,10.48,5l-10.66,3.84-9.32,7.16c42.26-3.37,87.56,13.19,118.93,41.5,1.62,1.46,10.56,10.07,10.97,11.03,1.57,3.66-5.08-1.16-5.61-1.39-31.25-13.85-64.23-23.55-98.83-22.12-1.21.05-3.72-.76-3.48.99,1.71-.09,3.35-.04,5.01.49,44.6,14.1,89.75,51.84,98.91,99.52-28.95-30-61.77-60.96-103.92-69.99,24,22.92,47.17,56.17,49.02,90.44.15,2.81-.11,19.3-1.05,20.55-1.51,2.01-1.74-.72-2.09-1.42-3.1-6.21-5.43-13.08-8.74-19.24-13.92-25.93-34.05-54.26-59.64-69.31,11.92,28.04,16.93,64.8,8.45,94.42-.26.92-4,12.97-5.94,10.55-3.92-32.47-10.3-68.24-29.97-94.99l-5.05,37.49c-.66,3.19,5.99.39,6.05,2.03l-6.02,42.49c.95.2,3.71-.3,4.01,0,1.7,1.62-5.38,40.45-3.88,41.94,1.38,1.38,3.51-2.74,2.92,6.61-.76,11.96-5.09,24.54-5.08,36.79.26,1.01,13.49,6.27,15.71,7.5,3.05,1.69,7.84,4.45.87,5.22-15.44,1.72-34.83-.98-50.53-.54-.81-.48-1.41-1.87-.98-2.5,1.06-1.53,19.61-8.04,20.02-9.69.43-12.48-4.33-25.6-5.07-37.79-.51-8.45,1.72-4.41,2.91-5.6,1.61-1.61-5.41-40.48-3.88-41.94,1.08-1.03,4.13,2.34,4.04-2.5-.09-5.52-6.54-39.05-5.04-40.5.32-.31,3.89.22,5.01,0l-4.01-40c-11.8,14.71-19.12,35.52-23.7,53.77-3.36,13.39-4.18,27.37-7.28,40.73-.28,1.2-.32,3.18-1.97,1.49-.54-.55-4.32-12.91-4.73-14.77-6.52-29.19-2.29-63.06,9.71-90.22-.66-.68-6.25,3.4-7.32,4.16-21.21,15.15-39.72,42.09-52.15,64.82-3.01,5.5-5.67,13.41-8.72,18.28-.78,1.25-.94,2.11-2.76,1.73-5.73-41.9,18.56-83.24,48.96-109.98-29.32,5.14-54.47,24.02-76.97,42.48l-27.96,27.51c9.43-44.99,47.26-78.14,87.96-95.48l15.97-5.51c-31.67-2.09-62.58,6.12-91.61,17.81-4.68,1.89-9.64,4.89-14.23,6.76-1.57.64-2.4,1-2.07-1.07,8.36-7.71,16.34-15.69,25.66-22.32,29.78-21.19,67.64-33.07,104.25-30.2-5.03-5.73-12.51-9.75-19.98-11-2.47-2.63,10.2-4.86,11.5-4.98,12.87-1.23,26.48,1.17,36.95,8.99,2.28-5.54,2.96-11.54,6.12-16.89,1.14-1.94,5.78-8.14,7.88-8.14,6.15,0,13.86,20.36,13.5,26.03ZM900,169.16v1c.65-.33.65-.67,0-1Z"/>
      <path class="st2" d="M900,169.16c.65.33.65.67,0,1v-1Z"/>
    </g>
  </g>
  <g>
    <path class="st0" d="M1042.91,1289.16c24.95,25.85,47.63,54.38,71.94,81.01,1.6,1.75,3.49,3.74,5.51,4.99v-83.5c0-.33,1.32-1.52,1-2.5h15.49c.11,0,1.5,1.39,1.5,1.5v124.5h-15.49c-.57,0-6.95-6.86-8.01-7.99-24.21-25.67-46.13-53.95-69.93-80.03-1.6-1.75-3.49-3.74-5.51-4.99v93h-16.99v-126h20.49Z"/>
    <path class="st0" d="M836.54,1302.16l-16.98,4c-1.72-9.37-4.77-10.22,5.74-12.75,25.61-6.18,77.04-13.24,97.21,7.22,12.91,13.09,9.8,33.88-4.01,45.04l-14.99,8.98,40.97,60.51h-22.49c-2.98,0-8.47-2.37-10.52-4.75l-36.75-57.96-.2-2.29c20.87.28,36.37-16.16,28.72-37.25-2.07-5.71-6.51-9.69-12.05-11.94-1.12-.45-8.7-2.81-9.18-2.81h-21.49v117h-23.99v-113Z"/>
    <path class="st0" d="M459.64,1265.31c.85,1.44-4.04,9.89-5.07,12.19-.92,2.04-.36,5.35-3.61,3.46-.29-.17-2.53-3.91-4.17-5.3-22.64-19.15-55.37-15.99-72.79,8.18-33.52,46.5-8.34,145.09,63.47,115.51l16.3-11.17c.54,2.76,7.15,14.22,5.94,15.9-19.32,10.75-39.04,15.97-61.26,12.97-47.68-6.43-71.58-42.48-68.62-89.42,4.21-66.76,75.58-96.49,129.83-62.31Z"/>
    <path class="st0" d="M800.56,1310.16c-20.68-8.96-43.78-7.9-65.96-8v40h57.96v12h-57.96v48c23.55.88,46.3-.65,68.96-7v20h-92.94v-126h88.44c.11,0,1.5,1.39,1.5,1.5v19.5Z"/>
    <path class="st0" d="M1275.27,1409.16c-26.12,8.33-52.68,12.67-78.64,1.19-31.92-14.12-43.27-50.48-32.07-82.47,14.72-42.04,74.69-51.17,109.28-28.74,1.11,1.72-5.59,11.03-5.62,13.98-1.67,1.15-11.2-7.01-13.93-8.48-25.83-13.91-57.89-1.3-65.52,27.47-11.02,41.58,15.34,88.38,62.5,70.04v-44h23.99v51Z"/>
    <path class="st0" d="M693.63,1310.16c-14.8-6.51-30.85-8.43-46.97-8v113h-23.99v-113c-16.13-.43-32.17,1.49-46.97,8v-19.5c0-.11,1.39-1.5,1.5-1.5h114.93c.11,0,1.5,1.39,1.5,1.5v19.5Z"/>
    <rect class="st0" x="962.46" y="1290.16" width="22.99" height="125"/>
    <path class="st0" d="M594.69,1415.16h-25.98c-10.02-25.36-38.09-47.37-66.52-44.06-1.44.17-2.62.1-3.33,1.66-3.74,4.44-17.26,42.39-19.59,42.39h-15.49c.65-3.98,2.83-8.28,4.51-11.99,17.96-39.51,38.27-78.15,56.44-117.52,1.78-1.08,8.73-1.2,9.92,1.1,17,37.86,36.08,74.79,53.54,112.43,2.35,5.06,4.93,10.65,6.51,15.99ZM549.71,1372.16l-25.96-56-19,42.99c15.75.43,32.13,3.32,44.96,13.01Z"/>
  </g>
  <g>
    <path class="st0" d="M813.56,706.16v75.5c0,1.25-2.89,7.72-3.81,9.19-7.96,12.83-32.44,11.14-38.17-3.19l-228.85-.51v18.5c0,5.18-11.05,14.27-16.47,14.53-2.39.12-1.91-3.77-1.54-5.33.12-.51,6.02-4.05,6.02-8.2v-19.5h-34.98c-1.52-29.38,16.94-56.81,46.97-61v50h59.96l-4.82-5.67c-3.96-9.17-3.21-22,4.79-28.86,1.41-1.21,9.27-5.47,10.53-5.47h26.48v11h-25.48c-1.32,0-7.14,3.25-8.36,4.64-6.18,7.04-2.92,19.73,5.82,22.9.61.22,6.2,1.46,6.53,1.46h74.45v-40h12.99v40h25.98v-40h12.99v40h25.98v-40h12.99v46.5c0,1.02,2.98,4.19,4.25,4.74,6.44,2.82,12.74-2.18,12.74-8.74v-72.5h12.99ZM530.73,736.16c-15.46,6.27-23.97,23.83-23.99,40h23.99v-40Z"/>
    <path class="st0" d="M1090.38,706.16v30h23.49c.65,0,9.33,4.46,10.53,5.47,9.63,8.16,9.43,25.64.97,34.52,17.92-.76,36.68,1.04,54.51.05,3.71-.2,12.08-.81,15.18-1.81,9.2-2.98,11.19-18.59,3.95-23.91-.55-.4-8.69-3.32-9.18-3.32h-23.49v-11h26.48c.49,0,8.07,3.37,9,3.99,12.6,8.44,7.24,24.94,8.5,37.49,1.39,13.85,15.75,13.68,17,3.04l.12-72.88c1.01-3.1,10.02-1.1,12.85-1.64v77.5c0,.35-2.14,5.62-2.57,6.42-7.27,13.47-33.49,12.42-39.07-2.97l-167.23.04v18.5c0,5.45-11.46,16.56-17.99,14.5-2.72-6.45,6-7.69,6-12.5v-20.5h-34.98c.87-8.51,1.08-15.55,3.73-23.76,6.32-19.56,22.34-34.94,43.24-37.24v49h46.97v-69h11.99ZM1019.43,776.16v-40c-14.93,6.96-24.16,23.62-22.99,40h22.99ZM1111.87,747.16c-6.25-1.04-14.93.76-21.49,0v29h20.49c1.53,0,7.85-3.04,9.15-4.34,8.11-8.07,3.43-22.74-8.15-24.66Z"/>
    <path class="st0" d="M362.84,726.16v56.5c0,6.97,15.99,6.97,15.99,0v-50.5h13.99v46.5c0,.42-1.22,6.72-1.46,7.54-4.35,14.46-26.87,16.97-37.17,6.62-.99-.99-3.09-5.66-3.84-5.66h-35.48c-1.88-29.28,17.22-58.74,47.97-61ZM349.84,736.16c-15.27,6.13-24.44,24.02-23.99,40h23.99v-40Z"/>
    <path class="st0" d="M932.48,736.16h25.48c2.94,0,11.01,6.31,12.93,9.06,5.83,8.34,5.34,27.91-1.78,35.59-2.01,2.17-10.46,6.35-13.14,6.35h-49.47c-1.45-13.13,1.69-11.24,12.99-11v-70c2.25.25,12.99-.95,12.99,1.5v28.5ZM931.48,776.16h24.48c1.03,0,7.47-3.37,8.51-4.48,4.43-4.69,4.19-15.15-.17-19.87-1.3-1.41-6.96-4.65-8.35-4.65h-24.48v29Z"/>
    <path class="st0" d="M404.81,787.16c.5-2.72-1.41-10.86,1.64-11.86l58.85-.12c10.32-1.45,13.41-9.78,11.26-19.31-.74-3.27-7.62-8.71-10.28-8.71h-25.48v-11h27.48c.45,0,7.22,3.46,8,3.99,12.8,8.78,11.83,38.8-4.21,44.8-1.39.52-7.8,2.21-8.79,2.21h-58.46Z"/>
    <rect class="st0" x="839.54" y="706.16" width="12.99" height="81"/>
    <rect class="st0" x="1266.27" y="706.16" width="11.99" height="81"/>
    <path class="st0" d="M381.7,805.3c.62,3.44,5.49,4.71,5,8.13-.26,1.77-5.8,8.16-7.35,7.73-.51-.14-6.51-7.46-6.39-8.31.21-1.48,6.07-9.01,8.74-7.55Z"/>
    <path class="st0" d="M366.41,816.74c-.67.91-3.95,4.57-4.94,4.35-7.89-6.58-8.48-9.64,0-15.86,5.06,3.48,9.24,5.7,4.93,11.51Z"/>
    <path class="st0" d="M1185.02,707.27c2.17-.57,7.15,4.4,7.35,6.44.17,1.78-4.89,8.49-6.54,8.51-1.47-.15-7.34-7.16-7.44-7.7-.21-1.17,5.57-6.98,6.63-7.26Z"/>
  </g>
  <g>
    <path class="st0" d="M1127.36,1177.16v-42h8.99v62c-3.17-.25-6.81.87-9.55-.95-12.38-12.59-23.24-27.98-35.44-40.54-.96-.98-1.3-1.88-2.98-1.52v43h-9.99v-62l11.99.5c12.22,13.89,23.82,28.56,36.98,41.5Z"/>
    <path class="st0" d="M836.54,1197.16h-14.99c-.18,0-.36-2.19-1.13-3.33-5.25-7.73-13.52-15.35-22.41-18.62-3.43-1.26-14.71-3.96-17.78-2.89-3.4,1.19-8.72,20.8-12.14,23.85-2.22,1.98-6.6.65-9.5.98-.7-.66,2.55-7.07,3.14-8.35,10.3-22.53,22.21-44.59,33.25-66.72l3.05-1,38.5,76.07ZM782.57,1165.15c10.02-1.11,18.85,3.58,27.96,6.52l-15.47-31.49c-1.82-.01-10.43,21.84-12.49,24.97Z"/>
    <path class="st0" d="M385.8,1126.2c.7.98-2.08,8.64-3.53,8.95-8.44-5.21-24.67-10.92-32.95-3.02-15.57,14.86,23.95,21.51,31.21,25.82,15.44,9.18,13.97,29.82-2.02,37.38-15.27,7.22-31.52,3.15-46.62-2.23l2.98-10.94c4.82,1.09,8.57,4.99,13.75,6.72,10.99,3.68,35.18,4.08,29.43-13.46-4.36-13.3-40.78-10.54-43.95-30.01-4.18-25.65,35.64-26.88,51.7-19.22Z"/>
    <path class="st0" d="M902.5,1142.16l-9,1c.19-1.17-.37-4.53.05-4.96.89-.93,22.51-3.99,25.39-4.08,8.51-.26,20.42,1.07,26.57,7.49,9.38,9.79,1.02,22.85-10.03,26.04,5.26,8.22,14.99,18.44,19.05,26.94.58,1.21,1.29,2.05.93,3.56-5.39.16-11.1.3-15.94-2.54-1.97-3.98-19.94-28.46-18.04-30.45,24.72-2.68,16.16-30.14-6.99-25.01v57h-11.99v-55Z"/>
    <path class="st0" d="M512.74,1136.16v46.5c0,12.68,33.98,12.67,33.98,0v-46.5h12.99v46.5c0,.4-3.33,6.14-4,7-9.92,12.77-41.17,12.93-51.39.43-1.45-1.77-4.58-7.45-4.58-9.42v-44.5h12.99Z"/>
    <path class="st0" d="M1271.25,1146.15c-4.63-.96-7.61-4.55-12.92-5.54-6.42-1.19-18.65.27-17.8,8.91,1.02,10.27,34.4,9.3,37.5,24.37,3.02,14.68-8.72,24.05-22.26,25.26-4.06.36-26.76-2.56-28.35-5.12-1.06-1.71,1.77-7.61,1.88-9.86,8.48,3.28,16.9,9.13,26.5,8.02,5.93-.68,13.52-6.2,10.72-12.75-4.55-10.64-38.79-7.37-38.29-27.79.37-14.9,18.43-18.23,30.42-17.35,2.49.18,12.14,1.9,13.64,3.34,2.84,2.71-1.22,5.54-1.04,8.52Z"/>
    <path class="st0" d="M1201.81,1135.16c2.56.79,1.2,8.58,1.49,11-.67.75-6.26-2.44-7.72-2.77-1-.22-7.21-1.23-7.77-1.23h-17.49v19h28.98v7h-28.98v22c11.53.28,22.84.25,33.97-3v10s-45.97,0-45.97,0v-62h43.47Z"/>
    <path class="st0" d="M477.76,1197.16c-3.7-.6-10.09.94-13.32-.16-1.32-.45-6.09-8.59-8.01-10.48-6.99-6.91-18.64-11.28-28.52-10.24-1.16,2.73-8.3,20.12-9.27,20.72-1.4.88-6.72-.26-8.83.16l31.12-62.83,4.84.35c11.27,20.41,21.72,41.48,31.98,62.48ZM452.78,1175.16c1.35-1.42-10.25-21.56-11.48-24.99-1.52,2.25-10.3,19.22-9.5,19.99,7.34.2,14.33,2.12,20.99,5Z"/>
    <path class="st0" d="M990.44,1135.16v56c10.76-.27,21.65-.89,31.97-4v10s-43.97,0-43.97,0v-62h11.99Z"/>
    <rect class="st0" x="858.53" y="1135.11" width="12.99" height="62.05"/>
    <rect class="st0" x="678.64" y="1135.16" width="11.99" height="62"/>
    <rect class="st0" x="1044.41" y="1135.11" width="11.99" height="62.05"/>
  </g>
</svg>