<?xml version="1.0" encoding="UTF-8"?>
<svg id="Layer_1" xmlns="http://www.w3.org/2000/svg" version="1.1" viewBox="0 0 863.04 268.08">
  <!-- Generator: Adobe Illustrator 30.0.0, SVG Export Plug-In . SVG Version: 2.1.1 Build 123)  -->
  <defs>
    <style>
      .st0 {
        fill: #010101;
      }

      .st1 {
        fill: #eb733a;
      }
    </style>
  </defs>
  <g>
    <path class="st1" d="M749.66,162.04l-73.9,80.05-.36.12c-4.35-3.74-8.49-7.86-12.73-11.77l72.12-78.13c.18-.16.29-.1.48,0,.6.31,2.26,2.37,3.01,3.01,3.32,2.85,7.27,5.27,11.39,6.73Z"/>
    <g>
      <g>
        <g>
          <path class="st1" d="M726.14,131.56c.49,6.04,2.78,11.73,6,16.79l-101.25,39.36-6.22-16.4.36-.37,101.11-39.38Z"/>
          <path class="st1" d="M799.33,130.6l52.92,44.4-11.17,13.57-47.88-39.98c-.24-.48,1.14-2.26,1.46-2.87,2.45-4.71,4.43-9.76,4.67-15.12Z"/>
        </g>
        <g>
          <path class="st1" d="M730.7,109.24c-.73,1.96-1.85,3.73-2.58,5.7-1.35,3.65-2.09,7.69-2.22,11.58l-99.57-8.4,1.68-17.76,102.69,8.88Z"/>
          <path class="st1" d="M847.07,99.64l3.12,17.76-50.86,9.12c.05-6.09-1.97-11.88-4.56-17.28l52.3-9.6Z"/>
        </g>
      </g>
      <g>
        <path class="st1" d="M742.68,24.3l29.29,67.66c-6.41-1.49-12.94-1.67-19.29.21l-.66-1-25.63-59.57c.01-.5.5-.6.87-.8,3.71-1.97,9.55-4.4,13.53-5.9.38-.14,1.65-.77,1.89-.59Z"/>
        <path class="st1" d="M812.5,51.42l-20.97,53.25c-3.89-4.64-8.76-8.48-14.37-10.83l-.35-.52,18.93-48.4,16.76,6.49Z"/>
        <path class="st1" d="M747.98,93.88c-5.68,2.26-10.38,6.42-14.27,11.06l-.85.13-70.01-46.29,9.67-14.54,75.46,49.64Z"/>
      </g>
    </g>
    <g>
      <path class="st1" d="M772.45,163.24l-28.34,97.89-17.25-4.78,26.88-92.87c3.74.71,7.57,1.21,11.4.96,2.47-.16,4.85-.95,7.31-1.21Z"/>
      <path class="st1" d="M794.3,240.27l-18.5-77.88.04-.57c6.1-2.03,11.4-6.12,15.45-11.06l20.49,85.54-17.48,3.97Z"/>
    </g>
  </g>
  <polygon class="st0" points="272.34 41.34 281.46 49.94 290.05 41.55 290.74 41.35 299.77 50.29 290.74 59.29 290.05 59.1 281.46 50.46 272.34 59.3 263.57 50.11 272.34 41.34"/>
  <g>
    <path class="st0" d="M433.59,47.35c.28-.07.49,0,.68.2l7.94,8.16,8.35-8.16c.2-.2.41-.27.68-.2,1.09.29,7.01,7.48,8.58,8.48l.2.68c-1.38,1-7.95,8.32-8.78,8.54-.42.11-1.58-.94-1.99-1.29-2.46-2.09-4.45-4.93-7.04-6.83l-8.64,8.37-9.03-8.98,9.04-8.97Z"/>
    <rect class="st0" x="436.54" y="33.24" width="11.41" height="11.23" transform="translate(102 324.04) rotate(-44.99)"/>
  </g>
  <g>
    <g>
      <path class="st0" d="M307.46,125.32h-80.27c-10.39-.69-20.33-4.03-28.74-10.12-6.37-4.61-11.33-10.8-15.98-17.08,1.08-.96,8.98-7.79,9.67-7.58.5.15,5.57,7.09,6.51,8.15,7.21,8.15,16.88,13.24,27.83,14.17h28.2c-3.01-5.79-3.23-12.91-2.89-19.34.69-13.12,9.59-23.03,22.93-23.87,10.56-.67,20.01.07,27.24,8.51,2.44,2.85,5.51,8.97,5.51,12.73v34.44ZM295.22,112.84v-19.32c0-5.81-4.65-10.95-10.43-11.41-6.87-.54-15.75-.95-19.29,6.16-1.92,3.85-1.84,15.08.26,18.88,1.29,2.33,5.25,5.69,7.99,5.69h21.47Z"/>
      <path class="st0" d="M337.21,74.2v47.41c-.73,13.54-10.41,24.89-23.98,26.73l-2.66-11.98c5.81-.75,11.08-4.47,13.14-10.02.29-.79,1.02-3.07,1.02-3.78v-48.36h12.48Z"/>
    </g>
    <path class="st0" d="M364.09,47.08v65.76h28.43c3.6,0,9.24-5.92,9.24-9.48v-27.24h12.48v27.48c0,.72,1.22,3.36,1.67,4.09,5.73,9.24,21.6,5.16,21.6-5.05v-21.48h12.24v21c0,4.36,4.94,10.68,9.48,10.68h13.32v-41.04h12.48v41.04h20.27c.4,0,1.87-.56,2.36-.76,10.19-4.04,6.37-16.3,7.14-24.77,1.03-11.19,10.87-20.21,21.93-21.03,10.3-.76,20.31.07,27.33,8.42,2.16,2.57,5.42,8.77,5.42,12.1v38.52h-32.52c-6.19-.53-11.84-3.12-16.07-7.68-4.04,4.39-9.84,7.26-15.84,7.67-14.78,1.02-30.69-.75-45.58,0-6.12-.6-11.67-3.18-15.84-7.67-9.15,10.22-26.43,10.28-35.52,0-1.36.93-2.39,2.24-3.73,3.22-3.62,2.64-8.12,4.07-12.57,4.47h-39.96V47.08h12.24ZM557.23,112.84v-23.88c0-5.03-5.36-9.83-10.19-10.21-9.4-.74-19.3-.26-20.05,11.4-.26,4.04-.44,13.08,1.25,16.53,1.26,2.56,5.31,6.16,8.23,6.16h20.75Z"/>
  </g>
  <g>
    <g>
      <path class="st0" d="M106.16,235.96h-12.96l-.24-42.48-20.85,34.64c-.24.21-5.21.26-5.91.17-.33-.04-.63-.05-.84-.36-6.96-11.32-13.61-22.85-20.86-33.97v42h-13.2v-68.04s.33-.36.36-.36h10.8l26.07,43.28.56.4,25.35-43.04.56-.64h10.8s.36.33.36.36v68.04Z"/>
      <path class="st0" d="M112.64,235.96l.11-.73,30.24-67.19.36-.36,12.61-.14,31.06,68.42h-14.4l-6.83-15.38-32.36.06-6.64,15.32h-14.16ZM161.34,209.56l-11.52-27.12-11.75,27.12h23.27Z"/>
      <path class="st0" d="M237.14,183.62c-.16.11-.51-.02-.71-.09-1.55-.55-3.63-2.02-5.44-2.72-6.44-2.49-22.5-5.04-26.1,2.83-3.24,7.08,4.31,9.64,9.48,11.16,13.1,3.84,32.52,5.58,29.48,24.69-3.39,21.26-36.37,20.34-50.75,11.95-.63-.37-3.54-2.27-3.81-2.68-.47-.73,4.25-9.5,4.45-11.04l4.87,3.16c7.25,3.95,19.71,6.48,27.4,2.84,5.74-2.72,6.23-9.05.52-12.28-10.49-5.94-31.49-3.75-35.31-18.92-3.01-11.91,4.38-21.18,15.48-24.36,10.83-3.11,25.14-1.54,34.53,4.84l-4.08,10.62Z"/>
    </g>
    <g>
      <path class="st0" d="M268.11,195.4h33.35v-27.48s.33-.36.36-.36h13.32v68.4h-13.68v-28.8h-33.35v28.8h-13.68v-68.4h13.32s.36.33.36.36v27.48Z"/>
      <path class="st0" d="M396,235.96h-14.28l-6.62-15.33-32.73-.04-6.95,15.38h-14.04l31.06-68.42h12.02s.84.36.84.36l30.7,68.06ZM347.05,209.56h23.03l-11.63-26.88-11.4,26.88Z"/>
      <g>
        <path class="st0" d="M543.08,236.44v12.48h-13.68v-12.48c-13.94-2.02-25.68-12.11-28.91-25.92-4.11-17.55,4.42-34.9,21.35-41.29,20.12-7.59,44.99,1.77,50.2,23.71,4.95,20.85-7.79,40.38-28.96,43.49ZM542.6,223.96c23.32-5.51,21.87-41.33-2.31-44.85-17.49-2.55-30.17,11.59-26.32,28.72,1.77,7.86,8.03,14.31,15.91,16.12v-14.64h12.72v14.64Z"/>
        <path class="st0" d="M402.23,167.56c9.71.34,19.73-.46,29.4,0,16.54.76,29.27,9.18,27.94,27.25-.66,8.88-5.68,14.79-13.37,18.54-.25.12-.36-.05-.3.41l15.12,22.21h-14.88c-4.09-6.66-9.09-12.81-13.2-19.44h-17.04v19.44h-13.68v-68.4ZM415.91,205c8.08-.61,22.72,2.42,27.93-5.54,3.63-5.54,2.47-14.2-3.39-17.69-1.34-.8-5.2-2.21-6.67-2.21h-17.88v25.44Z"/>
        <rect class="st0" x="474.69" y="167.8" width="13.44" height="68.16"/>
      </g>
    </g>
  </g>
</svg>