<?xml version="1.0" encoding="UTF-8"?>
<svg id="Layer_1" xmlns="http://www.w3.org/2000/svg" version="1.1" viewBox="0 0 402 166">
  <!-- Generator: Adobe Illustrator 30.0.0, SVG Export Plug-In . SVG Version: 2.1.1 Build 123)  -->
  <defs>
    <style>
      .st0 {
        fill: #dbdcd5;
      }

      .st1 {
        fill: #6c6f59;
      }

      .st2 {
        fill: #221f1f;
      }

      .st3 {
        fill: #352821;
      }

      .st4 {
        fill: #252122;
      }

      .st5 {
        fill: #d7741f;
      }

      .st6 {
        fill: #676a55;
      }

      .st7 {
        fill: #a4a697;
      }

      .st8 {
        fill: #787b5c;
      }

      .st9 {
        fill: #d4d5ce;
      }

      .st10 {
        fill: #797b65;
      }

      .st11 {
        fill: #a2a493;
      }

      .st12 {
        fill: #c2c2c2;
      }

      .st13 {
        fill: #d2d3ca;
      }

      .st14 {
        fill: #878971;
      }

      .st15 {
        fill: #6c6e5a;
      }

      .st16 {
        fill: #969887;
      }

      .st17 {
        fill: #a8aa9a;
      }

      .st18 {
        fill: #663e20;
      }

      .st19 {
        fill: #332721;
      }

      .st20 {
        fill: #616357;
      }

      .st21 {
        fill: #686a5c;
      }

      .st22 {
        fill: #b9baae;
      }

      .st23 {
        fill: #1f1d1c;
      }

      .st24 {
        fill: #eb7d1f;
      }

      .st25 {
        fill: #afb2a3;
      }

      .st26 {
        fill: #676955;
      }

      .st27 {
        fill: #535050;
      }

      .st28 {
        fill: #62625a;
      }

      .st29 {
        fill: #c1c3b5;
      }

      .st30 {
        fill: #a5a798;
      }

      .st31 {
        fill: #221f20;
      }

      .st32 {
        fill: #787b64;
      }

      .st33 {
        fill: #7d8065;
      }

      .st34 {
        fill: #64655a;
      }

      .st35 {
        fill: #6d6f59;
      }

      .st36 {
        fill: #5b5b57;
      }

      .st37 {
        fill: #757763;
      }

      .st38 {
        fill: #231f20;
      }

      .st39 {
        fill: #646657;
      }

      .st40 {
        fill: #e1e1db;
      }

      .st41 {
        fill: #c2c3b7;
      }

      .st42 {
        fill: #656755;
      }

      .st43 {
        fill: #666859;
      }

      .st44 {
        fill: #b4b6a9;
      }

      .st45 {
        fill: #6a6c58;
      }

      .st46 {
        fill: #242020;
      }

      .st47 {
        fill: #797c65;
      }

      .st48 {
        fill: #696c57;
      }

      .st49 {
        fill: #ea7d1f;
      }

      .st50 {
        fill: #6f7259;
      }

      .st51 {
        fill: #382920;
      }

      .st52 {
        fill: #71745c;
      }

      .st53 {
        fill: #787b5d;
      }

      .st54 {
        fill: #aeb0a3;
      }

      .st55 {
        fill: #f4811f;
      }

      .st56 {
        fill: #9c9e8d;
      }

      .st57 {
        fill: #c2c3b8;
      }

      .st58 {
        fill: #70735a;
      }

      .st59 {
        fill: #b6b8a7;
      }

      .st60 {
        fill: #686a56;
      }

      .st61 {
        fill: #e0781f;
      }

      .st62 {
        fill: #e87c20;
      }

      .st63 {
        fill: #c2c4ba;
      }

      .st64 {
        fill: #fefefe;
      }

      .st65 {
        fill: #ee7e1f;
      }

      .st66 {
        fill: #72755f;
      }

      .st67 {
        fill: #797b69;
      }

      .st68 {
        fill: #6b6d5a;
      }

      .st69 {
        fill: #c2c1c1;
      }

      .st70 {
        fill: #342821;
      }

      .st71 {
        fill: #646658;
      }

      .st72 {
        fill: #797c5e;
      }

      .st73 {
        fill: #656758;
      }

      .st74 {
        fill: #fdfdfd;
      }

      .st75 {
        fill: #6a6b5e;
      }

      .st76 {
        fill: #747761;
      }
    </style>
  </defs>
  <path class="st38" d="M402,145v9c-3.93,6.61-9.98,6.34-17,6v-21c6.9-.5,12.99-.24,17,6ZM395.75,144.25c-.65-.56-5.48-1.52-5.74-1.24v13c7.04,2.46,9.09-8.84,5.74-11.76Z"/>
  <g>
    <path class="st38" d="M102,107c3.95-.89,8.04-.73,12,0,1.04-1.44,2.93-1.4,4,0,2.24.62,2.57,1.29,1,2,.88.33.88.66,0,1-1.8,1.48-6.67.67-7-2-.96,1.13-2.63,1.47-5,1-.64.38-.31.72,1,1,.19-.89.52-.85,1,0,3.1-.23,6.44.1,10,1l.28-1.01c2.46.13,3.56.18,4.72-.99-.59-1.4,1.7-1.29,3-1,1.63-1.72,13.67-1.58,15.76-.51.27.14.29.76.24,1.51-.13,2.68-.53,9.21-.02,11.29.07.28,4.22,3.51,4.51,3.52.39.01,3.8-2.95,5.27-3.55,9.2-3.75,17.34-1.98,23.77,5.72h1.45c2.73-7.39,10.76-9.45,17.73-6.19,1.36.63,3.54,3.18,3.79,3.18s2.43-2.54,3.79-3.18c9.08-4.24,17.72.13,19.46,9.97.83,4.7,3.08,29.35,2.08,32.56-.55,1.77-2.77,2.35-3.82,3.69h-13c-1.44-.97-2.78-.97-4,0h-8c-1.82-1.01-3.17-1.03-5,0h-68c-3.57-1.38-7.38-.92-11,0h-17c-1.82-1.01-3.17-1.03-5,0h-8c-1.19-.97-2.52-.97-4,0H10c-5.66-.93-9.27-1.54-10-8v-9c.55-1.78,5.86-7.05,5.97-7.55.45-2.03-3.97-3.12-3.97-3.95v-16c0-3.9,24.22-2.93,28.06-1.06,1.38.67,4.15,3.37,4.43,3.38.42,0,4.76-3.66,6.5-4.32,8.1-3.06,18.32-.29,22.5,7.5,1.73-1.49,1.97-3.82,3.57-5.42,5.35-5.32,5.53,1.71,5.93-9.57.96-1.5,2.07-1.52,3,0,.32-2.66,1.24-2.54,2,0,3.11-.24,6.11-.58,9-1-1.07-.58-2.4-1.24-4-2-1.49,1.55-2.11.93-1-1,.36-1.45,1.11-1.29,2,0,2.92-.75,5.92-1.08,9-1,2.49-1.46,6.68-1.68,9,0Z"/>
    <path class="st38" d="M109,85c.46-.51.79-.18,1,1,10.92,2.04,22.18,2.99,33.06,5.44,1.57,1.06,1.03,11.89.94,14.56-.82.71-1.63,1.26-2.45,1.26-10.45.01-21.27-.69-31.55-2.26-1.11.77-2.44.77-4,0-3.45,1.37-6.45,1.37-9,0-3.07-.08-6.07.26-9,1-3.41,1.41-6.41,1.41-9,0-1.81.74-4.38.91-6,0,0-1.67,0-3.33,0-5-3.92-1.09-1.53-6.26,0-9,.07-3.64,4.52-4.43,7-2,.24-.89.57-.87,1,0,.65-1.17,1.32-1.51,2-1,2.72-2.2,8.12-3.09,11-1,.77-2.59,1.77-3.26,3-2,3.04-1.28,6.04-1.95,9-2,.29-.92.62-.91,1,0,1.15-1.8,1.82-1.46,2,1Z"/>
    <path class="st62" d="M144,106c-.04,1.15-.97,2.41-1,3-4.88-1.96-10.73-.72-16-1-3.49.67-6.49.34-9-1-1.33-.04-2.67.02-4,0-5.43-.45-6.77-1.11-4-2,11.38.06,22.63,1.12,34,1Z"/>
    <path class="st62" d="M106,105c4.85.56,3.51,1.23-4,2-2.99.05-6.02-.11-9,0-3.08-.09-6.08.25-9,1-.66.03-1.33-.01-2,0-1.62,2.88-6.11,1.78-9,1,0-.67-.01-1.33,0-2,1.81-.3,3.81-.63,6-1,2.99,0,6.02.1,9,0,2.92-.75,5.92-1.09,9-1,2.99-.1,6.01.08,9,0Z"/>
    <path class="st46" d="M82,108c.1.47.54.95,1,1,2.66.32,2.54,1.24,0,2-1.55.34-3.21.68-5,1h-2c-1-.54-2-1.21-3-2,0-.33,0-.67,0-1,2.76-1.58,5.99-.95,9-1Z"/>
    <path class="st5" d="M73,110c2.37-.04,3.47-.67,3,2-1,0-2,0-3,0,.02-.67-.01-1.33,0-2Z"/>
    <path class="st5" d="M79,106c-1.12,1.77-4.12.86-6,1,0-.33,0-.67,0-1h6Z"/>
    <path class="st64" d="M207,142c-.49,3.27-2.83,17.23-4.98,18.52-8.16,4.92-8.17-15.07-10.52-19.53-1.05,0-.78,19.31-1.5,20.01-.4.4-9.22-.29-11.01,0,1.61-9.42.83-19.93,2.27-29.23,1.04-6.72,4.25-9.12,11.22-7.74,5.11,1.01,5.77,11.55,6.53,15.97l3.52-10.97c-.06-5.8,10.3-6.73,13.24-3.79,3.62,3.62,3.12,29.33,4.24,35.77-13.57.84-10.42-.31-11-11l-1.44-9.42c.36.84.18,1.31-.56,1.42Z"/>
    <path class="st64" d="M77,150c-.58,10.7,2.57,11.84-11,11,1.13-6.37.74-32.27,4.24-35.77,2.94-2.94,13.3-2,13.24,3.79l3.52,10.97c.59-4.26,1.85-15.03,6.53-15.97,6.97-1.39,10.18,1.02,11.22,7.74,1.43,9.25.81,19.84,2.27,29.24h-11.01s-1.49-20.01-1.49-20.01c-2.35,4.46-2.36,24.45-10.52,19.53-2.22-1.34-4.31-15.17-4.98-18.52-1.41,1.32-2.07,3.98-2,8Z"/>
    <path class="st74" d="M34,135.5c2.57-15.48,25.52-16.43,27.91,1.09.54,3.96.76,18.26.09,21.91-.73,3.96-10.56,3-11.56,1.56-1.34-1.92.19-6.98-.41-9.37-.28-1.1-2.59-.69-3.05-3.16-.23-1.26-.28-5.79-.04-6.99s2.57-.21,2.96-.62c1.26-1.31-.48-8.96-3.89-4.43v24c0,2.22-12,2.22-12,0,0-6.74-1-17.96,0-24Z"/>
    <path class="st74" d="M175,161h-11.01c-.58-.58.59-8.61.07-10.39-.42-1.45-3.48.8-4.12-4.05-1.33-10.01,2.95-5.46,4.06-6.56.35-2.61-.34-4.47-2.52-5.99-.85-.38-2.49,1.19-2.49,1.5v24c0,2.22-12,2.22-12,0v-22c0-.35,1.47-5.47,1.79-6.21,3.95-9.19,18.16-10.36,23.67-2.24.5.74,2.54,5.06,2.54,5.46v26.5Z"/>
    <path class="st74" d="M139.5,124c3,.63,5.71,5.19,5.31,8.27-.46,3.43-12.94,16.74-11.8,17.72h12c-.67,4.69,2.37,10.33-3.46,11.05-7.59.94-27.64,1.71-23-11,1.44-3.94,10.24-10.67,11.45-13.56.85-2.04-1.38-1.41-2.47-1.49-1.49-.11-7.26.27-7.52,0-.4-.4.3-9.21,0-11.01,5.68.81,14.25-1.11,19.5,0Z"/>
    <path class="st74" d="M25.5,124c1.03.18,4.52,1.99,5.01,2.98,4.15,8.23-7.97,16.65-11.51,23.01h12s0,11.01,0,11.01H12.5c-1.26,0-5.7-2.09-6.57-3.43-5.24-8.13,8.37-15.83,11.07-22.56-1.68-.31-9.61.39-10,0s.3-9.21,0-11.01c5.62.68,13.17-.93,18.5,0Z"/>
    <path class="st5" d="M110,105l-1,.99,4.33.2.67.81c-3.98-.05-8.02-.06-12,0,.96-2.04,4.69-.47,6-1.01.31-1.43-.65-.98-2-.99,1.53-.04,2.64,0,4,0Z"/>
    <path class="st18" d="M127,108c-1.87-.8-2.83.97-3,1-.63,1.77-3.91,1.5-5,0-.17-.64-.75-1.33-1-2,3.36.09,6.77.88,9,1Z"/>
    <path class="st70" d="M83,111c.86-1.52,3.2-1.6,4,0,1,.05,2-.05,2.99.01v.98c-3.99.02-8,.01-11.99.01.84-1.6,3.4-.96,5-1Z"/>
    <path class="st51" d="M112,108c.64.19,3.13,3.77,7,2,.87.28.86.62,0,1-3.8.14-7.58-.96-10-1,.96-.88,1.96-1.54,3-2Z"/>
    <path class="st69" d="M209,150l-2-8c.09-.63-.07-1.35,0-2,3.25,1.52,1.81,6.75,1.99,10Z"/>
    <path class="st12" d="M79,142l-2,8c.18-3.24-1.26-8.48,1.99-10,.1.64-.11,1.4,0,2Z"/>
    <path class="st49" d="M112,108c.47,2.67-.63,2.04-3,2-.33,0-.67,0-1,0-.93.01-1.31,0-1-1,1.07-1.2,3.66-1.4,5-1Z"/>
    <path class="st24" d="M124,109c.76,3.11-2.47,1.9-5,2v-1c-.06-.32.08-.69,0-1,1.59-.17,3.5.25,5,0Z"/>
    <path class="st55" d="M94.01,110.99c-1.29-2.74,4.97-3.36,4.97-1.49,0,1.34-3.6,1.85-4.97,1.49Z"/>
    <path class="st3" d="M108,110c-.96-.02-5.63,2.15-7.99.99l6.99-1.99,1,1Z"/>
    <path class="st5" d="M93,107c-2.11.08-5.89.86-9,1,2.05-2.08,6.18-.62,9-1Z"/>
    <path class="st65" d="M131,111c-.6-2.99,1.39-1.9,3.99-1.99-.02,1.63.56,2.45-.99,2.99-1.17-.23-2.17-.56-3-1Z"/>
    <path class="st19" d="M131,111c1.1.04,2.52-.3,3,1-.56.2-7.63.16-7.99-.01v-.98c1.66.02,3.34-.07,4.99-.01Z"/>
    <path class="st61" d="M83,109c2.46.24,4.62-1.12,4,2-1.32-.06-2.68-.03-4,0v-2Z"/>
    <path class="st5" d="M97,105c-2.1.07-5.81.89-9,1,2.05-2.08,6.18-.62,9-1Z"/>
  </g>
  <g>
    <path class="st53" d="M100,7c1.09-1.55,2.5-.94,2,1,5.18-.9,13.9,10.02,13,15-1.26,3.02-3.24,1.48-4.92-.49-3.9,1.14-6.59.97-8.08-.51-1.06,1.13-3.06.8-6-1-2.73-.63-12.5-3.7-14.71-4.79-6.61-3.24,2.97-4.32,6.17-4.25,2.31.05,6.1,1.38,8.55,2.04.7-1.53,2.23-.23,3,1,2.21.14,2.21-.19,0-1-1.3.27-2.54-.58-2-2-.12-.11.18-1.15-.3-1.68-1.21-1.34-4.17-1.49-3.7-4.32,2.02.17,5.17.34,7,.99Z"/>
    <path class="st50" d="M111,30c2.36-3.42,5.96.71,3,3-.73,2.2-1.64-.3-1.53-.39.66-.53,1.97,3.87-.47,3.39-3.58,5.45-7.94,10.03-13.1,13.73-1.16,3.14-2.79,4.9-4.9,5.27-1.03,1.31-2.44,1.69-4,1-3.5.51-11.68-2.72-13-6,.33-.03.68.06,1,0l1.39-2.75,18.03-9.13c2.01-4,6.2-6.37,12.58-7.12-.41-.85-.03-1.16,1-1Z"/>
    <path class="st10" d="M100,30c2.39.36,4.2-.3,6.59-1.21,2.18-.65,3.53-.32,3.41,2.21-3.05,2.71-6.86,2.87-8.7,4.3-1.11.86-1.4,3.31-2.64,4.37-.89.76-19.3,10.08-20.66,10.33.45-5.29-.12-9.68,5-13,1.33-1.14,2-2.14,2-3,.29-1.98,2.14-2.8,5.55-2.47,4.45-3.5,7.6-4.01,9.45-1.53Z"/>
    <path class="st76" d="M94,55c5.28-1,.97,6.04-2,7l-1,1c-.28.87-.62.86-1,0l-2.14.18c.79-1.49.9-2.54-.86-3.18-2.31,2.79-5.51,5.1-9.61,6.94-3.05,3.31-6.18,5.34-9.39,6.06h-6c-.77-1.84,1.67-3.67,1.64-4.5-.03-.75-1.71-1.72-1.56-2.86.49-3.62,10.31-6.18,12.91-7.64-1.87-4.59,2.46-4.89,4.62-.89,3.47-.75,6.93-1.12,10.38-1.11,1.44-1.26.69-3.29,4-1Z"/>
    <path class="st68" d="M118,29c1.07.72,2.07,1.06,3,1,2.19-1.88,6.03,2.67,4,5,4.63,9.17,6.3,18.5,5,28-2.41,4.36-3.36,2.25-6,2l-1.92-1.44c1.43-6.47.91-12.97-1.55-19.53l1.47-2.04c-1.12-.29-1.28-1.81-1-3-2.64.18-3.28-4.73-3-7-4.61,1.23-4.57-5.87,0-3Z"/>
    <path class="st58" d="M121,39c-.31,2.28.13,3.85,1,3,.69,3,2.74,9.91,3.06,12.46.45,3.66-.99,6.97-1.06,10.54-.12-.01-.86,1.17-2.21.85-1.46-.35-3.05-2.49-4.79-2.85l-1.71-1.2,3.71-13.8c-.94.07-1.68-.29-1.77-1.22-.34-3.42-.37-6.96-.23-10.78-2.38-1.05-2.42-5.5,1-4,1.46,2.53,2.1,4.52,3,7Z"/>
    <path class="st50" d="M120,28c.84-3.04,6.24-2.16,6,1,4.19.41,13.02,6.05,10,11v1c-.85,1.57-.7,3.41,0,5-.37,2.45-1.59,3.59-2,5-.91,1.6-1.7,1.94-2,0l-1.51-.48c-1.87-5.23-3.7-10.41-5.49-15.52-.52-.75-3.63-4.7-4-5-.66.43-1.66.1-3-1-.44-1.31.89-1.73,2-1Z"/>
    <path class="st6" d="M121,19c2.58-.93,12.26-2.76,13.5-1.01.53.75,1.33,4.46,1.32,5.55-.05,5.93-5.43,2.47-8.82,4.46.24.9-.1,1.23-1,1-.96-.37-4.89-1.03-6-1-1.64.2-1.97-.13-1-1-2.62-.11-2.62-.77,0-2-1.79-1.89-.68-5.45,2-6Z"/>
    <path class="st26" d="M87,60c2.24-1.01,2.58,4.32.01,3.54-4.65,6.86-10.32,12.02-17.01,15.46-.36.27-4.94.82-5.99.99-1.01-.93,3.16-5.97,3.99-6.99,4.61-5.63,11.03-10.56,19-13Z"/>
    <path class="st48" d="M95,26c2.17-.85,4.94-.85,7,0,2.2,1.85.45,4-2,4-3.59-.6-6.27,2.61-8.93,3.45-1.28.4-3.74.08-6.07.55.34,1.12-.66,1.46-3,1-1.21.21-2.75-.18-4,0-2.52.68-3.85.35-4-1,3.18-4.74,15.28-7.53,21-8Z"/>
    <path class="st15" d="M127,28c11.9,5,21.59,10.94,23,24.99-5.96.75-4.73-5.6-6-8.99-1.04-.48-2.04-1.15-3-2-.28-.04-4.77-1.85-5-2-.33-.21-2.21-4.61-3.47-6.03-1.16-1.31-5.08-4.41-6.53-4.97.31-.33.61-.77,1-1Z"/>
    <path class="st43" d="M76,50c.33-.03.67.03,1,0,4.91,1.47,8.91,2.74,13,6-.36.32-.29,1.4-1.66,1.8-.76.22-8.29,1.3-8.87,1.25-2.62-.2-2.28-3.94-3.46-3.04-.09.07-.29,1.58-1.02,1.99-1.9-4.56-6.72-3.79-10-6.51.88-.47,3.19-1.39,4-1.49,2.2-.98,4.77-.78,7,0Z"/>
    <path class="st72" d="M121,19c-.23,3.12-1.27,3.72-2,6-.33,1.35-.72,1.91-2,1-1.3-4.83-3.03-8.63-6.31-12.53l.31-2.47c1.75-.64,2.09-2.3,1-5-.3-1.31-.61-2.68-1-3.99,4.21-.78,6.37.97,7.73,4.76.49,1.37,2.37,10.88,2.27,12.23Z"/>
    <path class="st33" d="M102,22c.69,0,2.89-.54,3.39-.9,1.43-1.02-.65-3.89,2.61-3.1-.59,5.31,1.48,1.73,2.84,2.21.24.08,1.72,3.14,4.17,2.79.91.24.89.57,0,1v1l-1.38,2.14c1.56,1.88-.2,3.89-2.62,2.86-.33.34-.65.69-1,1-1.77-1.9-8.69,2.38-8.98,2.01-.1-.12-1.01-2.85-1.02-3.01-.03-1.79,1.69-2.94,2-4-.86-.26-.84-.6,0-1,.07-.29,0-.69,0-1-1.91-.44-2.02-1.63,0-2Z"/>
    <path class="st45" d="M117,63c-.26.34-3.9,3.67-5,5-2.11,2.16-2.7,1.44-4-1-2.06-.9-1.64-8.39,0-10,.78,1.62,1.11,2.95,1,4,3.35-3.51,5.64-7.91,7.72-12.54l2.28-.46c.06,2.32-1.47,14.29-2,15Z"/>
    <path class="st68" d="M87,60c.71-.22,1.38-1.62,3-.99-1.77,2.07-.03,3.48,0,3.99,1.02.59.54,3.77-1,3v-1c-3.78,3.45-7.07,7.69-9.89,12.74-2.77,3.94-5.48,5.36-8.11,4.26-1.47,1.32-2.02.77-1-1-.19-.41.13-1.4,0-2,.13-.1.09-1.81,1.01-2.45,5.21-3.6,9.66-6.47,13.91-11.37.68-.78,4.32-4.27,2.08-5.19Z"/>
    <path class="st58" d="M110,10l1,1c3.98,4.08,6.15,9.16,6,15-1.32,1.75-1.99,1.09-2-2,0-.32.06-.69,0-1-.83-4.52-2.52-3.56-3.66-5.23-2.51-3.7-4.61-7.2-9.34-9.77-1.63-1.12.37-2.74,2-2,1.92.94,4.38,2.59,6,4Z"/>
    <path class="st60" d="M132,51c.99.81.99,2.48,0,5-.76,1.98-.6,4.47-2,7-1.98-2.53-.17-5.84-.5-8.99s-1.29-6.87-2.21-9.8c-.84-2.68-4.69-6.53-2.29-9.21,3.23,4.66,5.71,11.02,7,16Z"/>
    <path class="st14" d="M80,90c-2.25.6-5,.59-7,2-.33,1.98-.99,2.64-2,2l-5.01-.51c-.02-2.72,3.17-4.89,5.01-6.49.19-.88.53-.84,1,0,2-1.2,3.67-1.53,5-1,2.1.55,4.78,1.76,3,4Z"/>
    <path class="st36" d="M70,81c.23.5.74.69,1,1,2.61-1.47,4.88.26,3,3,.95,1.63-.33,1.91-2,2-.31-.08-.68.07-1,0-.93-.19-8-1.84-7.98-2.5l6.98-3.5Z"/>
    <path class="st67" d="M73,101c-2.81,1.02-8.55.48-5.33-3.06,1.06-1.16,2.88-3.47,3.33-3.94.64-.65,1.27-1.49,2-2v9Z"/>
    <path class="st32" d="M110,80l-1,5c-1.04-.25-1.89-.99-2-1,.38-4.05.61-8.2.68-12.46l1.32-.54c.28-.87.62-.86,1,0,2.7,4.3,1.37,5.15,0,9Z"/>
    <path class="st22" d="M85,34c6.39,1.26-.69,2.15-2,3,1.28-2.04,1.67-2.17-1-2,.44-.08,1.7-.74,3-1Z"/>
    <path class="st30" d="M102,22v2c-2.89.07-3.51-1.84-6-3,1.11.26,5.11.99,6,1Z"/>
    <path class="st25" d="M112,68c-.76.91-1.29,2.05-2,3h-1c-2.28-.12-3.02-2.9-1-4l4,1Z"/>
    <path class="st29" d="M112,6c.49,2.14,3.02,5.52-1,5-.32-.33-.65-.7-1-1,3,.62,1.88-1.48,2-4Z"/>
    <path class="st17" d="M76,50c-2.24.21-4.83-.29-7,0,1.26-1.65,5.74-1.65,7,0Z"/>
    <path class="st41" d="M104,6l-2,2c-.46-.25-1.67-.88-2-1,1.61-3.01,1.66-2.14,4-1Z"/>
    <path class="st9" d="M78,35c-1,.15-3.02,1.88-5,.99-.18-.12.7-1.55,1-1.99l4,1Z"/>
    <path class="st57" d="M102,25c-.07.33.09.7,0,1-2.31.13-4.7-.19-7,0,1.42-1.9,4.81-.76,7-1Z"/>
    <path class="st63" d="M99,14c.87.28.86.62,0,1-.98-.31-2.06-.75-3-1l1-2c.58.54,1.88,1.93,2,2Z"/>
    <path class="st0" d="M134,51c-.51,1.75-1.36,3.35-2,5-.24-1.5.34-3.69,0-5h2Z"/>
    <path class="st59" d="M110,86c-.34-.06-.74-.94-1-1-.68-2.23.42-3.37,1-5v6Z"/>
    <path class="st63" d="M141,42c.07,0,.21-1.51.98-.99.15.1,1.96,2.82,2.02,2.99-2.01,1.73-2.6.34-3-2Z"/>
    <path class="st11" d="M136,46c-1.58-.66-1.58-4.34,0-5-.16,1.6.23,3.45,0,5Z"/>
    <path class="st76" d="M97,65c5.55,2.84,6.88,4.84,4,6l-.75,1.73c3.48,1.37,4.51,15-3.25,13.27-.88.56-2.2,1.74-3,2-.87-.28-.86-.62,0-1-.87-.27-.86-.61,0-1v-5c-2.65-3.81-2.13-9.05,0-13-.88-.34-.88-.67,0-1-.16-2.21.92-2.85,3-2Z"/>
    <path class="st28" d="M108,55c1.97.15,1.78,1.1,0,2-.48,4.75-.42,5.15,0,10,.11,1.27.97,2.79,1,4,.11,3.78-.89,9.64-2,13-.3-.03-.83-.08-1,0v-2c.92-2.26.72-4.7,0-7-.23-.3-.7-.74-1-1-1.88-2.37-3.59-10.39,1-10-1.21-2.85-1.21-4.85,0-6-2.95-.96-2.02-4.76,1-5,1.74-1.97,2.37.09,1,2Z"/>
    <path class="st34" d="M90,78c2.43-.74,3.31,1.46,2.64,6.61l1.36,2.39v1c-2.85.91-8.16,1.71-11,1-1.25-.58-.25-1.71,1-2-.87-.18-.84-.52,0-1,.99-4.62,2.99-7.28,6-8Z"/>
    <path class="st37" d="M80,86c1.81-2.02,2.47-1.65,2,1,1.54.43.16,2.21-1,3-.26.11-.67-.09-1,0l-3-4c.86-2.59,2.14-2.71,3,0Z"/>
    <path class="st13" d="M99,14c.63.37,2.71-.67,3.01.51.77,3.07-2.01.81-3.01.49v-1Z"/>
    <path class="st8" d="M112,36c.89.19.85.52,0,1,.88.19.84.53,0,1-.25,2.65-1.11,5.29-2.59,7.91l1.59,2.09c1.84,1.59,1.38,2.21-1,2-.92,1.8-1.92,2.8-3,3-.61,2.1-.7,2.89-1,5-.48.92-1.15,1.59-2,2,.63.85.29,1.85-1,3,.07,2.96-4.02,3.77-6,2-.29.16-.74,1.23-1.27,1.71-.57.52-1.66.19-1.73.29-4.17,3.88-3.2-1.79-2-5,.41-4.08,2.84-5.16,2.88-5.49.05-.45-.96-1.31-.88-1.51,4.18-10.75,5.72-6.78,10.93-12.57,2.12-2.36,2.01-6.39,7.07-6.43Z"/>
    <path class="st66" d="M115,25c1.12,1.06,2.45,1.73,4,2,.41-.04,1.19.41,1,1-.99.02-1.48.8-2,1-.46.17-1.37-.12-2,.01-.26.3,1.56,2.24,2,2.99-1.63.71-.8,2.78-1,4,.28,2.88.15,5.75-.37,8.6l-2.63.4c-.05.62-.39.95-1,1,.55,2.73.1,2.75-2,1-2.16-2.1-.32-5.68,2-7-.58-1.35-.51-2.76,1-3-1.34-.67-.79-2.91,0-4-.61-2.04-.02-2.21-3-3,1.35-1.37,1.87-4.1,4-5Z"/>
    <path class="st39" d="M114,33c.6,2,.4,2.05,0,4-.81,1.7-1.65,1.97-2,0,.01-.33-.01-.67,0-1,.02-.54,1.25-2.17,0-4l1.99,1Z"/>
    <path class="st35" d="M92,62c-.22,2.17-.84,5.68,2,5-.13.16.08.67,0,1-1.36,2.74-1.97,5.81-1.81,9.21l-2.19.79c-.92,2.64-2.55,3.81-3.66,5.39-.8,1.14.42,3.32-2.34,2.61-5.03-3.62,1.11-14.48,5-17l2-6c.04-.46.52-.92,1-1Z"/>
    <path class="st20" d="M89,69c-1.7-.34-.85-1.79,0-3,1.29-.19,1.05-2.03,1-3h1c-.44,4.86-.77,3.31-2,6Z"/>
    <path class="st56" d="M122,42l-.99,1-.82-3.39.81-.61c.38,1.04.75,1.89,1,3Z"/>
    <path class="st42" d="M121,30l-.5,2-2.5-3c1.2-.19,2.11.28,3,1Z"/>
    <path class="st21" d="M119,48c-2.04,3.21-3.69,9.45-6.54,12-1.47,1.32-2.35.67-3.46,1-.63-1.25-.7-4,1-4-.84-2.09,1.82-9.36,5-9,.59-2.08.58-2.18-1-3,1.63-1.83,2.59-6.52,3-9,.84,2.8,1.92,8.89,2,12Z"/>
    <path class="st1" d="M117,26c.4.08,1.46-.77,2-1-.16.51.11,1.38,0,2-1.68.17-3.22,1.26-5,.99.34-1.03.87-1.86,1-2.99.04-.32,0-.67,0-1,.57.57,1.26,1.85,2,2Z"/>
    <path class="st40" d="M110,57c-.47,1.27-.6,2.7-1,4-.07.02-.04,1.22-.99,1,.21-1.14-.34-4.55-.01-5,.12-1.86,1.65-1.91,2,0Z"/>
    <path class="st71" d="M89,65c-2.09,5.07-4.33,10.12-6.72,15.13l-2.28.87c.27,3.45-3.55,4.81-6,4-.59-1.38-2.16-1.99-3-3,3.87-2.09,7.57-6.63,10.51-9.98,1.31-1.49,5.11-7.73,5.5-8.01.9-.63,1.51-.09,1.98.99Z"/>
    <path class="st47" d="M89,66c.18.87-.12,2.05,0,3-3.51,7.68-5.39,8.51-5,17,.01.32.03.68,0,1-.64-.09-1.42.13-2,0-.63-.14-1.5-.97-2-1-2.57-1.29-1.62-3.09,0-5,.91-4.61,6.5-11.77,9-16,.11.24-.07.65,0,1Z"/>
    <path class="st32" d="M80,86c-.83-.05-2.35-.17-3,0-2.34.6-.61,2.15-5,1,.66-.62,1.26-1.5,2-2,1.91-1.29,4.22-2.28,6-4-.17.86,1.14,3.51,0,5Z"/>
    <path class="st52" d="M103,63c.12-1.97,1.63-1.99,2,0,.44-.6.77-.27,1,1-.03.45-.85,1.43-.89,2.59-.09,2.47,1.69,5.7-.11,7.41-.9-.79-2.27-1.3-4-3-.12-.11.34-1.22-.23-1.74-1.11-1.01-4.7,0-3.77-4.26,1.7-.93,4.08-1.68,6-2Z"/>
    <path class="st73" d="M94,68c.06,4.36.13,8.66,0,13,.29,1.63.29,3.29,0,5,.09.31-.06.68,0,1-4.03.64-1.26-6.64-4-9,1.12-3.21.69-10.45,4-10Z"/>
    <path class="st7" d="M94,86c-.93-3.31-.08-2.55,0-5,1.53,1.44.52,3.23,0,5Z"/>
    <path class="st16" d="M106,82v-7c1.45,1.89,1.86,5.31,0,7Z"/>
    <path class="st75" d="M110,50c-.45,1.7.12,3.86-2,5,0-.84-.09-1.72-1-2,.37-1.28,1.22-2.49,1.01-4l1.99,1Z"/>
    <path class="st54" d="M106,58c-.26,1.83.12,4.06,0,6-.26-.33-.93-.7-1-1-1.68.18-1.76-1.91-1-3,.34-.51-.86-2.67,2-2Z"/>
    <path class="st1" d="M113,40c-.57,2.26-1.35,4.7-2,7-.09.31.08.69,0,1-7.86.22-.47-6.44,1-10,.74-.2,1.07.46,1,2Z"/>
    <path class="st27" d="M114,37c-.24,1.16-.77,2.07-1,3-.91-.39-.93-1.16-1-2-.03-.32,0-.67,0-1h2Z"/>
    <path class="st44" d="M114,45c3.49-.32,1.82,1.02,1,3,.24-2.13.13-2.24-2-2,.32-.27.72-.68,1-1Z"/>
  </g>
  <g>
    <path class="st38" d="M251,139c5.84-.11,15.18-.93,13.98,7.42-.34,2.38-2.62,4.24-2.67,5.09-.11,1.88,4.46,5.68,4.69,7.98-5.77,2.57-6.46-2.8-8.78-6.18-.61-.89.16-1.85-2.23-1.3.09,4.67,1.2,8.92-5.01,7.99v-21ZM259.84,144.17c-.2-.34-3.51-1.52-3.83-1.16v5s3.99,0,3.99,0c-.14-1.17.39-2.89-.16-3.83Z"/>
    <path class="st38" d="M287,159.99c-7.33,2.16-3.87-4.59-7.46-5.06-10.21-1.34-2.38,6.72-11.53,5.06-.81-.73,6.05-19.94,6.95-20.54,1.44-.97,4.4-.85,5.55.54.89,1.07,7.27,19.29,6.49,19.99ZM280,150.99l-2.99-6.98c-.45,4.61-3.48,8.07,2.99,6.98Z"/>
    <path class="st38" d="M305,139c1.7.3,11.85-.63,12.01.51.86,6.1-2.85,2.24-7.01,4-1.55,7.72,8.91-.92,7.01,7.49l-7.02.58v4.43c4.75.34,8.13-2.03,7.02,3.99h-12s0-21,0-21Z"/>
    <path class="st38" d="M289.86,139.14c1.11.7,3.75,14.87,4.64,14.87.71-2.01,3.82-14.36,4.64-14.86.52-.32,3.71-.28,3.85-.14.83.79-5.56,20.79-6.64,21.05-1.35.33-3.88.12-4.88-1.04-.64-.75-5.91-16.59-6.38-18.63-.53-2.33,4.07-1.67,4.75-1.24Z"/>
    <path class="st38" d="M348,140.01c.86,7.54-8.12.54-9,4.51-.68,3.1,13.29,4.55,7.89,12.88-2.61,4.02-15.16,4.29-12.89-2.39,20.11,3.1,2.99-3.79,1.51-7.02-3.81-8.35,6.17-10.69,12.48-7.98Z"/>
    <path class="st31" d="M383,139c.24.25-.16,3.03,0,4-.83.2-5.01-.25-5.01,0v17h-5v-17c0-.25-4.18.19-5.01,0,.14-.71-.19-4,0-4,2.15,0,14.48-.54,15,0Z"/>
    <path class="st2" d="M249,139c.24.25-.16,3.03,0,4-.83.2-5.01-.25-5.01,0v17h-5v-17c0-.25-4.18.19-5.01,0,.14-.71-.19-4,0-4,2.15,0,14.48-.54,15,0Z"/>
    <path class="st38" d="M362,156c1.36,1.36,10.27-3.13,8,4h-13s0-21,0-21c1.31-.33,5,.19,5,1.5,0,2.22-.55,14.95,0,15.5Z"/>
    <path class="st4" d="M325,140c.81,2.38-.74,15.27,0,16.01,1.37,1.37,10.27-3.15,8.01,3.99h-12c-.88-6.67-.64-13.44-.34-20.12.65-.88,3.4-.55,4.34.12Z"/>
    <path class="st23" d="M325,140c-1.54.43-3.82-1.38-4.01,1.47-.42,6.12.32,12.41,0,18.53-2.29-6.41-.4-14.26-1-21,1.64.19,4.39-.79,5,1Z"/>
  </g>
</svg>