<?xml version="1.0" encoding="UTF-8"?>
<svg id="Layer_1" xmlns="http://www.w3.org/2000/svg" version="1.1" viewBox="0 0 383.4 394.2">
  <!-- Generator: Adobe Illustrator 30.0.0, SVG Export Plug-In . SVG Version: 2.1.1 Build 123)  -->
  <defs>
    <style>
      .st0 {
        fill: #c09d78;
      }

      .st1 {
        fill: #008085;
      }

      .st2 {
        fill: #008185;
      }

      .st3 {
        fill: #414042;
      }
    </style>
  </defs>
  <g>
    <g>
      <path class="st1" d="M260.04,0c3.71.87,7.39,1.29,11.07,2.42,19.19,5.91,36.05,23.98,37.48,44.56.09,1.28.63,6.01-1.43,5.04-.31-.15-4.31-4-5.04-4.68-10.71-9.98-20.82-21.07-31.46-31.15-2.27-2.16-4.73-4.16-6.92-6.42-.78-.21-1.5.17-2.08.67-5.74,6.02-12.05,11.47-17.99,17.27-.84.82-5.74,5.54-5.87,6.03-.31,1.09.44,1.92,1.55,1.92l32.31.06c5.11,3.96,9.08,9.16,14.08,13.27.7.46.78,2.86.02,2.86h-84.52c-.19,0-2.95-.43-3.08-.52-.57-.39-.46-1.7,0-2.2,14.52-13.9,28.83-28.03,43.35-41.93,2.59-2.48,5.32-4.98,8.1-7.19h10.43Z"/>
      <path class="st2" d="M130.92,0c.51.64,1.08,1.28.38,2l-45.72,44.64.36,1.08c7.03,6.25,13.26,13.41,20.16,19.79.63.59,4.07,3.85,4.34,3.97.47.21,1.2.11,1.57-.16.46-.34.16-9.52.2-11.03.02-.85.37-1.64.39-2.49.14-6.45-.2-12.93.06-19.38l14.11-13.95c.74-.63,1.67-.43,2.18.38l.2,83c-.35,3.97-2.57,2.15-4.52.53-4.43-3.68-9.04-9.2-13.29-13.34-10.61-10.35-21.36-20.63-31.99-30.98-.66-.83-.85-1.63-.94-2.65-2.47-25.75,11.45-50.43,36.07-58.98l10.35-2.42h6.11Z"/>
      <path class="st2" d="M165.44,0c.41.6.35,1.28.37,1.96.22,7.41-.96,17.59-.03,24.52.11.85.33,1.46,1.28,1.61L196.02,0h22.66c-.11,2.14-2.94,4.25-4.49,5.77-20.73,20.29-41.99,40.05-62.57,60.49-2.01.88-2.57-.1-2.73-1.99-1.21-14.26.17-31.93.39-46.44.09-5.92-.4-11.99.34-17.83h15.83Z"/>
    </g>
    <path class="st1" d="M105.56,140.76c.17-.03.87-.39.92-.6l-.36-1.76-27.71-28.06v-22.14l1.82.52,63.29,64.45c.66,1.06,2.27,2.05,1.61,3.42-.08.16-.67.73-.72.73h-65.46s-.54-.5-.54-.54v-15.48s.5-.54.54-.54h26.62Z"/>
    <path class="st0" d="M195.17,66.3l47.64,46.2c0,1.1-2.87,3.6-3.8,4.51-15.13,14.73-30.61,29.12-45.5,44.1l-1.97.9-47.33-46.25,50.96-49.46ZM194.83,83.94l-32.65,31.82.36,1.08c3.7,3.98,7.86,7.53,11.72,11.31,5.69,5.57,11.24,11.47,17.27,16.59l33.62-32.24c0-1.05-6.93-6.93-8.11-8.09-6.83-6.72-13.69-13.41-20.47-20.19-.51-.43-1.13-.46-1.74-.28Z"/>
    <g>
      <path class="st1" d="M237.74,228.6h-15.65c-.46,0-.85-1.13-.92-1.6-1-7.47,1.22-16.77.38-24.5-.22-2.06-1.33-2.49-2.89-1.08l-27.87,27.19h-21.94c-.13,0-.62-.54-.54-.9.15-.68,8.62-8.68,9.88-9.91,7.69-7.54,15.67-14.81,23.4-22.3,10.31-10,20.79-21.36,31.46-30.79,1.28-1.13,4.58-4.66,5.06-1.09v63.03s-.38,1.96-.38,1.96Z"/>
      <path class="st1" d="M78.99,176.43c.48-.16,1.04-.03,1.42.32l41.87,41.25c.75.73,1.81,1.3,2.72.55,7.29-7.11,14.69-14.09,21.91-21.27,1.25-1.24,4.82-3.18,1.11-4.33l-32.59-.14-14.39-13.68c-.63-.74-.43-1.67.38-2.18l85.44-.2c3.99.58,2.82,2.28.71,4.35-16.11,15.79-32.77,31.04-48.92,46.79-1.63,1.07-7.89.87-10.09.73-24.17-1.5-46.7-20.92-49.75-45.24-.14-1.15-.9-6.6.18-6.95Z"/>
    </g>
    <g>
      <path class="st1" d="M274.83,157.37l-.21,32.37c-.29.94-8.35,8.79-9.72,10.07-.71.66-5.04,4.65-5.39,4.66-.8.02-1.78-.7-1.65-1.59-.16-20.4.12-40.86.4-61.21.09-6.65-.8-15.73-.04-22,.14-1.18.9-1.82,2.07-1.34l47.9,46.77c.31.42.35.89.41,1.39.78,6.61-.14,16.85-1.91,23.31-5.56,20.29-24.73,37.55-46.1,38.82-1.96.12-6.3.66-4.53-2.38l45.28-43.98-.29-1.38-23.92-23.58c-.68-.61-1.56-.27-2.3.08Z"/>
      <path class="st1" d="M308.59,140.22c-.06.19-.59.65-.89.54-22.04-22.08-43.57-44.7-65.66-66.76-.92-1.42-.1-2.91,1.62-2.74l64.22.21c.17.08.72.65.72.71v15.12s-.5.54-.54.54h-26.62c-.54,0-1.39,1.8-.56,2.36l27.71,28.06v21.96Z"/>
    </g>
  </g>
  <ellipse class="st3" cx="69.87" cy="328.77" rx="6.62" ry="6.62"/>
  <g>
    <g>
      <rect class="st3" x="176.59" y="259.56" width="11.87" height="56.16"/>
      <path class="st3" d="M168.68,259.56v56.16h-77.15c-1.55,0-5.85-1.27-7.38-1.97-2.32-1.06-3.83-2.71-5.57-4.5-3.74,3.99-8.68,5.8-14.03,6.47H24.1c.4,13.15-8.52,18.88-20.86,15.67-1.25-.33-2.89-.37-2.9-1.78,0-.74,1.78-8.77,2.16-9.05,2.45-.03,6.95,1.69,8.82-.52.16-.19.91-1.86.91-1.97v-39.06h11.87v25.2h39.38c1.41,0,4.77-1.6,5.81-2.65.8-.8,2.29-3.7,2.29-4.73v-17.82h11.87v17.82c0,1.41,2.04,4.53,3.26,5.38s4.88,2,6.27,2h35.07c-.83-8.26-3.2-15.6-11.79-18.26-5.65-1.75-10.89-1.25-16.59-.13l-1.47-10.77c9.33-2.24,19-2.25,27.58,2.46,7.72,4.24,10.65,10.56,12.96,18.7.81,2.84.5,8,4.6,8h13.49v-44.1s.5-.54.54-.54h11.33Z"/>
    </g>
    <g>
      <rect class="st3" x="368.65" y="259.56" width="11.87" height="56.16"/>
      <path class="st3" d="M366.86,334.44c.1-.09,1.1.07,1.44,0-5.18-9.02,5.58-15.21,13.33-10.94.08.46-1.85,4.46-2.18,4.67-1.09.68-6.67-2.31-6.51,2.86.04,1.39,1.4,3.42,2.73,3.42h7.37v5.04h-16.18c.13-.77-.18-4.87,0-5.04Z"/>
    </g>
    <ellipse class="st3" cx="119.93" cy="262.04" rx="6.63" ry="6.63"/>
    <g>
      <path class="st3" d="M296,279v25.2h47.48v-25.2h11.87v36.18s-.5.54-.54.54h-58.8c.37,14.89-11.38,19.55-24.1,14.76l2.16-10.08c2.71.1,7,2.01,9-.53.24-.31,1.07-1.95,1.07-2.17v-38.7h11.87Z"/>
      <path class="st3" d="M248.89,315.36c-11.66-.78-22.54,1.68-33.45,5.4l-2.83-9.5c.19-.81,3.83-1.59,4.63-2.2-7.59-5.03-7.75-16.49-2.34-23.23,6.83-8.5,20.31-9.82,29.29-4.1l-5.01,9.5c-7.15-3.84-18.35-1.96-17.26,8.1.87,8.04,11.49,5.44,16.71,5.2,1.25-.06,10.27-.21,10.27.91v9.9Z"/>
      <rect class="st3" x="256.44" y="259.56" width="11.87" height="56.16"/>
      <g>
        <ellipse class="st3" cx="357" cy="265.78" rx="6.63" ry="6.64"/>
        <ellipse class="st3" cx="349.4" cy="252.83" rx="6.62" ry="6.63"/>
        <ellipse class="st3" cx="341.87" cy="265.78" rx="6.62" ry="6.62"/>
      </g>
    </g>
  </g>
  <ellipse class="st3" cx="84.98" cy="328.77" rx="6.62" ry="6.62"/>
  <g>
    <path class="st3" d="M83.08,394.2v-32.04h14.57c.78,0,4.01,1.17,4.83,1.64,4.73,2.69,4.83,10.08,1.11,13.67-1.14,1.1-2.77,1.5-3.96,2.51,4.53,3.39,6.68,8.98,9.88,13.5l11.39-31.26,8.58.11,11.5,31.87h-8.27l-2.14-6.67c-1.45-.16-10.88-.42-11.21.05l-2.12,6.63h-15.83c-1.76-2.07-5.59-10.78-7.65-11.61-1.04-.42-2.06-.27-3.15-.27v11.88s-7.55,0-7.55,0ZM90.63,376.2c3.76.24,7.7.32,7.58-4.51s-4.14-3.73-7.58-3.77v8.28ZM121.21,381.24h7.01c.16,0,.62.94.54-.18l-3.78-12.06-3.78,12.24Z"/>
    <path class="st3" d="M273.7,394.2l-.02-30.8c-.08-.37.26-1.24.56-1.24h7.01v12.6h12.95v-12.6h7.55v32.04h-7.55v-12.96h-12.95v12.96h-7.55Z"/>
    <path class="st3" d="M48.19,394.2v-32.04h7.01s.54.5.54.54v12.06h12.59v-12.06s.5-.54.54-.54h7.01v32.04h-7.55v-12.96h-12.59v12.96h-7.55Z"/>
    <path class="st3" d="M354.99,394.2v-32.04h14.93c.92,0,4.09,1.27,4.98,1.86,4.7,3.13,4.49,10.36.24,13.8l-3.6,2.33c4.81,3.1,7.22,9.38,10.43,14.05h-8.63c-1.4-2.2-5.61-10.81-7.56-11.69-.94-.43-2.21-.1-3.23-.19v11.88s-7.55,0-7.55,0ZM362.54,376.2c3.95.6,8.85-.42,7.83-5.49-.2-1-1.67-2.79-2.62-2.79h-5.22v8.28Z"/>
    <path class="st3" d="M244.21,394.2l-.02-30.8c-.08-.37.26-1.24.56-1.24h7.01v14.4l9.35-14.4h8.99l-11.08,15.3,12.16,16.74h-9.71l-9.53-14.76-.18,14.76h-7.55Z"/>
    <path class="st3" d="M185.59,394.2l11.54-32,8.43-.06,11.67,32.07h-7.91l-2.12-6.63c-.33-.47-9.76-.21-11.2-.05l-2.14,6.67h-8.27ZM205.37,381.24l-3.78-11.88-3.78,11.88h7.55Z"/>
    <path class="st3" d="M337,394.2h-8.27l-2.14-6.67c-1.45-.16-10.88-.42-11.2.05l-2.12,6.63h-7.91l11.32-31.69c.61-.74,7.41-.32,8.82-.18l11.5,31.87ZM324.78,381.24l-3.78-12.24-3.78,12.24h7.55Z"/>
    <path class="st3" d="M173,394.2h-8.27l-2.14-6.67c-1.45-.16-10.88-.42-11.2.05l-2.12,6.63h-7.91l11.49-31.88c1.42-.12,8.22-.55,8.83.19l11.32,31.69ZM160.77,381.24l-3.78-12.24-3.78,12.24h7.55Z"/>
    <polygon class="st3" points="27.69 394.2 27.69 368.28 18.7 368.28 18.7 362.16 44.24 362.16 44.24 368.28 35.25 368.28 35.25 394.2 27.69 394.2"/>
    <path class="st3" d="M221.19,394.2v-32.04h7.01s.54.5.54.54v25.38h11.51v6.12h-19.06Z"/>
    <path class="st3" d="M4.32,394.2c.35-2.88-1.5-6.6,2.88-5.76v-20.52c0-.14-2.88.14-2.88,0v-5.22s.5-.54.54-.54h12.41v5.76c0,.13-2.52-.13-2.52,0v20.52c.49.08,2.4-.12,2.52,0,.2.2-.15,4.9,0,5.76H4.32Z"/>
    <path class="st3" d="M338.08,394.2c.15-.86-.21-5.56,0-5.76.12-.12,2.03.09,2.52,0v-20.52c0-.13-2.52.13-2.52,0v-5.76h12.59v5.76c0,.13-2.52-.13-2.52,0v20.52c.49.08,2.4-.12,2.52,0,.2.2-.15,4.9,0,5.76h-12.59Z"/>
  </g>
</svg>