<?xml version="1.0" encoding="UTF-8"?>
<svg id="Layer_1" xmlns="http://www.w3.org/2000/svg" version="1.1" viewBox="0 0 1079.28 1072.08">
  <!-- Generator: Adobe Illustrator 30.0.0, SVG Export Plug-In . SVG Version: 2.1.1 Build 123)  -->
  <defs>
    <style>
      .st0 {
        fill: #412064;
      }

      .st1 {
        fill: #5e5e62;
      }

      .st2 {
        fill: #6501c8;
      }

      .st3 {
        fill: #6b666c;
      }

      .st4 {
        fill: #6a6a6e;
      }

      .st5 {
        fill: #020404;
      }
    </style>
  </defs>
  <g>
    <g>
      <path class="st5" d="M794.97,973.83c12.77,1.72,17.15,17.35,9.71,26.99-2.56,3.31-5.7,2.4-3.75,7.37,1.07,2.71,11,18.11,9.51,19.63-2.2-.37-6.92.71-8.65-.35-1.46-.89-8.54-16.97-10.24-19.62-2.48-1.43-12.37-2.8-13.4.28-1.26,3.72,1.36,17.51.3,19.02-.97,1.4-6.49.37-8.32.67-.43-1.01.72-2.15.72-2.52v-50.38c0-.08,1-1.08,1.08-1.08,6.78,0,16.72-.85,23.03,0ZM778.06,981.03v17.63c0,.08,1,1.08,1.08,1.08h10.8c.85,0,6.12-1.69,7.09-2.27,3.71-2.21,4.32-7.47,2.8-11.22-.45-1.1-4.66-5.22-5.57-5.22h-16.19Z"/>
      <path class="st5" d="M729.48,1028.53c-3.19-1.01-1.01-22.85-1.04-27.02-.06-7.77-1.82-16.65-.79-24.47.31-2.35.86-2.93,3.24-3.24,5.23-.69,25.06-.66,30.1.23,3.67.65,1.39,4.72,1.96,7.72h-25.55c-.08,0-1.08,1-1.08,1.08v14.04h21.95c1.29,0,2.02,7.1-.1,7.82-1.94.66-6.58-.7-9.28-.66-3.99.06-8.35,1.43-12.57.76v15.83h26.63c1.16,1.37.21,7.92-1.08,7.92h-32.39Z"/>
      <path class="st5" d="M930.65,981.75v15.11h21.95c1.61,0,2.76,7.2.72,7.2h-22.67v16.55h26.27c1.07,0,2.88,6.79-1.6,7.76-9.07,1.96-22.85-2.05-32.51-.64-.33-1.51-.72-3-.83-4.57-1.06-15.39.54-32.43.4-47.88.16-.34,1.3-1.45,1.43-1.45h32.39c2.34,0,1.59,7.92,0,7.92h-25.55Z"/>
      <path class="st5" d="M977.26,974.02c6.18-.89,12.99-.02,18.65,2.56,3.37,1.54,5.86,2.08,4,6.42-2.48,5.77-9.13-.44-12.94-1.08-5.73-.98-16.95.7-14.27,9.22,2.43,7.71,23.48,2.78,27.98,15.95,4.05,11.85-4.22,20.25-15.78,21.36-4.57.44-20.84-1.29-21.86-6.78-2.23-12.04,10.29-2.22,14.35-1.37,11.04,2.32,23.49-7.17,11.48-13.64-5.39-2.9-12.27-2.14-17.83-5.2-12.14-6.66-6.96-25.55,6.22-27.44Z"/>
      <path class="st5" d="M718.85,978.33c1.76,1.82.62,6.15-1.75,6.88-3.92,1.21-6.92-2.36-10.86-3.26-4.81-1.1-9.65-.73-12.77,3.39-8.04,10.62,13.33,11.26,19.29,13.85,11.87,5.15,11.08,21.73.07,27.1-6.1,2.97-13.18,2.58-19.59,1.05-4.46-1.06-11.74-2.87-10.9-8.46,1.15-7.66,10.85.8,15.64,1.57,5.26.84,15.2-.45,15.2-7.38,0-12.26-27.02-4.27-29.22-21.06-1.95-14.9,10.85-19.82,23.6-17.85,1.97.31,10.14,2.99,11.29,4.18Z"/>
      <path class="st5" d="M907.83,1012.2c2.44-1.95,8.6-2.19,7.56,2.85-2.98,14.57-26.03,18.42-34.28,5.81-5.29-8.07-5.27-31.83.29-39.78,7.58-10.84,24.78-9.5,31.86,1.15,2.64,3.98,4.25,9.02-2.43,8.78-3.48-.12-6.73-9.1-13.64-9.32-5.03-.16-10.08,3.45-11,8.51-1.16,6.42-1.42,17.85.92,23.94,2.85,7.4,11.31,8.48,16.93,3.27,1.41-1.31,2.72-4.36,3.78-5.21Z"/>
      <path class="st5" d="M818.97,973.95c1.78,1.1,11.1,35.17,14.16,39.46l13.27-38.36c1.25-1.56,6.5-2.01,7.16-.04,1.39,4.16-15.25,45.78-17.73,52.8-2.07.76-4,.78-5.9-.41-7.29-16.37-12.39-34.02-18.08-51.08-1.05-3.11,6.03-3.05,7.12-2.37Z"/>
      <rect class="st5" x="860.11" y="973.83" width="7.92" height="54.74"/>
    </g>
    <g>
      <path class="st5" d="M546.3,975.63c.68-2.43,6.58-2.27,8.46-.9l14.92,32.21,14.73-31.87c1.17-1.82,7.95-1.68,7.95-.17v52.9h-7.92s-.72-32.39-.72-32.39c-1.26.2-1.24,1.45-1.63,2.33-1.9,4.27-8.01,23.1-12.43,23.59-1.03.12-2.59-.34-3.25-1.24l-12.2-24.68v32.39h-7.92v-52.18Z"/>
      <path class="st5" d="M480.08,979.23c.13-1.2.91-4.97,1.9-5.3,1.77-.59,18.66-.35,21.41-.02,13.2,1.58,19.68,17.18,10.83,27.23-1.2,1.36-4.68,2.92-4.52,4.59.9,2.95,11.92,20.88,10.68,22.08-2.55-.35-7.01.82-9.05-.66-2.85-2.07-8.36-19.24-11.1-20.59-1.2-.59-12.24.45-12.24,1.46v19.79c0,.41-7.92,1.16-7.92-.36v-48.22ZM488,999.02h14.76c2.49,0,5.3-3,6.26-5.25,2.47-5.82-.34-10.45-6.33-11.95-1.99-.5-14.68-1.78-14.68.29v16.91Z"/>
      <path class="st5" d="M472.16,999.02c-.49,9.06,1.37,22.49-8.47,27.16-11.02,5.22-27.92,2.3-29.67-11.69-1.08-8.67-1.82-23.65,1.54-31.55,6.93-16.28,37.85-10.62,35.88,8.89-1.99-.27-4.93.48-6.73-.12-2-.66-4.42-10.7-12.35-10.7-12.01,0-11.76,16.51-11.19,24.88.66,9.76,6.08,19.1,17.09,13.42,4.28-2.2,8.65-13.15,4.35-12.96-6.78.31-13.5,2.69-10.61-7.34h20.15Z"/>
      <path class="st5" d="M614.5,974.02c4.47-.65,9.51-.24,13.85.89s10.13,2.84,8.31,8.32-9.74-.72-13.16-1.31c-6.25-1.06-16.2.84-13.54,9.22,1.82,5.74,20.18,5.58,25.88,11.55,3.2,3.35,3.13,9.48,2.53,13.9-2.04,14.98-28.45,13.81-37.34,6.52-2.78-2.28-1.18-7.16,1.82-7.56,1.88-.26,9.46,4.52,13.71,4.99,6.2.68,16.22-1.96,13.64-10.03s-25.09-4.12-28.13-15.78c-2.54-9.76,2.07-19.21,12.44-20.71Z"/>
      <path class="st5" d="M340.09,1008.38c-2.68.83.11,16.54-1.18,18.61-.61.98-5.73.86-7.1.82v-52.9c0-.08,1-1.08,1.08-1.08h21.59c.61,0,5.2,1.41,6.12,1.8,10.88,4.61,11.57,23.47,1.69,29.76-.79.5-6.54,2.99-7.09,2.99-3.11,0-13.06-.63-15.11,0ZM339.01,1000.46c5.23,1.24,16.8,1.61,20.48-2.91,3.04-3.73,2.74-11.48-1.53-14.25-.86-.56-4.94-2.28-5.64-2.28h-13.32v19.43Z"/>
      <path class="st5" d="M403.07,1020.62h25.55c1.93,0,2.26,6.77,1.8,7.2-1.27,1.2-30.86,1.02-34.96.04l-1.04-52.23c-.14-2.98,8.64-2.05,8.64-.72v45.7Z"/>
      <rect class="st5" x="375.68" y="973.82" width="8.67" height="54.01"/>
      <rect class="st5" x="527.58" y="973.83" width="7.92" height="53.98"/>
    </g>
    <g>
      <path class="st5" d="M121.28,973.83c11.51,1.55,17.95,16.08,11.15,25.55-1.5,2.09-5.07,3.75-5.09,6.46-.04,4,11.76,19.57,9.42,21.97-2.57-.26-7.44.8-9.35-1.09-1.64-2.17-8.62-19.79-9.72-19.79h-11.52c-.08,0-1.08,1-1.08,1.08v19.79h-7.92v-52.18c0-.24.95-1.09.72-1.8,7.31.71,16.31-.96,23.39,0ZM119.84,981.03c-3.66-.61-10.31,0-14.4,0-2.54,0-.09,15.81-.36,18,8.2.7,24.15,2.33,22.27-10.39-.51-3.47-4.12-7.04-7.51-7.61Z"/>
      <path class="st5" d="M247.24,973.83h19.43c1.78,0,8.14,2.04,9.95,3.01,2.9,1.55,5.19,4.2,6.39,7.29,2.73,6.99,2.54,25.13.38,32.33-4.11,13.66-19.49,11.01-30.42,11.32-1.65.05-4.27,1.28-5.41.45-1.32-.96-.5-8.66-.64-10.88-.74-11.77-2.13-29.57-.79-41.03.12-1.05.09-1.85,1.12-2.48ZM254.08,982.83v36.71c0,.08,1,1.08,1.08,1.08h10.8c4.25,0,9.28-3.31,10.47-7.52,1.63-5.78,1.63-22.51-2.2-27.38-3.61-4.6-18.92-6.98-20.15-2.88Z"/>
      <path class="st5" d="M233.3,1027.72c-.81-.52-3.04-10.22-4.05-11.43-1.44-1.73-17.44-.15-20.77-.74-1.06.25-3.45,10.35-5.08,11.62-1.34,1.04-7.71,1.3-8.29-.53-1.04-3.29,16.59-42.8,17.9-49.6,1.26-4.23,8.51-4.71,10.26-.83l18.46,49.96c.46,2.43-7.95,1.87-8.43,1.55ZM210.17,1008.38h15.47c.18,0,1.36-1.11.97-1.67-3.05-5.6-4.13-13.42-7.06-18.88-.44-.82-.54-1.95-1.82-1.77-1.01,2.79-8.39,21.48-7.56,22.32Z"/>
      <path class="st5" d="M197.93,981.75h-25.91c-1.8,5.21.02,10.54,0,15.83h22.31c.33,2.61.76,4.59,0,7.2h-21.23c-.54,0-1.63,1.75-1.78,2.54-.95,4.96,1.23,15.19-.12,19.31-.58,1.77-6.65,1.57-7.13.72l.04-53.52h32.03c2.13,0,1.96,6.35,1.8,7.92Z"/>
      <rect class="st5" x="144.67" y="974.55" width="7.92" height="53.26"/>
    </g>
  </g>
  <g>
    <g>
      <path class="st5" d="M107.96,837.08v-93.93c0-.08,1-1.08,1.08-1.08h23.75c3.16,0,12.2,3.93,14.68,6.19,8.13,7.39,8.36,29.62,3.8,38.92-1.68,3.44-6.04,5.84-5.93,9.19l11.45,38.76c-.8,3.19-15.91,2.17-16.82,1.24l-10.61-35.45-2.33-3.43c-1.22-.31-2.51,2.76-2.51,3.24v35.27c0,.08-1,1.08-1.08,1.08h-15.47ZM124.52,757.91v25.19c12.53.41,13.65-4.35,12.99-15.51-.66-11.13-3.01-8.58-12.99-9.68Z"/>
      <path class="st5" d="M414.94,742.07c8.66,1.03,18.21,7.25,19.62,16.37-.82,19.07,1.68,40.01.2,58.87-.66,8.38-4.48,14.08-12.28,17.23-2.16.87-7.64,2.53-9.7,2.53h-21.59c-.08,0-1.08-1-1.08-1.08v-93.93c7.86.67,17.15-.91,24.83,0ZM405.94,757.91v62.26c0,1.93,8.76,1.37,10.77-.74,1.28-1.35,2.05-6.54,2.21-8.59.65-8.32,1.09-42.2-1.09-48.63-1.84-5.44-6.99-3.96-11.89-4.3Z"/>
      <path class="st5" d="M305.9,836.36l15.89-91.72c.42-2.48,1.83-2.41,3.87-2.61,2.52-.25,16.14-.47,16.95,1.3l15.84,93.03h-16.19c-2.23,0-2.64-20.16-5.09-20.79-2.64,1.5-9.98-.4-11.47,1.35-2.02,2.36-1.6,15.77-3.23,19.44h-16.55ZM333.25,773.02c-2.01-.35-1.21.43-1.62,1.58-1.41,3.92-4.27,21.74-3.44,25.29.37,1.58,6.57,1.19,7.95,1.2l-2.89-28.07Z"/>
      <path class="st5" d="M282.87,742.79v15.83h-24.47v21.23c0,.08,1,1.08,1.08,1.08h17.27c.08,0,1.08,1,1.08,1.08v14.04c-.71-.23-1.56.72-1.8.72h-17.63v39.59c-5.47.53-11.17,1.53-16.55,0v-93.21c0-.08,1-1.08,1.08-1.08h38.15c.24,0,1.09.95,1.8.72Z"/>
      <rect class="st5" x="187.14" y="742.07" width="17.27" height="95.01"/>
    </g>
    <g>
      <path class="st5" d="M581.57,742.79h18.35c.79,0,1.02,1.76,1.11,2.48.62,5.06-.85,14.89-.79,20.95.1,9.32-.35,25.18.82,33.73.72,5.3,4.2,7.63,9.1,8.89,89.69,1.46,179.32-.89,268.99.92,4.37.09,12.73.64,16.58-.03,3.07-.53.48-6.88.34-9.68-.97-19.3,9.47-32.19,29.15-32.81,42.2-1.34,43.49,58.44,3.66,60.52h-325.39c-8.26.5-21.92-7.11-21.92-16.22v-68.74ZM923.97,782.55c-11.78,2.43-13.21,26.29.33,29.57,19.02,4.61,20.28-33.82-.33-29.57Z"/>
      <path class="st5" d="M516.07,768.34c.48-1.55,5.3-1.16,6.87-1.11,20.61.72,39.78,8.4,44.6,30.25,2.1,9.5,2.42,20.68,1.07,30.24h-66.94v-17.99c.92.39,2.13-.72,2.52-.72h44.98c1.58-19.29-16.93-25.83-33.11-25.19.75-3.92-1.02-12.18,0-15.47Z"/>
      <path class="st5" d="M1005.5,767.98v54.34c0,4.82-5.09,15.25-8.69,18.66-5.56,5.27-19.5,9.77-26.95,8.34-4.36-.84-1.7-11.83-1.46-15.15,3.48-1.98,7.37-1.2,10.83-3.56,2.46-1.68,6.83-8.31,6.83-11.16v-51.46h19.43Z"/>
      <path class="st5" d="M934.25,742.79v15.11c-.71-.23-1.56.72-1.8.72h-12.96c-.24,0-1.09-.95-1.8-.72v-15.11c5.47-1.93,10.99.39,16.55,0Z"/>
    </g>
  </g>
  <path class="st5" d="M181.84,942.26c1.2-.39,7.19-.39,7.86.57.72,1.04.61,7.22-.39,8.34-1.26,1.4-7.64.65-8.34-.32s-.85-8.03.87-8.59Z"/>
  <g>
    <path class="st5" d="M146.11,884.58v32.03c0,.37.91,5.86,1.07,6.13,1.65,2.85,14.67,1.96,18.04,2.12,1.94.09,3.65.76,5.69.78,10.21.11,20.4-1.35,30.63-.76-1.13-12.65-11.65-20.22-23.92-14.92-1.81.78-4.93,3.6-6.66,3.46-1.83-.15-4.85-6.06-3.82-7.83.44-.75,7.16-4.31,8.49-4.81,18.23-6.86,35.4,4.77,35.98,24.1h49.66c-1.06-10.98-8.22-18.28-19.75-16.51-3.55.54-8.44,4.5-11.01,4.89-3.27.5-3.97-6.18-2.05-8.59s10.56-5.38,13.74-5.69c17.05-1.68,28.4,9.12,29.22,25.83,2.58,1.48,17.91.07,17.91-2.44v-37.79c3.46-.71,6.63-1.25,10.08,0v37.79c0,1.4-2.23,7.71-3.29,8.94-1.82,2.13-5.86,3.37-8.59,3.64l-139.45-.16c-5.01-1.55-9.92-3.72-10.62-9.53l-.6-40.22.57-.86c2.88-1.12,5.75.66,8.69.4Z"/>
    <path class="st5" d="M573.29,924.89c3.11-.92-2.19-10.54-3.67-12.16-5.64-6.21-13.62-4.71-20.64-2.07-1.71.64-4.21,3.13-5.81,2.66-.8-.24-3.13-4.68-3.25-5.52-.51-3.45,8.96-7.35,11.86-8.02,18.61-4.35,31.16,6.75,33.34,24.8,3.51.27,14.57,1.33,16.67-1.42,2.71-3.56-1.58-34.21,1.72-38.59.89-1.18,8.32-1.33,8.91.48,1.35,4.1-.69,13.95-.68,18.62,0,2.04.81,3.85.81,5.72-.03,12.26,2.55,24.24-13.32,25.61l-113.75-.02c-3.78-.59-3.23-10.08,0-10.08h26.27c-.83-6.16-3.37-13.44-9.68-15.87-4.86-1.87-10.28.61-10.5-6.11-.13-3.8,2.83-3.92,6.14-3.98,9.26-.15,18.64,5.48,21.58,14.47.64,1.95,1.61,11.5,2.9,11.5h51.1Z"/>
    <path class="st5" d="M420.34,920.21c1.11,5.2,16.05,5.78,19.69,4.58,1.38-.46,1.64-7.27,2.59-9.65,5.88-14.69,28.25-13.68,33.18,1.43,5.3,16.25-6.95,29.2-23.46,23.46-2.99-1.04-7.01-4.74-8.63-5.05-9.32-1.77-31.01,4.71-32.73-10.45-.86-7.54-.96-30.04.07-37.39.74-5.31,9.29-3.28,9.29-2.2v35.27ZM456.86,913.54c-9.34,1.9-7.62,20.27,3.34,19.23s9.38-21.82-3.34-19.23Z"/>
    <path class="st5" d="M338.29,899.7c1.54.46,9.36-1.96,9.36.36v12.96c0,1.8,2.15,7.28,3.65,8.58,4.05,3.51,17.25,4.15,22.65,4.04,3.42-.07,12.68-.71,15.63-1.65,8.61-2.73,2.64-18.28,5.21-23.58.93-1.91,8.53-3.07,9.04,1.05.56,4.58.75,18.58-.09,23.01s-2.35,7.42-6.64,9.2c-5.22,2.16-29.44,1.83-36.16,1.33-8.91-.67-17.81-3.77-21.05-12.78-.33-.91-1.6-5.08-1.6-5.6v-16.91Z"/>
    <path class="st5" d="M118.76,908.33c-.22-7.16-6.13-10.45-12.64-10.82-3.28-.19-6.19,2.7-6.14-2.49.06-6.57,2.25-6.57,8.33-6.11,16.04,1.2,24.04,13.34,21.18,28.71-8.71,2.25-30.75-3.76-27.71,12.32,2,10.57,16.54,5.6,18.1,7.84.68.98.61,8.41-.36,9.09-2.35,1.64-14.67-.23-17.81-1.72-12.06-5.72-13.88-26.67-2.63-33.84,1.13-.72,6.84-3,7.8-3h11.88Z"/>
    <rect class="st5" x="305.9" y="883.83" width="10.11" height="51.19"/>
    <path class="st5" d="M360.38,890.48c6.24-1.89,9.29,1.18,8.12,7.4-.59,3.14-4.98,3-7.52,2.52-4.71-.9-4.01-8.88-.6-9.91Z"/>
    <path class="st5" d="M111.32,922.85c1.53-.51,6.46-.45,7.51.89,1.13,1.43,1.13,7.25-.36,8.42-1.33,1.05-6.84,1.1-8.01-.05-1.68-1.66-1.63-8.43.86-9.26Z"/>
    <path class="st5" d="M556.17,883.3c9.05-2.05,11.92,10.79-.2,9.24-4.47-.57-4.04-8.28.2-9.24Z"/>
    <g>
      <path class="st5" d="M714,924.89c-4.9-15.45,2.87-29.42,20.34-26.46,17.2,2.92,18.75,30.99,1.44,35.65-6.6,1.77-38.98,1.67-45.39-.33-3.17-.99-8.06-4.09-8.06-7.77v-41.39c2.86-.41,5.8-1.35,8.68-.4l.57.86c-.03,11.62-1.75,23.56.14,35.12.45,2.72,3.61,4.72,6.07,4.72h16.19ZM728.94,906.29c-12.84,2.07-6.67,25.9,5.18,18.92,8.47-4.98,3.74-20.36-5.18-18.92Z"/>
      <path class="st5" d="M665.06,924.89c.64-7.06-2.98-13.4-9.57-15.98-4.96-1.94-10.46.39-9.82-6.63.47-5.16,8.76-3.28,12.35-2.37,9.22,2.33,17.13,11.2,17.13,21.02v12.96c0,.08-1,1.08-1.08,1.08h-35.27c-1.62,0-1.62-10.08,0-10.08h26.27Z"/>
      <path class="st5" d="M763.67,899.7c.57-.89,7.8-.74,9.36-.72.1,11.31,1.61,22.62-.33,33.87-1.23,7.12-4.85,13.1-12.46,14.17-3.93.55-7.31,1.05-7.44-3.76-.16-5.72,3.44-3.65,6.91-6.12,1.3-.92,3.95-4.74,3.95-6.12,0-4.16-.84-29.99,0-31.31Z"/>
      <path class="st5" d="M727.46,883.29c6.07-1.82,8.48,1.67,7.39,7.39-.72,3.79-7.83,3.06-8.98,1.11-1.02-1.73-.88-7.76,1.59-8.5Z"/>
    </g>
    <path class="st5" d="M376.22,891.21c8.46-2.53,7.95,7.55,5.26,8.85-8.1,3.93-9.26-7.65-5.26-8.85Z"/>
    <g>
      <path class="st5" d="M850.76,908.33c-.13-1.01.06-1.93.34-2.9.81-2.82,10.76-18.27,12.96-20.15,3.04-2.58,8.15-1.03,11.89-1.42,1.47,1.43-8.47,12.8-9.35,15.1,9.75-.71,19.73,2.88,24.6,11.75.7,1.28,3.47,7.81,3.47,8.77v14.4c0,.08-1,1.08-1.08,1.08h-59.02c-3.24,0-13.21-5.42-11.88-10.08-4.06.79-6.5,4.13-11.13,4.38-15.59.84-20.54-23.14-11.91-32.82,6.29-7.05,23.14-4.84,31.68-4.67.21,4.9-.28,9.89-.03,14.79.16,3.26.4,9.14.92,12.04.44,2.43,3.5,6.29,5.95,6.29h46.42c1.32-6.65-6.94-16.55-13.32-16.55h-20.51ZM814.6,898.44c-15.01,1.81-10.88,27.63,2.14,22.3,4.14-1.7,5.65-10.21,5.93-14.22.5-7.13-.22-9.03-8.07-8.09Z"/>
      <path class="st5" d="M919.85,898.98v24.83c0,.08,1,1.08,1.08,1.08h17.27c1.41,0,3.3-2.77,3.76-4.15,1.35-3.98,1.12-19.89,1.95-21.08,1.04-1.49,8.32-.38,8.32.05v25.91c2.76-.27,9.56-.66,11.13-2.91,2.37-3.4.86-18.28,2.14-23.05.95-1.37,8.14-1.09,8.92,1.24,1.56,4.63-1.89,21.02-.29,23.32,1.13,1.61,9.1.47,10.71-.72,3.29-2.43.77-21.68,2.03-23.7.69-1.1,7.52-1.33,8.59.38s.91,14.39.69,17.18c-.87,11.07-5.66,16.75-16.91,17.63-18.74,1.48-39.38-1.15-58.33-.03-2.37.14-1.46,2.62-2.2,4.28-2.14,4.77-17.85,12.3-18.98,4.67-1.01-6.77,3.95-4.23,7.53-6.77,6.34-4.48,3.45-29.4,3.32-36.98.75-2.23,7.21-.79,9.26-1.18Z"/>
      <path class="st5" d="M808.05,876.78c1.55-.52,7.17-.45,8.23.89,1.12,1.42,1.12,6.56-.36,7.7-.67.52-5.56,1.26-6.46,1.16-3.96-.44-4.38-8.75-1.41-9.75Z"/>
      <path class="st5" d="M823.19,876.81c6.17-1.82,8.94.5,8.17,6.74-.57,4.59-8.57,3.62-9.78,1.78-.96-1.46-.9-7.78,1.61-8.52Z"/>
      <path class="st5" d="M980.16,892.35c-.96.68-6.25.88-6.96.07l-.08-8.56c1.49.29,6.95.48,7.6,1.39.73,1.02.4,6.41-.57,7.09Z"/>
      <path class="st5" d="M960.67,883.96c4.2-1.17,8.53,5.71,4.02,8.4-6.62,3.95-8.93-7.02-4.02-8.4Z"/>
      <path class="st0" d="M972.29,871.73c.8.5,1.22,6.9.72,7.71-.6.97-5.74.87-7.1.83-1.12-3.67,1.83-11.37,6.38-8.54Z"/>
    </g>
  </g>
  <g>
    <rect class="st4" x="474.98" y="294.47" width="127.17" height="129.02" transform="translate(-95.93 486.8) rotate(-45.08)"/>
    <g>
      <path class="st4" d="M658.58,426.82c1.03,1.86,1.83,4.08,2.08,6.2.39,3.26,1.19,14.14.68,17.01-.29,1.61-2.11,3.88-2.72,5.99-2.38,8.37-3.08,17.53-5.73,25.36-3.12,9.22-4.49,14.85-2.78,24.81.47,2.71,2.73,6.9,3.35,9.61.95,4.18.77,8.34,1.85,12.54.36,1.42,1.81,3.02,1.81,3.94.01,1.39-4.36,5.95-4.14,8.52l7.04,13.43c-39.96,40.04-79.7,80.33-119.8,120.24-1.1.98-2.55,1-3.68,0-38.48-38.23-76.61-76.78-114.04-115.92,5.48-1.97,9.87,3.74,13.68,4.32.78,2.78,7.02,5.42,9.71,6.49,25.69,10.17,55.48,4.93,78.34-9.49,2.08-1.31,13.72-9.78,13.99-11.13.16-.83-.7-2.14-.55-3.14l2.52-.7c39.89-38.89,78.06-79.64,118.4-118.06Z"/>
      <path class="st2" d="M518.95,528.3c-.62,2.18-3.33,4.77-5.03,6.12-17.88,14.16-35.9,21.82-58.74,25.47-3.64.58-8.88.18-12.15.8-2.29.44-2.31,2.85-6.85,2.15-3.8-.58-8.2-6.29-13.68-4.32-2.56-2.68-20.43-19.24-20.1-21.13l63.65-62.34c18.01,17.36,35.07,35.74,52.9,53.25Z"/>
      <path class="st1" d="M660.02,554.21l-7.04-13.43c-.22-2.57,4.15-7.12,4.14-8.52,0-.91-1.45-2.52-1.81-3.94-1.08-4.2-.9-8.36-1.85-12.54-.62-2.71-2.88-6.89-3.35-9.61-1.71-9.96-.35-15.59,2.78-24.81,2.65-7.83,3.35-16.99,5.73-25.36.6-2.11,2.43-4.38,2.72-5.99.51-2.87-.29-13.75-.68-17.01-.25-2.12-1.05-4.34-2.08-6.2,1.35-1.28,4.4-5.78,6.12-5.78l1.47.7c20.17,20.84,41.59,40.59,61.12,61.97.66,1.28.67,2.82-.3,3.97-22.11,22.39-44.75,44.27-66.97,66.54Z"/>
      <path class="st0" d="M537.66,545.58c-.15,1,.71,2.32.55,3.14-.27,1.35-11.91,9.82-13.99,11.13-22.86,14.42-52.65,19.66-78.34,9.49-2.69-1.06-8.93-3.7-9.71-6.49,4.53.7,4.55-1.72,6.85-2.15,3.28-.62,8.52-.22,12.15-.8,22.85-3.65,40.87-11.31,58.74-25.47,1.71-1.35,4.41-3.94,5.03-6.12.15.15,1.39.26,2.18,1.03,5.51,5.41,10.68,11.2,16.54,16.25Z"/>
    </g>
    <g>
      <path class="st2" d="M427.54,158.35c1.95-.32,6.15-.15,8.27.01,27.66,2.08,53.03,9.43,76.84,23.73l5.59,7.93c-52.78,52.36-103.95,106.48-157.25,158.37-2.83,2.75-11.46,7.81-9.05,11.9l69.87,69.76,2.04,3.02-64.17,62.78-136.49-136.94c65.25-66.52,131.37-132.35,197.16-198.39,2.99.91,4.89-1.78,7.2-2.16Z"/>
      <path class="st3" d="M632.67,136.75l-.72.71h1.44c.48.49.96.97,1.44,1.45l.72,5.04c-4.49-.63-3.89.58-3.63,4.71.9,14.15,3.81,32.72,6.72,46.54.37,1.75,1.7,3.36,1.91,5.33.27,2.59-.83,4.45-.54,6.92,1.08,9.34,13.55,33.68,12.8,41.13-.14,1.34-1.1,2.58-1.19,3.77-.69,9.37,8.82,20.6,9.74,29.61.16,1.57-1.11,2.18-1.3,3.45-.31,2.09-.84,5.54-.04,7.51-24.86-20.63-47.53-49.65-71.51-71.72-16.88-13.08-30.44-32.65-46.16-46.33-1.38-1.2-2.83-2.52-4.7-2.86,1.77-3.77-9.83-11.58-12.72-13.55-22.29-15.25-48.25-18.96-74.38-12.01-8.23,2.19-17.15,5.61-23.02,11.89-2.31.38-4.21,3.07-7.2,2.16l116.57-116.99,1.83-1.07,1.83,1.07c30.4,30.55,60.93,60.97,91.42,91.43.72.72.61,1.74.68,1.81Z"/>
      <path class="st1" d="M660.02,292.94c-.8-1.98-.27-5.43.04-7.51.19-1.27,1.46-1.88,1.3-3.45-.93-9.01-10.43-20.24-9.74-29.61.09-1.2,1.05-2.44,1.19-3.77.75-7.46-11.72-31.79-12.8-41.13-.28-2.47.81-4.33.54-6.92-.2-1.97-1.54-3.58-1.91-5.33-2.9-13.82-5.81-32.4-6.72-46.54-.26-4.13-.86-5.34,3.63-4.71l-.72-5.04c.15.15,1.4.25,2.18,1.03,30.71,30.74,61.44,61.45,92.06,92.28l-62.89,63.64c-2.06,1.85-4.35-1.43-6.15-2.92Z"/>
      <path class="st0" d="M537.66,172.02c-.06.13-1.42.38-1.92.93-5.6,6.12-11.89,11.49-17.51,17.07l-5.59-7.93c-23.8-14.3-49.18-21.65-76.84-23.73-2.11-.16-6.32-.33-8.27-.01,5.88-6.27,14.79-9.7,23.02-11.89,26.14-6.95,52.09-3.25,74.38,12.01,2.88,1.97,14.49,9.78,12.72,13.55Z"/>
      <path class="st1" d="M633.39,137.47h-1.44s.72-.72.72-.72c.24.24.48.48.72.72Z"/>
    </g>
  </g>
</svg>