<?xml version="1.0" encoding="UTF-8"?>
<svg id="Layer_1" xmlns="http://www.w3.org/2000/svg" version="1.1" viewBox="0 0 283.44 169.92">
  <!-- Generator: Adobe Illustrator 30.0.0, SVG Export Plug-In . SVG Version: 2.1.1 Build 123)  -->
  <defs>
    <style>
      .st0 {
        fill: #fee0f4;
      }

      .st1 {
        fill: #d2abd9;
      }

      .st2 {
        fill: #d4f8fe;
      }

      .st3 {
        fill: #feb931;
      }

      .st4 {
        fill: #fef7db;
      }

      .st5 {
        fill: #acdcf7;
      }

      .st6 {
        fill: #ead9ea;
      }

      .st7 {
        fill: #cacaca;
      }

      .st8 {
        fill: #9cd6f6;
      }

      .st9 {
        fill: #9c9c9c;
      }

      .st10 {
        fill: #d2ecfa;
      }

      .st11 {
        fill: #febbe9;
      }

      .st12 {
        fill: #fede5c;
      }

      .st13 {
        fill: #eafbfe;
      }

      .st14 {
        fill: #a462a5;
      }

      .st15 {
        fill: #7dc300;
      }

      .st16 {
        fill: #fe9adf;
      }

      .st17 {
        fill: #febdea;
      }

      .st18 {
        fill: #b8b8b8;
      }

      .st19 {
        fill: #d7d7d7;
      }

      .st20 {
        fill: #e4fafe;
      }

      .st21 {
        fill: #b1b1b1;
      }

      .st22 {
        fill: #bde3f8;
      }

      .st23 {
        fill: #bf88c9;
      }

      .st24 {
        fill: #b372b3;
      }

      .st25 {
        fill: #fee2f5;
      }

      .st26 {
        fill: #dffafe;
      }

      .st27 {
        fill: #b79abc;
      }

      .st28 {
        fill: #a95ea8;
      }

      .st29 {
        fill: #f6f6f6;
      }

      .st30 {
        fill: #c2c2c2;
      }

      .st31 {
        fill: #82cbf3;
      }

      .st32 {
        fill: #fea9e4;
      }

      .st33 {
        fill: #bababa;
      }

      .st34 {
        fill: #7e7e7e;
      }

      .st35 {
        fill: #e8fbfe;
      }

      .st36 {
        fill: #e1fafe;
      }

      .st37 {
        fill: #9336a3;
      }

      .st38 {
        fill: #feddf4;
      }

      .st39 {
        fill: #a4a4a4;
      }

      .st40 {
        fill: #c9c9c9;
      }

      .st41 {
        fill: #530f61;
      }

      .st42 {
        fill: #fee371;
      }

      .st43 {
        fill: #d9f9fe;
      }

      .st44 {
        fill: #e0fafe;
      }

      .st45 {
        fill: #f0f0f0;
      }

      .st46 {
        fill: #cdcdcd;
      }

      .st47 {
        fill: #fed8f2;
      }

      .st48 {
        fill: #b676c0;
      }

      .st49 {
        fill: #fed6f1;
      }

      .st50 {
        fill: #daf9fe;
      }

      .st51 {
        fill: #dcf9fe;
      }

      .st52 {
        fill: #d3f8fe;
      }

      .st53 {
        fill: #a6a6a6;
      }

      .st54 {
        fill: #d8b8de;
      }

      .st55 {
        fill: #a4d8f6;
      }

      .st56 {
        fill: #ebc6e5;
      }

      .st57 {
        fill: #780077;
      }

      .st58 {
        fill: #933492;
      }

      .st59 {
        fill: #e3fafe;
      }

      .st60 {
        fill: #fecd00;
      }

      .st61 {
        fill: #cecece;
      }

      .st62 {
        fill: #ecdceb;
      }

      .st63 {
        fill: #fee477;
      }

      .st64 {
        fill: #41b0ee;
      }

      .st65 {
        fill: #fed6f2;
      }

      .st66 {
        fill: #83cbf3;
      }

      .st67 {
        fill: #e1e1e1;
      }

      .st68 {
        fill: #b41e8f;
      }

      .st69 {
        fill: #c72790;
      }

      .st70 {
        fill: #e2e2e2;
      }

      .st71 {
        fill: #8d8d8d;
      }

      .st72 {
        fill: #b372be;
      }

      .st73 {
        fill: #e5e5e5;
      }

      .st74 {
        fill: #c797cf;
      }

      .st75 {
        fill: #b97ec4;
      }

      .st76 {
        fill: #b2b2b2;
      }

      .st77 {
        fill: #d5d5d5;
      }

      .st78 {
        fill: #fe7dd6;
      }

      .st79 {
        fill: #e0e0e0;
      }

      .st80 {
        fill: #d8f9fe;
      }

      .st81 {
        fill: #dabbdf;
      }

      .st82 {
        fill: #e6fafe;
      }

      .st83 {
        fill: #783d64;
      }

      .st84 {
        fill: #bbb;
      }

      .st85 {
        fill: #feb1e6;
      }

      .st86 {
        fill: #a0a0a0;
      }

      .st87 {
        fill: #e3e3e3;
      }

      .st88 {
        fill: #929292;
      }

      .st89 {
        fill: #bdbdbd;
      }

      .st90 {
        fill: #ad66b9;
      }

      .st91 {
        fill: #b5f4fe;
      }

      .st92 {
        fill: #909090;
      }

      .st93 {
        fill: #b0b0b0;
      }

      .st94 {
        fill: #e8fafe;
      }

      .st95 {
        fill: #d8d8d8;
      }

      .st96 {
        fill: #acacac;
      }

      .st97 {
        fill: #d2f8fe;
      }

      .st98 {
        fill: #f1f1f1;
      }

      .st99 {
        fill: #dbdbdb;
      }

      .st100 {
        fill: #8c8c8c;
      }

      .st101 {
        fill: silver;
      }

      .st102 {
        fill: #d3d3d3;
      }

      .st103 {
        fill: #939393;
      }

      .st104 {
        fill: #878787;
      }

      .st105 {
        fill: #cbcbcb;
      }

      .st106 {
        fill: #ecfbfe;
      }

      .st107 {
        fill: #afda63;
      }

      .st108 {
        fill: #9e4bae;
      }

      .st109 {
        fill: #fed7f1;
      }

      .st110 {
        fill: #fe90dc;
      }

      .st111 {
        fill: #bae2f8;
      }

      .st112 {
        fill: #963ca6;
      }

      .st113 {
        fill: #feabe4;
      }

      .st114 {
        fill: #ddd;
      }

      .st115 {
        fill: #ecbe01;
      }

      .st116 {
        fill: #efefef;
      }

      .st117 {
        fill: #fef6d6;
      }

      .st118 {
        fill: #6b2f65;
      }

      .st119 {
        fill: #dfdfdf;
      }

      .st120 {
        fill: #eee;
      }

      .st121 {
        fill: #a0f3fe;
      }

      .st122 {
        fill: #fe8fdc;
      }

      .st123 {
        fill: #feecf8;
      }

      .st124 {
        fill: #d0d0d0;
      }

      .st125 {
        fill: #919191;
      }

      .st126 {
        fill: #d6d6d6;
      }

      .st127 {
        fill: #858585;
      }

      .st128 {
        fill: #e6fbfe;
      }

      .st129 {
        fill: #fedc52;
      }

      .st130 {
        fill: #b4b4b4;
      }

      .st131 {
        fill: #888;
      }

      .st132 {
        fill: #b9d8a4;
      }

      .st133 {
        fill: #ebebeb;
      }

      .st134 {
        fill: #fee6f7;
      }

      .st135 {
        fill: #c28dcb;
      }

      .st136 {
        fill: #dedede;
      }

      .st137 {
        fill: #1d4895;
      }

      .st138 {
        fill: #cfcfcf;
      }

      .st139 {
        fill: #def9fe;
      }

      .st140 {
        fill: #f4f4f4;
      }

      .st141 {
        fill: #b3b3b3;
      }

      .st142 {
        fill: #fede5a;
      }

      .st143 {
        fill: #77008b;
      }

      .st144 {
        fill: #f5f5f5;
      }

      .st145 {
        fill: #e9fbfe;
      }

      .st146 {
        fill: #ecbe00;
      }

      .st147 {
        fill: #959595;
      }

      .st148 {
        fill: #979797;
      }

      .st149 {
        fill: #a3a3a3;
      }

      .st150 {
        fill: #aaa;
      }

      .st151 {
        fill: #fecbef;
      }

      .st152 {
        fill: #dcdcdc;
      }

      .st153 {
        fill: #b6b6b6;
      }

      .st154 {
        fill: #dadada;
      }

      .st155 {
        fill: #e4e4e4;
      }

      .st156 {
        fill: #f0fcfe;
      }

      .st157 {
        fill: #ececec;
      }

      .st158 {
        fill: #fea7e5;
      }

      .st159 {
        fill: #bcbcbc;
      }

      .st160 {
        fill: #e7e7e7;
      }

      .st161 {
        fill: #ededed;
      }

      .st162 {
        fill: #d4d4d4;
      }

      .st163 {
        fill: #b7b7b7;
      }

      .st164 {
        fill: #feb8e8;
      }

      .st165 {
        fill: #feb2e6;
      }

      .st166 {
        fill: #d2d2d2;
      }

      .st167 {
        fill: #eaeaea;
      }

      .st168 {
        fill: #fee374;
      }

      .st169 {
        fill: #e9d7e9;
      }

      .st170 {
        fill: #a65ab4;
      }

      .st171 {
        fill: #d1d1d1;
      }

      .st172 {
        fill: #afdef7;
      }

      .st173 {
        fill: #8e009d;
      }

      .st174 {
        fill: #d9d9d9;
      }

      .st175 {
        fill: #f3d96c;
      }

      .st176 {
        fill: #fec8ed;
      }

      .st177 {
        fill: #defafe;
      }

      .st178 {
        fill: #3a9200;
      }

      .st179 {
        fill: #b5b5b5;
      }

      .st180 {
        fill: #e4fcfe;
      }

      .st181 {
        fill: #d6effb;
      }

      .st182 {
        fill: #f3f3f3;
      }

      .st183 {
        fill: #e8e8e8;
      }

      .st184 {
        fill: #e6e6e6;
      }

      .st185 {
        fill: #a1d8f6;
      }

      .st186 {
        fill: #c0e3cf;
      }

      .st187 {
        fill: #989898;
      }

      .st188 {
        fill: #b77ac2;
      }

      .st189 {
        fill: #afafaf;
      }
    </style>
  </defs>
  <path class="st34" d="M209.43,144.86c.19.69.24,1.47,0,2.16-.37.12-1.21-.09-1.68,0-.21-.69-.21-1.46,0-2.16.53-.2,1.14-.2,1.68,0Z"/>
  <path class="st79" d="M209.43,147.01v-2.16c.4.4.39,2.03,0,2.16Z"/>
  <path class="st167" d="M151.64,127.12c-.73-.1-.7-1.76,0-1.92-.21-.07-.21-.15,0-.24.39.13.4,1.76,0,2.16Z"/>
  <path class="st179" d="M149.96,125.2c.67.27.74,1.7,0,1.92-.4-.4-.4-1.77,0-2.16.22.02.2.11,0,.24Z"/>
  <path class="st179" d="M146.6,125.2c.67.27.74,1.7,0,1.92-.4-.4-.4-1.77,0-2.16.22.02.2.11,0,.24Z"/>
  <path class="st153" d="M207.75,147.01c-.4-.38-.4-1.76,0-2.16v2.16Z"/>
  <path class="st93" d="M157.63,145.1c.67.27.74,1.7,0,1.92-.07.14-.15.14-.24,0-.11-.33-.1-1.9.24-2.16.22.02.2.11,0,.24Z"/>
  <path class="st161" d="M162.67,147.01c-.69-.15-.74-1.84,0-1.92-.21-.07-.21-.15,0-.24.39.13.4,1.76,0,2.16Z"/>
  <path class="st120" d="M148.28,127.12c-.78.06-.66-1.74,0-1.92.41.4.4,1.52,0,1.92Z"/>
  <path class="st89" d="M108.96,126.64c-.08,0-.16,0-.24,0-.2.68-1.11.6-1.44,0-.08,0-.16,0-.24,0,.37-.4,1.54-.4,1.92,0Z"/>
  <path class="st89" d="M130.54,126.64c-.08,0-.16,0-.24,0-.4-.04-1.03-.04-1.44,0-.08,0-.16,0-.24,0,.37-.4,1.54-.4,1.92,0Z"/>
  <path class="st89" d="M135.81,126.64c-.08,0-.16,0-.24,0-.2.68-1.11.6-1.44,0-.08,0-.16,0-.24,0,.37-.4,1.54-.4,1.92,0Z"/>
  <path class="st84" d="M118.79,147.25c-.13.36-.87-.11-.72.96.01.08-.02.23,0,.24-.39-.19-.22-.81-.24-1.2h.96Z"/>
  <path class="st95" d="M46.13,153c-.94-.13-.73.13-.72.96-.43-.15-.2-.8-.24-1.2.43.03.81-.17.96.24Z"/>
  <path class="st19" d="M103.68,154.2c.15-.41.53-.21.96-.24-.04.4.19,1.04-.24,1.2.01-.83.22-1.09-.72-.96Z"/>
  <path class="st86" d="M151.64,124.96v.24c-.08.72-1.53.7-1.68,0,0-.08,0-.16,0-.24.46.09,1.3-.12,1.68,0Z"/>
  <path class="st114" d="M209.43,144.86h-1.68c.4-.4,1.27-.4,1.68,0Z"/>
  <path class="st86" d="M148.28,125.2c0,.7-1.59.71-1.68,0,0-.08,0-.16,0-.24.59.04,1.23-.21,1.68.24Z"/>
  <path class="st145" d="M141.81,4.65c-.48,0-.96,0-1.44,0v-.24c.45,0,1.18-.16,1.44.24Z"/>
  <g>
    <path class="st76" d="M166.51,153.72c.24,2.13.24,4.29,0,6.47-.55,2.04-2.08.89-3.71,1.2-.47.09-.98.7-1.8.95-.56.13-1.12.15-1.68,0-.73-.27-1-.8-1.37-.91-.4-.12-1.92-.13-2.35-.05-.74.14-.72,1.1-1.32,1.55-.22.17-1.34.63-1.54.59-.33-.07-.51-.79-.38-.94.09-.11,1.83-.05,1.44-1.2-1.84.1-2.56.17-3.12-1.68-.19-.63-.16-1.28,0-1.92.29-1.01.33-1.27,1.44-1.68.55-.18,1.13-.18,1.68,0,.79.29.96.64,1.2,1.44l.24,2.88c.77.19,1.63.23,2.4,0,.49-1.5-.7-2.54,1.92-3.36.39-.17.81-.18,1.2,0,1.26.42,1.95,1.21,2.1,2.59.04.38-.18.62-.19.77.75.2,1.55.2,2.4,0,.23-.11.37-.24.48-.48.07-2.08.15-4.15.24-6.23.22.04.55-.06.72,0ZM152.36,160.43c.64.34,1.08.31,1.79.22.15-.02.1-.13.13-.22.17-.5.03-2.36-.24-2.88-1.3-2.47-4.08,1.59-1.68,2.88ZM158.83,159c-.06.16-.25.22-.27.6-.03.52.19.6.27.84.7,2.26,2.73,1.2,2.79-.64.07-1.94-1.97-2.86-2.79-.8Z"/>
    <path class="st76" d="M225.02,153.72c.24,2.05.24,4.13,0,6.23-.66,2.41-2.05,1.06-3.91,1.49-.55.13-.92.66-1.61.91-.55.18-1.13.18-1.68,0-1.43-.52-1.69-1.35-3.72-.96-.62.12-1.56,2.42-2.86,2.15-.32-.07-.51-.79-.38-.95.07-.08,2.16-.45,1.44-1.2-.37-.38-2.36,1.04-3.12-1.68-.14-.71-.15-1.44,0-2.16.24-.79.4-1.15,1.2-1.44.63-.15,1.29-.2,1.92,0,.76.37.98.93,1.2,1.68.12.86.22,1.82,0,2.64.84.22,1.79.21,2.64,0,.48-1.52-.69-2.54,1.92-3.36.39-.17.81-.18,1.2,0,.99.33,1.62.75,1.86,1.85.11.5-.04,1.2.05,1.5.77.24,1.62.17,2.4,0,.4-.34.38-.77.48-1.2l.24-5.51c.22.04.55-.06.72,0ZM212.55,157.56c-1.47-2.51-4.15,1.66-1.68,2.88.69.34,1.13.27,1.92.24-.11-1.01.28-2.23-.24-3.12ZM217.34,159c-.37.92-.23.63,0,1.44.07.26-.04.56.22.85.7.83,1.99.29,2.42-.61.37-.78.4-1.12,0-1.92-.69-1.38-2.07-1.18-2.64.24Z"/>
    <path class="st76" d="M206.79,159c-.63-2.19-.87-1.93-2.48-3.15-1.02-.77-.4-1.12.7-.69,2.5.96,3.28,4.11,2.51,6.48-.34-.18-.68-.24-1.06-.25-1.77-.06-5.93-.27-7.45.01-.61.11-1.44,2.44-2.86,2.15-.33-.07-.51-.79-.38-.94.07-.08,1.67-.15,1.68-1.2-1.82.04-2.79.23-3.36-1.68-.14-.71-.17-1.44,0-2.16.31-.87.58-1.12,1.44-1.44.55-.18,1.13-.18,1.68,0,.79.29.96.64,1.2,1.44l.24,2.88c.87.18,3.1.34,2.88-.24-.01-.08,0-.16,0-.24-.2-.69-.2-1.41,0-2.16.98-2.57,5.28-.9,3.84,2.4.15.57.98.42,1.44.24.02-.05-.01-.15,0-.24.18-.35.18-.75,0-1.2ZM195.76,160.43c.64.34,1.08.31,1.79.22.15-.02.1-.13.13-.22.17-.5.03-2.36-.24-2.88-1.34-2.54-3.95,1.66-1.68,2.88ZM204.63,159.48c.07-.16.27-.21.27-.6s-.18-.42-.27-.6c-.48-.96-1.48-1.38-2.11-.31-1.1,1.88,1.07,3.99,2.11,1.51Z"/>
    <path class="st76" d="M149.24,159.24c.17.4.18.8,0,1.2-.05.23-.17,1.15-.24,1.2-.04.03-.67-.24-1.06-.26-1.31-.04-6.82-.22-7.65.05-.37.12-1.34,2.47-2.79,2.12-.44-1.43,1.37-.87,1.44-2.15-1.82.05-2.78.23-3.36-1.68-.19-.63-.16-1.28,0-1.92.29-1.01.33-1.28,1.44-1.68.63-.15,1.29-.2,1.92,0,.61.32,1.11,1.25,1.2,1.92-.18.78-.25,1.63,0,2.4.79.13,3.24.49,2.88-.48-.18-.63-.17-1.29,0-1.92.69-2.24,3.39-1.83,4.08.24.18.4.17.8,0,1.2-.09.29-.08.38-.24.72.1.6.95.39,1.44.24.18-.53.18-1.09,0-1.68-.34-1.15-.79-1.75-1.69-2.51-.57-.48-1.21-.08-.95-1.33,2.33.48,3.26,2.1,3.6,4.31ZM136.53,158.04c-.06.14-.27.2-.27.6,0,.36.23.48.27.6.18.63-.05.79.72,1.2.64.34,1.08.31,1.79.22.15-.02.1-.13.13-.22.08-.24.04-1.91-.01-2.26-.29-1.74-1.94-1.87-2.62-.13ZM143.97,158.04c-.45.77-.3.95,0,1.68.52,1.28,1.55,1.14,2.16,0,.43-.8.27-.72,0-1.44-.42-1.15-1.54-1.3-2.16-.24Z"/>
    <path class="st76" d="M101.52,156.12c.1,1.26.18,2.54.24,3.83.27,1.29.33,1.89,1.68,2.4.49.15.95.2,1.44,0,.96-.39,1.38-1.21,1.68-2.16.11-1.37.15-2.75.13-4.13.17-.19.61-.06.83.06.02.05-.01.15,0,.24-.2,1.44-.2,2.88,0,4.31,1.11-.08,2.23-.16,3.36-.24-.59-1.68.33-2.86,1.92-3.36.39-.17.81-.18,1.2,0,1.03.37,1.35.62,1.68,1.68l.24,1.68c-.14.98-.81,1.6-1.68,1.92-.55.18-1.13.18-1.68,0-.82-.25-1.33-.86-1.8-.95-.61-.12-3.19-.09-3.61.22-.9.66-.41,1.2-2.26,1.7-.47.16-.97.19-1.44,0-1.83-.5-2.47-1.46-2.64-3.36-.19-.47-.22-3.73-.1-3.88s.7-.14.82.05ZM112.07,158.76c-.44.87-.31,1.08,0,1.92.6,1.62,2.08,1.23,2.64-.24.29-.77.44-.84,0-1.68-.63-1.19-2.02-1.23-2.64,0Z"/>
    <path class="st76" d="M43.49,154.92c1.02-.25,2.1-.19,3.12,0,.09,1.51.17,3.03.24,4.55.1.28.05.47.34.74.19.18.42.15.62.22.92.16,1.82.2,2.73.01.02,0-.36.16-.1-.25-.16-.34-.15-.43-.24-.72-.17-.55-.18-1.12,0-1.68.29-.95.45-1.3,1.44-1.68.63-.16,1.28-.17,1.92,0,1.02.4,1.19.95,1.44,1.92.16.47.19.97,0,1.44-.27,1.06-.54,1.78-1.79,1.93-1.03.13-5.06.16-6-.02s-1.19-1.34-1.33-1.43c-.04-.03-.61.38-.95.48-.56.13-1.12.15-1.68,0-2.17-.82-1.94-5.24.24-5.51ZM43.73,155.64c-1.05.25-1.51,3.29,0,4.07.5.26.65.48,1.2,0,.31-.27.66-1,.72-1.44.4-.41.38-2.75,0-2.88-.32-.1-1.69-.1-1.92.24ZM51.16,158.04c-.06.14-.27.2-.27.6,0,.36.23.48.27.6.59,2.09,2.27,1.96,2.88,0,.04-.12.27-.23.27-.6s-.21-.45-.27-.6c-.64-1.73-2.22-1.68-2.88,0Z"/>
    <path class="st76" d="M189.05,160.19c.01.09-.02.19,0,.24.85.24,1.78.18,2.64,0,.09-.07.43-.6.48-.72.12-1.21.16-2.43.13-3.65.17-.19.62-.07.83.06.22.62.19,5.27-.84,5.27h-7.67c-.16,0-.94,1.49-2.52,1.92-.47.16-.97.19-1.44,0-1.36-.37-2.43-1.38-2.64-2.88.14-1.35.14-2.72,0-4.07.01-.09-.02-.19,0-.24.24-.14.54-.2.82-.1l.14,3.7c.25,1.3.32,2.14,1.68,2.64.56.14,1.12.18,1.68,0,.8-.39,1.21-1.34,1.44-2.16l.14-4.13c.27-.11.62-.17.82.05.25,1.15.18,2.44,0,3.59.01.21-.05.58,0,.72.92.27,1.94.13,2.88,0,1.36-.73.1-4.21,1.2-4.55.19,0,.27.08.29.24.15,1.35.11,2.73-.05,4.07Z"/>
    <path class="st76" d="M57.64,153.72c.08,2.06.16,4.14.24,6.23.11.23.25.37.48.48.76.2,1.48.2,2.16,0-.61-1.72-.52-3.71,1.44-4.31.55-.18,1.13-.18,1.68,0,1,.3,1.52.65,1.92,1.67-1.68.74-.94-.38-1.92-.96-.49-.18-.95-.15-1.44,0-.57.28-.57.67-.72,1.2-.17.56-.18,1.12,0,1.68.06.21.1.57.24.72,1.2.14,2.42.18,3.66.13.19.17.07.62-.06.83-.34.12-6.63.09-7.3-.02s-1-.28-1.1-.94c-.24-2.22-.24-4.46,0-6.71.22.04.55-.06.72,0Z"/>
    <path class="st76" d="M81.62,159c-.55-.53.27-2.3.71-2.76.4-.42,2.33-1.15,2.64-.83.03.03.03.92,0,.95-.1.1-1.33-.3-2.16,1.2.05.64.77.84,2.17.59l.47.13c.2,2.66-.38,4.39-3.12,5.03-.55.18-1.12.18-1.68,0-1.82-.45-2.43-1.04-2.88-2.88l-.24-1.92c.12-.35.9-.3.96-.24.32.32-.52,3.21,1.92,4.08.72.16,1.44.17,2.16,0,1.04-.39,2.28-2.04,1.92-3.12-.95-.08-1.91-.16-2.88-.24Z"/>
    <path class="st76" d="M235.81,157.8l.1.25c.88.06,1.72.14,2.53.23.19.55.19,1.19,0,1.92-.41,1.78-1.08,2.63-2.88,3.12-.63.16-1.29.19-1.92,0-2.02-.5-2.49-1.43-2.88-3.36-.37-1.52-.13-2.08.72-1.68.1.55.18,1.1.24,1.68.38,1.46.38,1.96,1.92,2.4.64.13,1.28.17,1.92,0,1.63-.63,1.62-1.45,1.92-2.88l-.15-.29c-.92-.01-1.83-.07-2.72-.18-.68-.64.69-2.78,1.46-3.22.44-.25,1.98-.72,2.14-.02.14.61-1.24.65-1.67.96-.38.27-.53.69-.72,1.08Z"/>
    <path class="st76" d="M249,153.72c.15,2.06.22,4.14.24,6.23-.12.83-.44,1.33-1.31,1.45-2.56.34-5.88-.28-8.53-.01.04-.22-.06-.55,0-.72,1.44-.08,2.88-.16,4.32-.24.2-.58-.32-2.23-.75-2.72-.56-.65-1.15-.63-1.89-.87-.38-.13-.42-.64-.24-.96.15,0,1.39.33,1.61.43,1.68.7,2.13,2.2,2.22,3.89.71.48,1.67.56,2.88.24.22-.12.61-.51.72-.72.08-2,.16-3.99.24-5.99.15.02.39-.04.48,0Z"/>
    <path class="st76" d="M171.78,156.12c.61-.24,1.31-.24,1.92,0,.48.13,1.04,1.19,1.2,1.68.2,1.18.15,2.41,0,3.59-.14.58-.05.96-.59,1.45-.25.22-1.42.75-1.67.7-.33-.07-.51-.79-.38-.94s2.11-.3,1.68-1.68c-.06-.09-.34.22-.48.24-.36.18-.76.18-1.2,0-1.26-.39-1.31-.37-1.68-1.68-.16-.63-.2-1.29,0-1.92.22-.75.3-1.29,1.2-1.44ZM173.65,157.13c-.22-.22-.93-.34-1.25-.3-1.56.21-1.47,4.17.65,3.56,1.11-.32,1.26-2.57.6-3.26Z"/>
    <path class="st76" d="M88.09,156.12c.61-.24,1.32-.25,1.92,0,.67.18,1.05,1.33,1.2,1.92.17,1.03.13,2.08,0,3.12-.12.61.06.98-.47,1.57-.27.29-1.49.88-1.79.82-.33-.07-.51-.79-.38-.94.16-.18,1.51,0,1.68-1.32.09-.67-.31-.13-.72-.12-.36.18-.76.18-1.2,0-.86-.32-1.13-.56-1.44-1.44-.17-.71-.15-1.44,0-2.16.22-.75.3-1.29,1.2-1.44ZM90.25,159.24c.28-.76.4-.61,0-1.44-.85-1.74-2.64-1.05-2.64.84s1.89,2.66,2.64.6Z"/>
    <path class="st76" d="M71.79,153.72c.15,2.14.23,4.3.24,6.47-.38,2.03-3.75.93-5.28,1.2.04-.22-.06-.55,0-.72.66-.08,1.3-.16,1.92-.24-.3-.7-1.65-5.55-1.44-5.75.04-.04.82-.09.98.14.5.72,1.14,5.58,1.42,5.85.64-.25,1.09-.32,1.44-.96.08-2,.16-3.99.24-5.99.15.02.39-.04.48,0Z"/>
    <path class="st76" d="M119.75,156.12c.3.83-.3,2.18.43,3.52.54.98.69.62,1.49.79,1.53.22,3.04.22,4.56,0,.23-.11.37-.24.48-.48.08-1.28.16-2.56.24-3.83.15-.11.79-.2.84-.09.08.21.05,2.19.04,2.66,0,.43-.04.85-.15,1.26-.07.74-.05,1.22-.89,1.38-.97.19-4.72.21-5.7.05s-2.27-1.4-2.29-2.38l.13-.59c-.3-1.81-.02-2.57.83-2.28Z"/>
    <path class="st76" d="M130.3,153.72c.09,2.05.17,4.13.24,6.23.03.09-.07.3.05.43s.34.02.43.05c.71.15,1.45.23,2.16,0,.03-.02.46-.45.48-.48.13-1.29.18-2.59.14-3.89.27-.11.62-.17.82.05.25,1.22.2,2.59,0,3.83-.18.66-.18,1.26-1.09,1.43-1.01.19-3.77.3-3.95-.95-.24-2.22-.24-4.46,0-6.71.22.04.55-.06.72,0Z"/>
    <path class="st76" d="M95.05,156.12c2.28.44,2.7,3.37,2.88,5.27h-5.52c.04-.22-.06-.55,0-.72,1.44-.08,2.88-.16,4.32-.24.59-1.74-1.24-3.15-2.64-3.59-.93-.75,0-1.11.96-.72Z"/>
    <path class="st21" d="M226.7,153.72c.14-.17.71-.2.81-.1l-.09,7.77h-.72s0-7.67,0-7.67Z"/>
    <path class="st76" d="M74.42,153.72c.28,2.5.28,5.17,0,7.67-.17.06-.5-.04-.72,0-.21-2.52-.21-5.14,0-7.67.22.04.55-.06.72,0Z"/>
    <path class="st21" d="M168.9,153.72c.25,2.41.27,5.03,0,7.43-.19.38-.63.19-.65-.25-.07-2.39-.01-4.79.17-7.18.15.02.39-.04.48,0Z"/>
    <path class="st179" d="M66.27,163.79c-.68-.5.18-.4.24-.64.15-.63-.29-1.42,1.07-1.28.4.04,1.1.71.85.96-.27.26-.8-.65-1.2-.48v.96c.11.11,1.6-.31,1.2.48-.69.25-1.46.16-2.16,0Z"/>
    <path class="st119" d="M226.7,153.72c.06-.4.58-.21.96-.24l-.24,7.91c-.13-2.31.18-4.8,0-7.08-.06-.74.12-.62-.72-.59Z"/>
    <path class="st18" d="M168.43,153.72c.05,2.19-.07,4.41,0,6.6.02.46-.24.96.48.83v.24c-.26.29-.68.05-.73-.16-.25-1-.01-4.85,0-6.19,0-.41-.15-1.07.24-1.31Z"/>
    <path class="st29" d="M74.42,161.39v-7.67c.35.12.22.31.25.59.16,1.5.16,5,0,6.5-.03.27.1.46-.25.59Z"/>
    <path class="st162" d="M73.71,161.39c-.4-.25-.24-.91-.24-1.31-.02-1.68-.02-3.36,0-5.04,0-.41-.15-1.07.24-1.31v7.67Z"/>
    <path class="st40" d="M168.9,161.39v-7.67c.38.17.23.52.25.83.12,1.68.13,4.34,0,6.02-.03.41.06.48-.25.82Z"/>
    <path class="st124" d="M56.92,160.43c-.4-.25-.24-.91-.24-1.31-.02-1.73-.18-3.75.24-5.4.22,2.08-.29,4.71,0,6.71Z"/>
    <path class="st171" d="M129.58,160.43c-.4-.25-.24-.91-.24-1.31-.02-1.73-.18-3.75.24-5.4.22,2.08-.29,4.71,0,6.71Z"/>
    <path class="st84" d="M72.03,160.19c-.55-2.03-.09-4.37-.24-6.47.38.17.23.52.25.83.09,1.21.19,4.58,0,5.64Z"/>
    <path class="st155" d="M166.51,160.19v-6.47c.35.12.22.32.25.59.15,1.44.11,4.55-.25,5.88Z"/>
    <path class="st183" d="M165.55,159.95c.15-2.02-.31-4.28.24-6.23-.23.22.32,5.07-.24,6.23Z"/>
    <path class="st116" d="M57.88,159.95c-.68-1.41,0-4.54-.24-6.23.35.12.22.31.25.59.19,1.76-.16,3.84-.01,5.65Z"/>
    <path class="st89" d="M249.24,159.95c-.55-1.95-.09-4.21-.24-6.23.38.17.23.52.25.83.1,1.32.17,4.17,0,5.4Z"/>
    <path class="st144" d="M130.54,159.95c-.64-1.69-.03-4.35-.24-6.23.35.12.22.32.25.59.19,1.76-.16,3.84-.01,5.65Z"/>
    <path class="st157" d="M225.02,159.95v-6.23c.35.12.22.32.25.59.15,1.4.11,4.35-.25,5.65Z"/>
    <path class="st138" d="M71.07,159.72c.15-1.94-.31-4.12.24-5.99-.25.27.36,4.88-.24,5.99Z"/>
    <path class="st18" d="M248.28,159.72c.15-1.94-.31-4.12.24-5.99-.23.26.34,4.85-.24,5.99Z"/>
    <path class="st73" d="M224.06,159.24c.15-1.78-.31-3.81.24-5.51-.05,1.86.18,3.73-.24,5.51Z"/>
    <path class="st76" d="M121.91,154.92c1.58-.4,1.45,1.53.36,1.19-.4-.12-.4-.84-.36-1.19Z"/>
    <path class="st124" d="M107.52,156.12c-.84-.03-.66-.15-.72.59-.1,1.3.17,2.19-.24,3.49.11-.63-.16-4.17,0-4.31.09-.08.8-.09.96.24Z"/>
    <path class="st174" d="M184.73,155.88v.24c-.84-.03-.66-.15-.72.59-.1,1.31.13,2.15-.24,3.49v-4.32c.28.05.73-.07.96,0Z"/>
    <path class="st19" d="M134.61,155.88v.24c-.84-.03-.66-.15-.72.59-.08,1.02.26,2.45-.24,3.25v-4.08c.28.05.74-.07.96,0Z"/>
    <path class="st114" d="M126.94,156.12c.33-.33.53-.27.96-.24-.14,1.29.31,2.87-.24,4.07.12-1.22-.08-2.59,0-3.84h-.72Z"/>
    <path class="st67" d="M101.52,155.88v.24c-.84-.03-.66-.15-.72.59-.07.92-.08,2.33,0,3.25-.55-1.2-.1-2.78-.24-4.08.28.05.74-.07.96,0Z"/>
    <path class="st126" d="M193.12,156.12c-.84-.03-.66-.15-.72.59-.09,1.13.19,1.9-.24,3.01.1-.57-.14-3.7,0-3.84.07-.06.84-.1.96.24Z"/>
    <path class="st155" d="M188.81,155.88c.13-.04.51-.09.48.14-.15,1.33.31,2.94-.24,4.17-.18-1.36.32-3-.24-4.31Z"/>
    <path class="st120" d="M46.85,159.48c-.52-1.41-.12-3.05-.24-4.55.58.58.07,3.58.24,4.55Z"/>
    <path class="st171" d="M126.22,160.43c-1.18.57-3.31.27-4.56,0h4.56Z"/>
    <path class="st102" d="M178.02,156.12c.16-.33.87-.33.96-.24.14.13-.1,3.26,0,3.84-.23-1.19-.15-1.85-.24-3.01-.06-.74.12-.62-.72-.59Z"/>
    <path class="st124" d="M61.72,160.43c.57.1,3.71-.14,3.84,0,.06.07.1.84-.24.96.03-.84.15-.66-.59-.72-.8-.06-2.55.24-3.01-.24Z"/>
    <path class="st76" d="M124.54,154.92v1.08c-.78.46-1.09-.33-.96-1.08h.96Z"/>
    <path class="st130" d="M44.69,153.96h-1.2s0-.96,0-.96c.78-.09,1.34.05,1.2.96Z"/>
    <path class="st84" d="M107.52,160.43c.21.08.21.16,0,.24-.4-1.22-.4-3.11,0-4.31.18,1.23-.13,2.8,0,4.07Z"/>
    <path class="st171" d="M243.72,160.43c-.18.52-3.6.11-4.32.24.18-.52,3.59-.11,4.32-.24Z"/>
    <path class="st171" d="M96.73,160.43c-.18.52-3.6.11-4.32.24.18-.52,3.59-.11,4.32-.24Z"/>
    <path class="st33" d="M178.02,160.43c-.11-.83-.12-3.25,0-4.07.4,1.11.4,2.95,0,4.07Z"/>
    <path class="st161" d="M134.61,159.95v-4.07c.36.12.3,2.75.26,3.26-.04.47-.19.57-.26.81Z"/>
    <path class="st160" d="M101.76,159.95c-.27-1.3-.3-2.46-.24-3.83v-.24c.52.17.11,3.36.24,4.07Z"/>
    <path class="st130" d="M187.61,162.35c.5.5-.46,1.46-.96.96s.46-1.46.96-.96Z"/>
    <path class="st184" d="M126.7,159.95c.15-.9-.32-3.27.24-3.83-.13,1.23.29,2.73-.24,3.83Z"/>
    <path class="st157" d="M184.73,159.72c-.07-1.19.05-2.41,0-3.59v-.24c.39.13.27,2.43.25,3.01,0,.27.07.72-.25.82Z"/>
    <path class="st105" d="M119.75,156.12c-1.12-.36-.71,1.33-.71,2.29,0,.31-.25.55-.25.58.08-.49-.11-3.01,0-3.12.07-.07.84-.1.96.24Z"/>
    <path class="st84" d="M189.05,162.11c.21.36.2.84,0,1.2-.96.35-.73-.52-.72-1.2.22.04.56-.06.72,0Z"/>
    <path class="st179" d="M95.05,154.2c.21.22.26.66.24.96-.28-.05-.74.08-.96,0-.4-.71-.11-1.45.72-.96Z"/>
    <path class="st167" d="M174.9,161.39v-3.59c.42,1.32.31,2.27,0,3.59Z"/>
    <path class="st162" d="M143.01,159.95c.04.11.41.3.24.72-.83-.13-2.57.3-3.12-.24h2.88c.01-.16,0-.32,0-.48Z"/>
    <path class="st140" d="M234.61,159h3.12c.11.32-.23.45-.24.48-.74-.67-2.16.2-2.88-.48Z"/>
    <path class="st179" d="M53.8,154.2c.56.56-.09,1.18-.72.96-.39-.72-.12-1.44.72-.96Z"/>
    <path class="st166" d="M201.52,160.19s.36.12.24.48c-.83-.13-2.57.3-3.12-.24.91-.12,2.15.29,2.88-.24Z"/>
    <path class="st76" d="M80.42,164.27c.67-.27,1.18.53.72.96-.85.47-1.11-.23-.72-.96Z"/>
    <path class="st166" d="M110.87,160.43l-.12.24h-3.24c0-.08,0-.16,0-.24h3.36Z"/>
    <path class="st154" d="M82.82,157.56c-.29,1.08,2.41,0,2.64.72h-2.88c-.14-.42.13-.52.24-.72Z"/>
    <path class="st171" d="M247.56,160.43c-.44.25-2.67.4-2.88.24-.03-.02,0-.37,0-.48.87.45,1.93.17,2.88.24Z"/>
    <path class="st116" d="M91.21,161.15v-3.12c.37,1.4.27,1.74,0,3.12Z"/>
    <path class="st154" d="M46.61,154.92c-1,.09-2.15-.12-3.12,0,.5-.38,2.7-.42,3.12,0Z"/>
    <path class="st171" d="M50.44,160.19c.03.06.37.03.24.48-1.07,0-1.87.13-2.88-.24.83-.11,1.99.28,2.64-.24Z"/>
    <path class="st95" d="M238.45,158.04c.13.07.13.15,0,.24h-2.88c-.13-.45.21-.41.24-.48.57.59,1.99.02,2.64.24Z"/>
    <path class="st67" d="M155.24,160.43c-.53-.53-.12-2.08-.24-2.88.3,1.02.28,1.79.24,2.88Z"/>
    <path class="st73" d="M198.64,160.43c-.53-.53-.12-2.08-.24-2.88.3,1.02.28,1.79.24,2.88Z"/>
    <path class="st163" d="M46.13,153c.08.21-.04.68,0,.96-.22-.04-.55.06-.72,0-.36-.73-.12-1.43.72-.96Z"/>
    <path class="st179" d="M82.58,164.27c.36.73.12,1.43-.72.96-.08-.21.04-.68,0-.96.22.04.55-.06.72,0Z"/>
    <path class="st144" d="M84.5,159.24c-.81-.12-2.32.29-2.88-.24.56.11,2.71-.27,2.88.24Z"/>
    <path class="st18" d="M103.68,154.2c.84-.47,1.08.23.72.96-.16.06-.5-.03-.72,0,.04-.28-.08-.75,0-.96Z"/>
    <path class="st76" d="M51.4,154.2c1.22-.57,1.22,1.29,0,.72-.35-.34-.36-.38,0-.72Z"/>
    <path class="st171" d="M187.61,160.43c-.56.3-2.7.47-2.88,0h2.88Z"/>
    <path class="st171" d="M191.69,160.43c-.43.37-2.45.41-2.64,0h2.64Z"/>
    <path class="st171" d="M216.14,160.43c-.12.39-2.51.39-2.64,0,.07-.21.15-.21.24,0h2.4Z"/>
    <path class="st154" d="M231.49,158.04v.24c-1.17-.26-.62.78-.72,1.68-.12-.58-.43-1.17-.24-1.92.28.05.74-.07.96,0Z"/>
    <path class="st102" d="M134.61,162.11v.24c-.25.27-.25.51,0,.72.11.07.1.15,0,.24-1.42.49-1.42-1.69,0-1.2Z"/>
    <path class="st105" d="M51.4,154.2c.34-.32.52-.27.96-.24v1.06c-.04.33-.69.15-.96-.11,1.06.25,1.1-.96,0-.72Z"/>
    <path class="st102" d="M193.12,162.35c-.25.27-.25.51,0,.72-.15.38-.93.35-.96.1-.41-1.08.69-1.49.96-.82Z"/>
    <path class="st45" d="M213.75,160.43h-.24c-.19-.56.13-1.94,0-2.64.28.94.3,1.62.24,2.64Z"/>
    <path class="st171" d="M223.58,160.43c-.44.39-2.27.4-2.4,0h2.4Z"/>
    <path class="st138" d="M140.13,160.43c-.4-.4-.4-1.98,0-2.4.06.45-.08,2.31,0,2.4Z"/>
    <path class="st126" d="M95.05,156.12c-.35-.07-.82.05-1.2,0l.24.72c-.12-.04-.42.06-.47,0-.09-.13.04-.7-.01-.95.45.04,1.18-.19,1.44.24Z"/>
    <path class="st46" d="M157.63,160.43c-.12.38-1.99.41-2.4,0h2.4Z"/>
    <path class="st171" d="M165.07,160.43c-.81.39-1.41.23-2.28.24-.13-.03-.12-.13-.12-.24h2.4Z"/>
    <path class="st21" d="M181.13,154.2c.6-.22.94.12.72.72-.6.48-1.2-.1-.72-.72Z"/>
    <path class="st171" d="M60.52,160.43l-.12.24c-.8.02-1.3.12-2.04-.24h2.16Z"/>
    <path class="st77" d="M86.89,159.72c-.38-1.07-.3-1.12,0-2.16v2.16Z"/>
    <path class="st138" d="M133.17,160.43c-.78.49-1.39.29-2.16,0h2.16Z"/>
    <path class="st77" d="M194.08,159.72c-.31-1.03-.38-1.09,0-2.16v2.16Z"/>
    <path class="st40" d="M209.19,159.72c-.31-1.1-.34-1.04,0-2.16v2.16Z"/>
    <path class="st40" d="M201.52,159.95c-.53-.59-.25-1.49,0-2.16.04.71-.06,1.45,0,2.16Z"/>
    <path class="st152" d="M82.58,162.35c-.99.37-1.17.35-2.16,0h2.16Z"/>
    <path class="st21" d="M193.12,162.35c.03.06.03.65,0,.72-1.1.24-1.06-.97,0-.72Z"/>
    <path class="st140" d="M68.43,163.79c-.22.43-1.67.36-2.16,0h2.16Z"/>
    <path class="st167" d="M238.45,160.19v-2.16c.09.03.2-.02.22.13.22.79-.07,1.37-.22,2.02Z"/>
    <path class="st126" d="M143.01,159.95c-.09-.26-.25-.3-.27-.83-.02-.62.14-.69.27-1.09-.02.64.03,1.28,0,1.92Z"/>
    <path class="st167" d="M231.73,159.95c-.14-.53-.41-.99-.24-1.68v-.24c.48.16.15,1.42.24,1.92Z"/>
    <path class="st46" d="M77.78,160.43c-.14-.56-.46-1.29-.24-1.92.48.41.16,1.32.24,1.92Z"/>
    <path class="st105" d="M82.58,164.27c.43.15.2.8.24,1.2-.43-.03-.81.17-.96-.24.94.13.73-.13.72-.96Z"/>
    <path class="st171" d="M148.28,160.43c-.44.45-1.09.19-1.68.24-.13-.44.21-.42.24-.48.26.43.99.2,1.44.24Z"/>
    <path class="st102" d="M206.79,160.43c-.22.47-1.18.17-1.68.24-.13-.44.21-.42.24-.48.27.42.99.21,1.44.24Z"/>
    <path class="st162" d="M53.8,154.2c-.94-.13-.73.13-.72.96-.6-.22-.31-1.99.72-.96Z"/>
    <path class="st99" d="M95.05,154.2c-.94-.13-.73.13-.72.96-.63-.21-.27-2.01.72-.96Z"/>
    <path class="st102" d="M68.67,160.43l-.12.24h-1.8c.18-.48,1.42-.15,1.92-.24Z"/>
    <path class="st174" d="M53.56,156.12h-1.92c.94-.35.99-.36,1.92,0Z"/>
    <path class="st166" d="M90.01,156.12c-.26-.07-1.6-.05-1.92,0,.37-.4,1.54-.4,1.92,0Z"/>
    <path class="st77" d="M138.93,156.12h-1.92c.83-.3,1.05-.45,1.92,0Z"/>
    <path class="st166" d="M173.7,156.12c-.26-.07-1.6-.05-1.92,0,.37-.4,1.54-.4,1.92,0Z"/>
    <path class="st77" d="M212.31,156.12h-1.92c.86-.31,1.02-.43,1.92,0Z"/>
    <path class="st95" d="M170.58,159.48c-.11-.38-.29-.48-.27-1.09.02-.5.19-.58.27-.83v1.92Z"/>
    <path class="st87" d="M235.57,162.35c-1.03.39-.96.27-1.92,0h1.92Z"/>
    <path class="st116" d="M235.57,163.31c-.37.1-.47.29-1.09.27-.48-.02-.61-.21-.83-.27h1.92Z"/>
    <path class="st19" d="M80.42,164.27c-.01.83-.22,1.09.72.96-1.07,1-1.3-.72-.72-.96Z"/>
    <path class="st136" d="M135.57,159.72c-.08-.25-.25-.33-.27-.83-.02-.61.16-.71.27-1.09v1.92Z"/>
    <path class="st61" d="M150.68,159.72c-.08-.25-.25-.33-.27-.83-.02-.61.16-.71.27-1.09v1.92Z"/>
    <path class="st120" d="M219.5,162.35c-.28.1-.34.27-.84.27s-.56-.17-.84-.27h1.68Z"/>
    <path class="st171" d="M153.8,156.12h-1.68c.28-.1.34-.27.84-.27s.56.17.84.27Z"/>
    <path class="st105" d="M63.63,156.12h-1.68c.25-.08.34-.27.84-.27s.59.2.84.27Z"/>
    <path class="st166" d="M197.2,156.12h-1.68c.28-.1.34-.27.84-.27s.56.17.84.27Z"/>
    <path class="st154" d="M182.33,162.35c-.87.42-.87.29-1.68,0h1.68Z"/>
    <path class="st161" d="M160.99,162.35c-.91.28-.71.36-1.68,0h1.68Z"/>
    <path class="st120" d="M114.23,162.35c-.28.1-.34.27-.84.27s-.59-.19-.84-.27h1.68Z"/>
    <path class="st114" d="M50.21,159.48c-.08-.26-.27-.35-.27-.84s.2-.59.27-.84v1.68Z"/>
    <path class="st155" d="M44.93,160.43c-.9.28-.71.37-1.68,0h1.68Z"/>
    <path class="st167" d="M61.48,159.72c-.07-.24-.27-.33-.27-.84s.21-.61.27-.84v1.68Z"/>
    <path class="st46" d="M115.91,160.43c-.45-.34-.18-1.15-.24-1.68.19.62.35.91.24,1.68Z"/>
    <path class="st30" d="M181.13,154.2c-.07.78-.06.79.72.72-.36.96-1.68-.36-.72-.72Z"/>
    <path class="st171" d="M148.28,160.43v-1.68c.16.53.59,1.08,0,1.68Z"/>
    <path class="st120" d="M82.34,163.31c-.21.05-.35.27-.84.27s-.62-.22-.84-.27h1.68Z"/>
    <path class="st133" d="M63.63,156.84h-1.44c.66-.33.73-.42,1.44,0Z"/>
    <path class="st184" d="M55,159.48v-1.44c.06.22.29.33.27.83-.02.34-.24.49-.27.6Z"/>
    <path class="st184" d="M104.88,162.35c-.16.06-.22.25-.6.27-.51.03-.56-.17-.84-.27h1.44Z"/>
    <path class="st120" d="M104.88,163.31c-.22.06-.33.29-.84.27-.34-.02-.48-.23-.6-.27h1.44Z"/>
    <path class="st120" d="M182.09,163.31c-.22.06-.33.29-.84.27-.34-.02-.48-.23-.6-.27h1.44Z"/>
    <path class="st98" d="M147.08,159.48v-1.2c.04.13.27.22.27.6,0,.36-.22.46-.27.6Z"/>
    <path class="st73" d="M219.26,157.08h-1.2c.13-.04.23-.26.6-.27.39,0,.48.23.6.27Z"/>
    <path class="st73" d="M160.75,157.08h-1.2c.13-.04.23-.26.6-.27.39,0,.48.23.6.27Z"/>
    <path class="st73" d="M113.99,157.08h-1.2c.13-.04.23-.26.6-.27.4,0,.47.22.6.27Z"/>
    <path class="st116" d="M89.53,161.15c-.36.58-.86.13-1.2,0,.4,0,.8.01,1.2,0Z"/>
    <path class="st98" d="M173.46,161.15c-.35.59-.88.1-1.2,0,.39-.03.81.05,1.2,0Z"/>
    <path class="st166" d="M206.79,160.19c.06-.37-.04-.81,0-1.2.08.29.61.84,0,1.2Z"/>
    <path class="st161" d="M134.61,163.31v-.24c-.55,0-.56-.61,0-.72v-.24c.39.14.39,1.06,0,1.2Z"/>
    <path class="st73" d="M189.05,163.31v-1.2c.39.14.39,1.05,0,1.2Z"/>
    <path class="st29" d="M149.24,160.43v-1.2c.01.07.26.25.26.6s-.25.51-.26.6Z"/>
    <path class="st126" d="M241.08,156.84c-.48-.16-.57.26-.48-.84.04-.13.13-.12.24-.12l.24.96Z"/>
    <path class="st155" d="M154.28,160.43c-.07.13-.15.13-.24,0v-2.88c.27.51.41,2.37.24,2.88Z"/>
    <path class="st124" d="M154.04,160.43h.24c-.03.09.02.2-.13.22-.71.09-1.15.12-1.79-.22h1.68Z"/>
    <path class="st114" d="M158.83,160.43c-.07-.24-.3-.32-.27-.84.02-.38.21-.44.27-.6v1.44Z"/>
    <path class="st126" d="M212.55,157.56c.52.88.13,2.1.24,3.12-.78.03-1.23.1-1.92-.24h1.68s0-2.88,0-2.88Z"/>
    <path class="st119" d="M219.98,160.67v-1.92c.4.8.37,1.13,0,1.92Z"/>
    <path class="st184" d="M217.34,160.43c-.23-.81-.37-.52,0-1.44v1.44Z"/>
    <path class="st70" d="M197.68,160.43c-.07.13-.15.13-.24,0v-2.88c.27.51.41,2.37.24,2.88Z"/>
    <path class="st138" d="M197.44,160.43h.24c-.03.09.02.2-.13.22-.71.09-1.15.12-1.79-.22h1.68Z"/>
    <path class="st7" d="M204.63,159.48v-1.2c.09.18.27.2.27.6s-.2.44-.27.6Z"/>
    <path class="st124" d="M139.17,160.43c-.03.09.02.2-.13.22-.71.09-1.15.12-1.79-.22h1.92Z"/>
    <path class="st157" d="M143.97,159.72c-.3-.73-.45-.9,0-1.68v1.68Z"/>
    <path class="st162" d="M146.12,159.72v-1.44c.27.72.43.63,0,1.44Z"/>
    <path class="st157" d="M136.53,159.24c-.03-.12-.26-.25-.27-.6,0-.39.21-.45.27-.6v1.2Z"/>
    <path class="st116" d="M112.07,160.67c-.31-.84-.44-1.05,0-1.92v1.92Z"/>
    <path class="st126" d="M114.71,160.43v-1.68c.44.83.29.9,0,1.68Z"/>
    <path class="st95" d="M45.65,158.28c.11-.8-.08-1.8,0-2.64-.21-.07-.21-.15,0-.24.38.13.4,2.47,0,2.88Z"/>
    <path class="st161" d="M45.65,155.4v.24c-.57.08-1.41-.12-1.92,0,.22-.34,1.6-.34,1.92-.24Z"/>
    <path class="st61" d="M51.16,159.24c-.03-.12-.26-.25-.27-.6,0-.39.21-.45.27-.6v1.2Z"/>
    <path class="st70" d="M44.93,159.72c-.55.48-.7.26-1.2,0h1.2Z"/>
    <path class="st166" d="M54.04,159.24v-1.2c.05.15.27.23.27.6s-.23.47-.27.6Z"/>
    <path class="st99" d="M90.25,159.24v-1.44c.4.82.28.68,0,1.44Z"/>
    <path class="st21" d="M134.61,162.35v.72c-1.06.25-1.1-.96,0-.72Z"/>
  </g>
  <path class="st34" d="M151.64,125.2v1.92h-1.68c.05-.63-.06-1.3,0-1.92h1.68Z"/>
  <path class="st34" d="M148.28,125.2c.08.08-.06,1.57,0,1.92h-1.68c.04-.63-.06-1.3,0-1.92.32.05,1.6-.08,1.68,0Z"/>
  <g>
    <path class="st34" d="M130.3,126.64c.2,4.16.29,8.66.24,12.94-.14,1.75-.98,3.35-2.88,3.59-2.76.1-5.48.02-8.15-.24-.24-.37-.18-1.05,0-1.44,1.31-.09,2.58-.17,3.84-.24-.06-1.58-3.6-12.27-3.12-12.7.62-.19,1.3-.22,1.92,0l3.12,12.46c.42.35.98.43,1.68.24.97-.36,1.38-.95,1.68-1.92.09-4.24.17-8.48.24-12.7.39-.25,1.02-.23,1.44,0Z"/>
    <path class="st34" d="M83.06,131.43c.86-.24,1.78-.25,2.64,0,2.57.33,3.7,2.79,4.08,5.03.19.47.16.96,0,1.44-.49,3.82-2.57,5.73-6.57,5.25-6.02-.73-5.9-11.11-.15-11.72ZM83.78,132.87c-3.42.71-4.1,7.59-.24,8.63.23.06.35.27.84.27s.58-.19.84-.27c1.63-.54,2.03-1.55,2.4-3.12.12-.49.28-.62.26-1.33-.02-.61-.17-.71-.26-1.07-.32-1.35-.88-2.8-2.4-3.12-.24-.39-1.21-.39-1.44,0Z"/>
    <path class="st34" d="M103.68,141.02c-.07.66-.15,1.3-.24,1.92-3.45.2-7.47.2-11.03,0-.24-.37-.18-1.05,0-1.44,3.07-.08,6.19-.16,9.35-.24-.1-.36-.18-.76-.24-1.2-.31-2.52-.82-5.12-3.43-6.28-.68-.3-2.89-.51-3.04-.67-.19-.46-.21-.98,0-1.44l1.44-.24c.5.02,2.56.82,3.09,1.11,2.88,1.59,3.95,5.41,4.1,8.48Z"/>
    <path class="st34" d="M116.39,131.67l.24,10.07c-.04,1.8-1.03,4.21-2.71,5.08-.81.42-1.31.31-2.09.43-1.15.56-.94-.89-.72-1.68.24-.08.75.03,1.2-.11,1.88-.6,1.92-1.86,2.16-3.48.17-3.41.25-6.85.24-10.31.41-.22,1.24-.21,1.68,0Z"/>
    <path class="st34" d="M119.99,144.38c.44-.23,1-.22,1.44,0,1.62.23,2.07,2.48.35,1.45-.62-.37-.99-1.51-1.79-.01-.18.44-.18.84,0,1.2.01.09-.02.19,0,.24.96.09,1.92.16,2.88.24.03.07.03.65,0,.72-1.53.21-3.3.25-4.8,0-.42-.71.07-.87.72-.96.3-.86-.64-2.57,1.2-2.88Z"/>
    <path class="st127" d="M107.28,126.64l.48.22v15.59c.54-.11.86.05.96.48v.24c-.37.12-1.22-.09-1.68,0v-16.54h.24Z"/>
    <path class="st92" d="M134.13,126.64l.48.22v15.59c.54-.11.86.05.96.48v.24c-.37.12-1.22-.09-1.68,0v-16.54h.24Z"/>
    <path class="st9" d="M135.57,143.18v-.24l-.48-.22v-15.78l.48-.29h.24c-.34,1.79.54,16.27-.24,16.54Z"/>
    <path class="st189" d="M108.72,143.18v-.24l-.48-.22v-15.78l.48-.29h.24c-.34,1.79.54,16.27-.24,16.54Z"/>
    <path class="st147" d="M130.54,139.58l-.24-12.94h.24c-.25,4.2.34,8.79,0,12.94Z"/>
    <path class="st148" d="M128.62,139.34v-12.7h.24v12.13c.11.26-.21.48-.24.57Z"/>
    <rect class="st104" x="92.41" y="142.94" width="11.03" height=".24"/>
    <path class="st114" d="M114.71,131.67c-.31,2.99.25,6.47.02,9.5-.03.44-.24.68-.26.81l.24-10.55c.22.02.2.11,0,.24Z"/>
    <path class="st19" d="M116.63,141.74c.08-3.19-.55-6.77-.24-10.07-.21-.07-.21-.15,0-.24.54.18.09,9.09.24,10.31Z"/>
    <path class="st150" d="M101.52,141.26c.07-.21.15-.21.24,0-.19.54-8.2.09-9.35.24-.07.21-.15.21-.24,0,.25-.4.91-.24,1.32-.24,2.68-.03,5.36.03,8.04,0Z"/>
    <path class="st131" d="M127.66,143.18c-.82.1-7.79.19-8.15,0v-.24l8.15.24Z"/>
    <path class="st71" d="M122.86,148.21c-.13.35-.31.22-.59.25-.48.06-4.02.08-4.21-.01v-.24h4.8Z"/>
    <path class="st84" d="M123.34,141.26l-.12.24c-1.2.1-2.54-.12-3.71,0-.08.21-.16.21-.24,0,1.17-.54,2.78-.1,4.08-.24Z"/>
    <path class="st21" d="M81.86,127.6c.47-.47,1.28-.17,1.92-.24-.11.58.15,1.7,0,2.16h-.24c-.46-.14-.63-.62-.5-1.44-.65.13-1.04-.03-1.18-.48Z"/>
    <path class="st93" d="M85.22,127.6c.47-.47,1.28-.17,1.92-.24-.11.58.15,1.7,0,2.16h-.24c-.46-.14-.63-.62-.5-1.44-.65.13-1.04-.03-1.18-.48Z"/>
    <path class="st141" d="M122.86,147.49c-.62-.12-2.64.28-2.88-.24.59.12,2.69-.27,2.88.24Z"/>
    <path class="st159" d="M85.7,131.43c-.65-.08-1.97-.07-2.64,0,.61-.41,2.08-.4,2.64,0Z"/>
    <path class="st77" d="M111.11,145.58c.1.9-.45,1.94.72,1.68-.17.03-.54.43-.96.24.08-.5-.24-1.76.24-1.92Z"/>
    <path class="st124" d="M209.19,131.91c-.72.02-1.44-.03-2.16,0,.3-.3.69-.26,1.07-.26.59,0,.9.24,1.09.26Z"/>
    <path class="st53" d="M103.44,143.18c0-.08,0-.16,0-.24.06-.61-.23-1.51.24-1.92.03.64.17,1.71-.24,2.16Z"/>
    <path class="st157" d="M159.31,147.01c-.69-.15-.74-1.84,0-1.92-.21-.07-.21-.15,0-.24.39.13.4,1.76,0,2.16Z"/>
    <path class="st39" d="M160.99,145.1c.67.27.74,1.7,0,1.92-.07.14-.15.14-.24,0-.11-.33-.1-1.9.24-2.16.22.02.2.11,0,.24Z"/>
    <path class="st152" d="M81.86,129.52c-.4-.41-.4-1.52,0-1.92.73.1.7,1.76,0,1.92Z"/>
    <path class="st155" d="M85.22,129.52c-.4-.41-.4-1.52,0-1.92.73.1.7,1.76,0,1.92Z"/>
    <path class="st79" d="M122.14,128.56h-1.92c.42-.38,1.55-.43,1.92,0Z"/>
    <path class="st76" d="M83.54,129.52h.24c-.13.4-1.53.39-1.92,0,.08-.73,1.53-.69,1.68,0Z"/>
    <path class="st76" d="M86.89,129.52h.24c-.13.4-1.53.39-1.92,0,.08-.73,1.53-.69,1.68,0Z"/>
    <path class="st93" d="M126.94,141.26c-.61.23-1.84.66-1.68-.24l1.68.24Z"/>
    <path class="st70" d="M159.31,147.01c-.45.45-1.21.22-1.79.22-.15-.02-.1-.13-.13-.22h.24c-.07-.77,1.51-.65,1.68,0Z"/>
    <path class="st70" d="M162.67,147.01c-.45.45-1.21.22-1.79.22-.15-.02-.1-.13-.13-.22h.24c-.07-.77,1.51-.65,1.68,0Z"/>
    <path class="st147" d="M92.41,142.94c0,.08,0,.16,0,.24-.46-.34-.18-1.15-.24-1.68h.24c.03.47-.05.97,0,1.44Z"/>
    <path class="st125" d="M159.31,144.86v.24c-.08.73-1.53.69-1.68,0,0-.08,0-.16,0-.24.46.09,1.3-.12,1.68,0Z"/>
    <path class="st125" d="M162.67,144.86v.24c-.08.73-1.53.69-1.68,0,0-.08,0-.16,0-.24.46.09,1.3-.12,1.68,0Z"/>
    <path class="st187" d="M119.51,142.94c0,.08-.02.23,0,.24-.46-.34-.18-1.15-.24-1.68.08,0,.16,0,.24,0,.03.47-.05.97,0,1.44Z"/>
    <path class="st133" d="M148.28,127.12c-.4.4-1.27.4-1.68,0,.08-.73,1.53-.69,1.68,0Z"/>
    <path class="st88" d="M116.39,131.43v.24h-1.68c0-.08,0-.16,0-.24.07-.04,1.55-.04,1.68,0Z"/>
    <path class="st133" d="M151.64,127.12c-.41.4-1.27.4-1.68,0,.08-.73,1.53-.69,1.68,0Z"/>
    <path class="st87" d="M95.05,133.11c-.39-.43-.4-1.03,0-1.44v1.44Z"/>
    <path class="st88" d="M96.49,131.43c-.11,0-1,.49-1.44.24.41-.41.9-.23,1.44-.24Z"/>
    <path class="st96" d="M121.42,144.38c-.33-.05-1.12-.05-1.44,0,.23-.39,1.2-.39,1.44,0Z"/>
    <path class="st45" d="M89.77,137.91v-1.44c.01.08.25.27.27.6.02.49-.25.71-.27.83Z"/>
    <path class="st166" d="M101.76,141.26h-.24v-1.2c.03.24.43.66.24,1.2Z"/>
    <path class="st101" d="M119.99,147.01c-.53-.35-.2-.82,0-1.2.04.39-.05.83,0,1.2Z"/>
    <g>
      <path class="st34" d="M152.84,129.28c.22,2.85.3,5.73.24,8.63.12,1.98.34,2.87,2.4,3.36,1.19.15,2.41.22,3.6,0,.97-.36,1.38-.95,1.68-1.92.19-2.55.27-5.1.24-7.67.09-.16,1.49-.18,1.55-.12l.13,8.51c-.02.37-.1.86-.24,1.2,2.42.24,4.97.15,7.43,0,1.4-.26,2.47-.64,3.59-1.56.02-.3-2.12-2.44-2.52-2.75-.64-.51-2.47-1.36-2.75-1.68-.23-.7-.18-1.46,0-2.16.7-1.06,4.04-1.72,5.28-1.92.71-.16,1.45-.17,2.16,0,2.16.34,4.03,1.05,5.72,2.51-.73,1.39-1.59,2.89-2.61,4.07-.43.5-2.35,2.01-2.39,2.17-.22.86,1.89,1.22,2.4,1.31,2.35.24,4.87.32,7.19,0,.18-.52-.2-1.38-.17-1.97.16-3.14,1.69-4.94,4.73-5.46.55-.17,1.13-.18,1.68,0,3.7.82,5.17,3.83,4.32,7.43h17.98c-.01-2.68-.49-5.55-3.11-6.84-2.8-1.38-6.24-.9-8.04,1.8-.42-.64-1.87-1.25-1.33-2.04,1-1.47,3.35-2.2,5.05-2.27.7-.24,1.45-.13,2.16,0,4.09.56,7.04,3.13,7.43,7.43-.13,1.23-.17,2.46-.12,3.71-7.02-.07-14.01-.02-20.98.12-.07.08-.08.45-.34.73-1.1,1.18-1.76,1.25-3.26,1.43-.4.17-.8.17-1.2,0-1.38-.16-2.33-.24-3.36-1.32-.24-.25-.34-.7-.47-.84-2.95-.24-5.91-.24-8.87,0-1.81-.2-3.04-1.87-3.24-1.88-.12,0-1.51,1.06-2.04,1.28-.71.29-1.63.53-2.4.6-5.19.05-10.39.05-15.59,0-1.29-.26-2.21-.88-2.98-1.93-.33-.44-.61-1.79-1.09-1.42-.29.22-.27.74-1.32,1.2-7.81,3.41-9.34-11.14-2.76-11.99,2.1,0,4.18.08,6.23.24ZM147.56,130.48c-2.02.26-2.74,2.07-3.12,3.83-.02.08-.25.24-.27.6-.02.5.25.7.27.84.28,1.96.54,3.42,2.64,4.07.13.04.23.27.6.27s.47-.23.6-.27c2.11-.66,2.33-2.11,2.64-4.07.02-.13.22-.36.26-.81.07-.75.11-4.1-.26-4.46-.42-.42-2.82-.38-3.36,0ZM173.94,132.87c-.84.07-2.73.58-3.42,1.02-.3.19-.51.22-.42.66,2.06.43,3.4,2.33,4.7,3.82.74.18,3.96-3.18,4.18-4.17-1.09-.57-2.35-1.19-3.6-1.32-.24-.39-1.21-.39-1.44,0ZM190.73,135.51c-3.2.52-4,7.21,0,8.15.1.02.24.26.6.27s.47-.23.6-.27c1.12-.35,2.06-1.14,2.34-2.33.08-.32.28-1.68.29-1.98.03-.68-.09-.7-.24-1.2-.34-1.15-.85-2.38-2.16-2.64-.24-.39-1.21-.39-1.44,0Z"/>
      <path class="st131" d="M216.62,139.34c.11,1.23-.08,2.59,0,3.84h-21.1c.19-.22.25-.3.58-.25h20.29c.22-.2-.34-3.07.24-3.58Z"/>
      <path class="st150" d="M214.47,141.26h-17.98,17.98Z"/>
      <path class="st131" d="M170.34,143.18c-4.95.46-10.57-.34-15.59,0h15.59Z"/>
      <path class="st125" d="M160.99,131.43h1.68c-.13,2.83.17,5.81,0,8.63l-.24-8.39h-1.44s0-.24,0-.24Z"/>
      <path class="st104" d="M186.89,143.18c-2.83-.22-6.1.3-8.87,0,.25-.4.91-.24,1.32-.24,2.09-.02,5-.23,6.98,0,.34.04.34.01.57.25Z"/>
      <path class="st182" d="M153.08,137.91l-.24-8.63c.23.23.22.24.25.57.27,2.47-.17,5.49-.01,8.05Z"/>
      <path class="st149" d="M160.99,131.67c-.24,2.34.43,5.53-.24,7.67l.24-7.91c0,.08,0,.16,0,.24Z"/>
      <path class="st150" d="M169.86,141.26c-2.46.45-5.03.16-7.55.24-.34-.13.11-.23.12-.24h7.43Z"/>
      <path class="st150" d="M185.93,141.26c-.08.24-.1.21-.35.25-1.37.18-4.61.13-6.04.01-.45-.04-.64-.23-.81-.26h7.19Z"/>
      <path class="st103" d="M152.84,129.28c-.25-.25-5.45.37-6.23-.24,1.21-.16,4.43-.15,5.66-.01.33.04.34.02.57.25Z"/>
      <path class="st153" d="M159.07,141.26c-1.22.46-2.36.29-3.6,0h3.6Z"/>
      <path class="st174" d="M175.62,131.2h-2.16c.27-.04.48-.26,1.07-.26s.87.23,1.09.26Z"/>
      <path class="st101" d="M168.19,135.27c-.43-.49-.37-1.59,0-2.16v2.16Z"/>
      <path class="st46" d="M192.16,133.83h-1.68c.16-.03.36-.27.84-.27.51,0,.65.23.84.27Z"/>
      <path class="st183" d="M191.93,145.34c-.06,0-.26.26-.6.26s-.54-.26-.6-.26h1.2Z"/>
      <path class="st189" d="M150.92,135.75v-5.27c.36.36.32,3.71.26,4.46-.04.45-.24.68-.26.81Z"/>
      <path class="st130" d="M150.92,130.48c-1.07.1-2.32-.13-3.36,0,.53-.38,2.94-.42,3.36,0Z"/>
      <path class="st21" d="M175.38,132.87c-.41-.04-1.02-.03-1.44,0,.23-.39,1.2-.39,1.44,0Z"/>
      <path class="st162" d="M192.16,135.51c-.27-.05-1.15-.05-1.44,0,.23-.39,1.2-.39,1.44,0Z"/>
      <path class="st101" d="M144.45,135.75c-.02-.14-.29-.34-.27-.84.02-.36.25-.52.27-.6v1.44Z"/>
      <path class="st130" d="M191.93,143.66c-.12.04-.23.27-.6.27s-.5-.24-.6-.27h1.2Z"/>
      <path class="st102" d="M194.56,139.34c-.39-.2-.23-.81-.24-1.2.14.5.27.52.24,1.2Z"/>
      <path class="st153" d="M148.28,139.82c-.13.04-.23.27-.6.27s-.47-.23-.6-.27h1.2Z"/>
    </g>
    <path class="st141" d="M87.61,138.39v-2.4c.08.36.24.46.26,1.07.02.71-.14.84-.26,1.33Z"/>
    <path class="st93" d="M85.22,141.5c-.26.09-.33.28-.84.27s-.61-.21-.84-.27h1.68Z"/>
    <path class="st100" d="M85.22,132.87c-.24-.05-1.2-.05-1.44,0,.23-.39,1.2-.39,1.44,0Z"/>
    <path class="st34" d="M108.72,126.64v16.3h-1.44s0-16.3,0-16.3c.4-.04,1.03-.04,1.44,0Z"/>
    <path class="st34" d="M135.57,126.64v16.3h-1.44s0-16.3,0-16.3c.4-.04,1.03-.04,1.44,0Z"/>
    <rect class="st34" x="81.86" y="127.6" width="1.68" height="1.92"/>
    <rect class="st34" x="85.22" y="127.6" width="1.68" height="1.92"/>
    <path class="st34" d="M159.31,145.1c-.06.35.08,1.84,0,1.92s-1.35-.05-1.68,0c.04-.63-.06-1.29,0-1.92h1.68Z"/>
    <path class="st34" d="M162.67,145.1c-.06.35.08,1.84,0,1.92s-1.35-.05-1.68,0c.04-.63-.06-1.29,0-1.92h1.68Z"/>
  </g>
  <g>
    <path class="st52" d="M140.37,4.41c.21.07.21.15,0,.24-3.27,0-6.56-.06-9.83,0-.21-.07-.21-.15,0-.24,3.27-.04,6.57-.05,9.83,0Z"/>
    <path class="st26" d="M128.38,4.65c-.4.01-1.24.21-1.92.24.41-.48,1.32-.16,1.92-.24Z"/>
    <path class="st44" d="M144.45,4.89c-.6,0-1.52.19-1.92-.24.6,0,1.52-.19,1.92.24Z"/>
    <path class="st27" d="M86.17,81.59c-.48-.07-1.43-.05-1.92,0,.38-.4,1.55-.4,1.92,0Z"/>
    <path class="st43" d="M147.56,5.13c-.53,0-1.35.18-1.68-.24.53,0,1.35-.18,1.68.24Z"/>
    <path class="st145" d="M130.54,4.41v.24c-.48,0-.96-.01-1.44,0,.26-.4.99-.23,1.44-.24Z"/>
    <path class="st16" d="M72.03,81.59h-1.44c.28-.11.35-.29.84-.27.39.02.43.19.6.27Z"/>
    <g>
      <path class="st78" d="M172.74,112.26c-.45.19-.93.27-1.44.24-1.29.13-2.27.23-3.6.24l-1.44.24c-.4,0-.8,0-1.2,0l-1.68.24c-.24,0-.48,0-.72,0-.77-.19-1.57-.19-2.4,0-.65.11-1.28.11-1.92,0-1.76.21-3.52.21-5.28,0-.63.11-1.27.11-1.92,0-.86-.17-1.78-.24-2.64,0-.24,0-.48,0-.72,0l-1.44-.24c-.4,0-.8,0-1.2,0l-1.44-.24c-.56,0-1.12.03-1.68,0l-1.2-.24c-22.88-2.03-45.87-10.86-64.58-24.01-.92-.65-5.86-4.09-6.18-4.61s-.36-1.82.08-2.24c.11-.11.33-.02.42-.05.47-.15.97-.2,1.44,0,1.74.8,4.49,3.39,6.3,4.61.56.38,1.13.93,1.85.91.21.06.2.14,0,.24,1.2,1.99,2.12,2.97,4.16,4.13l4.9,2.49c.74.4,1.2.92,1.5,1.68,9.18,4.09,18.93,7.31,28.77,9.92,2.04.57,4.16.99,6.23,1.44.68,0,1.16.15,1.44.48.58-.11,1.56-.23,1.92.24.31.03.64-.03.96,0,.29.36.71.36,1.11.44,2.31.46,4.93.88,7.28.99l1.44.24c.08,0,.16,0,.24,0l1.68.24c1.13.04,2.23.17,3.36.24l1.2.24c.87.04,1.76-.02,2.64,0,.81.1,1.61.18,2.4.24,2.88-.15,5.76-.16,8.63,0,.77-.06,1.56-.14,2.4-.24.81-.02,1.55-.21,2.16-.24.54.19,1.14.21,1.68,0,.24-.01.48,0,.72,0l1.44-.24c.4,0,.8,0,1.2,0l1.44-.24c2.39-.12,4.84-.56,7.19-.96.43.01.83-.07,1.2-.24,24.86-4.48,47.37-15.81,66.19-32.47.88-.78,5.43-5.44,5.92-5.59,1.5-.45,2.69.82,2.05,2.29-.2.45-4.57,4.52-5.33,5.22-20.66,18.83-47.65,31.43-75.54,34.63Z"/>
      <path class="st69" d="M208.71,78.71c-1.71,1.24-3.54,2.39-5.28,3.59-11.89,7.71-25.66,12.89-39.42,16.05-8.05,1.85-17.77,3.39-26.02,2.93-.6-.03-1.16-.28-1.71-.53.1-.28.49-.44,1.2-.48l.39-.49c7.02-.1,13.91-1,20.66-2.69l.52.3c4.12-1.18,8.13-2.49,12.03-3.93l.44.34c2.44-1.38,4.99-2.61,7.63-3.67l1,.08c18.63-8.36,33.8-20.79,45.37-37.93,1.68-2.49,3.2-5.81,4.88-8.07,1.79-2.42,4.79-1.33,4.79,1.06,0,1.09-2.87,5.6-3.63,6.81-5.11,8.18-11.88,16.2-18.92,22.79-1.27,1.19-3.16,2.31-3.96,3.83Z"/>
      <path class="st47" d="M160.03,110.11c.21.07.21.15,0,.24-2.87.01-5.76.02-8.63,0-.21-.07-.21-.15,0-.24,2.86.05,5.77.04,8.63,0Z"/>
      <path class="st109" d="M158.35,113.22c.21.07.21.15,0,.24-1.67.07-3.6.07-5.28,0-.21-.07-.21-.15,0-.24,1.76,0,3.52,0,5.28,0Z"/>
      <path class="st122" d="M151.16,113.22c-.88,0-1.76,0-2.64,0,.33-.37,1.32-.3,1.83-.25.47.04.72.24.81.25Z"/>
      <path class="st85" d="M162.43,110.11c-.55.44-1.65.24-2.4.24v-.24c.8-.01,1.6.02,2.4,0Z"/>
      <path class="st110" d="M162.67,113.22c-.8,0-1.6,0-2.4,0,.65-.11,1.75-.63,2.4,0Z"/>
      <path class="st165" d="M151.4,110.11v.24c-.75,0-1.85.2-2.4-.24.8.02,1.6-.01,2.4,0Z"/>
      <path class="st123" d="M160.27,113.22c-.7.11-1.08.2-1.92.24v-.24c.64,0,1.28,0,1.92,0Z"/>
      <path class="st123" d="M153.08,113.22v.24c-.82-.03-1.25-.14-1.92-.24.64,0,1.28,0,1.92,0Z"/>
      <path class="st11" d="M141.81,109.63c-.53-.02-1.35.19-1.68-.24.53.02,1.35-.19,1.68.24Z"/>
      <path class="st134" d="M165.07,112.98c-.33.42-1.15.23-1.68.24.33-.42,1.15-.24,1.68-.24Z"/>
      <path class="st32" d="M166.27,109.87c-.3.4-1.38.4-1.68,0,.56-.03,1.12.02,1.68,0Z"/>
      <path class="st25" d="M147.8,113.22c-.45,0-1.18.16-1.44-.24.45,0,1.18-.16,1.44.24Z"/>
      <path class="st65" d="M167.71,112.74c-.26.4-.99.23-1.44.24.26-.4.99-.24,1.44-.24Z"/>
      <path class="st49" d="M145.16,112.98c-.45,0-1.18.16-1.44-.24.45,0,1.18-.16,1.44.24Z"/>
      <path class="st38" d="M172.74,112.26c-.27.42-.99.21-1.44.24.35-.03.93-.18,1.44-.24Z"/>
      <path class="st176" d="M168.43,109.63c-.26.4-.99.23-1.44.24.26-.4.99-.23,1.44-.24Z"/>
      <path class="st164" d="M171.06,109.39c-.42.38-.94.23-1.44.24.27-.41.98-.22,1.44-.24Z"/>
      <path class="st151" d="M139.89,109.39c-.49-.01-1.02.14-1.44-.24.45.02,1.17-.17,1.44.24Z"/>
      <path class="st17" d="M179.46,108.19c-.21.39-.81.23-1.2.24.31-.05.81-.17,1.2-.24Z"/>
      <path class="st113" d="M146.36,110.11c-.38-.01-.99.15-1.2-.24.48.03,1.14.24,1.2.24Z"/>
      <path class="st0" d="M142.05,112.74c-.54-.03-1.03-.22-1.2-.24.38.01.99-.15,1.2.24Z"/>
      <g>
        <path class="st57" d="M242.04,58.34c.17.4.17.8,0,1.2-.34,2.23-1.07,2.74-2.4,4.44-19.49,24.74-51.57,41.75-83.68,44.21-.38-.18-.82-.2-1.2,0-.08,0-.16,0-.24,0-.45.21-.99.19-1.44,0-.46.02-1.13.22-1.68.24-.38-.18-.82-.19-1.2,0-.48.01-.95,0-1.44,0-2.15.2-4.33.24-6.47,0-.8,0-1.6.01-2.4,0l-1.44-.24c-.14.01-.36.24-.48.24l-1.2-.24c-.08,0-.16.01-.24,0l-1.44-.24c-1.61.05-3.4-.08-5.04-.24-.36.64-.59.66-.96,0-.39-.22-.87-.38-1.44-.48l-1.92-.24c-1.97.35-4.65-.21-6.23-1.44-2.43-.52-4.82-1.19-7.19-1.93l-.48-.46c-.19-.55.02-.77.58-.71,21.82,3.84,43.94,2.45,64.66-5.8,9.53-3.79,17.79-8.95,26.36-14.34,1.14-1.69,3.3-3.1,5.28-3.59,7.01-5.06,13.19-10.14,19.07-16.53,1.43-1.56,5.48-7.12,6.85-7.77,3.34-1.58,6.71.39,7.41,3.93Z"/>
        <path class="st41" d="M84.26,81.59c.61-.23,1.31-.24,1.92,0,1.48.2,5.32,2.87,6.95,3.72,7.18,3.73,13.56,6.28,21.35,8.5l.98-.22c2.03.38,4.74,1.16,6.46,2.14.37.11.67-.01.92-.32,3.72.24,7.42.67,11.07,1.28l.55-.41c10.68,3.16,22.46,1.6,32.02-4.39l1.24-.23c.36-.21.47-.14.24.24-.64,1.52-2.86,2.8-4.37,3.66s-2.88,1.43-4.5,1.86c-4.12,1.8-16.75,2.74-21.58,2.88-1.57.41-3.2.21-4.8,0-.65.22-1.32.41-2.01.41-4.14.02-8.84-.66-12.95-1.31-7.74-1.23-15.34-3.14-22.29-6.22-2.12-1.12-3.76-1.09-4.92.09l-.52.08c-.28-.01-.56-.04-.83-.09-1.45-.3-7.65-4.04-8.55-5.19-.17-.22-.32-.46-.45-.7-.01-.08,0-.16,0-.24-.18-2.64,1.3-5.22,4.08-5.51Z"/>
        <path class="st6" d="M148.76,108.43c-1.56.42-3.51.26-5.16.24-.41,0-1.07.15-1.32-.24,2.15,0,4.32.03,6.47,0Z"/>
        <path class="st6" d="M154.52,108.19c-.24.39-1.21.39-1.44,0,.48-.02.96.03,1.44,0Z"/>
        <path class="st24" d="M139.89,108.43c-.45,0-1.18.16-1.44-.24.42-.04,1.21-.13,1.44.24Z"/>
        <path class="st14" d="M136.53,108.19c-.44-.06-1.17.2-1.44-.24.44-.01,1.19-.15,1.44.24Z"/>
        <path class="st62" d="M242.04,59.54v-1.2c.02.09.26.24.26.6s-.25.52-.26.6Z"/>
        <path class="st169" d="M137.97,108.43c-.61,0-1.04-.23-1.2-.24.38.01.99-.15,1.2.24Z"/>
        <path class="st28" d="M155.96,108.19c-.4.03-.8-.03-1.2,0,.16-.38,1.04-.38,1.2,0Z"/>
        <path class="st58" d="M151.4,108.43c-.4.01-.8-.01-1.2,0,.16-.38,1.04-.38,1.2,0Z"/>
        <path class="st173" d="M203.44,82.3c-6.11,4.22-11.37,7.94-18.14,11.23-23.59,11.48-46.52,13.56-72.3,9.54-.35-.05-.93-.38-1.16.08-.35.05-.69.07-1.01-.01-6.15-1.54-13.76-5.4-19.37-8.48-.28-.15-.52-.37-.76-.59s-.47-.48-.68-.74c.31-1.38,1.79-1.61,2.98-1.42,2.03.32,6.83,2.64,9.3,3.4,9.78,3.02,20.15,4.7,30.4,4.97,1.29.06,2.49.22,3.6.48,17.4.68,35.63-3.99,51.55-10.67,5.38-2.26,10.5-4.96,15.59-7.78Z"/>
        <path class="st69" d="M90.01,93.33c6.91,3.83,14.33,7.25,21.82,9.83,2.47.85,5.16,1.69,7.67,2.4-3.22-.47-6.42-1.39-9.54-2.33-2.73-.83-18.43-6.05-19.58-7.27-.27-.28-.27-.74-.63-1.04-1.68-1.41-5.52-2.6-7.54-4.21-1.02-.82-1.86-2.03-2.04-3.36,3.15,2.21,6.47,4.13,9.83,5.99Z"/>
        <path class="st56" d="M127.66,107.23c.63-.05,1.67-.22,1.44.48-.6-.06-1.35-.12-1.92-.24-.47-.35.04-.43.48-.24Z"/>
        <path class="st158" d="M127.66,107.23c-.2.02-.42,0-.48.24-.52-.11-1.1-.41-1.44-.48.6.08,1.5-.24,1.92.24Z"/>
        <path class="st68" d="M137.49,100.28l-1.2.48c-1.14-.04-2.59-.15-3.6-.48,1.58.04,3.21.04,4.8,0Z"/>
      </g>
    </g>
    <g>
      <g>
        <path class="st64" d="M141.81,9.45c.62-.19,1.31-.22,1.92,0,1.18-.21,2.42-.2,3.6,0,.63-.2,1.28-.19,1.92,0,.48,0,.96,0,1.44,0,.66.09,1.3.17,1.92.24.55-.19,1.12-.19,1.68,0,.24,0,.48,0,.72,0l1.44.24c1.54.06,3.03.32,4.56.48.31-.15.68-.19.96,0,.51-.14,1.2.06,1.68.24.33.13.59,0,.79-.31,4.77.74,9.59,1.94,14.13,3.76.18.07.33.21.49.36s.29.33.42.51l-.8.33c-23.17-4.38-47.88-1.76-69.61,8.09-7.34,3.33-14.21,7.57-20.96,11.95-.2.99-2.12,2.35-3.12,2.16-.22.26-.46.42-.72.48,0,.9-1.29,1.88-2.16,1.68-.47-.07-1.13.46-1.49.73-8.73,6.28-14.56,12.66-21.52,20.66-1.23,1.41-2.32,2.85-4.32,3.05-.54-.18-1.13-.17-1.68,0-3.73-.62-5.07-5.14-3.22-8.13,1.4-2.27,4.79-5.87,6.7-7.93,19.82-21.39,46.14-34.5,75.18-37.86l1.2-.24c.47-.04.96,0,1.44,0l1.68-.24c.24,0,.48,0,.72,0,.54-.18,1.16-.22,1.68,0,.6-.18,1.24-.26,1.92-.24.48-.01.96.01,1.44,0Z"/>
        <path class="st91" d="M129.1,4.65c.46-.18,1-.21,1.44,0,3.26-.25,6.57-.22,9.83,0,.47-.19.96-.19,1.44,0,.24,0,.48,0,.72,0l1.92.24c.48,0,.96,0,1.44,0l1.68.24c.4,0,.8,0,1.2,0l1.44.24c.24,0,.48,0,.72,0l1.68.24c.08,0,.16,0,.24,0,.45.17.93.25,1.44.24,1.18.16,2.43.29,3.6.48.37.17.77.25,1.2.24.08.01.16-.01.24,0,.37.17.77.25,1.2.24,19.6,3.74,38.78,11.45,54.99,23.05.99.71,5.3,3.7,5.62,4.45.54,1.28-.11,2.48-1.57,2.29l-8.44-5.83c-.11-.07-.19-.23-.24-.48-1.14-1.59-2.34-3.15-4.17-3.98l-4.63-2.36c-2.04-2.16-4.16-3.39-7.14-4.22-3.82-1.13-7.62-2.32-11.4-3.58-1.1.51-3.31-.3-4.08-1.2-3.55-1.4-7.51-2.67-11.27-3.48-1.51-.33-3.07-.45-4.56-.84l.46-.1c-.74.06-1.37-.06-1.89-.38-.38.15-.87.23-1.2,0-.42-.07-1.2-.4-1.68-.48-.37-.17-.77-.25-1.2-.24-1.18-.18-2.41-.32-3.6-.48-.37-.17-.77-.25-1.2-.24-.16-.02-.32.02-.48,0l-1.44-.24c-.24,0-.48.02-.72,0l-1.2-.24c-.47-.04-.96.03-1.44,0l-1.2-.24c-.4-.03-.8.03-1.2,0l-2.16-.24c-.32,0-.64,0-.96,0-.73-.1-1.45-.18-2.16-.24-3.27.18-6.56.18-9.83,0-.68.06-1.4.14-2.16.24-.32,0-.64,0-.96,0l-2.16.24c-.4,0-.8,0-1.2,0l-1.44.24c-.4,0-.8,0-1.2,0l-1.44.24c-.16,0-.32,0-.48,0l-1.44.24c-.16.02-.32-.02-.48,0-.42-.01-.82.07-1.2.24-26.8,3.74-52.07,16.05-71.94,34.15-1.07.98-4.3,4.75-5.43,4.85-1.34.12-2.18-1.34-1.39-2.56,1.23-1.9,6.3-6.13,8.26-7.8,18.71-16.03,41.62-26.78,65.95-31.03.42.01.82-.07,1.2-.24,1.17-.19,2.41-.33,3.6-.48.5.01.98-.07,1.44-.24.16-.01.32,0,.48,0l1.44-.24c.24,0,.48,0,.72,0l1.44-.24c.4,0,.8,0,1.2,0l1.68-.24c.48,0,.96.02,1.44,0,.62-.18,1.26-.26,1.92-.24.24,0,.48,0,.72,0Z"/>
        <path class="st15" d="M121.9,22.15c.34.93-1.79,2.45-2.64,2.16-2.64,1.12-5.25,2.29-7.84,3.53l-.55-.18c-1.02.18-1.81.82-2.71,1.25-20.66,10.15-34.66,23.82-46.69,43.25-.59.95-.62,2.15-1.92,2.71-.64.18-1.28.14-1.92,0-1.5-.46-1.96-1.59-1.56-3.12.43-1.66,4.7-7.88,5.92-9.65,5.42-7.88,12.79-16.29,20.1-22.45.66-.56,1.46-1.15,2.16-1.68.27-.08.51-.24.72-.48.96-.68,2.14-1.56,3.12-2.16,9.45-6.6,20.87-10.64,32.05-13.24.27-.06.56-.06.86-.05s.6.05.9.11Z"/>
        <path class="st178" d="M201.28,24.55c.1-.16.29-.38.41-.32,2.06,1.03,6.64,3.42,8.23,4.8.38.33.7.84.95,1.28.19.68.19,1.4,0,2.16-.81,2.96-3.44,4.68-6.53,3.77-2.42-.72-7.14-3.99-9.81-5.3-5.68-2.78-11.66-5.05-17.72-6.86-2.2.21-4.64-.54-6.47-1.68-.27.57-.97.22-1.2-.24-.45.3-.87.3-1.25,0-2.42-1.39-4.84-2.71-7.46-3.67l-.16-.64c.48-.66,2.4-.58,3.27-.48,11.42,1.4,22.94,2.93,33.3,7.7,1.48.51,2.87.93,3.87-.56l.57.04Z"/>
        <path class="st156" d="M140.37,7.53c.21.07.21.15,0,.24-3.27,0-6.56,0-9.83,0-.21-.07-.21-.15,0-.24,3.27-.02,6.56-.02,9.83,0Z"/>
        <path class="st172" d="M147.32,9.21c.21.07.21.15,0,.24-1.2,0-2.4-.02-3.6,0-.21-.07-.21-.15,0-.24,1.2-.01,2.4,0,3.6,0Z"/>
        <path class="st52" d="M130.54,7.53v.24c-.72,0-1.44,0-2.16,0,.47-.43,1.48-.24,2.16-.24Z"/>
        <path class="st132" d="M211.11,30.78c.08.8-.06,1.03-.24,1.68-.11-.52.16-1.8,0-2.16.02.09.22.24.24.48Z"/>
        <path class="st35" d="M145.64,8.01c-.69-.04-1.67.22-2.16-.24.68,0,1.68-.19,2.16.24Z"/>
        <path class="st35" d="M127.42,7.77c-.47.43-1.48.24-2.16.24.47-.43,1.48-.24,2.16-.24Z"/>
        <path class="st97" d="M142.53,7.77c-.72,0-1.44,0-2.16,0v-.24c.68,0,1.69-.19,2.16.24Z"/>
        <path class="st10" d="M143.73,9.21v.24c-.64.01-1.28-.01-1.92,0,.4-.43,1.32-.23,1.92-.24Z"/>
        <path class="st10" d="M149.24,9.45c-.64,0-1.28,0-1.92,0v-.24c.6,0,1.52-.19,1.92.24Z"/>
        <path class="st66" d="M140.37,9.45c-.39.01-1.24.21-1.92.24-.21-.07-.21-.15,0-.24.64,0,1.28,0,1.92,0Z"/>
        <path class="st31" d="M152.6,9.45c.21.07.21.15,0,.24-.6,0-1.52.19-1.92-.24.64,0,1.28,0,1.92,0Z"/>
        <path class="st107" d="M59.56,74.87c-.98.42-1,.28-1.92,0h1.92Z"/>
        <path class="st185" d="M136.05,9.69c-.33.42-1.15.24-1.68.24.33-.42,1.15-.23,1.68-.24Z"/>
        <path class="st55" d="M54.76,64.09c-.42.04-1.29.07-1.68,0,.3-.4,1.38-.4,1.68,0Z"/>
        <path class="st111" d="M154.28,9.69c-.56,0-1.12,0-1.68,0v-.24c.53,0,1.35-.18,1.68.24Z"/>
        <path class="st22" d="M138.45,9.45v.24c-.56.02-1.12,0-1.68,0,.33-.42,1.15-.23,1.68-.24Z"/>
        <path class="st139" d="M152.6,5.61c-.53-.01-1.35.18-1.68-.24.53,0,1.35-.18,1.68.24Z"/>
        <path class="st43" d="M125.02,4.89c-.33.42-1.15.24-1.68.24.33-.42,1.15-.23,1.68-.24Z"/>
        <path class="st82" d="M152.84,8.73c-.44-.05-1.17.2-1.44-.24.45,0,1.18-.16,1.44.24Z"/>
        <path class="st20" d="M119.51,8.49c-.27.44-.99.18-1.44.24.26-.4.99-.23,1.44-.24Z"/>
        <path class="st80" d="M121.42,8.25c-.26.4-.99.23-1.44.24.26-.4.99-.23,1.44-.24Z"/>
        <path class="st59" d="M124.06,8.01c-.26.4-.99.23-1.44.24.26-.4.99-.23,1.44-.24Z"/>
        <path class="st2" d="M154.28,5.85c-.45-.03-1.17.18-1.44-.24.63.05.98.18,1.44.24Z"/>
        <path class="st50" d="M118.07,5.61c-.27.42-.99.21-1.44.24.44-.06.83-.19,1.44-.24Z"/>
        <path class="st51" d="M119.99,5.37c-.26.4-.99.23-1.44.24.26-.4.99-.23,1.44-.24Z"/>
        <path class="st80" d="M150.2,5.37c-.45,0-1.18.16-1.44-.24.45,0,1.18-.16,1.44.24Z"/>
        <path class="st26" d="M122.14,5.13c-.26.4-.99.23-1.44.24.26-.4.99-.23,1.44-.24Z"/>
        <path class="st8" d="M156.44,9.93c-.45-.02-1.17.17-1.44-.24.45,0,1.18-.16,1.44.24Z"/>
        <path class="st44" d="M113.03,6.33c-.2.39-.81.23-1.2.24.37-.06.75-.17,1.2-.24Z"/>
        <path class="st36" d="M159.07,6.57c-.38-.01-.99.15-1.2-.24.42.07.86.18,1.2.24Z"/>
        <path class="st177" d="M160.51,6.81c-.38-.01-.99.15-1.2-.24.41.07.8.16,1.2.24Z"/>
        <path class="st106" d="M148.04,8.25c-.5-.04-1.08-.23-1.2-.24.38.01.99-.15,1.2.24Z"/>
        <path class="st128" d="M150.68,8.49c-.51-.04-1.06-.23-1.2-.24.38.01.99-.15,1.2.24Z"/>
        <path class="st94" d="M117.59,8.73c-.2.02-.77.18-1.2.24.2-.39.81-.23,1.2-.24Z"/>
        <path class="st13" d="M154.52,8.97c-.45-.06-.99-.21-1.2-.24.38.01.99-.15,1.2.24Z"/>
        <path class="st180" d="M159.31,9.69c-.44-.07-.87-.19-1.2-.24.38.01.99-.15,1.2.24Z"/>
        <path class="st5" d="M132.94,9.93c-.2.39-.81.23-1.2.24.29-.03.65-.2,1.2-.24Z"/>
        <path class="st137" d="M179.46,14.96c1.41.29,2.7.86,4.08,1.2,5.65,1.57,10.89,4.18,16.05,6.92.32.17.6.41.89.66s.55.52.81.81c-.82,1.14-1.5,1.64-2.98,1.42-1.72-.25-5.2-2.06-7.14-2.69-9.03-2.95-18.18-4.58-27.65-5.44-1.02-.09-2.26.12-3.23,0l-.55.4c-12.64-4.35-26.03-2.4-37.36,4.28l-.46-.37c-12.09,2.93-23.13,6.64-33.81,13.18,23.73-18.13,54.62-25.49,84.25-21.54,2.22.3,4.93.72,7.11,1.16Z"/>
        <path class="st181" d="M162.19,10.17c.71.1,1.38.39,2.16.24v.23c-.24.01-.48,0-.72,0-.81.04-1.19-.19-1.68-.24l.24-.24Z"/>
        <path class="st186" d="M84.98,37.49l-.6.71-.12-.24c.32-.24.5-.32.72-.48Z"/>
        <path class="st121" d="M210.87,30.3c-.22-.51-8.41-5.1-9.59-5.75-5.75-3.19-11.64-5.93-17.74-8.39,4.63,1.13,12.43,2.9,16.47,5.22.84.49.92,1.12,1.52,1.6,3.03,2.45,8.24,2.88,9.34,7.32Z"/>
        <path class="st174" d="M169.14,22.15c.52.17.82.14,1.2.24l.72.48-.36.24c.29.39.97.59,1.21.96.2.31-.14.23-.13.24-.94-.6-1.92-1.21-2.83-1.85-.61-.43-.17-.28.19-.31Z"/>
      </g>
      <g>
        <path class="st87" d="M119.27,24.31l-.61,1.15c-14.73,12.61-20.02,31.43-12.91,49.64,3.31,8.47,9.47,14.76,16.76,19.99.56.68.11.77-.6.65-2.66-.51-4.87-1.18-7.43-1.92-7.73-7.3-13.35-16.67-14.87-27.32l-.24-1.2c-.01-.16,0-.32,0-.48l-.24-1.92c0-.32,0-.64,0-.96-.22-1.99-.19-4,0-5.99,0-.4,0-.8,0-1.2l.24-1.68c.41-7.73,5.92-20,11.51-25.4.88-.85,5.62-2.65,7.07-3.13.44-.14.86-.28,1.33-.23Z"/>
        <path class="st102" d="M176.82,24.07c-.47.08.26.64.35.73,7.61,6.44,13.29,17.68,14.51,27.55l.24,1.2c.03.31,0,.64,0,.96l.24,2.16c.01,1.51,0,3.04,0,4.55l-.24,2.16c0,.32.02.64,0,.96l-.24,1.2c-1.05,9.17-5.37,17.86-11.51,24.69-2.98,1.34-5.45,2.45-8.63,3.59-.55-.7,1.28-2.13,1.92-1.68.38-.23.47-.24.26-.01-.02.24,3.23-2.87,3.34-3.34.05-.4.16-.78.38-1.12.77-1.15,2.45-3.26,3.4-4.26.28-.29.64-.48,1.02-.61.46-.41.86-.97,1.2-1.68l-.07-.99c2.46-5.08,4.22-10.42,5.19-15.98l.63-.77c.18-.59.18-1.15,0-1.68-.76-.23-.56-1.29.24-.96.2-.97.21-2.62,0-3.59-.8.33-1-.72-.24-.96.18-.45.18-.93,0-1.44-.72-.04-.89-.89-.24-1.2.3-.79.32-3.04,0-.96-.85-1.58-1.42-3.35-1.72-5.32-2.13-9.22-8.14-15.81-14.82-22.02l-.25-.94c-.91-.62-1.39-1.26-1.44-1.92,2.19.56,4.3,1.03,6.47,1.68Z"/>
        <path class="st182" d="M99.12,61.93c-.43-1.39-.26-3.19-.24-4.68,0-.41-.15-1.07.24-1.31,0,1.99,0,4,0,5.99Z"/>
        <path class="st116" d="M192.16,56.66c-.44-.48-.22-1.47-.24-2.16.43.47.24,1.48.24,2.16Z"/>
        <path class="st45" d="M191.93,63.37c0-.68-.2-1.68.24-2.16,0,.68.19,1.68-.24,2.16Z"/>
        <path class="st45" d="M99.36,64.81c-.43-.4-.23-1.32-.24-1.92.45.41.21,1.31.24,1.92Z"/>
        <path class="st45" d="M99.12,54.74c0-.53-.18-1.35.24-1.68-.03.53.19,1.34-.24,1.68Z"/>
        <path class="st140" d="M191.69,65.53c.01-.38-.15-.99.24-1.2-.04.55-.21.98-.24,1.2Z"/>
        <path class="st98" d="M191.93,53.54c-.39-.2-.23-.81-.24-1.2.04.31.2.65.24,1.2Z"/>
        <path class="st98" d="M99.6,66.49c-.05-.34-.19-.63-.24-1.2.39.2.23.81.24,1.2Z"/>
        <path class="st21" d="M160.27,17.84c1.06.66,2.32.95,3.44,1.47,1.72.8,3.75,2.28,5.43,2.84.06.3-.33.12-.31.13,1.18.51,2.1.94,2.95,2.03,6.53,6.74,10.77,9.7,14.33,19.11,1.12,2.97,1.82,6.07,2.45,9.17.32.18.34.76,0,.96.05.43.16.79.24,1.2.18.52.18.99,0,1.44.01.19,0,.95.24.96.21,1.07.21,2.5,0,3.59-.25,0-.23.77-.24.96.19.53.19,1.09,0,1.68-1.34,7.26-2.62,11.1-5.76,17.73-.34.7-.74,1.26-1.2,1.68-1.43,2.09-3.06,4.16-4.8,5.99-.94,1.21-2.26,2.68-3.6,3.36-.63.54-1.44.99-1.92,1.68-.46.17-1,.54-1.55.73-3.55,1.2-7.22,2.22-10.92,2.87,3.03-1.32,6.29-3.46,8.87-5.51.05-.36.6-.76.96-.72.11-.5.73-.92,1.2-1.2l.54-1.16c10.59-9.81,16-22.63,13.27-37.04-6.3-33.18-49.06-43.18-69.49-16.32-16.06,21.12-6.29,51.86,18.59,60.43l.88.8c-4.25-.39-7.59-.12-11.99-.96.79.05.49-.14.08-.44-9.01-6.69-14.95-13.18-18.13-24.3-5.14-18,1.39-35.04,15.41-46.68.88-.73,1.92-1.25,2.64-2.16,1.64-.4,4.07-2.14,5.83-2.92,8.42-3.74,17.49-4.74,26.54-2.96,1.92.38,4.17,1.34,5.99,1.56Z"/>
        <path class="st3" d="M170.1,89.97c-.49.42-.97.74-1.44.96-.01.35-.63.81-.96.72-8.48,5.63-18.74,7.84-28.83,6.16-1.64-.27-3.4-.98-4.99-1.13-27.4-8.69-37.1-42.94-17.39-64.47,20.88-22.8,59.38-13.3,67.2,16.49,4.32,16.47-1.54,30.27-13.6,41.27ZM144.63,24.38c-25.43.67-41.53,28.18-29.57,50.74s45.1,24.57,59.45,2.61c15.19-23.24-2.3-54.08-29.88-53.35Z"/>
        <path class="st118" d="M168.9,91.17c-.33.28-.65.47-.96.72l-.24-.24c.3-.2.65-.49.96-.72.34-.32.46-.18.24.24Z"/>
        <path class="st154" d="M173.46,92.13c1.15-.99,2.57-2.27,3.6-3.36.48.1-.25.61-.36.72-.79.79-1.57,1.64-2.39,2.4-.19.18-.64.8-.84.24Z"/>
        <path class="st79" d="M189.05,57.14s-.05-.15.12-.24c.2-.1.1,3.64.12,4.07-.27.04-.22-.24-.24-.24v-3.59Z"/>
        <path class="st99" d="M181.85,82.78c.38-.55.56-1.31,1.2-1.68-.3.64-.37,1.45-1.08,1.91l-.12-.24Z"/>
        <path class="st99" d="M188.57,52.59l.24-.96c-.27.23.82,2.68-.24,1.92-.04-.31.03-.64,0-.96Z"/>
        <path class="st79" d="M188.81,63.37c.02-.56-.03-1.12,0-1.68.65.49.07,1.29,0,1.68Z"/>
        <path class="st70" d="M188.81,56.18c-.03-.47.02-.96,0-1.44.07.33.64,1.02,0,1.44Z"/>
        <path class="st83" d="M170.1,89.97c-.4.36-.7.77-1.2,1.2l-.24-.24c.46-.34.81-.87,1.44-.96Z"/>
        <path class="st60" d="M144.63,24.38c27.58-.72,45.08,30.12,29.88,53.35-14.36,21.96-47.19,20.54-59.45-2.61s4.14-50.07,29.57-50.74ZM178.74,57.14c-.99-19.26-18.42-33.54-37.5-31.13-15.14,1.92-27.68,14.6-28.93,29.93-.03.39.01.8,0,1.2-.68,18.55,13.04,34.43,31.89,34.99.61.41,2.08.4,2.64,0,17.02-.64,30.98-14.37,31.89-31.4.41-.94.4-2.71,0-3.59Z"/>
        <path class="st42" d="M178.74,60.73c.06-1.12.06-2.47,0-3.59.4.89.41,2.66,0,3.59Z"/>
        <path class="st129" d="M146.84,92.13c-.56.4-2.03.41-2.64,0,.87.03,1.77.03,2.64,0Z"/>
        <path class="st117" d="M112.31,57.14c.01-.4-.03-.8,0-1.2.38.16.38,1.04,0,1.2Z"/>
        <path class="st146" d="M136.05,45.16c.21.14.22,2.09.55,2.56.29.4,1.98.79,1.85,1.39-.11.45-1.62.61-2.03,1.09-.47.54-.41,1.97-.84,2.28-.68.49-1.4-1.48-1.91-1.68-.37-.14-2.04.32-2.65.11-.05-.86,1.18-1.79,1.18-2.51,0-.52-1.17-2.07-.94-2.28.76-.13,1.82.49,2.49.41.78-.09,1.67-1.79,2.3-1.37Z"/>
        <path class="st146" d="M129.1,62.17c.08.62.31,2.17.61,2.63.34.51,1.8.58,1.79,1.32-1.81.92-2.7,1.23-2.64,3.48-1.11.27-1.38-1.42-2.08-1.63-.88-.27-1.83.24-2.71-.05-.23-.31,1.09-1.78,1.13-2.31.06-.64-1.08-2.31-.89-2.48.83-.16,1.96.64,2.7.44.66-.18,1.14-1.65,2.09-1.4Z"/>
        <path class="st60" d="M150.44,75.59c.4.65-.09,2.01.11,2.39.28.55,2.25,1.05,2.05,1.56-.29.74-2,.95-2.29,1.32-.14.19-.04,2.61-.83,2.28-1.42-1.91-1.7-1.95-4.08-1.57-.35-.83,1.08-2.02,1.12-2.52.03-.41-1.1-1.79-.87-2.51.83.09,1.58.61,2.46.44.98-.2,1.28-1.54,2.33-1.4Z"/>
        <path class="st60" d="M133.65,70.56c.2.45.19.98,0,1.44.05.33-.04.53.22.85.33.42,2.12.95,1.94,1.42-.31.77-1.96.83-2.28,1.33-.11.17-.09,1.47-.2,1.75-.63,1.65-1.54-1.04-2.24-1.25-.85-.25-1.98.75-2.7-.15,1.62-1.8,1.06-2.63.48-4.67,1.2.21,1.94.86,3.11.11.47-.3,1.02-1.48,1.69-.83Z"/>
        <path class="st115" d="M141.57,75.59l.24,1.44c.42,1.34.56.92,1.6,1.63,1.74,1.18-1.63,1.29-1.83,1.49-.15.15.16,2.96-.98,2.51-.55-.22-1.12-1.66-1.58-1.75s-1.82.43-2.49.19c-.36-.35,1.08-1.93,1.15-2.32.08-.44-1.11-2.29-.91-2.47.71-.25,1.98.53,2.49.43s1.58-1.93,2.31-1.15Z"/>
        <path class="st60" d="M124.78,58.1c-.07-.55,1.07-1.61,1.15-2.08.08-.44-1.11-2.29-.91-2.47.72-.25,1.96.52,2.49.42.41-.08,1.88-1.83,2.31-1.38-.17,2,.52,3,2.39,3.61-.14,1.04-1.77.91-2.34,1.48-.48.49.15,2.4-.9,2.27-.5-.06-1.02-1.31-1.31-1.49-.43-.26-.98-.08-1.44-.12l-1.44-.24Z"/>
        <path class="st175" d="M141.81,77.03c-.15-.48-.4-.83-.24-1.44.4.43.23.88.24,1.44Z"/>
        <path class="st4" d="M133.65,72c-.06-.45.04-.98,0-1.44.36.35.42,1.11,0,1.44Z"/>
        <path class="st12" d="M126.22,58.34c-.45-.04-1.39.19-1.44-.24.45.03,1.17-.18,1.44.24Z"/>
        <g>
          <path class="st143" d="M148.52,38.69c-.17.47-.17.97,0,1.44-.17,1.04-1.13,2.31-1.97,2.94-1.02.75-2.45.73-2.1,2.34h6.11c.36,0,1.59,1.01,1.8,1.44.19.63.15,1.28,0,1.92-.32.9-1.35,1.61-2.29,1.65-.27.01-.51-.21-.59-.21-1.19.17-2.43.23-3.6,0-.46.07-.94.15-1.44.24v8.39c.73.09,1.47-.2,2.16-.24.61.18,1.25.18,1.92,0,1.39-.17,3.59-.41,4.92-.25,2.63.32,3.33,3.47,4.48,5.35.91,1.48,2.01,2.84,2.83,4.38,1.01-.16,1.52-.61,2.64-.86.56-.11,1.12-.15,1.68,0,1.4.51,1.87,2.11,1.07,3.34-.29.44-4.82,3.02-5.38,3.13l-1.44-.24c-.82-.31-1.11-.67-1.64-1.36-1.27-1.66-4.19-8.07-5.33-8.81-1.34-.87-5.25.02-6.94.1l-2.64-.24c-.92-.05-1.6.12-2.29-.7-.37-.44-.99-2.54-1.06-3.13.07-.82.15-1.62.24-2.4-.2-.55-.19-1.12,0-1.68,0-.48,0-.96,0-1.44.09-.58.17-1.14.24-1.68-.18-.54-.19-1.14,0-1.68-.18-.48-.18-.96,0-1.44-.19-.47-.19-.96,0-1.44v-2.64c.19-.61.19-1.25,0-1.92-.28-.88-.83-1.42-1.04-2.43-1.54-7.36,8.7-8.22,9.68-1.88Z"/>
          <path class="st170" d="M149.48,50.19c-.99.44-2.46.24-3.6.24-.21-.07-.21-.15,0-.24,1.19-.05,2.4.01,3.6,0Z"/>
          <path class="st188" d="M145.4,63.37c-.79.04-2.03.17-2.64-.24.85.05,1.99-.23,2.64.24Z"/>
          <path class="st135" d="M139.41,59.3c-.09-.7,0-1.66,0-2.4.07-.21.15-.21.24,0,0,.75.2,1.84-.24,2.4Z"/>
          <path class="st48" d="M139.89,44.92v-1.92c.19.58.58,1.35,0,1.92Z"/>
          <path class="st37" d="M152.36,48.75v-1.92c.44.9.3,1.06,0,1.92Z"/>
          <path class="st72" d="M148.52,58.58c-.4.05-1.4.66-1.92,0,.63-.04,1.28.03,1.92,0Z"/>
          <path class="st90" d="M139.89,52.11c-.07.21-.15.21-.24,0,0-.56,0-1.12,0-1.68.07-.21.15-.21.24,0,0,.56,0,1.12,0,1.68Z"/>
          <path class="st112" d="M139.65,53.78c0-.56,0-1.12,0-1.68h.24c0,.53.18,1.35-.24,1.68Z"/>
          <path class="st81" d="M139.65,56.9h-.24c0-.53-.18-1.35.24-1.68,0,.56,0,1.12,0,1.68Z"/>
          <path class="st108" d="M165.07,67.21h-1.68c.88-.19.62-.39,1.68,0Z"/>
          <path class="st54" d="M160.75,73.68c-.66.12-.92-.05-1.44-.24.45.03,1.17-.18,1.44.24Z"/>
          <path class="st74" d="M145.88,50.19v.24c-.48,0-.96,0-1.44,0l.14-.22c.43-.07.87,0,1.3-.02Z"/>
          <path class="st23" d="M139.89,50.43h-.24c0-.48,0-.96,0-1.44.07-.21.15-.21.24,0,0,.48,0,.96,0,1.44Z"/>
          <path class="st1" d="M139.89,48.99h-.24c0-.45-.16-1.18.24-1.44,0,.48,0,.96,0,1.44Z"/>
          <path class="st75" d="M148.52,40.12c-.39-.23-.39-1.2,0-1.44.05.32.05,1.12,0,1.44Z"/>
        </g>
        <g>
          <path class="st60" d="M156.44,38.45c.58-.51,1.36-2.26,1.9-2.72,1.14-.99,1.59,2.89,2.06,3.44.57.66,3.3.97,3.47,1.21.6.86-2.4,2.11-2.87,2.63-.19,1.19-.19,2.38,0,3.59-.47,1.5-2.96-1.63-3.71-1.67s-4.43,2.24-3.79.07c.2-.68,1.03-2.25,1-2.84-.03-.7-2.03-2.56-2.12-3.14s.6-.54.94-.57c.58.08,1.14.16,1.68.24.46-.08.94-.16,1.44-.24Z"/>
          <path class="st168" d="M160.99,46.59c-.37-.61-.43-3.12,0-3.59-.18.93.24,2.83,0,3.59Z"/>
          <path class="st142" d="M155,38.45c.21.07.21.15,0,.24-.51.02-1.36.16-1.68-.24.52-.05,1.14,0,1.68,0Z"/>
          <path class="st63" d="M156.44,38.45c-.46.41-.87.22-1.44.24v-.24h1.44Z"/>
        </g>
      </g>
    </g>
  </g>
</svg>