<?xml version="1.0" encoding="utf-8"?>
<!-- Generator: Adobe Illustrator 26.0.1, SVG Export Plug-In . SVG Version: 6.00 Build 0)  -->
<svg version="1.1" id="Layer_1" xmlns="http://www.w3.org/2000/svg" xmlns:xlink="http://www.w3.org/1999/xlink" x="0px" y="0px"
	 viewBox="0 0 1000 1000" style="enable-background:new 0 0 1000 1000;" xml:space="preserve">
<style type="text/css">
	.st0{fill:#612166;}
	.st1{fill:#00AFAA;}
</style>
<g>
	<path class="st0" d="M508.8,614.7c0,16.4-7.4,24.5-22.6,24.5H320.5h-13.6c-15.2,0-23.2-9.7-23.2-30.5l0.2-24.1l-15.1-14.4
		L253,584.6l0.9,54.9c0,23.2-6.2,41.8-18.3,56.4c-11.2,13.3-24.8,19.8-40.9,19.8c-38.7,0-61.3-30.4-61.3-78.7l-0.2-26.6l-14.3-14.3
		l-16,14.2L103,638c0,30,6.8,53.3,20.4,70c15.2,18.3,39.4,32.3,68.8,32.3c50.8,0,82.6-32,90.4-75.3c5.2,1.5,10.8,2.2,16.7,2.2h21.1
		h173.2c28.2,0,45.8-17.4,45.8-44.9l-0.7-37.5l-14.5-14.4l-15.8,14.4L508.8,614.7z"/>
	<path class="st0" d="M866.9,584.7l0.2,30.6c0,16.4-8.2,23.9-23.4,23.9h-31.3h-8.7h-36.9h-8.7h-6.8c-15.2,0-22.6-8.1-22.6-24.5
		l0.7-29.4l-15.3-15l-15.8,14.4v28.9l-0.3,1.2c0,16.4-7.4,24.5-22.6,24.5h-20.1h-8.7H638c-15.2,0-23-9.7-23-26.7l0.3-27.8
		l-14.5-14.4L585,584.6v32.1l0.2,37.3c-1.1,35.5-10.3,39.4-35.5,48.6l-6.9,19l17.2,9.7c40.6-11.2,51.3-30.4,55-66.3
		c4.7,1.5,9.9,2.2,15.5,2.2h16.1h8.7h28.2c11.8,0,21.6-3.1,29.7-9.3c7.8,6.2,18,9.3,30.4,9.3h14.6h8.7h36.9h8.7h38.7
		c28.2,0,45.8-17.4,45.8-44.9l0.2-37.5l-14.5-14.4L866.9,584.7z"/>
	<path class="st1" d="M131.5,541.9l-14.3,13.3l-14.4-13.3V293l16.4-14.4l14.5,14.4v89.7c13-16.3,29.6-24.5,49.9-24.5
		c11.2,0,21.8,2.3,31.8,6.8s18.3,10.9,24.7,19c6.5,8.2,11.5,18,15.2,29.6c3.7,11.5,5.5,23.9,5.5,37c0,31.2-7.7,55.4-23.1,72.4
		c-15.4,17.1-34,25.6-55.6,25.6c-21.5,0-38.4-9-50.6-26.9L131.5,541.9L131.5,541.9z M131.2,452c0,21.9,3,37.6,8.9,47.4
		c9.7,15.9,22.8,23.8,39.4,23.8c13.5,0,25.2-5.9,35-17.6c9.8-11.7,14.7-29.2,14.7-52.4c0-23.8-4.7-41.3-14.1-52.7
		c-9.4-11.3-20.9-17-34.2-17c-13.5,0-25.2,5.9-35,17.6C136.1,412.9,131.2,429.8,131.2,452"/>
	<path class="st1" d="M403.4,485.8l19.7-5l8.6,16.4c-4.9,16.3-10.7,25.7-24.3,36c-13.6,10.3-31,15.4-52.2,15.4
		c-26.6,0-47.8-8.2-63.4-24.6c-15.6-16.4-23.4-39.4-23.4-69c0-30.6,7.9-54.4,23.7-71.4c15.8-16.9,36.2-25.4,61.4-25.4
		c24.3,0,44.3,8.3,59.7,24.9c15.5,16.6,23.2,39.9,23.2,70c0,1.8-0.1,4.6-0.2,8.2H300.3c1.1,20,6.8,35.4,17,46s22.9,15.9,38.1,15.9
		c11.3,0,21-3,29-8.9C392.3,508.3,398.7,498.8,403.4,485.8 M302,435.9h101.7c-1.4-15.3-5.2-26.8-11.7-34.5
		c-9.8-11.9-22.6-17.8-38.2-17.8c-14.2,0-26.1,4.8-35.8,14.2C308.4,407.3,303.1,420,302,435.9"/>
	<path class="st1" d="M444.5,541.9l-0.2-179.6l14.2-13.1l13.5,13.1v27.6c7.1-12.9,13.7-21.5,19.7-25.6s12.6-6.2,19.8-6.2
		c10.4,0,21,3.3,31.7,9.9l3.7,17.5l-14.3,11.2c-7.5-4.5-15.1-6.7-22.6-6.7c-6.8,0-12.8,2-18.2,6.1c-5.4,4-9.2,9.7-11.5,16.9
		c-3.4,11-5.1,23-5.1,36v92.8l-16.7,13.3L444.5,541.9z"/>
	<path class="st1" d="M662.6,522c-11.4,9.7-22.5,16.6-33,20.6c-10.6,4-21.9,6-34,6c-20,0-35.4-4.9-46.1-14.7
		c-10.7-9.8-16.1-22.3-16.1-37.5c0-8.9,2-17.1,6.1-24.4c4-7.4,9.4-13.3,15.9-17.8c6.6-4.5,14-7.8,22.2-10.1
		c6.1-1.6,15.2-3.1,27.4-4.7c24.9-3,43.3-6.5,55.1-10.6c0.1-4.2,0.2-6.9,0.2-8c0-12.6-2.9-21.5-8.8-26.6c-7.9-7-19.6-10.5-35.2-10.5
		c-14.5,0-25.3,2.6-32.1,7.6c-6.9,5.1-12,14.1-15.3,27l-16.4,3.6L541,408.4c2.7-12.9,4.9-17.5,11.2-25.4s15.4-14.1,27.3-18.4
		c11.9-4.3,25.7-6.4,41.3-6.4c15.5,0,28.2,1.8,37.9,5.5c9.7,3.6,16.9,8.2,21.5,13.8c4.6,5.5,7.8,12.6,9.6,21
		c1.1,5.3,1.5,14.7,1.5,28.5v41.1c0,28.7,0.1,73.8,0.1,73.8l-14.3,13.3l-14.3-13.3L662.6,522z M660.1,453
		c-11.2,4.6-28,8.4-50.4,11.7c-12.7,1.8-21.7,3.9-26.9,6.2c-5.3,2.3-9.4,5.6-12.2,10c-2.9,4.4-4.3,9.3-4.3,14.7
		c0,8.2,3.1,15.1,9.3,20.6c6.2,5.5,15.3,8.2,27.3,8.2c11.9,0,22.5-2.6,31.7-7.8c9.3-5.2,16.1-12.3,20.4-21.4c3.3-7,5-17.3,5-30.9
		V453H660.1z"/>
	<polygon class="st1" points="705.7,541.9 705.8,362.3 721.7,349.1 736,362.3 735.6,541.9 721.7,555.2 	"/>
	<path class="st1" d="M748.7,541.9V362.3l14.5-13.3l12.5,13.3l0.7,25.9c13.4-20,32.7-30,57.9-30c11,0,21.1,2,30.3,5.9
		s16.1,9.1,20.7,15.5c4.6,6.4,7.8,14,9.6,22.8c1.2,5.7,1.7,15.7,1.7,30l0.1,109.5l-14,13.3l-17-13.3l0.1-108.3
		c0-12.6-1.2-22-3.6-28.2c-2.4-6.2-6.6-11.2-12.8-14.9c-6.1-3.7-13.3-5.6-21.5-5.6c-13.1,0-24.5,4.2-34,12.5
		c-9.6,8.3-14.3,24.2-14.3,47.5l-0.1,96.9L763,555.2L748.7,541.9z"/>
	<path class="st0" d="M753.2,306.6c-5.6-0.3-6.3,0.4-7.6-0.6c0,0,6.2-0.6,7.2-2.3c0.9-1.7-0.2-2.8-1.5-3.7c0,0-9.1,6-16.4,4.1
		c-0.7-0.2-1.7-0.8-2.2-1.4c1.6-1.4,3.1-1.7,7.7-2.5c5.6-0.9,4.5-4.7,4.5-4.7s-0.5-3.9-6.1-2.5c-3.4,0.9-5.1,1.3-6.6,1.1
		c0.2-0.2,0.3-0.4,0.5-0.5c5.9-4.7,16.7-2.8,16.7-2.8c0.9-1.3,1.4-2.9-0.1-4c-1.6-1.2-7.5,0.8-7.5,0.8c0.8-1.4,1.7-1.1,6.7-3.6
		s4.6-7.4,4.6-7.4s-4.6-1.7-8.3,2.6c-3.7,4.2-3.7,5.2-5.2,5.6c0,0,3.4-5.2,2.7-7s-2.3-1.6-3.8-1.1c0,0-0.9,10.9-7,15.4
		c-0.6,0.4-1.6,0.8-2.5,0.9c-0.1-2.1,0.6-3.5,2.8-7.5c2.8-5-0.8-6.5-0.8-6.5s-3.4-2-5.7,3.2c-1.4,3.2-2.2,4.8-3.2,5.9
		c-0.1-0.2-0.1-0.5-0.1-0.7c0-7.6,8.2-14.8,8.2-14.8c-0.5-1.5-1.3-2.9-3.2-2.4s-4.1,6.4-4.1,6.4c-0.6-1.5,0.2-2,1.3-7.5
		c1.2-5.5-2.9-8.2-2.9-8.2s-4.2,2.6-3.2,8.1s1.8,6.1,1.1,7.6c0,0-2-5.9-3.8-6.5c-1.8-0.5-2.7,0.8-3.2,2.3c0,0,7.9,7.5,7.7,15.1
		c0,0.7-0.4,1.8-0.9,2.5c-1.7-1.2-2.3-2.6-4.1-6.9c-2.2-5.3-5.6-3.4-5.6-3.4s-3.7,1.4-1.1,6.5c1.6,3.1,2.4,4.7,2.6,6.2
		c-0.2-0.1-0.4-0.2-0.6-0.4c-5.9-4.7-6.5-15.6-6.5-15.6c-1.5-0.6-3.1-0.8-3.9,0.9c-0.8,1.8,2.5,7.1,2.5,7.1
		c-1.6-0.4-1.5-1.4-5.1-5.7c-3.6-4.4-8.2-2.8-8.2-2.8s-0.6,4.8,4.4,7.5s5.9,2.4,6.6,3.9c0,0-5.9-2.2-7.5-1.1c-1.5,1.1-1.1,2.6-0.2,4
		c0,0,10.8-1.5,16.6,3.4c0.6,0.5,1.2,1.4,1.4,2.2c-2,0.6-3.5,0.2-8-1.1c-5.5-1.6-6.2,2.3-6.2,2.3s-1.2,3.8,4.4,4.9
		c3.5,0.7,5.2,1.1,6.4,1.9c-0.2,0.1-0.4,0.2-0.6,0.2c-7.4,1.7-16.3-4.7-16.3-4.7c-1.4,0.8-2.5,1.9-1.6,3.6s7.1,2.5,7.1,2.5
		c-1.3,0.9-2,0.3-7.6,0.4s-7.3,4.7-7.3,4.7s3.4,3.5,8.6,1.3c5.2-2.2,5.5-3.1,7.1-2.8c0,0-5.4,3.2-5.5,5.2c-0.1,1.9,1.4,2.5,3,2.6
		c0,0,5.6-9.4,13-10.9c0.7-0.1,1.8,0,2.6,0.3c-0.8,1.9-2.1,2.9-5.8,5.5c-4.7,3.3-2,6.2-2,6.2s2.2,3.3,6.6-0.4c2.6-2.3,4-3.4,5.4-3.9
		c0,0.2-0.1,0.4-0.2,0.6c-3.3,6.8-13.8,9.8-13.8,9.8c-0.2,1.6-0.1,3.2,1.8,3.6c1.9,0.4,6.4-4,6.4-4c-0.1,1.6-1,1.7-4.5,6.2
		s-1,8.7-1,8.7s4.9-0.5,6.4-5.9s1.1-6.2,2.3-7.3c0,0-0.8,6.2,0.6,7.5c1.4,1.3,2.8,0.4,3.9-0.7c0,0-3.9-10.2-0.4-16.9
		c0.4-0.6,1.2-1.5,1.9-1.8c1,1.8,1,3.4,0.7,8c-0.4,5.7,3.6,5.5,3.6,5.5s3.9,0.3,3.8-5.4c-0.1-3.5-0.1-5.3,0.4-6.7
		c0.2,0.2,0.3,0.4,0.4,0.6c3.3,6.8-1,16.9-1,16.9c1.1,1.2,2.4,2,3.9,0.8s0.9-7.5,0.9-7.5c1.2,1.1,0.7,1.9,2,7.3
		c1.3,5.5,6.2,6.1,6.2,6.1s2.6-4.1-0.7-8.7c-3.3-4.5-4.2-4.7-4.2-6.3c0,0,4.3,4.5,6.3,4.2c1.9-0.3,2.1-1.9,1.9-3.5
		c0,0-10.4-3.4-13.5-10.3c-0.3-0.7-0.4-1.8-0.3-2.6c2.1,0.4,3.3,1.4,6.7,4.5c4.2,3.8,6.5,0.6,6.5,0.6s2.7-2.8-1.8-6.3
		c-2.8-2.1-4.2-3.2-5-4.5c0.2,0,0.5,0,0.7,0.1c7.4,1.7,12.6,11.3,12.6,11.3c1.6-0.1,3.1-0.7,3.1-2.5c0-2-5.3-5.4-5.3-5.4
		c1.6-0.3,1.9,0.6,7,3s8.7-1,8.7-1S758.9,306.8,753.2,306.6 M720.5,299.8L720.5,299.8L720.5,299.8c3.2,2.5,5.1,6,5.6,9.8l0,0
		C723.1,307.3,721,303.9,720.5,299.8c0.5,4-0.7,7.9-3,11l0,0C717,307,718,303.1,720.5,299.8c-2.5,3.2-6.1,5.2-9.8,5.7l0,0
		C712.9,302.5,716.4,300.3,720.5,299.8c-4.1,0.5-8-0.6-11-3h0.1C713.3,296.4,717.2,297.3,720.5,299.8c-3.3-2.5-5.3-6.1-5.8-9.9h0.1
		C717.8,292.3,719.9,295.7,720.5,299.8c-0.6-4.1,0.6-8,2.9-11l0,0C723.9,292.6,723,296.5,720.5,299.8c2.5-3.3,6-5.2,9.8-5.7h0.1
		C728.1,297.1,724.6,299.3,720.5,299.8c4.1-0.5,7.9,0.6,10.9,2.9l0,0C727.7,303.2,723.8,302.3,720.5,299.8"/>
	<path class="st0" d="M856.7,712.1c-3.9-0.2-4.3,0.3-5.2-0.4c0,0,4.3-0.4,4.9-1.6c0.6-1.2-0.1-2-1.1-2.5c0,0-6.2,4.2-11.3,2.8
		c-0.5-0.1-1.1-0.5-1.5-1c1.1-1,2.1-1.2,5.3-1.7c3.9-0.6,3.1-3.2,3.1-3.2s-0.4-2.7-4.2-1.7c-2.4,0.6-3.5,0.9-4.5,0.8
		c0.1-0.1,0.2-0.2,0.3-0.3c4.1-3.2,11.5-1.9,11.5-1.9c0.6-0.9,1-2,0-2.8c-1.1-0.8-5.2,0.6-5.2,0.6c0.5-1,1.2-0.8,4.6-2.5
		c3.5-1.7,3.2-5.1,3.2-5.1s-3.2-1.1-5.7,1.8c-2.5,2.9-2.5,3.5-3.6,3.8c0,0,2.4-3.6,1.9-4.8s-1.6-1.1-2.6-0.8c0,0-0.6,7.5-4.8,10.6
		c-0.4,0.3-1.1,0.6-1.7,0.6c-0.1-1.4,0.4-2.4,2-5.2c1.9-3.4-0.6-4.5-0.6-4.5s-2.3-1.4-4,2.2c-1,2.2-1.5,3.3-2.2,4
		c-0.1-0.2-0.1-0.3-0.1-0.4c0-5.2,5.6-10.2,5.6-10.2c-0.3-1-0.9-2-2.2-1.7s-2.8,4.4-2.8,4.4c-0.4-1,0.1-1.4,0.9-5.2
		c0.8-3.8-2-5.6-2-5.6s-2.9,1.8-2.2,5.6s1.2,4.2,0.8,5.2c0,0-1.4-4.1-2.6-4.5c-1.2-0.4-1.9,0.6-2.2,1.6c0,0,5.4,5.1,5.3,10.4
		c0,0.5-0.3,1.2-0.6,1.7c-1.2-0.8-1.6-1.8-2.8-4.8c-1.5-3.6-3.9-2.3-3.9-2.3s-2.5,1-0.7,4.5c1.1,2.2,1.6,3.2,1.8,4.3
		c-0.1-0.1-0.3-0.2-0.4-0.3c-4.1-3.2-4.4-10.7-4.4-10.7c-1-0.4-2.1-0.5-2.7,0.7c-0.5,1.2,1.7,4.9,1.7,4.9c-1.1-0.3-1-1-3.5-3.9
		c-2.4-3-5.7-1.9-5.7-1.9s-0.4,3.3,3,5.2s4,1.7,4.5,2.6c0,0-4-1.5-5.1-0.7c-1.1,0.7-0.7,1.8-0.1,2.8c0,0,7.4-1.1,11.4,2.3
		c0.4,0.3,0.8,1,1,1.5c-1.4,0.4-2.4,0.1-5.5-0.8c-3.8-1.1-4.2,1.6-4.2,1.6s-0.8,2.6,3,3.3c2.4,0.5,3.5,0.7,4.4,1.3
		c-0.2,0.1-0.3,0.1-0.4,0.1c-5.1,1.1-11.2-3.2-11.2-3.2c-0.9,0.6-1.7,1.3-1.1,2.5c0.6,1.2,4.9,1.7,4.9,1.7c-0.9,0.7-1.4,0.2-5.2,0.3
		c-3.9,0.1-5.1,3.2-5.1,3.2s2.4,2.4,5.9,0.9c3.6-1.5,3.8-2.1,4.9-1.9c0,0-3.7,2.2-3.8,3.6c-0.1,1.3,1,1.7,2,1.8c0,0,3.8-6.4,8.9-7.5
		c0.5-0.1,1.3,0,1.8,0.2c-0.6,1.3-1.4,1.9-4,3.8c-3.2,2.2-1.4,4.3-1.4,4.3s1.5,2.3,4.5-0.3c1.8-1.5,2.8-2.3,3.7-2.6
		c0,0.1-0.1,0.3-0.1,0.4c-2.3,4.7-9.5,6.7-9.5,6.7c-0.2,1.1,0,2.2,1.3,2.5s4.4-2.7,4.4-2.7c0,1.1-0.7,1.2-3.1,4.2
		c-2.4,3.1-0.7,6-0.7,6s3.4-0.3,4.4-4.1c1-3.7,0.7-4.3,1.6-5c0,0-0.6,4.2,0.4,5.1c1,0.9,1.9,0.3,2.7-0.5c0,0-2.7-7-0.2-11.6
		c0.2-0.4,0.7-1,1.3-1.3c0.7,1.3,0.7,2.3,0.5,5.5c-0.3,4,2.5,3.8,2.5,3.8s2.7,0.2,2.6-3.7c-0.1-2.4-0.1-3.6,0.2-4.6
		c0.1,0.1,0.2,0.3,0.3,0.4c2.2,4.7-0.7,11.6-0.7,11.6c0.7,0.8,1.7,1.4,2.7,0.6c1-0.9,0.6-5.2,0.6-5.2c0.8,0.7,0.5,1.3,1.4,5
		c0.9,3.8,4.3,4.2,4.3,4.2s1.8-2.8-0.4-6c-2.3-3.1-2.9-3.2-2.9-4.4c0,0,3,3.1,4.3,2.9c1.3-0.2,1.5-1.3,1.3-2.4c0,0-7.1-2.3-9.3-7
		c-0.2-0.5-0.3-1.2-0.2-1.8c1.4,0.2,2.2,0.9,4.6,3.1c2.9,2.6,4.5,0.4,4.5,0.4s1.9-2-1.3-4.3c-1.9-1.5-2.9-2.2-3.4-3.1
		c0.2,0,0.3,0,0.4,0.1c5.1,1.2,8.7,7.7,8.7,7.7c1.1-0.1,2.1-0.5,2.1-1.7c0-1.4-3.6-3.7-3.6-3.7c1.1-0.2,1.3,0.4,4.8,2.1
		c3.5,1.7,5.9-0.7,5.9-0.7S860.6,712.3,856.7,712.1 M834.3,707.5L834.3,707.5L834.3,707.5C834.3,707.5,834.3,707.4,834.3,707.5
		c2.2,1.7,3.5,4.1,3.9,6.7l0,0C836.1,712.6,834.6,710.2,834.3,707.5c0.3,2.8-0.5,5.4-2.1,7.5l0,0
		C831.9,712.4,832.6,709.7,834.3,707.5c-1.8,2.2-4.2,3.5-6.8,3.9l0,0C829.1,709.3,831.5,707.8,834.3,707.5c-2.8,0.4-5.5-0.4-7.6-2
		l0,0C829.4,705.1,832,705.7,834.3,707.5c-2.3-1.7-3.6-4.2-4-6.8h0.1C832.5,702.3,833.9,704.7,834.3,707.5c-0.4-2.8,0.4-5.5,2-7.6
		l0,0C836.6,702.5,836,705.2,834.3,707.5c1.7-2.3,4.1-3.6,6.7-3.9h0.1C839.5,705.6,837.1,707.1,834.3,707.5c2.8-0.4,5.4,0.4,7.5,2
		l0,0C839.2,709.8,836.5,709.2,834.3,707.5"/>
	<path class="st0" d="M508.9,714.5c-3.4-0.2-3.9,0.2-4.7-0.4c0,0,3.8-0.3,4.4-1.4c0.6-1-0.1-1.7-0.9-2.3c0,0-5.6,3.7-10.1,2.5
		c-0.5-0.1-1-0.5-1.4-0.8c1-0.8,1.9-1,4.7-1.5c3.5-0.6,2.8-2.9,2.8-2.9s-0.3-2.4-3.7-1.5c-2.1,0.5-3.1,0.8-4,0.7
		c0.1-0.1,0.2-0.2,0.3-0.3c3.6-2.9,10.2-1.7,10.2-1.7c0.6-0.8,0.9-1.7,0-2.4c-1-0.7-4.6,0.5-4.6,0.5c0.5-0.9,1-0.7,4.1-2.2
		c3.1-1.6,2.8-4.6,2.8-4.6s-2.8-1-5.1,1.6c-2.3,2.6-2.2,3.1-3.2,3.4c0,0,2.1-3.2,1.6-4.3c-0.4-1.1-1.4-1-2.3-0.7
		c0,0-0.6,6.7-4.3,9.5c-0.4,0.3-1,0.5-1.5,0.5c-0.1-1.3,0.4-2.1,1.7-4.6c1.7-3-0.5-4-0.5-4s-2.1-1.2-3.5,2c-0.9,2-1.4,2.9-2,3.6
		c0-0.1,0-0.3,0-0.4c0-4.6,5-9.1,5-9.1c-0.3-0.9-0.8-1.8-1.9-1.5c-1.2,0.3-2.5,3.9-2.5,3.9c-0.4-0.9,0.1-1.2,0.8-4.6
		c0.7-3.4-1.8-5-1.8-5s-2.6,1.6-1.9,5c0.6,3.4,1.1,3.7,0.7,4.6c0,0-1.2-3.6-2.3-4c-1.1-0.3-1.7,0.5-2,1.4c0,0,4.8,4.6,4.7,9.2
		c0,0.5-0.2,1.1-0.5,1.5c-1.1-0.8-1.5-1.6-2.5-4.2c-1.3-3.2-3.4-2.1-3.4-2.1s-2.3,0.8-0.6,4c1,1.9,1.4,2.9,1.5,3.8
		c-0.1-0.1-0.2-0.2-0.3-0.2c-3.6-2.9-4-9.6-4-9.6c-0.9-0.4-1.9-0.5-2.4,0.6s1.5,4.4,1.5,4.4c-1-0.3-0.9-0.8-3.1-3.5
		s-5.1-1.7-5.1-1.7s-0.3,3,2.7,4.6s3.6,1.5,4,2.4c0,0-3.6-1.3-4.6-0.7c-1,0.7-0.6,1.6-0.1,2.4c0,0,6.6-0.9,10.2,2.1
		c0.3,0.3,0.7,0.9,0.8,1.4c-1.2,0.3-2.2,0.1-4.9-0.7c-3.4-1-3.8,1.4-3.8,1.4s-0.7,2.3,2.7,3c2.1,0.4,3.2,0.7,4,1.1
		c-0.2,0.1-0.3,0.1-0.4,0.1c-4.5,1-10-2.9-10-2.9c-0.8,0.5-1.5,1.2-1,2.2c0.5,1.1,4.3,1.5,4.3,1.5c-0.8,0.6-1.2,0.2-4.7,0.2
		c-3.4,0-4.5,2.9-4.5,2.9s2.1,2.1,5.3,0.8c3.2-1.4,3.4-1.9,4.4-1.7c0,0-3.3,2-3.4,3.2s0.9,1.5,1.8,1.6c0,0,3.4-5.8,7.9-6.7
		c0.4-0.1,1.1,0,1.6,0.2c-0.5,1.2-1.2,1.8-3.6,3.4c-2.9,2-1.3,3.8-1.3,3.8s1.3,2,4-0.3c1.6-1.4,2.5-2,3.3-2.4c0,0.1-0.1,0.3-0.1,0.3
		c-2,4.2-8.5,6-8.5,6c-0.1,1,0,2,1.1,2.2c1.2,0.2,3.9-2.4,3.9-2.4c0,1-0.6,1.1-2.7,3.8s-0.6,5.3-0.6,5.3s3-0.3,3.9-3.6
		s0.6-3.8,1.4-4.4c0,0-0.5,3.8,0.4,4.6s1.7,0.3,2.4-0.4c0,0-2.4-6.3-0.2-10.4c0.2-0.4,0.7-0.9,1.1-1.1c0.6,1.1,0.6,2.1,0.4,4.9
		c-0.2,3.5,2.2,3.4,2.2,3.4s2.4,0.2,2.3-3.3c0-2.2,0-3.2,0.2-4.1c0.1,0.1,0.2,0.2,0.2,0.4c2,4.2-0.6,10.3-0.6,10.3
		c0.7,0.7,1.5,1.3,2.4,0.5s0.5-4.6,0.5-4.6c0.7,0.7,0.4,1.1,1.2,4.5c0.8,3.4,3.8,3.8,3.8,3.8s1.6-2.5-0.4-5.3s-2.6-2.9-2.6-3.9
		c0,0,2.7,2.8,3.8,2.6c1.1-0.2,1.3-1.2,1.2-2.1c0,0-6.4-2-8.2-6.3c-0.2-0.4-0.2-1.1-0.2-1.6c1.3,0.2,2,0.8,4.1,2.7
		c2.6,2.3,4,0.4,4,0.4s1.7-1.7-1.1-3.9c-1.7-1.3-2.6-2-3-2.7c0.1,0,0.3,0,0.4,0c4.5,1.1,7.7,6.9,7.7,6.9c1-0.1,1.9-0.4,1.9-1.6
		c0-1.2-3.3-3.3-3.3-3.3c1-0.2,1.2,0.4,4.3,1.8c3.1,1.5,5.3-0.6,5.3-0.6S512.3,714.7,508.9,714.5 M488.8,710.4L488.8,710.4
		L488.8,710.4c2,1.5,3.2,3.7,3.5,6l0,0C490.5,715,489.1,712.9,488.8,710.4c0.3,2.5-0.4,4.9-1.8,6.7l0,0
		C486.7,714.8,487.3,712.4,488.8,710.4c-1.5,2-3.7,3.2-6,3.5l0,0C484.2,712,486.3,710.7,488.8,710.4c-2.5,0.3-4.9-0.4-6.8-1.8l0,0
		C484.4,708.2,486.8,708.8,488.8,710.4c-2-1.5-3.2-3.8-3.5-6l0,0C487.2,705.8,488.5,707.9,488.8,710.4c-0.4-2.5,0.4-4.9,1.8-6.8l0,0
		C490.9,706,490.4,708.4,488.8,710.4c1.5-2,3.7-3.2,6-3.5l0,0C493.5,708.7,491.3,710,488.8,710.4c2.5-0.3,4.9,0.4,6.7,1.8l0,0
		C493.2,712.5,490.8,711.9,488.8,710.4"/>
	<path class="st0" d="M459.6,714.5c-3.4-0.2-3.9,0.2-4.7-0.4c0,0,3.8-0.3,4.4-1.4c0.6-1-0.1-1.7-0.9-2.3c0,0-5.6,3.7-10.1,2.5
		c-0.4-0.1-1-0.5-1.3-0.8c0.9-0.8,1.9-1,4.7-1.5c3.5-0.6,2.8-2.9,2.8-2.9s-0.3-2.4-3.7-1.5c-2.1,0.5-3.1,0.8-4,0.7
		c0.1-0.1,0.2-0.2,0.3-0.3c3.6-2.9,10.2-1.7,10.2-1.7c0.6-0.8,0.9-1.7,0-2.4c-1-0.7-4.6,0.5-4.6,0.5c0.5-0.9,1-0.7,4.1-2.2
		c3.1-1.6,2.8-4.6,2.8-4.6s-2.8-1-5.1,1.6c-2.3,2.6-2.2,3.1-3.2,3.4c0,0,2.1-3.2,1.7-4.3s-1.4-1-2.4-0.7c0,0-0.6,6.7-4.3,9.5
		c-0.4,0.3-1,0.5-1.5,0.5c-0.1-1.3,0.4-2.1,1.7-4.6c1.7-3-0.5-4-0.5-4s-2.1-1.2-3.5,2c-0.9,2-1.3,2.9-2,3.6c0-0.1,0-0.3,0-0.4
		c0-4.6,5-9.1,5-9.1c-0.3-0.9-0.8-1.8-1.9-1.5c-1.2,0.3-2.5,3.9-2.5,3.9c-0.4-0.9,0.1-1.2,0.8-4.6c0.7-3.4-1.8-5-1.8-5s-2.6,1.6-2,5
		s1.1,3.7,0.7,4.6c0,0-1.2-3.6-2.3-4c-1.1-0.3-1.6,0.5-2,1.4c0,0,4.9,4.6,4.7,9.2c0,0.5-0.2,1.1-0.5,1.5c-1-0.8-1.4-1.6-2.5-4.2
		c-1.3-3.2-3.4-2.1-3.4-2.1s-2.3,0.8-0.7,4c1,1.9,1.5,2.9,1.6,3.8c-0.1-0.1-0.2-0.2-0.3-0.2c-3.6-2.9-4-9.6-4-9.6
		c-0.9-0.4-1.9-0.5-2.4,0.6s1.5,4.4,1.5,4.4c-1-0.3-0.9-0.8-3.1-3.5s-5-1.7-5-1.7s-0.4,3,2.7,4.6c3,1.6,3.6,1.5,4,2.4
		c0,0-3.6-1.3-4.6-0.7c-1,0.7-0.6,1.6-0.1,2.4c0,0,6.6-0.9,10.2,2.1c0.3,0.3,0.7,0.9,0.8,1.4c-1.2,0.3-2.1,0.1-4.9-0.7
		c-3.4-1-3.8,1.4-3.8,1.4s-0.7,2.3,2.7,3c2.1,0.4,3.2,0.7,4,1.1c-0.1,0.1-0.3,0.1-0.4,0.1c-4.5,1-10-2.9-10-2.9
		c-0.8,0.5-1.5,1.2-1,2.2c0.6,1.1,4.3,1.5,4.3,1.5c-0.8,0.6-1.2,0.2-4.7,0.2s-4.5,2.9-4.5,2.9s2.1,2.1,5.3,0.8
		c3.2-1.4,3.4-1.9,4.4-1.7c0,0-3.3,2-3.4,3.2s0.9,1.5,1.8,1.6c0,0,3.4-5.8,8-6.7c0.4-0.1,1.1,0,1.6,0.2c-0.5,1.2-1.2,1.8-3.6,3.4
		c-2.9,2-1.3,3.8-1.3,3.8s1.3,2,4-0.3c1.7-1.4,2.5-2,3.3-2.4c0,0.1-0.1,0.3-0.1,0.3c-2,4.2-8.5,6-8.5,6c-0.1,1,0,2,1.1,2.2
		c1.2,0.2,3.9-2.4,3.9-2.4c0,1-0.6,1.1-2.7,3.8s-0.6,5.3-0.6,5.3s3-0.3,3.9-3.6s0.7-3.8,1.4-4.4c0,0-0.5,3.8,0.4,4.6
		s1.7,0.3,2.4-0.4c0,0-2.4-6.3-0.2-10.4c0.2-0.4,0.7-0.9,1.1-1.1c0.6,1.1,0.6,2.1,0.4,4.9c-0.2,3.5,2.2,3.4,2.2,3.4s2.4,0.2,2.3-3.3
		c-0.1-2.2-0.1-3.2,0.2-4.1c0.1,0.1,0.2,0.2,0.2,0.4c2,4.2-0.6,10.3-0.6,10.3c0.7,0.7,1.5,1.3,2.4,0.5s0.5-4.6,0.5-4.6
		c0.7,0.7,0.4,1.1,1.3,4.5c0.8,3.4,3.8,3.8,3.8,3.8s1.6-2.5-0.4-5.3s-2.6-2.9-2.6-3.9c0,0,2.7,2.8,3.8,2.6c1.1-0.2,1.3-1.2,1.2-2.1
		c0,0-6.4-2-8.2-6.3c-0.2-0.4-0.2-1.1-0.2-1.6c1.3,0.2,2,0.8,4.1,2.7c2.6,2.3,4,0.4,4,0.4s1.7-1.7-1.1-3.9c-1.7-1.3-2.5-2-3.1-2.7
		c0.2,0,0.3,0,0.4,0c4.5,1.1,7.7,6.9,7.7,6.9c1-0.1,1.9-0.4,1.9-1.6c0-1.2-3.2-3.3-3.2-3.3c1-0.2,1.2,0.4,4.3,1.8
		c3.1,1.5,5.3-0.6,5.3-0.6S463.1,714.7,459.6,714.5 M439.6,710.4L439.6,710.4L439.6,710.4c2,1.5,3.1,3.7,3.5,6l0,0
		C441.2,715,439.9,712.9,439.6,710.4c0.3,2.5-0.4,4.9-1.8,6.7l0,0C437.5,714.8,438.1,712.4,439.6,710.4c-1.6,2-3.7,3.2-6,3.5l0,0
		C435,712,437.1,710.7,439.6,710.4c-2.5,0.3-4.9-0.4-6.8-1.8l0,0C435.2,708.2,437.6,708.8,439.6,710.4c-2-1.5-3.2-3.8-3.5-6l0,0
		C438,705.8,439.3,707.9,439.6,710.4c-0.4-2.5,0.3-4.9,1.8-6.8l0,0C441.7,706,441.1,708.4,439.6,710.4c1.5-2,3.7-3.2,6-3.5h0.1
		C444.3,708.7,442.1,710,439.6,710.4c2.5-0.3,4.8,0.4,6.7,1.8l0,0C444,712.5,441.6,711.9,439.6,710.4"/>
	<path class="st0" d="M208.4,605.2c-3.4-0.2-3.8,0.2-4.6-0.4c0,0,3.8-0.4,4.4-1.4c0.6-1-0.1-1.7-0.9-2.3c0,0-5.6,3.7-10.1,2.6
		c-0.4-0.1-1-0.5-1.4-0.9c1-0.8,1.9-1,4.7-1.5c3.5-0.6,2.8-2.9,2.8-2.9s-0.3-2.4-3.7-1.5c-2.1,0.5-3.1,0.8-4,0.7
		c0.1-0.1,0.2-0.2,0.3-0.3c3.6-2.9,10.2-1.7,10.2-1.7c0.5-0.8,0.9-1.8-0.1-2.4c-1-0.7-4.6,0.5-4.6,0.5c0.5-0.9,1-0.7,4.1-2.2
		s2.8-4.5,2.8-4.5s-2.8-1-5.1,1.6s-2.2,3.2-3.2,3.4c0,0,2.1-3.2,1.6-4.3c-0.4-1.1-1.4-1-2.4-0.7c0,0-0.6,6.7-4.3,9.5
		c-0.4,0.3-1,0.5-1.5,0.5c-0.1-1.3,0.4-2.1,1.7-4.6c1.7-3.1-0.5-4-0.5-4s-2.1-1.2-3.5,2c-0.9,2-1.3,2.9-2,3.6c0-0.1-0.1-0.3-0.1-0.4
		c0-4.6,5-9.1,5-9.1c-0.3-0.9-0.8-1.8-1.9-1.5c-1.1,0.3-2.5,3.9-2.5,3.9c-0.4-0.9,0.1-1.2,0.8-4.6c0.7-3.4-1.8-5-1.8-5
		s-2.6,1.6-2,4.9c0.6,3.4,1.1,3.7,0.7,4.6c0,0-1.2-3.6-2.3-4c-1.1-0.3-1.7,0.5-2,1.4c0,0,4.9,4.6,4.7,9.2c0,0.4-0.2,1.1-0.5,1.5
		c-1-0.7-1.4-1.6-2.5-4.2c-1.3-3.2-3.5-2.1-3.5-2.1s-2.3,0.8-0.6,3.9c1,1.9,1.5,2.9,1.6,3.8c-0.1-0.1-0.2-0.2-0.3-0.2
		c-3.6-2.9-4-9.6-4-9.6c-0.9-0.3-1.9-0.5-2.4,0.6s1.5,4.4,1.5,4.4c-1-0.3-0.9-0.9-3.1-3.5c-2.2-2.7-5.1-1.7-5.1-1.7s-0.4,3,2.7,4.6
		c3,1.6,3.6,1.5,4,2.4c0,0-3.6-1.3-4.6-0.6c-0.9,0.7-0.7,1.6-0.1,2.4c0,0,6.6-1,10.2,2.1c0.3,0.3,0.7,0.8,0.9,1.3
		c-1.2,0.4-2.1,0.1-4.9-0.7c-3.3-1-3.8,1.4-3.8,1.4s-0.7,2.3,2.7,3c2.1,0.4,3.2,0.7,4,1.1c-0.1,0.1-0.3,0.1-0.4,0.1
		c-4.5,1-10-2.9-10-2.9c-0.8,0.5-1.5,1.2-1,2.2s4.4,1.5,4.4,1.5c-0.8,0.6-1.2,0.2-4.7,0.2c-3.4,0-4.5,2.8-4.5,2.8s2.1,2.2,5.3,0.8
		s3.4-1.9,4.4-1.7c0,0-3.3,2-3.3,3.2c-0.1,1.2,0.8,1.5,1.8,1.6c0,0,3.4-5.7,7.9-6.7c0.4-0.1,1.1,0,1.6,0.2c-0.5,1.2-1.2,1.8-3.6,3.4
		c-2.9,2-1.3,3.8-1.3,3.8s1.3,2,4-0.3c1.6-1.4,2.5-2,3.3-2.4c0,0.1-0.1,0.3-0.1,0.4c-2,4.2-8.5,6-8.5,6c-0.1,1,0,1.9,1.1,2.2
		c1.2,0.2,3.9-2.4,3.9-2.4c-0.1,1-0.6,1-2.7,3.8c-2.1,2.7-0.6,5.3-0.6,5.3s3-0.3,3.9-3.6s0.6-3.8,1.4-4.5c0,0-0.5,3.8,0.4,4.6
		c0.8,0.8,1.7,0.3,2.4-0.4c0,0-2.4-6.3-0.2-10.4c0.2-0.4,0.7-0.9,1.1-1.1c0.6,1.1,0.6,2.1,0.4,4.9c-0.2,3.5,2.2,3.4,2.2,3.4
		s2.4,0.2,2.3-3.3c0-2.2,0-3.2,0.2-4.1c0.1,0.1,0.2,0.2,0.2,0.4c2,4.2-0.6,10.4-0.6,10.4c0.7,0.7,1.5,1.2,2.4,0.5
		c0.9-0.8,0.5-4.6,0.5-4.6c0.8,0.7,0.4,1.2,1.3,4.5c0.8,3.4,3.8,3.8,3.8,3.8s1.6-2.5-0.4-5.3s-2.6-2.9-2.6-3.9c0,0,2.7,2.7,3.8,2.6
		c1.2-0.2,1.3-1.2,1.2-2.2c0,0-6.4-2-8.2-6.3c-0.2-0.4-0.3-1.1-0.2-1.6c1.3,0.2,2,0.8,4.1,2.7c2.6,2.4,4,0.4,4,0.4s1.7-1.7-1.1-3.8
		c-1.7-1.3-2.6-2-3.1-2.7c0.2,0,0.3,0,0.4,0c4.5,1,7.7,6.9,7.7,6.9c1-0.1,1.9-0.4,1.9-1.6c0-1.2-3.3-3.3-3.3-3.3
		c1-0.2,1.2,0.4,4.3,1.8c3.1,1.5,5.3-0.6,5.3-0.6S211.8,605.3,208.4,605.2 M188.4,601L188.4,601C188.3,601,188.3,601,188.4,601
		c2,1.5,3.2,3.7,3.4,6l0,0C190,605.6,188.7,603.5,188.4,601c0.3,2.5-0.4,4.9-1.8,6.7l0,0C186.2,605.5,186.8,603,188.4,601
		c-1.6,2-3.7,3.2-6,3.5l0,0C183.7,602.7,185.8,601.4,188.4,601c-2.5,0.3-4.9-0.4-6.7-1.8l0,0C183.9,598.9,186.3,599.5,188.4,601
		c-2-1.5-3.2-3.7-3.5-6l0,0C186.7,596.4,188,598.5,188.4,601c-0.4-2.5,0.3-4.9,1.8-6.8l0,0C190.4,596.6,189.9,599,188.4,601
		c1.5-2,3.7-3.2,6-3.5l0,0C193,599.4,190.8,600.7,188.4,601L188.4,601c2.5-0.3,4.8,0.4,6.7,1.8l0,0
		C192.8,603.1,190.3,602.6,188.4,601"/>
	<path class="st0" d="M723.6,714.5c-3.5-0.2-3.9,0.2-4.7-0.4c0,0,3.8-0.3,4.4-1.4c0.6-1-0.1-1.7-0.9-2.3c0,0-5.6,3.7-10.1,2.5
		c-0.4-0.1-1-0.5-1.4-0.8c1-0.8,1.9-1,4.7-1.5c3.5-0.6,2.8-2.9,2.8-2.9s-0.3-2.4-3.7-1.5c-2.1,0.5-3.1,0.8-4,0.7
		c0.1-0.1,0.2-0.2,0.3-0.3c3.6-2.9,10.2-1.7,10.2-1.7c0.6-0.8,0.9-1.7,0-2.4c-1-0.7-4.6,0.5-4.6,0.5c0.5-0.9,1-0.7,4.1-2.2
		c3.1-1.6,2.8-4.6,2.8-4.6s-2.8-1-5.1,1.6s-2.3,3.1-3.2,3.4c0,0,2.1-3.2,1.6-4.3c-0.4-1.1-1.4-1-2.3-0.7c0,0-0.6,6.7-4.3,9.5
		c-0.4,0.3-1,0.5-1.5,0.5c0-1.3,0.4-2.1,1.7-4.6c1.7-3-0.5-4-0.5-4s-2.1-1.2-3.5,2c-0.9,2-1.4,2.9-2,3.6c0-0.1,0-0.3,0-0.4
		c0-4.6,5-9.1,5-9.1c-0.3-0.9-0.8-1.8-2-1.5s-2.5,3.9-2.5,3.9c-0.4-0.9,0.1-1.2,0.8-4.6c0.7-3.4-1.8-5-1.8-5s-2.6,1.6-2,5
		s1.1,3.7,0.7,4.6c0,0-1.2-3.6-2.3-4c-1.1-0.3-1.7,0.5-2,1.4c0,0,4.8,4.6,4.7,9.2c0,0.5-0.2,1.1-0.5,1.5c-1-0.8-1.4-1.6-2.5-4.2
		c-1.3-3.2-3.4-2.1-3.4-2.1s-2.3,0.8-0.7,4c1,1.9,1.5,2.9,1.6,3.8c-0.1-0.1-0.2-0.2-0.3-0.2c-3.6-2.9-4-9.6-4-9.6
		c-0.9-0.4-1.9-0.5-2.4,0.6s1.5,4.4,1.5,4.4c-1-0.3-0.9-0.8-3.1-3.5c-2.2-2.7-5-1.7-5-1.7s-0.4,3,2.7,4.6c3,1.6,3.6,1.5,4,2.4
		c0,0-3.6-1.3-4.6-0.7c-1,0.7-0.7,1.6-0.1,2.4c0,0,6.6-0.9,10.1,2.1c0.4,0.3,0.7,0.9,0.8,1.4c-1.2,0.3-2.2,0.1-4.9-0.7
		c-3.4-1-3.8,1.4-3.8,1.4s-0.7,2.3,2.7,3c2.1,0.4,3.2,0.7,3.9,1.1c-0.1,0.1-0.3,0.1-0.4,0.1c-4.5,1-10-2.9-10-2.9
		c-0.8,0.5-1.5,1.2-1,2.2c0.5,1.1,4.3,1.5,4.3,1.5c-0.8,0.6-1.2,0.2-4.7,0.2c-3.4,0-4.5,2.9-4.5,2.9s2.1,2.1,5.3,0.8
		c3.2-1.4,3.4-1.9,4.4-1.7c0,0-3.3,2-3.4,3.2c-0.1,1.2,0.9,1.5,1.8,1.6c0,0,3.4-5.8,8-6.7c0.4-0.1,1.1,0,1.6,0.2
		c-0.5,1.2-1.3,1.8-3.6,3.4c-2.8,2-1.3,3.8-1.3,3.8s1.3,2,4-0.3c1.6-1.4,2.5-2,3.3-2.4c0,0.1-0.1,0.3-0.1,0.3c-2,4.2-8.5,6-8.5,6
		c-0.1,1,0,2,1.1,2.2c1.2,0.2,3.9-2.4,3.9-2.4c0,1-0.6,1.1-2.7,3.8c-2.1,2.7-0.6,5.3-0.6,5.3s3-0.3,3.9-3.6s0.6-3.8,1.4-4.4
		c0,0-0.5,3.8,0.4,4.6s1.7,0.3,2.4-0.4c0,0-2.4-6.3-0.2-10.4c0.2-0.4,0.7-0.9,1.1-1.1c0.6,1.1,0.6,2.1,0.4,4.9
		c-0.2,3.5,2.2,3.4,2.2,3.4s2.4,0.2,2.3-3.3c0-2.2,0-3.2,0.2-4.1c0.1,0.1,0.1,0.2,0.2,0.4c2,4.2-0.6,10.3-0.6,10.3
		c0.7,0.7,1.5,1.3,2.4,0.5s0.5-4.6,0.5-4.6c0.8,0.7,0.4,1.1,1.3,4.5c0.8,3.4,3.8,3.8,3.8,3.8s1.6-2.5-0.4-5.3s-2.6-2.9-2.6-3.9
		c0,0,2.7,2.8,3.9,2.6c1.1-0.2,1.3-1.2,1.2-2.1c0,0-6.4-2-8.2-6.3c-0.2-0.4-0.3-1.1-0.2-1.6c1.3,0.2,2,0.8,4.1,2.7
		c2.6,2.3,4,0.4,4,0.4s1.7-1.7-1.1-3.9c-1.7-1.3-2.6-2-3.1-2.7c0.1,0,0.3,0,0.4,0c4.5,1.1,7.7,6.9,7.7,6.9c1-0.1,1.9-0.4,1.9-1.6
		c0-1.2-3.2-3.3-3.2-3.3c1-0.2,1.2,0.4,4.3,1.8c3.1,1.5,5.3-0.6,5.3-0.6S727,714.7,723.6,714.5 M703.5,710.4L703.5,710.4
		L703.5,710.4c2,1.5,3.1,3.7,3.4,6l0,0C705.1,715,703.8,712.9,703.5,710.4c0.3,2.5-0.4,4.9-1.8,6.7l0,0
		C701.4,714.8,702,712.4,703.5,710.4c-1.6,2-3.7,3.2-6,3.5l0,0C698.9,712,701,710.7,703.5,710.4c-2.5,0.3-4.9-0.4-6.8-1.8l0,0
		C699.1,708.2,701.5,708.8,703.5,710.4c-2-1.5-3.2-3.8-3.5-6l0,0C701.9,705.8,703.2,707.9,703.5,710.4c-0.4-2.5,0.3-4.9,1.8-6.8l0,0
		C705.6,706,705,708.4,703.5,710.4c1.5-2,3.7-3.2,6-3.5h0.1C708.2,708.7,706,710,703.5,710.4L703.5,710.4c2.5-0.3,4.8,0.4,6.7,1.8
		l0,0C707.9,712.5,705.5,711.9,703.5,710.4"/>
	<path class="st0" d="M674.3,714.5c-3.4-0.2-3.8,0.2-4.6-0.4c0,0,3.8-0.3,4.4-1.4c0.5-1-0.1-1.7-1-2.3c0,0-5.6,3.7-10.1,2.5
		c-0.4-0.1-1-0.5-1.3-0.8c1-0.8,1.9-1,4.7-1.5c3.4-0.6,2.8-2.9,2.8-2.9s-0.3-2.4-3.7-1.5c-2.1,0.5-3.1,0.8-4,0.7
		c0.1-0.1,0.2-0.2,0.3-0.3c3.6-2.9,10.2-1.7,10.2-1.7c0.5-0.8,0.9-1.7-0.1-2.4c-0.9-0.7-4.6,0.5-4.6,0.5c0.5-0.9,1-0.7,4.1-2.2
		c3.1-1.6,2.8-4.6,2.8-4.6s-2.8-1-5.1,1.6s-2.2,3.1-3.2,3.4c0,0,2.1-3.2,1.7-4.3c-0.4-1.1-1.4-1-2.4-0.7c0,0-0.6,6.7-4.3,9.5
		c-0.4,0.3-1,0.5-1.5,0.5c-0.1-1.3,0.4-2.1,1.7-4.6c1.7-3-0.5-4-0.5-4s-2.1-1.2-3.5,2c-0.9,2-1.4,2.9-2,3.6c0-0.1,0-0.3,0-0.4
		c0-4.6,5-9.1,5-9.1c-0.3-0.9-0.8-1.8-1.9-1.5c-1.2,0.3-2.5,3.9-2.5,3.9c-0.4-0.9,0.1-1.2,0.8-4.6c0.7-3.4-1.8-5-1.8-5s-2.6,1.6-2,5
		s1.1,3.7,0.7,4.6c0,0-1.2-3.6-2.4-4c-1.1-0.3-1.7,0.5-2,1.4c0,0,4.9,4.6,4.7,9.2c0,0.5-0.2,1.1-0.5,1.5c-1-0.8-1.4-1.6-2.5-4.2
		c-1.3-3.2-3.4-2.1-3.4-2.1s-2.3,0.8-0.7,4c1,1.9,1.5,2.9,1.6,3.8c-0.1-0.1-0.3-0.2-0.4-0.2c-3.6-2.9-4-9.6-4-9.6
		c-0.9-0.4-1.9-0.5-2.4,0.6s1.5,4.4,1.5,4.4c-1-0.3-0.9-0.8-3.1-3.5c-2.2-2.7-5-1.7-5-1.7s-0.4,3,2.7,4.6c3,1.6,3.6,1.5,4,2.4
		c0,0-3.6-1.3-4.6-0.7c-0.9,0.7-0.6,1.6-0.1,2.4c0,0,6.6-0.9,10.1,2.1c0.3,0.3,0.7,0.9,0.9,1.4c-1.2,0.3-2.2,0.1-4.9-0.7
		c-3.4-1-3.8,1.4-3.8,1.4s-0.7,2.3,2.7,3c2.1,0.4,3.2,0.7,3.9,1.1c-0.1,0.1-0.3,0.1-0.4,0.1c-4.5,1-9.9-2.9-9.9-2.9
		c-0.9,0.5-1.6,1.2-1,2.2c0.5,1.1,4.3,1.5,4.3,1.5c-0.8,0.6-1.2,0.2-4.7,0.2c-3.4,0-4.5,2.9-4.5,2.9s2.1,2.1,5.3,0.8
		c3.2-1.4,3.4-1.9,4.4-1.7c0,0-3.3,2-3.4,3.2c-0.1,1.2,0.9,1.5,1.8,1.6c0,0,3.4-5.8,8-6.7c0.4-0.1,1.1,0,1.6,0.2
		c-0.5,1.2-1.2,1.8-3.6,3.4c-2.9,2-1.3,3.8-1.3,3.8s1.3,2,4-0.3c1.7-1.4,2.5-2,3.3-2.4c0,0.1-0.1,0.3-0.1,0.3c-2,4.2-8.5,6-8.5,6
		c-0.1,1,0,2,1.1,2.2c1.2,0.2,3.9-2.4,3.9-2.4c-0.1,1-0.6,1.1-2.8,3.8c-2.1,2.7-0.6,5.3-0.6,5.3s3-0.3,3.9-3.6s0.6-3.8,1.4-4.4
		c0,0-0.5,3.8,0.4,4.6c0.8,0.8,1.7,0.3,2.4-0.4c0,0-2.4-6.3-0.2-10.4c0.2-0.4,0.7-0.9,1.1-1.1c0.6,1.1,0.6,2.1,0.4,4.9
		c-0.2,3.5,2.2,3.4,2.2,3.4s2.4,0.2,2.3-3.3c0-2.2,0-3.2,0.2-4.1c0.1,0.1,0.1,0.2,0.2,0.4c2,4.2-0.6,10.3-0.6,10.3
		c0.7,0.7,1.5,1.3,2.4,0.5s0.5-4.6,0.5-4.6c0.7,0.7,0.4,1.1,1.3,4.5c0.8,3.4,3.8,3.8,3.8,3.8s1.6-2.5-0.4-5.3s-2.6-2.9-2.6-3.9
		c0,0,2.7,2.8,3.8,2.6s1.3-1.2,1.2-2.1c0,0-6.4-2-8.2-6.3c-0.2-0.4-0.3-1.1-0.2-1.6c1.3,0.2,2,0.8,4.1,2.7c2.6,2.3,4,0.4,4,0.4
		s1.7-1.7-1.1-3.9c-1.7-1.3-2.5-2-3.1-2.7c0.2,0,0.3,0,0.4,0c4.5,1.1,7.7,6.9,7.7,6.9c1-0.1,1.9-0.4,1.9-1.6c0-1.2-3.2-3.3-3.2-3.3
		c1-0.2,1.2,0.4,4.3,1.8c3.1,1.5,5.3-0.6,5.3-0.6S677.8,714.7,674.3,714.5 M654.3,710.4L654.3,710.4L654.3,710.4
		c2,1.5,3.1,3.7,3.5,6l0,0C655.9,715,654.6,712.9,654.3,710.4c0.3,2.5-0.4,4.9-1.8,6.7l0,0C652.2,714.8,652.7,712.4,654.3,710.4
		c-1.6,2-3.7,3.2-6,3.5l0,0C649.7,712,651.8,710.7,654.3,710.4c-2.5,0.3-4.9-0.4-6.8-1.8l0,0C649.9,708.2,652.3,708.8,654.3,710.4
		c-2-1.5-3.2-3.8-3.5-6l0,0C652.7,705.8,653.9,707.9,654.3,710.4c-0.4-2.5,0.3-4.9,1.8-6.8l0,0C656.4,706,655.8,708.4,654.3,710.4
		c1.5-2,3.7-3.2,6-3.5h0.1C658.9,708.7,656.8,710,654.3,710.4L654.3,710.4c2.5-0.3,4.8,0.4,6.7,1.8l0,0
		C658.7,712.5,656.3,711.9,654.3,710.4"/>
	<path class="st0" d="M936,361.5c0,12.2-9.6,21.8-22.1,21.8c-12.3,0-22.2-9.6-22.2-21.8c0-12,9.9-21.5,22.2-21.5
		C926.4,340,936,349.6,936,361.5 M897.3,361.5c0,9.6,7.1,17.2,16.8,17.2c9.5,0,16.4-7.6,16.4-17.1c0-9.6-6.9-17.3-16.5-17.3
		C904.3,344.3,897.3,352.1,897.3,361.5 M910.5,372.8h-5v-21.5c2-0.4,4.7-0.7,8.3-0.7c4.1,0,5.9,0.7,7.5,1.6c1.2,0.9,2.1,2.6,2.1,4.7
		c0,2.4-1.8,4.2-4.5,5v0.3c2.1,0.8,3.3,2.4,3.9,5.3c0.7,3.3,1,4.6,1.6,5.4H919c-0.7-0.8-1.1-2.8-1.7-5.3c-0.4-2.4-1.7-3.4-4.5-3.4
		h-2.4v8.6H910.5z M910.6,360.6h2.4c2.8,0,5-0.9,5-3.2c0-2-1.4-3.3-4.6-3.3c-1.3,0-2.2,0.1-2.8,0.3L910.6,360.6L910.6,360.6z"/>
</g>
</svg>
