<?xml version="1.0" encoding="UTF-8"?>
<svg id="Layer_1" xmlns="http://www.w3.org/2000/svg" version="1.1" viewBox="0 0 918 852">
  <!-- Generator: Adobe Illustrator 30.0.0, SVG Export Plug-In . SVG Version: 2.1.1 Build 123)  -->
  <defs>
    <style>
      .st0 {
        fill: #a2c125;
      }

      .st1 {
        fill: #9c4c94;
      }
    </style>
  </defs>
  <circle class="st0" cx="453.7" cy="107.1" r="60.56"/>
  <path class="st1" d="M421.62,202.54c2.3,2.17,10.52,12.11,11.83,14.67.43.84,1.22,2.61.01,2.99-5.12-1.69-9.9-4.33-15.05-5.95-32.46-10.23-59.23-5.08-91.93-7.07-13.59-.83-25.42-5.19-38.5-7.99l-22.01,214c7.75.95,15.12-1.91,22.62-2.89,51.31-6.67,87.84-12.17,136.26,11.51,4.04,1.97,23.64,14.74,25.59,14.37,1.04-.19,1.73-2.34,1.58-3.45,2.34-52.14-3.3-107.24-.03-159.03,3.06-48.58,27.87-80.91,75.78-92.22,36.5-8.62,71.43-12.7,107.39-25.61,3.64-1.31,18.36-8.68,20.34-8.66,5.63.07,4.1,13.63,4.58,17.37,12.27,94.54,21.28,190.24,31.88,285.12,1.12,10.01,2.41,13.61-9.38,12.37-14.27-1.49-30.71-5.67-45.18-7.81-66.08-9.77-112.41-20.59-167.44,25.41-3.7,3.1-12.6,15.46-17.69,11.2-3.14-4.06-7.82-9.03-11.7-12.32-56.3-47.73-114.16-32.02-180.97-22.25-6.12.9-36.43,7.68-39.68,5.44l32.97-313.15c.67-.81,1.46-1.31,2.54-1.36,2.79-.12,16.4,6.96,20.54,8.45,11.29,4.07,23.39,7.89,34.99,11.01,34.63,9.31,83.84,10.56,110.66,35.84ZM623.97,199.19c-12.27,2.33-23.79,7.49-35.78,10.71-21.88,5.87-48.84,7.18-68.52,17.48-28.91,15.13-25.5,39.06-26.65,67.35-1.39,34.23-1.47,68.76-2.08,102.91-.13,7.02,2.01,13.22,1.04,19.54,1.84,1.45,30.51-8.95,35.56-9.93,31.33-6.08,67.34-1.21,98.84,3.04,6.33.85,12.91,3.78,19.61,2.9l-22.01-214Z"/>
  <g>
    <g>
      <path class="st0" d="M461.98,725.19c1.67,1.11,2.24,10.04,1.9,12.41-.96,6.73-5.84,6.76-6.52,9.52.28,3.7-.93,13.64,1.76,15.91.78.66,3.66-.16,5.18.17.66.14.65,3.74,5.66,1.46,1.02-.47,3.37-3.06,3.78-4.21,1.26-3.53,2.09-16.28,2.29-20.73.21-4.75-.18-9.91-.06-15.04.08-3.66-.64-9.69.03-12.78.07-.32,4.35-4.43,4.66-4.53,2.8-.88,11.09-.98,12.12,2.52,1.07,3.63.23,15.13.24,19.84,0,4.75-.17,9.17-.05,13.97.17,6.92-1.7,16.25,3.56,21.44,1.7,1.68,5.1,3.35,7.32,1.92.57-.37,2.86-10.26,4.66-12.83,6.63-9.47,25.47-8.31,30.89,2.04,1.56,2.99,1.05,11.37,3.15,11.88.76.18,6.85-2.2,7.94-2.94,7.65-5.16,8.57-18.1,3.04-25.07-1.07-1.34-8.06-5.95-9.05-5.95h-24.5c-.81-10.11-4.85-26.13,11.2-19.95,1.23.47,3.76,4.76,4.51,4.92,6.31,1.36,13.8-1.1,21.29,1.52,5.92,2.07,3.93,3.19,5.17,6.83.15.44,4.84,4.89,6.01,6.99,5.74,10.24,4.3,21.63,3.25,32.84-.59,6.3-10.74,10.93-15.83,14.05-19.31-.38-39.93,2.35-59.18-.13-1.11-.14-5.69-3.67-9.86-4.14-6.13-.69-5.87,1.58-7.35,1.98-6.66,1.84-15.93,2.96-22.78,2.15-2.04-.24-4.24-4.56-11.05-4.16-3.07.18-1.92,1.41-3.23,2.01-2.7,1.23-2.29,1.16-4.41,2.4-5.17,3.04-26.7.68-34.22.64-22.02-.12-60.59,3.13-80.81-2.2-2.67-.7-6.07-4.93-9.15-4.77-2.46.13-7.6,3.83-10.38,4.72-14.31,4.59-33.87,1.28-41.24-13.18-9.54-18.73-.42-41.17,20.58-45.47,2.17-.45,4.77.39,6.77-.07.76-.18.62-1.87,1.33-2.02,1.08-.22,16.85,2.35,21.83,2.04,2.06-.13,11-2.34,11.46-1.99.32.25,2.98,6.92,3.02,7.53.19,2.75-1.94,6.05-2,9-.11,5.72.81,13.21,1.08,19,.1,2.03-1.15,4.01-.88,5.76.29,1.87,3.08,4.02,2.97,6.54l103.11-.09c11.24-4.39,4.48-16.77,4.69-26.29.04-1.74,2.26-15.47,3.05-15.47,3.51.72,21.55-.96,23,0ZM303.98,736.19h-18.5c-2.34,0-4.89,4.11-5.52,4.46-1.33.72-3.45.3-3.86.66-.46.41-2.16,10.67-2.05,12.24.86,12.01,12.77,16.9,23.37,13.58,6.29-1.97,3.36-3,4.77-6.18,2.31-5.21,3.98-8.77,3.87-15.24-.06-3.3-1.55-6.33-2.08-9.51ZM526.37,763.44c0-2.13-1.72-3.85-3.85-3.85s-3.85,1.72-3.85,3.85,1.72,3.85,3.85,3.85,3.85-1.72,3.85-3.85Z"/>
      <path class="st0" d="M631.98,708.19v52.5c0,.66-5.2,10.51-6.06,11.73-5.52,7.82-27.63,12.47-36.18,8.51-3.21-1.48-3.09-3.95-2.79-7.24.97-10.69,15.63-4.71,22.33-6.7.79-.24,7.7-6.76,7.7-7.3v-51c0-2.78,12.59-1.21,15-.5Z"/>
      <path class="st0" d="M655.98,707.19c1.66,1.06.9,20.87.96,24.54.1,6.66-.58,15.8.15,21.85.85,6.99,11.27,23.72,3.2,28.42-3.82,2.23-9.53-.89-8.32,4.2-2.52.42-5.38-2.9-5.71-2.98-4.38-1.05-4.43,1.84-5.16-5.65-1.77-18.09-1.58-42.79-.12-60.88.12-1.46-1.02-3.03-.81-4.78.03-.25,1.56-4.71,1.81-4.71h14Z"/>
      <path class="st0" d="M601.72,714.52c.24.26.25,1.47.69,2.27.23.42,1.41.4,1.42.85,0,.79-.94,2.36-.91,3.99.11,5.37-.09,10.74.01,16.1.13,6.52,4.26,17.88-3.68,21.22-2.11.89-8.46,1.04-10.54.23-2.58-1.01-1.73-23.42-2.76-28.46-.54-2.64-2.77-3.04-3.71-5.29-1.12-2.68-1.29-9.4,1.14-11.35,1.94-1.55,16.55-1.52,18.34.43Z"/>
      <path class="st0" d="M287.55,699.64c.73.34.21,2.08,3.93,1.64,1.8-.22,1.47-1.66,2.29-1.99,4.12-1.64,11.12-4.28,14.01.6,6.63,11.21-4.24,15.38-14.01,11.21-.86-.37-.57-1.94-2.27-2.02-4.56-.21-5.35,3.77-9.11,4.11-.9.08-7.85-.76-8.67-1.01-4.95-1.51-2.37-15.71,7.75-15.08,2.15.13,4.19,1.67,6.08,2.55Z"/>
      <path class="st0" d="M439.7,789.51c.27.13.96,3,4.28,1.69-3.15,8.29,3.68,15.98-9.44,13.92-3.88-.61-8.48-4.29-8.49-8.44,0-1.14,3.64-6.98,4.14-7.27,1-.58,8.25-.48,9.51.1Z"/>
      <path class="st0" d="M464.68,791.48c.77.96,1.1,2.08,1.23,3.28,1.16,10.52-7.36,11.09-15.88,10.38-1.28-1.28.18-12.28,1.18-13.71,1.92-2.75,10.93-3.1,13.47.05Z"/>
      <path class="st0" d="M600.93,702.25c1.69,2.61-3.33,4.74-5.5,4.9-4.33.31-6.05-2.63-9.46-2.97-.29-2.17,1.95-3.05,2.55-4.94,2.14-6.82.76-15.71,11.48-11.57,3.91,1.51,4.85,6.16,1.99,9.1-1.97,1.24-5.84-3.75-6.96,0-1.61,5.41,5.34,4.63,5.9,5.48Z"/>
    </g>
    <g>
      <path class="st0" d="M186.48,573.19c2.05.63,1.83,7.63,1.47,9.48-.72,3.75-4.73,3.82-5.75,6.24-2.12,5.01-1.59,22.52,1.45,27.06,2.42,3.6,11.67,4.32,15.31,2.7,9.55-4.24,1.87-41.15,6.66-44.57,3.61-2.58,19.3-.19,24.35.1.02,2.74.29,6.94-1.15,9.33-1.55,2.55-6.62,2.5-7.6,3.9-2.59,3.68-1.72,29.94,3.04,31.44,3.92,1.24,16.13.89,18.2-3.71,3.8-8.39-.66-36.66,2.43-40.57,1.82-2.3,17.19-1.84,18.86-.17,1,.99,1.62,7.5,1.08,9.11-.77,2.28-5.15,2.2-5.74,4.31-.33,1.19.9,3.95.95,5.81.25,9.45,1.53,25.44-4.02,33.08-.29.4-6.35,6.02-6.77,6.22-6.12,2.95-20.93,3.54-27.65,2.13-3.11-.65-6.26-2.95-10.13-2.89-4.17.07-6.86,3.21-8.96,3.53-4.64.7-16.48.36-20.96-.6-2.76-.59-4.46-2.91-8.05-2.93-5.2-.04-10.79,4.82-16.12,4.93-2.63.06-5.01-1.64-7.88-1.93-9.84-1.01-18.68,3.42-29.04-2.97-1.57-.97-7.97-9.21-8.19-10.67-.2-1.33.94-3.03.68-4.72-1.49-9.46-3.01-20.62-2.99-30.18,0-4.41,2.21-9.42,2.12-13.95s-2.44-8.97-3.05-13.43c3.15-1.77,17.57-4.95,18.89-.45.32,1.1-.92,3.99-.97,5.83-.33,13.01-1.21,31.51.06,44.03.18,1.75.71,5.08,1.53,6.49,2.31,3.98,7.7,4.84,11.91,5.08,4.56.25,15.7-.04,19.85-1.24,3.06-.88,5.69-11.67,5.69-14.31v-30c0-.11,1.39-1.5,1.5-1.5,3.99,0,16.35-.82,19,0Z"/>
      <path class="st0" d="M416.98,558.19c-3.35,16.74,1.1,36.73-1.08,53.42-1.51,11.58-11.08,20.13-22.38,21.62h-90.81c-3.69,2.41-3.15,6.11-4.83,9.37-3.44,6.66-11.75,12.43-19.36,12.66-6.23.18-6.98-.07-6.59-6.59.55-9.18,5.6-6.46,9.52-10.5,1.91-1.97,3.08-5.87,3.43-8.57.56-4.42.97-27.2.13-30.68-.26-1.06-3.62-1.75-4.51-3.72-.57-1.26-.96-6.41-.45-6.93,2.15-2.24,16.31.3,19.93-.05,3.03,10.5-4.46,33.07,13.01,30-.59-5.49.77-12.29.07-17.57-.24-1.86-1.88-1.32-2.07-2.12-.98-4.21,2.24-9.82,4.56-13.24,1.56-2.3,9.75-10.41,12.05-10.84,1.23-.23,3.19.97,4.9.87,2.18-.13,3.52-1.81,5.94-2.15,18.13-2.57,20.57,1.8,33.01,11.11,1.34,1,5.73,1.23,6.46,3.71,1.2,4.08.59,15.18.02,19.68-.4,3.18-5.01,9.2.79,11.32,6.83,2.5,19.94,1.67,21.2-7.33,1.6-11.35.56-30.33.97-42.82.1-3-2.14-6.79.1-10.61h16ZM344.79,587.42c-20.22,1.09-19.73,32.35,1.6,31.67,18.6-.59,18.48-32.76-1.6-31.67Z"/>
      <path class="st0" d="M848.74,571.44c.25.14.16,1.58.91,1.75,3.39.76,7.63,1.25,11.08,2.75,17.06,7.41,21.1,33.35,9.68,47.19-7.93,9.61-23.13,11.97-34.87,10-6.27-1.05-9.87-6.06-18.87-3.91-.71.17-.55,1.61-1.45,1.9-12.06,3.81-45.47,3.22-59.7,3.11-8.61-.06-15.49-5.66-21.11-5.96-4.72-.26-9.49,4.36-14.9,4.96-3.72.41-26.13.64-28.53-.54-3.61-1.78-2.03-9.86,1.04-11.95,7.21-4.9,25.93,2.88,31.41-5.59,3.71-5.74,3.99-12.45,1.84-18.75-2.02-5.95-3.92-7.72-9.91-9.09-8.21-1.89-17.72,1.77-15.36-10.58.96-5.04,15.22-4.18,19.42-3.47,6.15,1.04,8.9,4.32,12.89,7.62.84.69,2.42.5,3.7,1.78,9.09,9.1,4.29,25.76,11.59,35.62,20.08,2.39,40.01,1.04,60.13.61,5.72-6.43,3.29-16.05,5.97-24.48,1.07-3.37,4.37-9.61,6.77-12.23.85-.93,9.16-8.07,9.76-8.32.97-.4,17.71-2.87,18.52-2.41ZM836.19,619.91c2.77,3.18,20.32,1.32,23.21-3.79,1.54-2.72,4.08-12.34,3.56-15.36-.22-1.28-4.7-9.99-5.73-11.31-4.34-5.59-12.72-5.22-19.08-3.58-8.56,2.21-3.49,6.63-4.17,7.32-.1.11-1.96.01-2.92.55-4.65,2.56-1.75,18.87,1.85,22.82.86.94,2.34.38,2.82.89s.05,2.01.45,2.47Z"/>
      <path class="st0" d="M534.33,617.84c5.12,5.16,17.16,3.65,20.11-3.69,2.63-6.54-2.04-37.35,2.2-40.04,2.18-1.38,18.79-1.57,19.9.02.74,1.07.72,8.67.39,10.33s-4.72,2.92-5.02,3.35c-1.31,1.89-1.34,17.74-.95,20.91,1.6,12.91,15.12,14.77,21.59,4.58,2.05-5.76.18-36.74,1.87-39.17,1.15-1.65,20.49-1.35,21.43.2.26.42.92,9.43.7,9.87-1.22,2.38-5.74,1.42-6.54,5.52-2.22,11.28,2.65,23.52-5.59,34.41-5.59,7.39-17.87,11.32-26.87,10.01-4.59-.67-10.66-5.08-15.07-5.05-3.45.02-10.71,4.45-15.04,5.05-5.19.72-9.82-1.96-14.53-.48-3.26,1.02-2.3,8.22-4.88,11.8-3.02,4.18-10.55,9.61-15.77,10.49-20.51,3.46-33.42-6.69-35.25-27.28-.39-4.34-.77-19.7,1.52-22.45,1.82-2.18,10.95-1.68,12.53-.61,4.19,2.84-5.14,32.31,8.39,36.6,10.3,3.27,16.51-2.45,17.53-12.55.75-7.4-1.39-53.79,1.16-55.34,4.22.07,18.04-3.89,19.65,1.56,2.85,9.65-2.73,8.08-5.25,11.35-3.1,4.03-2.2,26.57,1.8,30.6Z"/>
      <path class="st0" d="M102.98,581.19l.05,53.55c-3.05,6.17-.03,9.78-5.35,15.14-1.81,1.83-6.16,3.45-7.87,4.4-1.54.85-1.3,2.48-4.56,2.66-16.55-2.88-32.36.9-40.67-16.85-4.93-10.51-2.28-34.75-2.55-47.44-.06-2.6-2.72-7.46,1.45-7.46h21c1.28,0,3.53,6.73,3.45,8.42-.03.55-1.69,8.23-1.96,8.58-.23.29-5.62-3.07-6.85.65-.99,3.01.07,11.88-.1,15.9-.36,8.43-4.49,20.67,7.03,23.88,10.15,2.84,19.52.14,20.84-11.01,1.74-14.63-1.67-32.49.03-46.97.12-1.01.46-3.45,1.55-3.45h14.5Z"/>
      <path class="st0" d="M447.83,623.33c.46.51.32,6.93-.05,8.17-1.83,6.18-17.31,3.44-21.8,4.69l-1.61-77.54c.57-3.78,14.18-3.51,15.43.21l.23,54.77c.25,1.6,2.81,7.11,3.88,8.13,1.41,1.34,3.62,1.25,3.91,1.57Z"/>
      <path class="st0" d="M679.98,633.19h-19c.32-.98-1-2.17-1-2.5v-68c0-4.86,13.96-4.61,14.86-1.86-.69,6.23,1.14,12.93,1.18,18.81.07,9.74-3.41,30.43.51,38.5.91,1.88,3.54,2.71,4.23,5.76.74,3.24.07,6.21-.78,9.29Z"/>
      <path class="st0" d="M626.27,643.47c3.78-4.56,8.55-2.4,9.71-12.78.5-4.45.84-27.37.01-30.79-.34-1.38-4.05-1.64-4.97-3.51-1.23-2.5-.73-6.48.06-9.1,9.23.36,19.87-5.45,20.93,7.35.69,8.36,1.01,37.86-1.55,44.53-.89,2.32-6.55,11.29-8.41,12.59-2.64,1.83-14.59,5.44-16.64,2.49-1.17-1.68-.63-9,.85-10.79Z"/>
      <path class="st0" d="M78.67,565.5c3.66,2.82,4.14,13.65,1.17,15.55-2.28,1.46-11.3.06-13.9-2.32-8.77-8.02,3.66-20.23,12.74-13.23Z"/>
      <path class="st0" d="M351.7,551.48c.88.73,2.97,5.23,3.1,6.45.8,7.79-18.35,10.56-16.81-.16.09-.59,2.62-6.92,2.93-7.15,1.64-1.18,9-.62,10.78.85Z"/>
    </g>
  </g>
</svg>