<svg xmlns="http://www.w3.org/2000/svg" width="743.273" height="502.578" viewBox="0 0 743.273 502.578">
  <g id="Rehab_logo-0ูก" data-name="Rehab logo-0ูก" transform="translate(-69.821 -139.003)" opacity="0.9">
    <path id="Path_4" data-name="Path 4" d="M184.328,156.393c-2.87,4.088-5.741,8.193-8.733,12.421-7.741-5.932-15.239-11.69-23.276-17.865,6.071-2.087,11.533-3.984,16.8-5.793,1.583,1.044,2.731,1.792,3.914,2.575,2.157-.591,4.3-1.166,6.436-1.757,3.671,3.931,8.246,4.906,13.673,4.279.713-1.339,1.479-2.783,2.244-4.21l.47-.887c-1.131-.765-2.244-1.531-3.844-2.627,5.845-.957,11.342-1.844,17.1-2.783.139.9.226,1.548.331,2.192.418,2.87,1.635,4.505,3.723,4.975a6.48,6.48,0,0,0,6.349-3.1c.818-1.444,1.426-2.992,2.279-4.784a163.155,163.155,0,0,1,77.185,17.761c0,4.679-.122,9.394.035,14.108a110.906,110.906,0,0,0,1.009,12.021,19.087,19.087,0,0,0,2.435,4.853c1.774-1.566,3.166-2.8,4.645-4.105,3.1,1.809,4.645,5.775,8.489,7.1,4.314-2.5,1.9-6.871,3.044-10.472,2.14-1.966,4.488-4.123,6.993-6.436a158.116,158.116,0,0,1,29.016,29.034c-1.339.313-2.54.609-3.74.852a8.35,8.35,0,0,0-5.741,3.775,30.671,30.671,0,0,1-3.584,3.914c-1.5.07-2.731.122-3.984.191a3.335,3.335,0,0,0-3.323,2.679,3.382,3.382,0,0,0,1.339,4.071,11.688,11.688,0,0,0,4.21,1.583,48.846,48.846,0,0,0,6.176.07,8.724,8.724,0,0,0,3.514-7.15c2.1-3.323,5.671-3.618,8.907-5.149,2.035,3.009,4.158,5.932,6.071,8.976a179.794,179.794,0,0,1,25,64.643,182,182,0,0,1,2.122,46.69,174.236,174.236,0,0,1-20.962,70.331,169.619,169.619,0,0,1-56.519,61.7,172.156,172.156,0,0,1-23.467,12.8c-.87.4-1.809.644-2.731.974A31.53,31.53,0,0,1,290.32,461.2a10.65,10.65,0,0,0,7.2-7.811,13.1,13.1,0,0,1,2.227-3.949c2.209-2.87,4.471-5.723,6.906-8.4a20.238,20.238,0,0,0,5.062-14.63c-.035-1.931-.244-3.844-.365-5.775.209-.174.383-.452.626-.522,6.228-1.914,11.377-5.758,16.735-9.22a21.844,21.844,0,0,0,10.664-19.187,29.428,29.428,0,0,0-1.983-12.7,14.141,14.141,0,0,0-12.09-8.454c1.9,1.409,3.305,2.453,4.888,3.636-3.236,4.888-6.054,9.133-8.959,13.534-3.288-2.3-6.245-4.366-9.411-6.558,2.366-3.723,4.679-7.358,7.184-11.272-2.227-5.584-3.2-12.107-11.029-13.917-3.131,4.645-6.21,9.237-9.446,14.038l-8.68-6.315c1.7-2.627,3.27-5.062,4.592-7.1-1.861-2.731-3.584-5.184-5.236-7.689-.939-1.426-1.722-2.975-4.332-2.261q-2.74,3.94-6.176,8.854c-3.636-2.731-7.15-5.358-11.081-8.28-6.732,1.287-13.951,2.644-21,3.984-2.94,4.3-5.688,8.3-8.715,12.716-3.723-2.731-7.167-5.254-10.942-8.019q4.671-6.81,9.15-13.325a16.31,16.31,0,0,0-1.9-10.072c-3.6-1.079-6.663-4.123-11.707-4.071,1.966,1.7,3.444,2.992,5.1,4.418-3.514,5.08-7.01,10.107-10.716,15.465-5.184-3.827-10.177-7.515-15.534-11.464,3.079-4.766,6.019-9.272,8.7-13.412-.331-2.992-.609-5.567-.765-6.993,2.366-3.671,4.071-6.367,5.828-9.011,2.209-3.357,4.94-5.984,9.185-6.576,3.41-.47,6.715-1.722,10.281-.522a8.041,8.041,0,0,1,4.958,3.479c.974,1.687,2.209,3.236,3.149,4.94a4.126,4.126,0,0,0,5.549,2.3,8.952,8.952,0,0,0,.574-8.385,41.8,41.8,0,0,1-1.566-5.114c-4.906-3.549-9.15-6.628-13.534-9.811,3.34-4.958,6.454-9.55,9.794-14.508a92.4,92.4,0,0,1,11.377,8.385c-1.774,2.992-3.462,5.81-5.184,8.715a9.352,9.352,0,0,0,5.688-8.472c.122-4.592.035-9.2.035-14.195-1.635-1.2-3.41-2.505-4.558-3.34-2.905,0-5.1.052-7.289,0-2.94-.087-3.044-2.853-3.671-3.966-3.653-2.14-6.732-3.705-9.533-5.706-.957-.7-1.183-2.418-1.5-3.1.3-1.653.452-2.662.678-3.671a6.809,6.809,0,0,1,.731-2.244c2.331-3.462,4.749-6.871,7.358-10.594,5.132,3.758,10.159,7.445,15.413,11.29-1.531,2.488-2.957,4.784-4.766,7.706a14.014,14.014,0,0,0,8.646-5.6c2.94-3.81,6.715-4.679,10.994-4.853,1.792-.07,3.584,0,5.723,0-1.635-2.366-4.366-3.305-6.471-5.654,2.279-3.444,4.61-6.958,7.063-10.681,3.531,2.7,6.715,5.132,9.95,7.619a61.618,61.618,0,0,0,8.315-9.133,4.667,4.667,0,0,0-4.105-2.488,11.678,11.678,0,0,1-9.307-6.923c-.922-1.879-1.6-3.862-2.47-5.758-.748-1.618-1.618-3.183-2.4-4.714-3.81-.47-7.2-.574-10.368,1.479a14.058,14.058,0,0,1-3.305,1.148,3.89,3.89,0,0,1-.365-4.627c1.757-3.827,1.235-7.567-.244-11.533-.783-.07-1.74-.435-2.3-.122a8.35,8.35,0,0,0-2.627,2.488,33.463,33.463,0,0,0-1.809,3.723,10.55,10.55,0,0,1-1.131,1.513c-1.026-.348-2.018-.7-3.1-1.079-.7-3.514.522-7.2-1.774-10.524-2.157-.957-3.705.8-5.567,1.653a14.214,14.214,0,0,0-2.192,9.637c2.035,1.722,4.349,3.67,6.715,5.671-.818,1.392-1.5,2.575-1.983,3.41.731,3.462,1.479,6.541,1.983,9.655a6.557,6.557,0,0,1-.435,3.253c-1.409,3.758-2.94,7.463-4.575,11.516a8.93,8.93,0,0,1-3.827-1.444,28.119,28.119,0,0,0-2.47-1.566A13.843,13.843,0,0,1,226.5,218.5a5.161,5.161,0,0,0-.661-1.339c-7.967-2.279-11.62-9.185-15.656-15.674a22.191,22.191,0,0,1-2.505-5.271c-.835-2.766-1.844-5.254-5.062-6.628,2.87-4.036,5.549-7.845,8.4-11.846l6.923,4.871c1.7-1.827,3.288-3.531,4.679-5.045.139-1.879.261-3.375.383-5.149,6.141-.383,12.8.818,16.282-6.089,1.513-10.3-6.419-17.883-15.534-13.69-.348.591-.783,1.3-1.148,2.035-.313.609-.574,1.253-.783,1.757.591,2.975,1.148,5.758,1.7,8.628a6.784,6.784,0,0,1-7.289-5.323c-.47-1.7-.818-3.253-3.183-3.966-2.261.418-4.958.9-7.932,1.444-.539,2.418-1.026,4.662-1.548,7.045-2.435-.261-4.888-1.166-6.871,1.374,2.3,3.183,5.984,4.819,9.028,7.88-2.609,3.723-5.271,7.532-8.176,11.707-6.28-4.314-11.986-8.889-18.179-13.621,2.522-3.618,4.888-7.01,7.237-10.385q.226-4-2.522-4.836a1.988,1.988,0,0,1-.174-.348,3.51,3.51,0,0,1,.278.244ZM269.376,262.4c3.027-.557,5.81-.87,8.454-1.618,3.758-1.061,4.645-3.931,2.366-7.063-.644-.9-1.374-1.74-1.757-2.209-9.742-.765-11.29-.383-14.525,2.662,1.914,1.583,3.792,3.166,5.584,4.645-1.2,3.2-3.984,5.254-4.575,8.559Q268.471,267.5,269.376,262.4Z" transform="translate(61.014)" fill="#fff"/>
    <path id="Path_5" data-name="Path 5" d="M95.948,367.345c-8.941,6.315-17.465,12.351-26.076,18.422-.591-3.462,4.175-69.218,5.793-80.508,23.884,4.21,47.786,8.437,72.227,12.751-8.437,7.741-16.665,15.291-25.032,22.962a131.134,131.134,0,0,0,14.926,16.857,182.4,182.4,0,0,0,47.108,32.9A198.545,198.545,0,0,0,234.644,407.3c8.332,1.6,16.7,2.714,25.154,3.514a156.29,156.29,0,0,0,24.2.417,190.612,190.612,0,0,0,56.536-11.742,181.8,181.8,0,0,0,53.057-31.225,187.872,187.872,0,0,0,40.149-46.76c1.079-1.792,2.07-3.618,3.357-5.9l33.243,22.632a84.9,84.9,0,0,1-7.15,14.734,169.56,169.56,0,0,1-32.652,40.584,253.2,253.2,0,0,1-57.058,39.175,232.7,232.7,0,0,1-33.765,14.438,124.341,124.341,0,0,1-17.831,4.088c-8.089,1.357-16.23,2.522-24.389,3.236a240.875,240.875,0,0,1-25.05,1.044c-9.6-.156-19.222-.765-28.755-1.774a196.4,196.4,0,0,1-33.469-6.593,215.432,215.432,0,0,1-43.7-17.587,206.7,206.7,0,0,1-64.9-54.483c-1.879-2.4-3.618-4.923-5.723-7.776Z" transform="translate(0 122.959)" fill="#fff"/>
    <path id="Path_6" data-name="Path 6" d="M530.958,433.353H312.816a375.227,375.227,0,0,0-16.6-176.219c8.994-3.845,17.8-7.6,26.842-11.464a27.455,27.455,0,0,1,1.531,2.557,171.281,171.281,0,0,1,10.316,32.182,250.4,250.4,0,0,1,5.967,33.643c.939,9.672,2.209,19.344,2.557,29.051.539,15.6.47,31.225.557,46.847.017,3.062-.417,6.106-.591,9.168-.07,1.357,0,2.714,0,4.227H499.82c.992-3.723-.035-7.15-.7-10.49a83.475,83.475,0,0,0-23.45-44.411,85.121,85.121,0,0,0-23.693-16.265A114.039,114.039,0,0,0,414.268,322c-7.48-.748-15-1.078-22.51-1.374-3.305-.122-6.628.331-9.9.522-.609-2.922.487-26.476,1.461-32.13,1.531-.07,3.166-.157,4.8-.226a172.636,172.636,0,0,1,40.254,3.427c20.44,4.018,39.61,11.307,56.414,24.023a108.763,108.763,0,0,1,36.183,48.2,150.419,150.419,0,0,1,8.594,34.792,215.23,215.23,0,0,1,1.409,34.113Z" transform="translate(167.439 78.888)" fill="#fff"/>
    <path id="Path_7" data-name="Path 7" d="M494.868,293.375l25.52-12.995a63.77,63.77,0,0,1,5.306,11.429,247.934,247.934,0,0,1,15.656,56.971c1.044,7.15,1.583,14.386,2.14,21.606.365,4.575.365,9.185.539,13.76a89.317,89.317,0,0,1-9.95,43.089c-5.775,11.707-13.673,21.64-24.98,28.581a62.452,62.452,0,0,1-28.425,8.959,103.233,103.233,0,0,1-44.707-6.628c-.644-.244-1.27-.522-2.366-.957,3.357-9.307,6.663-18.509,10.559-27.694,1.809.644,3.236,1.131,4.662,1.67a61.232,61.232,0,0,0,23.71,4.279c16.613-.626,28.947-8.141,36.183-23.362a75.438,75.438,0,0,0,6.471-24.458c1.792-16.717-.591-33.017-4.61-49.178a233.174,233.174,0,0,0-15.482-43.576,8.212,8.212,0,0,1-.209-1.5Z" transform="translate(269.042 104.559)" fill="#fff"/>
    <path id="Path_8" data-name="Path 8" d="M273.594,364.615c.661-.07,1.2-.191,1.722-.191,10.333,0,20.649-.1,30.982.07a31.363,31.363,0,0,1,8.159,1.5c6.245,1.9,8.889,6.7,9.707,12.8.122.957-.017,1.966.087,2.922a15.439,15.439,0,0,1-6,14.752,6.19,6.19,0,0,0-.8,1.009c.174.383.244.9.522,1.1,4.227,2.992,4.993,7.48,5.323,12.16.261,3.6.3,7.219.713,10.8a8.8,8.8,0,0,0,1.74,4.105,4.586,4.586,0,0,1,.644,4.436H315.5c-2.192-3.758-2.209-7.985-2.575-12.09-.226-2.627-.07-5.306-.191-7.95a6.572,6.572,0,0,0-5.253-6.645,13.276,13.276,0,0,0-3.67-.678c-5.862-.07-11.725-.035-17.587,0a19.5,19.5,0,0,0-2.453.365V430.04h-9.9a1.368,1.368,0,0,1-.174-.174c-.087-.1-.244-.209-.244-.313q-.078-31.6-.1-63.2c0-.522.122-1.061.191-1.74Zm10.455,29.016c7.237,0,14.056.174,20.857-.087a9.065,9.065,0,0,0,7.585-3.844c3.618-5.532,1.914-15.447-6.21-15.761-1.513-.052-3.027-.47-4.54-.487-4.61-.07-9.2-.035-13.812,0-1.218,0-2.435.157-3.862.244v19.935Z" transform="translate(150.525 166.692)" fill="#fff"/>
    <path id="Path_9" data-name="Path 9" d="M175.07,424.327c.226-8.037,2.731-15.187,9.15-20.562,9.6-8,21.014-5.027,27.711,2.975,7.376,8.837,7.932,22.875,1.774,32.7a19.762,19.762,0,0,1-33.522,1.009,28.688,28.688,0,0,1-5.1-16.126Z" transform="translate(77.839 192.323)" fill="#fff"/>
    <path id="Path_10" data-name="Path 10" d="M404.327,364.51h8.959v20.805a21.719,21.719,0,0,1,13.447-4.349,18.02,18.02,0,0,1,16.352,9.759,30.662,30.662,0,0,1,3.479,19.414,45.688,45.688,0,0,1-2.522,10.072c-4.4,11.655-17.657,13.934-25.728,10.3-1.774-.8-3.427-1.827-5.306-2.836-.47.765-.957,1.548-1.409,2.3H404.31V364.51Zm20.579,58.554c4.4.348,7.324-1.827,9.307-5.741a24.973,24.973,0,0,0,.887-20.6,10.046,10.046,0,0,0-5.253-5.671,11.448,11.448,0,0,0-14.6,5.149,26.094,26.094,0,0,0-.522,19.883c1.827,5.045,4.8,6.889,10.177,6.958Z" transform="translate(247.38 166.779)" fill="#fff"/>
    <path id="Path_11" data-name="Path 11" d="M410.562,416.641c2.053.174,3.41.278,4.993.4V423.6c-5.5,3.009-9.533,2.035-14.491-3.758-2,1.061-4.088,2.14-6.141,3.253a19.558,19.558,0,0,1-15.03,1.113c-7.532-2.053-9.968-7.6-9.533-14.282.435-6.871,2.957-10.82,10.838-13.1a90.046,90.046,0,0,1,11.5-1.9c.818-.122,1.687,0,2.505-.1,4.975-.626,5.9-1.827,5.706-6.8a4.175,4.175,0,0,0-2.488-4,17.267,17.267,0,0,0-10.977-1.531,7.071,7.071,0,0,0-5.236,4.4c-.47,1.131-.8,2.331-1.253,3.636h-8.072a11.655,11.655,0,0,1,4.088-11.933,17.628,17.628,0,0,1,9.794-4.349A31.138,31.138,0,0,1,402.4,375.83a27.478,27.478,0,0,1,3.67,1.948,8.127,8.127,0,0,1,4.088,7.689c-.1,8.785-.052,17.587-.017,26.389,0,1.479.261,2.957.417,4.766Zm-9.724-15.256c-2.47.417-4.245.626-5.967,1.009a112.329,112.329,0,0,0-11.29,2.731c-3.114,1.026-4.053,3.114-3.705,6.193a6.031,6.031,0,0,0,5.375,5.514,15.428,15.428,0,0,0,13.36-4.366,7.436,7.436,0,0,0,2.122-3.914,47.951,47.951,0,0,0,.087-7.167Z" transform="translate(222.236 173.707)" fill="#fff"/>
    <path id="Path_12" data-name="Path 12" d="M352.9,385.825c4.94-3.723,9.411-5.323,14.508-4.853a18.474,18.474,0,0,1,8.976,3.062,10.846,10.846,0,0,1,5.341,9.376c-.07,11.725-.035,23.432-.052,35.157a6.572,6.572,0,0,1-.348,1.374h-8.541c-.087-.974-.278-2.035-.278-3.1-.017-9.481-.348-18.979.1-28.459.331-6.784-5.9-10.89-12.177-8.507-5.149,1.966-7.567,5.132-7.585,10.664-.017,8.367,0,16.735,0,25.1v4.3h-8.976c-.7-3.131-.939-57.041-.3-65.391H352.9v21.258Z" transform="translate(202.188 166.809)" fill="#fff"/>
    <path id="Path_13" data-name="Path 13" d="M354.079,403.118H320.818a11.406,11.406,0,0,0,6.436,12.194,14.4,14.4,0,0,0,16.926-2.54h9.776a18.747,18.747,0,0,1-12.89,11.412,32.293,32.293,0,0,1-13.273.574,18.347,18.347,0,0,1-15.6-13.934,38.26,38.26,0,0,1,.435-22.649c2.3-7.063,9.689-14.873,19.918-14.23a44.093,44.093,0,0,1,6.645.47,15.47,15.47,0,0,1,11.655,10.368,77.742,77.742,0,0,1,2.7,11.325,63.013,63.013,0,0,1,.557,6.993Zm-10.524-8.437c.348-5.532-1.531-9.724-4.94-11.6a13.155,13.155,0,0,0-12.664,1.166c-3.514,2.905-5.219,6.993-4.3,10.437Z" transform="translate(178.137 173.73)" fill="#fff"/>
    <path id="Path_14" data-name="Path 14" d="M110.027,244.607c7.132,5.167,13.882,10.055,20.857,15.1-4.053,5.775-7.95,11.325-12.09,17.222-7.01-5.08-13.847-10.037-21.014-15.239,3.792-5.845,8.089-11.081,12.247-17.1Z" transform="translate(20.678 78.089)" fill="#fff"/>
    <path id="Path_15" data-name="Path 15" d="M133.178,200.474c-3.914,5.41-7.55,10.455-11.446,15.83-7.01-5.2-13.882-10.316-20.962-15.552a141.619,141.619,0,0,1,9.794-17.152c7.5,5.6,14.8,11.046,22.6,16.874Z" transform="translate(22.889 32.983)" fill="#fff"/>
    <path id="Path_16" data-name="Path 16" d="M137.089,250.037c-6.784-5.045-13.256-9.846-20.109-14.926C121.051,229.458,125,224,129.122,218.29c6.75,4.888,13.256,9.62,20.04,14.543C145.161,238.556,141.264,244.088,137.089,250.037Z" transform="translate(34.878 58.639)" fill="#fff"/>
    <path id="Path_17" data-name="Path 17" d="M119.164,231.83c6.924,5.08,13.516,9.916,20.37,14.926-3.862,5.48-7.6,10.785-11.5,16.317-7.045-5.062-13.795-9.933-20.736-14.926C111.214,242.755,115.059,237.484,119.164,231.83Z" transform="translate(27.719 68.652)" fill="#fff"/>
    <path id="Path_18" data-name="Path 18" d="M124.735,255.33c6.141,4.471,11.968,8.7,18.109,13.169-3.984,5.949-7.741,11.568-11.69,17.465-6.245-4.523-12.177-8.82-18.474-13.377C116.4,266.655,120.508,261.279,124.735,255.33Z" transform="translate(31.697 86.032)" fill="#fff"/>
    <path id="Path_19" data-name="Path 19" d="M158.423,218.838c-3.827,5.462-7.341,10.49-11.116,15.865-6.558-4.871-12.995-9.637-19.727-14.63,3.844-5.323,7.48-10.368,11.359-15.743,6.506,4.836,12.821,9.55,19.483,14.508Z" transform="translate(42.717 48.314)" fill="#fff"/>
    <path id="Path_20" data-name="Path 20" d="M135.1,222.737c-4.018,5.671-7.863,11.081-11.968,16.856-6.175-4.575-12.16-9.028-18.439-13.69,4-5.619,7.828-11.029,11.864-16.682l18.544,13.5Z" transform="translate(25.788 51.931)" fill="#fff"/>
    <path id="Path_21" data-name="Path 21" d="M125.366,236.344c-3.966,5.6-7.672,10.82-11.62,16.4-6.367-4.175-12.212-8.82-18.735-13.308,3.931-5.514,7.758-10.872,11.812-16.561,6.28,4.558,12.212,8.854,18.544,13.464Z" transform="translate(18.629 62.033)" fill="#fff"/>
    <path id="Path_22" data-name="Path 22" d="M136.5,332.323c-5.567-4.749-10.716-9.15-16.074-13.708,4.036-5.845,7.811-11.29,11.742-17,5.688,4.175,11.168,8.193,16.839,12.351-4.105,6.036-8.089,11.881-12.49,18.352Z" transform="translate(37.429 120.267)" fill="#fff"/>
    <path id="Path_23" data-name="Path 23" d="M148.694,258.8c-5.932-4.418-11.394-8.489-17.2-12.8,3.705-5.862,7.828-11.238,12.038-17.17,5.688,4.123,11.272,8.159,17.013,12.316-4,5.949-7.776,11.586-11.864,17.657Z" transform="translate(45.609 66.434)" fill="#fff"/>
    <path id="Path_24" data-name="Path 24" d="M133.572,224.625c-6.193-4.627-12.177-9.1-18.422-13.76,3.757-5.288,7.358-10.368,11.255-15.865,6.175,4.61,12.142,9.046,18.422,13.725-3.775,5.341-7.445,10.524-11.255,15.9Z" transform="translate(33.524 41.414)" fill="#fff"/>
    <path id="Path_25" data-name="Path 25" d="M132.9,283.112c-3.618,5.375-7.01,10.42-10.646,15.813-6.471-4.784-12.682-9.359-19.031-14.056,3.653-5.132,7.1-9.985,10.838-15.239,6.367,4.54,12.508,8.941,18.84,13.464Z" transform="translate(24.701 96.608)" fill="#fff"/>
    <path id="Path_26" data-name="Path 26" d="M122.04,258.755c3.931-5.514,7.706-10.8,11.6-16.265,5.949,4.349,11.638,8.541,17.5,12.821-3.653,5.462-7.2,10.768-10.977,16.422-6.071-4.349-12-8.611-18.109-12.995Z" transform="translate(38.62 76.536)" fill="#fff"/>
    <path id="Path_27" data-name="Path 27" d="M120.492,213.6c-4.036,5.549-7.932,10.907-11.968,16.474-5.08-3.757-9.846-7.271-14.8-10.942,2.314-6.471,4.592-12.855,7.08-19.814,6.871,4.766,13.116,9.5,19.692,14.282Z" transform="translate(17.675 44.609)" fill="#fff"/>
    <path id="Path_28" data-name="Path 28" d="M169.613,247.73c5.532,4.036,10.594,7.724,16.022,11.673-3.9,6.123-7.9,12.021-12.229,18.057-5.358-3.966-10.472-7.758-15.865-11.76,3.653-6.263,8.089-11.742,12.09-17.97Z" transform="translate(64.875 80.412)" fill="#fff"/>
    <path id="Path_29" data-name="Path 29" d="M155.743,303.723c-5.636-4.071-10.977-7.95-16.613-12.038,4.018-5.793,7.793-11.255,11.864-17.135,5.706,3.688,10.942,7.672,16.491,11.881-3.9,5.723-7.689,11.325-11.742,17.291Z" transform="translate(51.259 100.247)" fill="#fff"/>
    <path id="Path_30" data-name="Path 30" d="M172.269,249.785c-4.158,6.089-8,11.725-12.125,17.778-5.358-3.688-10.35-7.567-15.534-11.481,1.235-3.479,3.618-6.054,5.445-8.959,1.844-2.957,3.862-5.793,6.019-8.994C161.449,241.992,166.7,245.784,172.269,249.785Z" transform="translate(55.312 73.312)" fill="#fff"/>
    <path id="Path_31" data-name="Path 31" d="M101.193,266.342c-3.5-2.522-6.854-4.94-10.507-7.567-.331-5.167-.678-10.42-1.026-15.726,1.757-2.453,3.427-4.8,5.219-7.289,6.332,4.61,12.351,8.994,18.509,13.482C109.213,255.1,105.264,260.636,101.193,266.342Z" transform="translate(14.672 71.559)" fill="#fff"/>
    <path id="Path_32" data-name="Path 32" d="M170.57,275.456c4.158-6.245,7.985-12,12.107-18.2,5.288,3.844,10.385,7.55,15.587,11.325-4.245,6.123-8.315,12.038-12.542,18.144C180.573,282.9,175.719,279.283,170.57,275.456Z" transform="translate(74.511 87.46)" fill="#fff"/>
    <path id="Path_33" data-name="Path 33" d="M140.928,288.67c5.81,4.175,11.2,8.072,16.752,12.055-3.844,5.619-7.445,10.872-11.272,16.474-5.636-4.158-11.064-8.159-16.717-12.316,3.757-5.427,7.393-10.664,11.22-16.213Z" transform="translate(44.278 110.69)" fill="#fff"/>
    <path id="Path_34" data-name="Path 34" d="M126.43,282.643c4.088-6.089,7.863-11.725,11.725-17.483,5.358,3.879,10.4,7.532,15.813,11.429-3.931,5.758-7.776,11.429-11.846,17.4-5.341-3.862-10.368-7.5-15.691-11.342Z" transform="translate(41.867 93.302)" fill="#fff"/>
    <path id="Path_35" data-name="Path 35" d="M118.948,172.2c7.585,5.445,14.891,10.681,22.406,16.056-2.922,4.036-5.584,7.724-8.472,11.725-7.88-5.219-15.117-10.994-22.962-16.7C112.912,179.611,115.765,176.1,118.948,172.2Z" transform="translate(29.656 24.552)" fill="#fff"/>
    <path id="Path_36" data-name="Path 36" d="M141.81,230.718c3.792-5.358,7.411-10.455,11.238-15.848,5.549,4.14,10.855,8.089,16.4,12.229-3.636,5.375-7.115,10.524-10.838,16.056-5.758-4.262-11.2-8.3-16.787-12.438Z" transform="translate(53.241 56.109)" fill="#fff"/>
    <path id="Path_37" data-name="Path 37" d="M147.52,191.686c3.305-4.592,6.454-8.976,9.811-13.656,6.245,4.575,12.386,9.063,18.892,13.847-1.6,2.348-3.114,4.61-4.662,6.837-1.583,2.261-3.236,4.488-5.132,7.115-6.367-4.766-12.542-9.376-18.909-14.143Z" transform="translate(57.464 28.863)" fill="#fff"/>
    <path id="Path_38" data-name="Path 38" d="M148.46,277.741c3.827-5.5,7.463-10.681,11.238-16.091,5.427,3.966,10.559,7.724,15.656,11.429-.957,2.87-6.941,12.055-10.629,16.317-5.236-3.758-10.507-7.532-16.265-11.638Z" transform="translate(58.159 90.707)" fill="#fff"/>
    <path id="Path_39" data-name="Path 39" d="M106.617,289.338c-2.7-2-5.2-3.723-7.532-5.636a6.12,6.12,0,0,1-1.687-2.766C95.64,275.4,94,269.82,92.3,264.184c1.183-1.722,2.279-3.288,3.636-5.254,7.08,5.045,14.021,9.985,21.275,15.134-3.288,5.271-6.889,10.072-10.611,15.291Z" transform="translate(16.625 88.695)" fill="#fff"/>
    <path id="Path_40" data-name="Path 40" d="M154.38,240.156c3.74-5.636,7.115-10.7,10.716-16.126,5.48,4.105,10.751,8.054,16.282,12.194-3.723,5.41-7.219,10.507-10.925,15.917-5.462-4.088-10.646-7.95-16.056-11.986Z" transform="translate(62.538 62.884)" fill="#fff"/>
    <path id="Path_41" data-name="Path 41" d="M135.51,268.661c3.844-5.741,7.393-11.064,11.064-16.561,5.41,3.949,10.542,7.706,15.9,11.62-3.671,5.41-7.167,10.577-10.925,16.126C145.982,276.524,141.2,272.3,135.51,268.661Z" transform="translate(48.582 83.644)" fill="#fff"/>
    <path id="Path_42" data-name="Path 42" d="M133.707,159.777c6.054,4.453,11.551,8.489,17.378,12.786-3.2,4.418-6.315,8.733-9.637,13.343-6.889-5.132-13.464-10.037-20.388-15.2,4.245-3.671,8.315-7.184,12.647-10.942Z" transform="translate(37.895 15.351)" fill="#fff"/>
    <path id="Path_43" data-name="Path 43" d="M152.82,301.773c4.036-6.036,7.741-11.6,11.673-17.483,4.94,3.583,9.742,7.063,14.926,10.838-4.018,5.845-7.845,11.412-11.881,17.274-5.01-3.618-9.724-7.028-14.717-10.629Z" transform="translate(61.384 107.45)" fill="#fff"/>
    <path id="Path_44" data-name="Path 44" d="M134.9,182.09c3.2-4.523,6.228-8.785,9.533-13.43,6.123,4.488,12.142,8.872,18.526,13.551a158.928,158.928,0,0,1-9.776,13.621l-18.3-13.743Z" transform="translate(48.116 21.933)" fill="#fff"/>
    <path id="Path_45" data-name="Path 45" d="M194.318,246.026c-3.653,5.375-7.15,10.49-10.733,15.761-5.393-4.036-10.577-7.915-15.935-11.933,3.671-5.323,7.115-10.333,10.838-15.743C183.95,237.885,189.064,241.782,194.318,246.026Z" transform="translate(72.352 70.339)" fill="#fff"/>
    <path id="Path_46" data-name="Path 46" d="M143.739,290.8c-3.653,5.41-7.2,10.7-10.959,16.265-5.184-3.827-10.177-7.532-15.43-11.429,3.479-5.236,6.924-10.385,10.629-15.952C133.354,283.472,138.434,287.056,143.739,290.8Z" transform="translate(35.151 104.041)" fill="#fff"/>
    <path id="Path_47" data-name="Path 47" d="M166.292,205.912c-3.131,4.471-5.984,8.507-9.046,12.873C150.74,214,144.5,209.409,137.85,204.5c2.975-4.123,5.862-8.106,8.959-12.4,6.506,4.61,12.716,9.011,19.483,13.812Z" transform="translate(50.313 39.269)" fill="#fff"/>
    <path id="Path_48" data-name="Path 48" d="M146.32,311.85c4.906,3.618,9.463,6.993,14.195,10.49-3.705,5.445-7.358,10.82-11.255,16.543a112.369,112.369,0,0,1-15.1-8.785c4.088-6.158,8-12.021,12.142-18.248Z" transform="translate(47.584 127.833)" fill="#fff"/>
    <path id="Path_49" data-name="Path 49" d="M169.465,309.037c-3.984,5.793-7.741,11.238-11.6,16.874-4.871-3.6-9.428-6.976-14.282-10.559,3.775-5.654,7.358-11.029,11.185-16.752,5.01,3.566,9.724,6.906,14.7,10.437Z" transform="translate(54.55 118.034)" fill="#fff"/>
    <path id="Path_50" data-name="Path 50" d="M187.959,282.443c-3.688,5.358-7.219,10.472-10.924,15.865-5.114-3.653-9.95-7.132-15.065-10.785,3.618-5.427,7.15-10.716,10.82-16.213,5.167,3.792,10.09,7.411,15.169,11.133Z" transform="translate(68.151 97.851)" fill="#fff"/>
    <path id="Path_51" data-name="Path 51" d="M173.107,211.34c3.288-4.94,6.4-9.655,9.655-14.56,5.619,4.14,11.046,8.159,16.856,12.438-3.288,4.836-6.384,9.376-9.724,14.264-5.967-3.6-10.872-8.246-16.8-12.142Z" transform="translate(76.375 42.73)" fill="#fff"/>
    <path id="Path_52" data-name="Path 52" d="M125.26,195.006c2.94-4.14,5.6-7.863,8.524-11.986,6.367,4.192,12.281,8.733,18.77,13.273-2.905,4.088-5.671,8-8.733,12.334-6.193-4.54-12.177-8.941-18.561-13.621Z" transform="translate(41.001 32.554)" fill="#fff"/>
    <path id="Path_53" data-name="Path 53" d="M186.81,221.369c3.531-5.027,6.7-9.55,10.037-14.3,5.358,3.931,10.385,7.637,15.691,11.533-3.323,4.888-6.489,9.55-9.881,14.56C197.247,229.128,192.255,225.405,186.81,221.369Z" transform="translate(86.522 50.341)" fill="#fff"/>
    <path id="Path_54" data-name="Path 54" d="M180.522,236.583c-5.793-4.3-11.046-8.193-16.422-12.177,3.027-4.54,5.932-8.907,9.063-13.586,5.758,4.088,11.168,7.915,16.856,11.933C186.819,227.416,183.775,231.851,180.522,236.583Z" transform="translate(69.726 53.114)" fill="#fff"/>
    <path id="Path_55" data-name="Path 55" d="M193.6,246.329c-5.567-4.123-10.594-7.828-15.935-11.777,3.236-4.7,6.28-9.133,9.533-13.882,5.41,3.844,10.594,7.55,16.074,11.464-3.218,4.732-6.332,9.307-9.672,14.212Z" transform="translate(79.762 60.399)" fill="#fff"/>
    <path id="Path_56" data-name="Path 56" d="M161.367,202.211c3.444-4.836,6.576-9.22,9.95-13.951,5.271,3.862,10.281,7.532,15.5,11.359-3.253,4.836-6.315,9.428-9.655,14.4-5.271-3.931-10.333-7.724-15.813-11.812Z" transform="translate(67.693 36.429)" fill="#fff"/>
    <path id="Path_57" data-name="Path 57" d="M110.1,304.931c2.87-4.245,5.5-8.159,8.315-12.351,5.184,3.827,10.142,7.5,15.343,11.342L122.886,320.1c-4.419-5.236-8.611-10.211-12.786-15.186Z" transform="translate(29.789 113.582)" fill="#fff"/>
    <path id="Path_58" data-name="Path 58" d="M182.568,318.16c4.349,3.114,8.28,5.949,12.421,8.907-4,5.915-7.9,11.638-12,17.709-4.123-3.044-8.106-5.984-12.386-9.15,3.653-6.019,8-11.377,11.986-17.465Z" transform="translate(74.534 132.5)" fill="#fff"/>
    <path id="Path_59" data-name="Path 59" d="M157.63,176.651c2.766-3.827,5.288-7.324,8.054-11.151,6.419,4.245,12.351,8.941,18.718,13.551-2.749,3.9-5.358,7.619-8.228,11.707C169.964,186.044,164.014,181.521,157.63,176.651Z" transform="translate(64.941 19.596)" fill="#fff"/>
    <path id="Path_60" data-name="Path 60" d="M168.969,308.577c4.384,3.1,8.333,5.88,12.56,8.854-3.827,5.723-7.585,11.325-11.5,17.17a128.478,128.478,0,0,1-12.821-9.167c3.862-5.532,7.637-10.959,11.759-16.874Z" transform="translate(64.631 125.4)" fill="#fff"/>
    <path id="Path_61" data-name="Path 61" d="M168.17,227.188c-5.671-4.21-10.89-8.106-16.23-12.073,3.114-4.384,5.984-8.454,9.168-12.925,5.514,3.931,10.768,7.689,16.23,11.586-3.149,4.61-6.054,8.837-9.168,13.412Z" transform="translate(60.733 46.731)" fill="#fff"/>
    <path id="Path_62" data-name="Path 62" d="M178.865,294.57c3.984,2.905,7.759,5.671,11.951,8.733-3.914,5.862-7.654,11.464-11.655,17.448-4.192-3.027-8.089-5.828-12.351-8.907,4.071-5.828,8-11.464,12.055-17.274Z" transform="translate(71.731 115.053)" fill="#fff"/>
    <path id="Path_63" data-name="Path 63" d="M152.607,155.94c6.4,4.7,12.438,9.115,18.77,13.743-2.644,3.723-5.2,7.306-7.985,11.22-6.193-4.7-12.142-9.22-18.422-14,2.575-3.705,4.993-7.167,7.619-10.959Z" transform="translate(55.578 12.526)" fill="#fff"/>
    <path id="Path_64" data-name="Path 64" d="M196.417,294.668c-3.966-2.975-7.515-5.619-11.377-8.524,4.21-6.071,8.28-11.933,12.595-18.144,3.636,2.609,7.184,5.149,11.116,7.985-3.827,6.332-8.141,12.194-12.316,18.683Z" transform="translate(85.213 95.403)" fill="#fff"/>
    <path id="Path_65" data-name="Path 65" d="M192.494,304.427c4,2.905,7.672,5.6,11.69,8.524-3.931,5.81-7.706,11.429-11.725,17.361-4-2.87-7.915-5.688-12.16-8.733,4.071-5.723,8.054-11.342,12.177-17.17Z" transform="translate(81.707 122.331)" fill="#fff"/>
    <path id="Path_66" data-name="Path 66" d="M207.742,196.274c-2.957,4.349-5.6,8.246-8.489,12.49-5.549-4.227-10.925-8.3-16.683-12.681,2.679-4.018,5.254-7.9,8.089-12.142,6.019,3.723,11.151,8.072,17.083,12.334Z" transform="translate(83.386 33.234)" fill="#fff"/>
    <path id="Path_67" data-name="Path 67" d="M198.58,296.27c4.418-6.21,8.646-12.16,13.012-18.3,3.688,2.731,7.01,5.184,10.646,7.88-4.21,6.245-8.28,12.281-12.56,18.648-3.862-2.853-7.393-5.48-11.1-8.228Z" transform="translate(95.227 102.776)" fill="#fff"/>
    <path id="Path_68" data-name="Path 68" d="M198.855,290.272c-3.636,5.462-7.01,10.507-10.629,15.952-4.036-2.922-7.88-5.706-11.916-8.646,3.723-5.34,7.2-10.35,10.924-15.708,3.81,2.748,7.463,5.41,11.62,8.4Z" transform="translate(78.757 105.661)" fill="#fff"/>
    <path id="Path_69" data-name="Path 69" d="M171.3,187.307c2.888-4.105,5.5-7.811,8.28-11.777,5.1,3.757,9.95,7.341,15.047,11.1-2.8,4.105-5.41,7.95-8.315,12.212-5.184-3.984-9.95-7.654-15.013-11.533Z" transform="translate(75.051 27.014)" fill="#fff"/>
    <path id="Path_70" data-name="Path 70" d="M220.668,312.833c-3.392-2.505-6.3-4.627-9.568-7.028,3.966-6.349,8.42-12.281,12.716-18.8,3.253,2.366,6.21,4.523,9.428,6.854-4.262,6.436-8.3,12.542-12.56,19Z" transform="translate(104.486 109.455)" fill="#fff"/>
    <path id="Path_71" data-name="Path 71" d="M189.91,307.27c3.758-5.271,7.219-10.142,10.977-15.43,1.914,1.357,3.705,2.592,5.462,3.862,1.792,1.3,3.566,2.644,5.723,4.245-3.357,5.323-6.889,10.4-10.542,15.708-4-2.888-7.776-5.619-11.62-8.4Z" transform="translate(88.815 113.034)" fill="#fff"/>
    <path id="Path_72" data-name="Path 72" d="M203.77,338.591c-3.653-2.644-6.906-4.993-10.49-7.585,3.931-5.741,7.759-11.29,11.846-17.257,3.41,2.453,6.7,4.8,10.211,7.324C211.424,327.006,207.684,332.677,203.77,338.591Z" transform="translate(91.307 129.238)" fill="#fff"/>
    <path id="Path_73" data-name="Path 73" d="M164.038,343.011c-5.184-2.07-10.177-4.071-15.378-6.141,3.566-5.1,6.906-9.863,10.524-15.03,4.227,3.079,8.333,6.054,12.786,9.307-2.453,4.053-5.027,7.9-7.932,11.864Z" transform="translate(58.307 135.221)" fill="#fff"/>
    <path id="Path_74" data-name="Path 74" d="M195.8,327.54c3.723,2.679,6.993,5.027,10.594,7.619l-8.82,13.412c-3.584-.209-7.028-.417-10.42-.609-1.131-.8-2.14-1.531-3.566-2.54,4.018-5.88,7.967-11.672,12.212-17.883Z" transform="translate(84.141 139.437)" fill="#fff"/>
    <path id="Path_75" data-name="Path 75" d="M206.47,191.771c2.679-3.914,5.01-7.324,7.637-11.151,5.1,4.018,9.916,7.828,15.03,11.846-2.5,3.618-4.836,6.993-7.428,10.733-5.149-3.862-9.985-7.5-15.239-11.429Z" transform="translate(101.062 30.779)" fill="#fff"/>
    <path id="Path_76" data-name="Path 76" d="M234.258,321.162c-3.253-1.983-6.193-3.775-9.5-5.775,3.966-6.089,7.811-11.986,11.777-18.057,3.618,1.3,6.193,3.9,9.655,5.915-3.966,5.967-7.863,11.794-11.933,17.918Z" transform="translate(114.589 117.094)" fill="#fff"/>
    <path id="Path_77" data-name="Path 77" d="M219.726,265.047c3.5,2.627,6.663,5.027,10.142,7.637-3.5,5.167-6.819,10.055-10.333,15.239a91.466,91.466,0,0,1-10.455-7.445c3.079-5.341,6.906-10.02,10.646-15.447Z" transform="translate(102.992 93.206)" fill="#fff"/>
    <path id="Path_78" data-name="Path 78" d="M213.339,301c3.479,2.54,6.489,4.732,9.776,7.132-3.427,5.2-6.75,10.263-10.3,15.656-3.323-2.366-6.523-4.645-10.107-7.2,3.549-5.2,6.941-10.194,10.629-15.6Z" transform="translate(98.281 119.794)" fill="#fff"/>
    <path id="Path_79" data-name="Path 79" d="M237.005,316.506c-3.566,5.375-7.045,10.594-10.733,16.161-3.166-1.722-6.28-3.41-9.672-5.236,3.74-5.723,7.393-11.29,11.151-17.03,3.183,2.1,6.176,4.088,9.255,6.123Z" transform="translate(108.554 126.761)" fill="#fff"/>
    <path id="Path_80" data-name="Path 80" d="M218.747,324.07c3.34,2.07,6.158,3.827,9.272,5.758-3.583,5.393-7.028,10.559-10.681,16.074-3.218-1.566-6.158-3.01-9.568-4.68,3.34-5.949,7.254-11.238,10.994-17.152Z" transform="translate(102.024 136.871)" fill="#fff"/>
    <path id="Path_81" data-name="Path 81" d="M240.661,280.777c-3.427,5.167-6.7,10.124-10.263,15.517-3.062-2.244-5.915-4.349-9.168-6.732,3.462-5.114,6.854-10.107,10.49-15.482,3.062,2.3,5.9,4.419,8.941,6.7Z" transform="translate(111.978 99.899)" fill="#fff"/>
    <path id="Path_82" data-name="Path 82" d="M93.89,215.93c4.349,3.166,8.159,5.932,12.229,8.889-3.931,5.445-7.811,10.785-11.9,16.456-1.374-.992-2.557-1.827-4.071-2.922,1.218-7.271,2.418-14.473,3.74-22.423Z" transform="translate(15.035 56.893)" fill="#fff"/>
    <path id="Path_83" data-name="Path 83" d="M244.362,283.99c3.183,2.575,5.984,4.819,9.028,7.271-3.166,4.784-6.21,9.376-9.411,14.195-3.166-2.157-6.106-4.175-9.359-6.384,3.253-5.027,6.4-9.9,9.742-15.065Z" transform="translate(121.881 107.229)" fill="#fff"/>
    <path id="Path_84" data-name="Path 84" d="M135.31,157.855c4.227-2.54,7.9-4.732,11.864-7.115,3.062,2.157,6.071,4.3,9.289,6.576-2.644,3.671-5.149,7.115-7.776,10.785-4.488-3.444-8.663-6.628-13.36-10.246Z" transform="translate(48.434 8.68)" fill="#fff"/>
    <path id="Path_85" data-name="Path 85" d="M99.79,282.617c1.287-.07,1.792-.261,2.035-.087,6.106,4.366,12.194,8.75,18.6,13.377-2.3,3.462-4.419,6.663-6.871,10.333a139.666,139.666,0,0,1-13.76-23.623Z" transform="translate(22.164 106.096)" fill="#fff"/>
    <path id="Path_86" data-name="Path 86" d="M181.48,343.193c-5.584-1.2-10.872-2.314-16.7-3.566,2.018-2.87,3.74-5.323,5.636-8.037,4.262,3.1,8.385,6.106,12.768,9.289C182.611,341.645,182.158,342.254,181.48,343.193Z" transform="translate(70.229 142.432)" fill="#fff"/>
    <path id="Path_87" data-name="Path 87" d="M91.257,256.73c1.374.939,2.1,1.426,3.062,2.088-.557.748-1.009,1.357-1.827,2.47-.435-1.583-.748-2.714-1.253-4.558Z" transform="translate(15.841 87.068)" fill="#fff"/>
  </g>
</svg>
